
<svg width="16" height="16" viewBox="0 0 16 16" fill="none" xmlns="http://www.w3.org/2000/svg">
<path d="M8 2C4.691 2 2 4.691 2 8C2 8.957 2.231 9.902 2.669 10.751L2.027 13.049C1.955 13.31 2.03 13.589 2.219 13.781C2.363 13.922 2.555 14 2.75 14C2.819 14 2.885 13.991 2.951 13.973L5.249 13.331C6.098 13.769 7.046 14 8 14C11.309 14 14 11.309 14 8C14 4.691 11.309 2 8 2ZM11.108 10.211C10.976 10.58 10.328 10.937 10.037 10.964C9.746 10.991 9.473 11.096 8.135 10.568C6.521 9.932 5.501 8.279 5.423 8.171C5.342 8.066 4.775 7.313 4.775 6.53C4.775 5.75 5.186 5.366 5.33 5.207C5.477 5.048 5.648 5.009 5.753 5.009C5.861 5.009 5.966 5.009 6.059 5.012C6.17 5.018 6.296 5.024 6.416 5.288C6.557 5.6 6.866 6.386 6.905 6.467C6.944 6.545 6.971 6.638 6.917 6.743C6.866 6.848 6.839 6.914 6.758 7.007C6.68 7.1 6.593 7.214 6.521 7.286C6.443 7.364 6.359 7.451 6.452 7.61C6.545 7.769 6.863 8.288 7.334 8.708C7.94 9.248 8.45 9.416 8.609 9.497C8.768 9.575 8.861 9.563 8.954 9.455C9.047 9.35 9.35 8.993 9.458 8.834C9.563 8.675 9.668 8.702 9.815 8.756C9.959 8.807 10.739 9.191 10.898 9.272C11.057 9.35 11.162 9.389 11.201 9.455C11.24 9.521 11.24 9.839 11.108 10.211Z" fill="#0C72C6"/>
</svg>
