<?xml version="1.0" encoding="UTF-8"?>
<svg width="15px" height="16px" viewBox="0 0 15 16" version="1.1" xmlns="http://www.w3.org/2000/svg" xmlns:xlink="http://www.w3.org/1999/xlink">
    <!-- Generator: Sketch 40.3 (33839) - http://www.bohemiancoding.com/sketch -->
    <title>Fill 36</title>
    <desc>Created with Sketch.</desc>
    <defs></defs>
    <g id="Page-1" stroke="none" stroke-width="1" fill="none" fill-rule="evenodd">
        <g id="Flyout---Mobile-closed" transform="translate(-251.000000, -17.000000)" fill="#FEFEFE">
            <path d="M253.115219,23.4964516 C253.115219,21.2730645 254.926441,19.4641935 257.152719,19.4641935 C259.378996,19.4641935 261.190219,21.2730645 261.190219,23.4964516 C261.190219,25.7198387 259.378996,27.5287097 257.152719,27.5287097 C254.926441,27.5287097 253.115219,25.7198387 253.115219,23.4964516 M265.260826,29.0109677 L262.524209,26.2779032 C262.962681,25.4464516 263.213814,24.5004839 263.213814,23.4948387 C263.213814,20.19 260.532106,17.5117742 257.222971,17.5117742 C253.913836,17.5117742 251.231321,20.19 251.231321,23.4948387 C251.231321,26.7996774 253.913836,29.4787097 257.222971,29.4787097 C258.064386,29.4787097 258.865426,29.3037097 259.592176,28.9908065 L262.436999,31.8319355 C263.227541,32.6206452 264.485626,32.615 265.264864,31.8359677 C266.050561,31.0512903 266.043294,29.7924194 265.260826,29.0109677" id="Fill-36"></path>
        </g>
    </g>
</svg>