
<svg width="27" height="27" viewBox="0 0 27 27" fill="none" xmlns="http://www.w3.org/2000/svg">
<path d="M16.3054 6.375C17.4042 6.58939 18.4141 7.12679 19.2057 7.91843C19.9973 8.71007 20.5347 9.71992 20.7491 10.8187M16.3054 1.875C18.5883 2.12862 20.7172 3.15095 22.3424 4.77413C23.9676 6.39732 24.9926 8.52489 25.2491 10.8075M24.1241 19.785V23.16C24.1254 23.4733 24.0612 23.7834 23.9357 24.0705C23.8102 24.3576 23.6261 24.6153 23.3952 24.8271C23.1643 25.0389 22.8918 25.2002 22.595 25.3005C22.2982 25.4009 21.9837 25.4382 21.6716 25.41C18.2098 25.0338 14.8845 23.8509 11.9629 21.9563C9.24469 20.229 6.94013 17.9244 5.21288 15.2063C3.31161 12.2714 2.1284 8.92987 1.75913 5.4525C1.73102 5.1414 1.76799 4.82786 1.86769 4.53183C1.9674 4.2358 2.12765 3.96378 2.33824 3.73307C2.54884 3.50237 2.80516 3.31805 3.0909 3.19184C3.37663 3.06563 3.68551 3.00029 3.99788 3H7.37288C7.91885 2.99463 8.44815 3.18796 8.86211 3.54397C9.27608 3.89999 9.54647 4.39438 9.62288 4.935C9.76533 6.01507 10.0295 7.07557 10.4104 8.09625C10.5617 8.49891 10.5945 8.93653 10.5048 9.35724C10.4151 9.77795 10.2066 10.1641 9.90413 10.47L8.47538 11.8987C10.0769 14.7152 12.4089 17.0472 15.2254 18.6487L16.6541 17.22C16.96 16.9175 17.3462 16.7091 17.7669 16.6194C18.1876 16.5296 18.6252 16.5624 19.0279 16.7137C20.0486 17.0946 21.1091 17.3588 22.1891 17.5013C22.7356 17.5783 23.2347 17.8536 23.5915 18.2747C23.9483 18.6958 24.1378 19.2333 24.1241 19.785Z" stroke="white" stroke-width="2.25" stroke-linecap="round" stroke-linejoin="round"/>
</svg>
