<svg height="106" viewBox="0 0 166 106" width="166" xmlns="http://www.w3.org/2000/svg"><g fill="none"><path d="m150.6981 0h-135.8749c-.5659 0-1.1328 0-1.6977.0033-.4775.0034-.9539.0087-1.4303.0217-1.039.0281-2.0869.0894-3.1129.2738-1.0424.1876-2.0124.4936-2.9587.9754-.9303.4731-1.782 1.0919-2.5201 1.8303-.7384.7384-1.3572 1.5887-1.8302 2.52-.4819.9463-.7881 1.9166-.9744 2.9598-.1854 1.0263-.2471 2.074-.2751 3.1119-.0128.4764-.0183.9528-.0214 1.4291-.0033.5661-.0022 1.1318-.0022 1.6989v76.3178c0 .5671-.0011 1.1318.0022 1.699.0031.4763.0086.9527.0214 1.4291.028 1.037.0897 2.0847.2751 3.1107.1863 1.0436.4925 2.0135.9744 2.9599.473.9313 1.0918 1.7827 1.8302 2.52.7381.7396 1.5898 1.3583 2.5201 1.8302.9463.4831 1.9163.7892 2.9587.9767 1.026.1832 2.0739.2456 3.1129.2737.4764.0108.9528.0172 1.4303.0194.5649.0044 1.1318.0044 1.6977.0044h135.8749c.5649 0 1.1318 0 1.6966-.0044.4764-.0022.9528-.0086 1.4314-.0194 1.0368-.0281 2.0845-.0905 3.113-.2737 1.041-.1875 2.0112-.4936 2.9576-.9767.9313-.4719 1.7805-1.0906 2.5201-1.8302.7372-.7373 1.356-1.5887 1.8302-2.52.483-.9464.7889-1.9163.9743-2.9599.1855-1.026.2457-2.0737.2738-3.1107.013-.4764.0194-.9528.0216-1.4291.0044-.5672.0044-1.1319.0044-1.699v-76.3178c0-.5671 0-1.1328-.0044-1.6989-.0022-.4763-.0086-.9527-.0216-1.4291-.0281-1.0379-.0883-2.0856-.2738-3.1119-.1854-1.0432-.4913-2.0135-.9743-2.9598-.4742-.9313-1.093-1.7816-1.8302-2.52-.7396-.7384-1.5888-1.3572-2.5201-1.8303-.9464-.4818-1.9166-.7878-2.9576-.9754-1.0285-.1844-2.0762-.2457-3.113-.2738-.4786-.013-.955-.0183-1.4314-.0217-.5648-.0033-1.1317-.0033-1.6966-.0033z" fill="#fff"/><path d="m150.6981 3.532 1.6715.0032c.4528.0032.9056.0081 1.3609.0205.792.0214 1.7185.0643 2.5821.2191.7507.1352 1.3803.3408 1.9845.6484.5965.3031 1.143.7003 1.6202 1.1768.479.4797.8767 1.0271 1.1838 1.6302.3059.5995.5102 1.2261.6446 1.9823.1544.8542.1971 1.7832.2188 2.5801.0122.4498.0182.8996.0204 1.3601.0043.5569.0042 1.1135.0042 1.6715v76.3178c0 .558.0001 1.1136-.0043 1.6824-.0021.4497-.0081.8995-.0204 1.3501-.0216.7957-.0643 1.7242-.2206 2.5885-.1325.7458-.3367 1.3725-.6443 1.975-.3062.6016-.7033 1.1484-1.1802 1.6251-.4799.48-1.0246.876-1.6282 1.1819-.5997.3061-1.2282.5115-1.9715.6453-.8811.157-1.8464.2002-2.5734.2199-.4574.0103-.9126.0165-1.3789.0187-.5557.0043-1.1134.0042-1.6692.0042h-135.8749c-.0074 0-.0146 0-.0221 0-.5494 0-1.0999 0-1.6593-.0043-.4561-.0021-.9112-.0082-1.3512-.0182-.7436-.0201-1.7095-.0632-2.5834-.2193-.7497-.1348-1.3782-.3402-1.9858-.6503-.5979-.3032-1.1422-.6988-1.6223-1.1797-.4764-.4756-.8723-1.0207-1.1784-1.6232-.3064-.6019-.5114-1.2305-.6462-1.9852-.1558-.8626-.1986-1.7874-.22-2.5777-.0122-.4525-.0173-.9049-.0202-1.3547l-.0022-1.3279.0001-.3506v-76.3178l-.0001-.3506.0021-1.3251c.003-.4525.0081-.9049.0203-1.357.0214-.7911.0642-1.7163.2213-2.5861.1336-.7479.3385-1.3765.6465-1.9814.3037-.5979.7003-1.1437 1.1792-1.6225.477-.4772 1.0231-.8739 1.6248-1.1799.6011-.3061 1.2308-.5116 1.9805-.6465.8638-.1552 1.7909-.198 2.5849-.2195.4526-.0123.9052-.0172 1.3544-.0203l1.6771-.0033z" fill="#fff"/><g fill="#000" transform="translate(20 29)"><path d="m23.5084 6.7697c1.4032-1.755 2.3554-4.1116 2.1043-6.5197-2.0541.1022-4.5606 1.3551-6.0118 3.1116-1.303 1.5041-2.4563 3.9593-2.1557 6.2665 2.3058.2 4.6095-1.1525 6.0632-2.8584m2.0781 3.3089c-3.3486-.1995-6.1956 1.9004-7.7948 1.9004-1.5999 0-4.0487-1.7999-6.6972-1.7514-3.4472.0506-6.6458 1.9997-8.3952 5.0996-3.598 6.2015-.9495 15.4004 2.5494 20.4511 1.6992 2.4988 3.7469 5.2501 6.4452 5.1512 2.5494-.1 3.5486-1.6507 6.6475-1.6507 3.0966 0 3.9967 1.6507 6.6954 1.6007 2.7986-.05 4.5482-2.5 6.2474-5.0011 1.9492-2.8485 2.7471-5.5989 2.7973-5.7499-.0502-.05-5.3964-2.101-5.446-8.2509-.0505-5.1494 4.1974-7.5987 4.3973-7.7506-2.3988-3.5479-6.1469-3.9479-7.4463-4.0484"/><path d="m14.9732.1102c7.278 0 12.3464 5.0168 12.3464 12.3209 0 7.3302-5.1722 12.3733-12.5284 12.3733h-8.0582v12.8142h-5.8225v-37.5084zm-8.2402 19.807h6.6804c5.0689 0 7.9538-2.729 7.9538-7.46 0-4.7305-2.8849-7.434-7.9278-7.434h-6.7064zm22.0311 9.93c0-4.8092 3.6651-7.5645 10.4231-7.9801l7.252-.4423v-2.0792c0-3.0413-2.0015-4.7049-5.5623-4.7049-2.9376 0-5.069 1.5076-5.5107 3.821h-5.2509c.1564-4.8609 4.731-8.3956 10.9175-8.3956 6.6543 0 10.9952 3.4831 10.9952 8.8894v18.6631h-5.3808v-4.4964h-.1298c-1.5337 2.9371-4.913 4.7822-8.5781 4.7822-5.4064 0-9.1752-3.2229-9.1752-8.0572zm17.6751-2.4176v-2.1058l-6.4723.4161c-3.639.2337-5.5362 1.5854-5.5362 3.9509 0 2.2873 1.9754 3.7694 5.0684 3.7694 3.9508 0 6.9401-2.522 6.9401-6.0306zm10.5354 20.2226v-4.4964c.364.0512 1.2475.1033 1.7152.1033 2.5736 0 4.0291-1.091 4.9131-3.8987l.5199-1.6636-9.8516-27.2928h6.0822l6.8624 22.1457h.1298l6.8624-22.1457h5.9268l-10.2156 28.6706c-2.3394 6.5761-5.0168 8.734-10.6834 8.734-.4417 0-1.8716-.0521-2.2612-.1564z" transform="translate(44 3)"/></g></g></svg>