<svg xmlns="http://www.w3.org/2000/svg" xmlns:xlink="http://www.w3.org/1999/xlink" width="24" height="24" viewBox="0 0 24 24">
  <defs>
    <clipPath id="clip-Dashboard">
      <rect width="24" height="24"/>
    </clipPath>
  </defs>
  <g id="Dashboard" clip-path="url(#clip-Dashboard)">
    <g id="Group_2073" data-name="Group 2073" transform="translate(-0.441 0.117)">
      <g id="Group_2066" data-name="Group 2066" transform="translate(13370.779 24082.678)">
        <ellipse id="Ellipse_125" data-name="Ellipse 125" cx="9.559" cy="9.559" rx="9.559" ry="9.559" transform="translate(-13368.338 -24080.795)" fill="#ffba76"/>
        <g id="Group_1861" data-name="Group 1861" transform="translate(-13368.338 -24080.08)">
          <path id="Path_1157" data-name="Path 1157" d="M10.559,20.225a9.3,9.3,0,0,1-3.737-.782A9.506,9.506,0,0,1,1.783,6.93,9.376,9.376,0,0,1,6.736,1.89a.856.856,0,1,1,.7,1.564A8.3,8.3,0,0,0,3.347,7.625,7.825,7.825,0,0,0,7.518,17.879a7.568,7.568,0,0,0,6,0,7.713,7.713,0,0,0,4.258-4.171.856.856,0,1,1,1.564.7,9.433,9.433,0,0,1-5.214,5.127A10,10,0,0,1,10.559,20.225Z" transform="translate(-1.006 -1.823)" fill="#ff8812"/>
        </g>
        <path id="Path_1362" data-name="Path 1362" d="M-13351.814-24079.1v8.543h8.667l-.441-2.465-1.288-2.4-1.351-1.449-1.653-1.2-2.292-.834Z" transform="translate(-6.738 -0.694)" fill="#ffd8b1"/>
        <g id="Group_1862" data-name="Group 1862" transform="translate(-13359.653 -24080.795)">
          <path id="Path_1158" data-name="Path 1158" d="M20.559,11.428h-8.69A.821.821,0,0,1,11,10.559V1.869A.821.821,0,0,1,11.869,1a9.531,9.531,0,0,1,9.559,9.559A.821.821,0,0,1,20.559,11.428ZM12.738,9.69H19.6a7.762,7.762,0,0,0-6.865-6.865Z" transform="translate(-11 -1)" fill="#ff8812"/>
        </g>
      </g>
    </g>
  </g>
</svg>
