<svg width="65" height="20" viewBox="0 0 65 20" fill="none" xmlns="http://www.w3.org/2000/svg">
    <path
            d="M9.19142 1.12282C9.93717 0.40256 10.9335 0 11.9702 0L65 0V10V20H11.9702C10.9335 20 9.93717 19.5974 9.19142 18.8772L2.97903 12.8772C1.35078 11.3046 1.35079 8.6954 2.97903 7.12282L9.19142 1.12282Z"
            fill="#F3ECF7"></path>
    <rect x="10.5355" y="6.46448" width="5" height="5" rx="1" transform="rotate(45 10.5355 6.46448)" fill="#6300a3">
    </rect>
    <path
            d="M24.431 14H26.111L22.763 5.996H21.539L18.095 14H19.787L20.495 12.32H23.723L24.431 14ZM20.987 11.048L22.127 8.168L23.267 11.048H20.987ZM30.3815 9.188C29.7215 8.684 29.1095 8.636 28.7255 8.636C28.3055 8.636 27.7775 8.684 27.3695 9.008C27.0695 9.26 26.8295 9.68 26.8295 10.184C26.8295 10.604 26.9855 10.928 27.2255 11.18C27.5375 11.504 27.9695 11.672 28.3415 11.804L28.6775 11.924C28.8695 11.996 29.1335 12.128 29.1335 12.452C29.1335 12.812 28.8215 13.016 28.4135 13.016C27.9815 13.016 27.5495 12.752 27.2615 12.416L26.4935 13.304C26.8175 13.652 27.4295 14.168 28.5095 14.168C29.1455 14.168 29.6495 14 30.0695 13.616C30.4895 13.232 30.6455 12.764 30.6455 12.296C30.6455 11.96 30.5375 11.648 30.3815 11.432C30.0815 11.024 29.4695 10.82 29.0615 10.688L28.7135 10.58C28.3055 10.448 28.2455 10.244 28.2455 10.112C28.2455 9.86 28.4615 9.692 28.8095 9.692C28.9655 9.692 29.3135 9.716 29.6615 10.04L30.3815 9.188ZM34.9987 9.188C34.3387 8.684 33.7267 8.636 33.3427 8.636C32.9227 8.636 32.3947 8.684 31.9867 9.008C31.6867 9.26 31.4467 9.68 31.4467 10.184C31.4467 10.604 31.6027 10.928 31.8427 11.18C32.1547 11.504 32.5867 11.672 32.9587 11.804L33.2947 11.924C33.4867 11.996 33.7507 12.128 33.7507 12.452C33.7507 12.812 33.4387 13.016 33.0307 13.016C32.5987 13.016 32.1667 12.752 31.8787 12.416L31.1107 13.304C31.4347 13.652 32.0467 14.168 33.1267 14.168C33.7627 14.168 34.2667 14 34.6867 13.616C35.1067 13.232 35.2627 12.764 35.2627 12.296C35.2627 11.96 35.1547 11.648 34.9987 11.432C34.6987 11.024 34.0867 10.82 33.6787 10.688L33.3307 10.58C32.9227 10.448 32.8627 10.244 32.8627 10.112C32.8627 9.86 33.0787 9.692 33.4267 9.692C33.5827 9.692 33.9307 9.716 34.2787 10.04L34.9987 9.188ZM36.2983 8.804V11.984C36.2983 12.452 36.3583 13.076 36.9343 13.58C37.4143 14 38.1823 14.168 38.8183 14.168C39.4543 14.168 40.2223 14 40.7023 13.58C41.2783 13.076 41.3383 12.452 41.3383 11.984V8.804H39.8743V11.744C39.8743 12.02 39.8503 12.392 39.5623 12.656C39.3823 12.812 39.0943 12.92 38.8183 12.92C38.5423 12.92 38.2543 12.812 38.0743 12.656C37.7863 12.392 37.7623 12.02 37.7623 11.744V8.804H36.2983ZM42.7319 14H44.1959V11.504C44.1959 11.144 44.2079 10.7 44.4839 10.352C44.7719 9.992 45.1799 9.932 45.4559 9.932C45.7559 9.932 45.9479 9.992 46.1399 10.124L46.3319 8.756C46.1639 8.696 45.9599 8.636 45.7079 8.636C45.3599 8.636 45.0719 8.72 44.8439 8.864C44.7359 8.924 44.4239 9.14 44.1959 9.584V8.804H42.7319V14ZM50.5543 12.332C50.3143 12.752 49.8943 13.016 49.3423 13.016C48.7783 13.016 48.4543 12.74 48.2983 12.524C48.1303 12.296 48.0463 11.96 48.0463 11.648H51.9343V11.528C51.9343 10.964 51.8623 10.148 51.3103 9.488C50.9503 9.056 50.3383 8.636 49.2823 8.636C48.6583 8.636 47.9383 8.768 47.3263 9.368C46.9543 9.74 46.5343 10.376 46.5343 11.408C46.5343 12.224 46.7743 12.896 47.3503 13.436C47.8663 13.928 48.5023 14.168 49.3423 14.168C51.1543 14.168 51.7423 12.932 51.8983 12.548L50.5543 12.332ZM48.0943 10.712C48.2143 10.016 48.7783 9.668 49.3183 9.668C49.8583 9.668 50.4343 10.004 50.5543 10.712H48.0943ZM57.0518 9.476C56.5598 8.708 55.7798 8.636 55.3838 8.636C53.8478 8.636 52.8038 9.86 52.8038 11.396C52.8038 12.92 53.8598 14.168 55.4558 14.168C55.8278 14.168 56.5238 14.084 57.0518 13.328V14H58.5158V5.252H57.0518V9.476ZM55.7558 9.932C56.5958 9.932 57.1958 10.568 57.1958 11.396C57.1958 12.224 56.5958 12.872 55.7558 12.872C54.9158 12.872 54.3158 12.224 54.3158 11.396C54.3158 10.568 54.9158 9.932 55.7558 9.932Z"
            fill="#6300a3"></path>
</svg>