<svg width="64" height="8" viewBox="0 0 64 8" fill="none" xmlns="http://www.w3.org/2000/svg">
<path fill-rule="evenodd" clip-rule="evenodd" d="M60.0938 7.89041V4.54795L63.2335 0H61.2241L59.1519 3.06849L57.0797 0H55.0075L58.1472 4.54795V7.89041H60.0938ZM49.1676 7.89041V1.42466H51.8678V0H44.5209V1.42466H47.221V7.83562H49.1676V7.89041ZM36.9856 8C39.4974 8 40.6277 6.79452 40.6277 4.87671V0H38.681V4.82192C38.681 5.9726 38.1787 6.57534 37.0484 6.57534C35.9181 6.57534 35.353 5.91781 35.353 4.82192V0H33.3436V4.87671C33.3436 6.79452 34.4739 8 36.9856 8ZM23.1082 7.89041L23.7989 6.13699H26.8758L27.5665 7.89041H29.5759L26.3734 0H24.4896L21.2871 7.89041H23.1082ZM25.3687 2.19178L26.4362 4.87671H24.3012L25.3687 2.19178ZM17.8335 7.89041V6.46575H13.4379V4.49315H16.452V3.12329H13.4379V1.42466H17.5823V0H11.4285V7.89041H17.8335ZM1.94661 4.49315H3.45366C4.52116 4.49315 5.1491 4.82192 5.1491 5.53425C5.1491 6.24658 4.64675 6.57534 3.57925 6.57534H2.0094V4.49315H1.94661ZM1.94661 1.31507H3.45366C4.52116 1.31507 4.96072 1.64384 4.96072 2.24658C4.96072 2.84932 4.45837 3.17808 3.45366 3.17808H2.0094V1.31507H1.94661ZM3.76763 7.89041C5.46307 7.89041 7.03292 7.28767 7.03292 5.69863C7.03292 4.43836 6.1538 3.94521 5.08631 3.78082C6.1089 3.66163 6.85034 2.87086 6.78174 1.9726C6.78174 0.383562 5.21189 0 3.57925 0H0V7.89041H3.76763Z" fill="#221D1D"/>
</svg>
