<?xml version="1.0" encoding="UTF-8"?>
<svg width="24px" height="25px" viewBox="0 0 24 25" version="1.1" xmlns="http://www.w3.org/2000/svg" xmlns:xlink="http://www.w3.org/1999/xlink">
    <!-- Generator: Sketch 41.1 (35376) - http://www.bohemiancoding.com/sketch -->
    <title>Stroke 165 + Stroke 166</title>
    <desc>Created with Sketch.</desc>
    <defs></defs>
    <g id="Page-1" stroke="none" stroke-width="1" fill="none" fill-rule="evenodd" stroke-linejoin="round">
        <g id="Flyout-A---Support" transform="translate(-236.000000, -480.000000)" stroke="#000000">
            <g id="Group-2" transform="translate(236.000000, 476.000000)">
                <g id="Stroke-165-+-Stroke-166" transform="translate(0.000000, 5.000000)">
                    <path d="M7.4404,14.1102305 C6.9514,14.0430273 6.4684,13.9361133 6.0004,13.7905065 L1.0004,15.8269648 L3.0004,12.2631628 C1.4264,10.9822305 0.5004,9.08119661 0.5004,7.10583203 C0.5004,3.20703255 4.3054,0.0444127604 9.0004,0.0444127604 C13.6944,0.0444127604 17.5004,3.20703255 17.5004,7.10583203" id="Stroke-165"></path>
                    <path d="M9.5,15.827474 C9.5,20.1936406 14.5,23.4641927 19,21.4277344 L23,22.9550781 L21.5,19.9003906 C22.796,18.844487 23.5,17.4546042 23.5,15.827474 C23.5,12.6159792 20.366,9.71809896 16.5,9.71809896 C12.634,9.71809896 9.5,12.6159792 9.5,15.827474 L9.5,15.827474 Z" id="Stroke-166"></path>
                </g>
            </g>
        </g>
    </g>
</svg>