<svg width="20" height="20" viewBox="0 0 20 20" fill="none" xmlns="http://www.w3.org/2000/svg">
<path fill-rule="evenodd" clip-rule="evenodd" d="M14.4567 6.56869C14.4567 9.02999 12.4614 11.0253 10.0001 11.0253C7.53883 11.0253 5.54355 9.02999 5.54355 6.56869C5.54355 4.10739 7.53883 2.11211 10.0001 2.11211C12.4614 2.11211 14.4567 4.10739 14.4567 6.56869ZM12.6929 11.5445C14.4581 10.5872 15.6567 8.7179 15.6567 6.56869C15.6567 3.44465 13.1242 0.912109 10.0001 0.912109C6.87609 0.912109 4.34355 3.44465 4.34355 6.56869C4.34355 8.71789 5.54216 10.5871 7.30737 11.5444C4.20963 12.6503 1.99268 15.6102 1.99268 19.0879H3.19268C3.19268 15.3282 6.24046 12.2804 10.0001 12.2804C13.7597 12.2804 16.8075 15.3282 16.8075 19.0879H18.0075C18.0075 15.6102 15.7906 12.6504 12.6929 11.5445Z" fill="#4E3844"/>
</svg>
