<svg xmlns="http://www.w3.org/2000/svg" width="24.331" height="24.331" viewBox="0 0 24.331 24.331">
  <path id="P-Badge-Mochimalist-White-000" d="M12.16,0A12.164,12.164,0,0,0,7.727,23.49,11.708,11.708,0,0,1,7.767,20c.22-.951,1.421-6.045,1.421-6.045a4.43,4.43,0,0,1-.36-1.8c0-1.691.981-2.952,2.2-2.952a1.528,1.528,0,0,1,1.541,1.711,24.044,24.044,0,0,1-1.011,4.053,1.769,1.769,0,0,0,1.8,2.2c2.162,0,3.823-2.282,3.823-5.565A4.8,4.8,0,0,0,12.1,6.656,5.263,5.263,0,0,0,6.606,11.93a4.747,4.747,0,0,0,.9,2.772.362.362,0,0,1,.08.35c-.09.38-.3,1.211-.34,1.381-.05.22-.18.27-.41.16-1.5-.721-2.442-2.942-2.442-4.724,0-3.833,2.782-7.356,8.037-7.356,4.214,0,7.5,3,7.5,7.026,0,4.194-2.642,7.566-6.305,7.566a3.231,3.231,0,0,1-2.782-1.4L10.078,20.6A13.248,13.248,0,0,1,8.567,23.79,12.167,12.167,0,1,0,12.16,0Z" fill="#a0a0a0"/>
</svg>
