<svg id="Layer_1" data-name="Layer 1" xmlns="http://www.w3.org/2000/svg" viewBox="0 0 200 200"><defs><style>.cls-1{fill:#f4f4f4;}.cls-2{fill:#d2d2d2;stroke:#d2d2d2;stroke-miterlimit:10;stroke-width:2px;}</style></defs><title>Artboard 1 copy 2</title><path class="cls-1" d="M135.69,130.21l8.29-1.39s-8.66,9.5-19.82,13.62c-13.81,5.1-14.2-3.33-14.33-7.41-.05-1.72-.38-12.32-.75-24l-12.28,6.86c-.27,8.74-.49,15.79-.54,17.17-.13,4.09-.52,12.51-14.33,7.41a51.48,51.48,0,0,1-14.13-8.38l-10.68,6c8.52,11.74,22.73,17.21,29.34,18.9C97.7,161.78,103,171.76,103,171.76s5.35-10,16.57-12.84S164,142.31,154,105.48C154,105.48,152.16,115.32,135.69,130.21Z"/><path class="cls-2" d="M98,169.86a1.1,1.1,0,0,1-1-.58c-.05-.1-5.28-9.6-15.87-12.29a61.61,61.61,0,0,1-13.51-5.4,1.1,1.1,0,0,1,1-1.93,59.3,59.3,0,0,0,13,5.2C90.7,157.13,96,163.65,98,166.68c2-3,7.35-9.54,16.3-11.82,3.56-.91,21.8-6.24,30.69-21.48,4.54-7.78,5.79-16.86,3.74-27-1.75,3.87-5.73,10.58-14.66,19.17l4.68-.79a1.1,1.1,0,0,1,1,1.83c-.36.4-9,9.74-20.25,13.91-5.64,2.08-9.69,2.21-12.37.4-3.23-2.18-3.36-6.49-3.43-8.81l-.18-5.63a1.1,1.1,0,0,1,1.07-1.13,1.12,1.12,0,0,1,1.13,1.07l.18,5.63c.06,2.06.17,5.51,2.46,7.06,2,1.37,5.52,1.15,10.38-.64,7.35-2.71,13.65-7.88,16.95-10.92l-4.85.81a1.1,1.1,0,0,1-.92-1.9c15.91-14.38,17.93-24,17.95-24.12a1.1,1.1,0,0,1,1-.89,1.12,1.12,0,0,1,1.1.81c3.31,12.22,2.26,23.08-3.11,32.29-9.33,16-28.33,21.55-32,22.5-10.63,2.71-15.82,12.2-15.87,12.29a1.1,1.1,0,0,1-1,.58ZM84.27,142.14a22.91,22.91,0,0,1-7.71-1.67C65.28,136.31,56.67,127,56.31,126.57a1.1,1.1,0,0,1,1-1.83l4.68.79c-8.92-8.59-12.91-15.3-14.65-19.17-2,9.91-.86,18.79,3.4,26.43a1.1,1.1,0,0,1-1.92,1.07c-5.06-9.08-6-19.73-2.75-31.66a1.1,1.1,0,0,1,2.14.09c0,.09,2,9.73,17.95,24.12a1.1,1.1,0,0,1-.92,1.9l-4.85-.81c3.29,3,9.6,8.21,16.95,10.92,4.86,1.79,8.35,2,10.38.64,2.29-1.54,2.4-5,2.46-7.06L92,74.85H79.56a7.49,7.49,0,0,1-6.68,4.06,7.55,7.55,0,1,1,0-15.1,7.45,7.45,0,0,1,6.07,3.11H92.19l.3-9.29a15.16,15.16,0,0,1,5.2-29.39h.72a1.1,1.1,0,0,1,0,2.2h-.72A13,13,0,0,0,93.93,55.8a1.1,1.1,0,0,1,.78,1.09l-.36,11.18a1.1,1.1,0,0,1-1.1,1.06H78.36a1.1,1.1,0,0,1-.94-.53A5.29,5.29,0,0,0,72.88,66a5.35,5.35,0,1,0,5,7.33,1.1,1.1,0,0,1,1-.69H93.09a1.1,1.1,0,0,1,1.1,1.13l-1.82,58.27c-.07,2.32-.21,6.64-3.43,8.81A8.15,8.15,0,0,1,84.27,142.14ZM104,106.58a1.1,1.1,0,0,1-1.1-1.07l-1-31.73a1.1,1.1,0,0,1,1.1-1.13h14.23a1.1,1.1,0,0,1,1,.69,5.3,5.3,0,0,0,5,3.37,5.35,5.35,0,1,0,0-10.7,5.29,5.29,0,0,0-4.54,2.58,1.1,1.1,0,0,1-.94.53h-14.9a1.1,1.1,0,0,1-1.1-1.06l-.36-11.18a1.1,1.1,0,0,1,.78-1.09,12.88,12.88,0,0,0,9.21-12.4,1.1,1.1,0,1,1,2.2,0,15.06,15.06,0,0,1-10,14.24l.3,9.29h13.24a7.46,7.46,0,0,1,6.07-3.11,7.55,7.55,0,1,1-6.68,11H104.15l1,30.59a1.1,1.1,0,0,1-1.07,1.13ZM98.43,49.84l-.37,0-.39,0a.79.79,0,0,1,0-1.57h.44l.33,0a5,5,0,1,0,0-10.09h-.76a5.05,5.05,0,0,0-5,5,.79.79,0,1,1-1.57,0,6.63,6.63,0,0,1,6.62-6.62l.37,0,.39,0a6.62,6.62,0,1,1,0,13.24Z"/></svg>