<svg xmlns="http://www.w3.org/2000/svg" width="18.348" height="16.251" viewBox="0 0 18.348 16.251"><defs><style>.a{fill:#b7b7b7;}</style></defs><g transform="translate(-4384.125 -1716.838)"><path class="a" d="M4452.305,1775.645h-3.525a.917.917,0,1,1,0-1.834h2.608V1771.2a.917.917,0,0,1,1.834,0v3.526A.917.917,0,0,1,4452.305,1775.645Z" transform="translate(-50.75 -42.557)"></path><path class="a" d="M4447.865,1788.5a.917.917,0,0,1,.917-.919h0a.919.919,0,0,1,.917.919h0a.917.917,0,0,1-.917.915h0A.916.916,0,0,1,4447.865,1788.5Z" transform="translate(-50.752 -56.327)"></path><path class="a" d="M4388.569,1775.645h-3.525a.917.917,0,0,1-.917-.917V1771.2a.917.917,0,0,1,1.834,0v2.609h2.608a.917.917,0,1,1,0,1.834Z" transform="translate(-0.002 -42.557)"></path><path class="a" d="M4384.125,1771.208a.917.917,0,0,1,.917-.917h0a.916.916,0,0,1,.917.917h0a.915.915,0,0,1-.917.915h0A.917.917,0,0,1,4384.125,1771.208Z" transform="translate(0 -42.561)"></path><path class="a" d="M4385.044,1722.2a.917.917,0,0,1-.917-.917v-3.525a.917.917,0,0,1,.917-.917h3.525a.917.917,0,0,1,0,1.834h-2.608v2.608A.917.917,0,0,1,4385.044,1722.2Z" transform="translate(-0.002)"></path><path class="a" d="M4401.425,1717.757a.917.917,0,0,1,.917-.917h0a.916.916,0,0,1,.917.917h0a.917.917,0,0,1-.917.917h0A.918.918,0,0,1,4401.425,1717.757Z" transform="translate(-13.775 -0.001)"></path><path class="a" d="M4452.305,1722.2a.917.917,0,0,1-.917-.917v-2.608h-2.608a.917.917,0,0,1,0-1.834h3.525a.917.917,0,0,1,.917.917v3.525A.917.917,0,0,1,4452.305,1722.2Z" transform="translate(-50.75)"></path><path class="a" d="M4465.165,1735.057a.916.916,0,0,1,.917-.917h0a.917.917,0,0,1,.917.917h0a.918.918,0,0,1-.917.917h0A.917.917,0,0,1,4465.165,1735.057Z" transform="translate(-64.526 -13.776)"></path></g></svg>