<svg xmlns="http://www.w3.org/2000/svg" width="18" height="34" viewBox="0 0 18 34" fill="none">
    <path d="M8.80111 21.9997C8.47147 21.9997 8.14924 22.0974 7.87516 22.2806C7.60107 22.4637 7.38745 22.724 7.26131 23.0285C7.13516 23.3331 7.10216 23.6682 7.16646 23.9915C7.23077 24.3148 7.38951 24.6118 7.6226 24.8449C7.85568 25.0779 8.15266 25.2367 8.47596 25.301C8.79926 25.3653 9.13437 25.3323 9.43891 25.2061C9.74346 25.08 10.0038 24.8664 10.1869 24.5923C10.37 24.3182 10.4678 23.996 10.4678 23.6663C10.4678 23.2243 10.2922 22.8004 9.97962 22.4878C9.66706 22.1753 9.24313 21.9997 8.80111 21.9997ZM15.6678 1.79967C14.731 0.861725 13.4601 0.334175 12.1344 0.333008H5.46777C4.14169 0.333008 2.86992 0.859792 1.93224 1.79747C0.994558 2.73516 0.467773 4.00693 0.467773 5.33301V28.6663C0.467773 29.9924 0.994558 31.2642 1.93224 32.2019C2.86992 33.1396 4.14169 33.6663 5.46777 33.6663H12.1344C13.4605 33.6663 14.7323 33.1396 15.67 32.2019C16.6077 31.2642 17.1344 29.9924 17.1344 28.6663V5.33301C17.1333 4.00737 16.6057 2.73646 15.6678 1.79967ZM5.46777 3.66634C5.79741 3.66634 6.11964 3.76409 6.39372 3.94723C6.66781 4.13036 6.88143 4.39066 7.00757 4.6952C7.13372 4.99975 7.16672 5.33486 7.10242 5.65816C7.03811 5.98146 6.87937 6.27843 6.64628 6.51152C6.4132 6.74461 6.11623 6.90334 5.79292 6.96765C5.46962 7.03196 5.13451 6.99895 4.82997 6.87281C4.52542 6.74666 4.26513 6.53304 4.08199 6.25896C3.89886 5.98488 3.80111 5.66264 3.80111 5.33301C3.80111 4.89098 3.9767 4.46706 4.28926 4.1545C4.60182 3.84194 5.02575 3.66634 5.46777 3.66634ZM5.46777 10.333C5.79741 10.333 6.11964 10.4308 6.39372 10.6139C6.66781 10.797 6.88143 11.0573 7.00757 11.3619C7.13372 11.6664 7.16672 12.0015 7.10242 12.3248C7.03811 12.6481 6.87937 12.9451 6.64628 13.1782C6.4132 13.4113 6.11623 13.57 5.79292 13.6343C5.46962 13.6986 5.13451 13.6656 4.82997 13.5395C4.52542 13.4133 4.26513 13.1997 4.08199 12.9256C3.89886 12.6515 3.80111 12.3293 3.80111 11.9997C3.80111 11.5576 3.9767 11.1337 4.28926 10.8212C4.60182 10.5086 5.02575 10.333 5.46777 10.333ZM8.80111 28.6663C7.8122 28.6663 6.8455 28.3731 6.02326 27.8237C5.20101 27.2743 4.56015 26.4934 4.18171 25.5798C3.80327 24.6661 3.70425 23.6608 3.89718 22.6909C4.09011 21.721 4.56631 20.8301 5.26557 20.1308C5.96484 19.4315 6.85575 18.9553 7.82566 18.7624C8.79556 18.5695 9.80089 18.6685 10.7145 19.0469C11.6282 19.4254 12.409 20.0662 12.9585 20.8885C13.5079 21.7107 13.8011 22.6774 13.8011 23.6663C13.8011 24.9924 13.2743 26.2642 12.3366 27.2019C11.399 28.1396 10.1272 28.6663 8.80111 28.6663ZM12.1344 13.6663C11.8048 13.6663 11.4826 13.5686 11.2085 13.3855C10.9344 13.2023 10.7208 12.942 10.5946 12.6375C10.4685 12.3329 10.4355 11.9978 10.4998 11.6745C10.5641 11.3512 10.7228 11.0543 10.9559 10.8212C11.189 10.5881 11.486 10.4293 11.8093 10.365C12.1326 10.3007 12.4677 10.3337 12.7722 10.4599C13.0768 10.586 13.3371 10.7996 13.5202 11.0737C13.7034 11.3478 13.8011 11.67 13.8011 11.9997C13.8011 12.4417 13.6255 12.8656 13.313 13.1782C13.0004 13.4907 12.5765 13.6663 12.1344 13.6663ZM12.1344 6.99967C11.8048 6.99967 11.4826 6.90193 11.2085 6.71879C10.9344 6.53566 10.7208 6.27536 10.5946 5.97081C10.4685 5.66627 10.4355 5.33116 10.4998 5.00786C10.5641 4.68456 10.7228 4.38758 10.9559 4.1545C11.189 3.92141 11.486 3.76267 11.8093 3.69837C12.1326 3.63406 12.4677 3.66706 12.7722 3.79321C13.0768 3.91935 13.3371 4.13298 13.5202 4.40706C13.7034 4.68114 13.8011 5.00337 13.8011 5.33301C13.8011 5.77504 13.6255 6.19896 13.313 6.51152C13.0004 6.82408 12.5765 6.99967 12.1344 6.99967Z"
          fill="#0F3CC9"></path>
</svg>