<svg xmlns="http://www.w3.org/2000/svg" width="34" height="70" fill="none" xmlns:v="https://vecta.io/nano"><path d="M23.01 63.767c1 .083 2.031.354 3.094.812s1.969 1.052 2.719 1.781c.5.5.479.958-.062 1.375-.833.667-1.812 1.146-2.937 1.438-1.125.313-2.198.406-3.219.281-1-.083-2.031-.365-3.094-.844s-1.969-1.073-2.719-1.781c-.583-.583-.521-1.104.188-1.562.833-.521 1.802-.927 2.906-1.219 1.104-.271 2.146-.365 3.125-.281zm6.594-10.781c.479-.687.99-.719 1.531-.094.688.75 1.261 1.656 1.719 2.719.479 1.063.75 2.094.813 3.094.104 1.042-.021 2.125-.375 3.25s-.875 2.073-1.563 2.844c-.458.542-.906.552-1.344.031-.687-.708-1.26-1.604-1.719-2.687-.437-1.062-.687-2.115-.75-3.156-.042-.979.083-2.021.375-3.125.313-1.104.75-2.062 1.313-2.875zm-15.469 2.219c.958.313 1.885.833 2.781 1.563s1.604 1.542 2.125 2.438c.375.583.24 1.01-.406 1.281-.979.438-2.052.667-3.219.688-1.167.042-2.229-.135-3.187-.531-.937-.354-1.865-.906-2.781-1.656-.896-.729-1.604-1.531-2.125-2.406-.417-.708-.24-1.187.531-1.437.958-.312 2.01-.458 3.156-.437 1.146 0 2.188.167 3.125.5zm9.094-8.719c.646-.583 1.146-.5 1.5.25.458.896.771 1.927.938 3.094.188 1.146.188 2.208 0 3.188-.167 1.042-.562 2.063-1.187 3.063-.625.979-1.354 1.76-2.187 2.344-.604.417-1.052.302-1.344-.344-.479-.875-.802-1.886-.969-3.031-.146-1.146-.115-2.219.094-3.219.208-.958.594-1.927 1.156-2.906.583-1 1.25-1.812 2-2.437zM.447 42.955c-.104-.792.25-1.156 1.062-1.094.979.083 1.99.375 3.031.875 1.042.479 1.917 1.063 2.625 1.75.75.646 1.385 1.479 1.906 2.5.542 1.021.875 2.052 1 3.094.083.729-.229 1.083-.937 1.063-1.042-.021-2.104-.25-3.187-.687s-1.979-1.042-2.688-1.812c-.729-.687-1.354-1.552-1.875-2.594-.521-1.062-.833-2.094-.937-3.094zm18.625-2.812c.792-.25 1.198.042 1.219.875.104 1 0 2.063-.312 3.188-.312 1.104-.75 2.073-1.312 2.906-.542.896-1.302 1.667-2.281 2.313s-1.979 1.083-3 1.313c-.708.104-1.094-.187-1.156-.875-.062-1.021.063-2.083.375-3.187.313-1.125.771-2.094 1.375-2.906.583-.792 1.344-1.521 2.281-2.187s1.875-1.146 2.813-1.437zm-5.625-7.312c.75-.625 1.656-1.136 2.719-1.531 1.083-.417 2.135-.646 3.156-.687.792-.021 1.125.365 1 1.156-.187 1-.583 2.01-1.187 3.031-.583 1-1.26 1.823-2.031 2.469-.75.708-1.687 1.26-2.812 1.656-1.125.375-2.208.531-3.25.469-.667-.042-.948-.406-.844-1.094.188-1 .573-2 1.156-3 .604-1 1.302-1.823 2.094-2.469zM.541 28.58c.104-.833.542-1.094 1.312-.781.937.354 1.844.896 2.719 1.625.896.708 1.604 1.479 2.125 2.313.542.875.938 1.885 1.188 3.031.271 1.125.333 2.167.188 3.125-.083.729-.469 1-1.156.813-1.021-.25-2-.729-2.938-1.437-.917-.729-1.625-1.542-2.125-2.437-.542-.896-.937-1.906-1.187-3.031C.437 30.653.395 29.58.541 28.58zm14.719-6.406c.917-.354 1.948-.531 3.094-.531 1.146-.021 2.198.125 3.156.438.75.271.927.729.531 1.375-.479.875-1.177 1.698-2.094 2.469-.896.75-1.833 1.313-2.812 1.688s-2.062.563-3.25.563c-1.167-.021-2.219-.25-3.156-.687-.646-.312-.781-.76-.406-1.344.521-.875 1.229-1.667 2.125-2.375.896-.729 1.833-1.26 2.813-1.594zM4.572 13.736c.396-.708.896-.812 1.5-.312.75.646 1.417 1.469 2 2.469.604.979 1.01 1.958 1.219 2.937.229.979.26 2.052.094 3.219-.146 1.146-.458 2.156-.937 3.031-.333.625-.781.74-1.344.344-.854-.583-1.594-1.365-2.219-2.344-.625-1-1.031-2.01-1.219-3.031-.187-.979-.198-2.042-.031-3.187.167-1.167.479-2.208.938-3.125zm16.469-.719c1-.208 2.063-.229 3.188-.062 1.125.146 2.135.438 3.031.875.729.333.844.823.344 1.469-.646.771-1.469 1.458-2.469 2.063-.979.604-1.969 1.021-2.969 1.25-1 .271-2.083.323-3.25.156-1.146-.187-2.156-.552-3.031-1.094-.583-.396-.667-.854-.25-1.375.625-.812 1.427-1.521 2.406-2.125 1-.604 2-.99 3-1.156zm-9.375-9.875c.479-.646 1-.667 1.563-.062.646.75 1.188 1.656 1.625 2.719.458 1.063.719 2.083.781 3.063.083 1-.042 2.062-.375 3.187-.312 1.104-.76 2.073-1.344 2.906-.396.583-.865.625-1.406.125-.771-.708-1.396-1.594-1.875-2.656-.479-1.083-.729-2.135-.75-3.156-.062-.979.073-2.031.406-3.156.333-1.146.792-2.135 1.375-2.969zM28.291.017c.813-.104 1.188.26 1.125 1.094-.125 1-.437 2.031-.937 3.094-.479 1.063-1.062 1.938-1.75 2.625-.729.792-1.625 1.427-2.687 1.906-1.042.479-2.083.74-3.125.781-.687.021-1-.312-.937-1 .083-1 .365-2.021.844-3.062.5-1.062 1.104-1.948 1.813-2.656.708-.687 1.583-1.281 2.625-1.781 1.042-.521 2.052-.854 3.031-1z" fill="#000" fill-opacity=".9"/></svg>