<svg xmlns="http://www.w3.org/2000/svg" width="30.117" height="26.274" viewBox="0 0 30.117 26.274">
  <g id="Group_2033" data-name="Group 2033" transform="translate(0.644 -2)">
    <g id="Group_2032" data-name="Group 2032" transform="translate(-0.644 6.277)">
      <path id="Path_1344" data-name="Path 1344" d="M26.242,14.277,22.575,10.61H17.687V4.5H-.644V20.387H26.242Z" transform="translate(0.644 -4.5)" fill="#e5cdcd"/>
      <circle id="Ellipse_277" data-name="Ellipse 277" cx="3.055" cy="3.055" r="3.055" transform="translate(2.444 15.887)" fill="#e5cdcd"/>
      <circle id="Ellipse_278" data-name="Ellipse 278" cx="3.055" cy="3.055" r="3.055" transform="translate(18.331 15.887)" fill="#e5cdcd"/>
    </g>
    <path id="Path_1345" data-name="Path 1345" d="M28.972,12.135,25.305,8.468a1.217,1.217,0,0,0-.864-.358H20.775V3.222A1.222,1.222,0,0,0,19.553,2H1.222A1.223,1.223,0,0,0,0,3.222V19.109a1.222,1.222,0,0,0,1.222,1.222H2.873a4.234,4.234,0,0,0-.429,1.833,4.277,4.277,0,0,0,8.554,0,4.217,4.217,0,0,0-.429-1.833h8.19a4.234,4.234,0,0,0-.429,1.833,4.277,4.277,0,1,0,8.554,0,4.217,4.217,0,0,0-.429-1.833h1.651a1.221,1.221,0,0,0,1.222-1.222V13A1.219,1.219,0,0,0,28.972,12.135ZM2.444,4.444H18.331V17.887H2.444Zm6.11,17.72a1.833,1.833,0,1,1-1.833-1.833A1.835,1.835,0,0,1,8.554,22.164Zm15.887,0a1.833,1.833,0,1,1-1.833-1.833A1.835,1.835,0,0,1,24.441,22.164Zm2.444-4.277h-6.11V10.554h3.16l2.95,2.95Z" transform="translate(0.143)" fill="#a27373"/>
  </g>
</svg>
