<?xml version="1.0" encoding="utf-8"?>
<!-- Generator: Adobe Illustrator 19.1.0, SVG Export Plug-In . SVG Version: 6.00 Build 0)  -->
<svg version="1.1" id="Layer_1" xmlns="http://www.w3.org/2000/svg"
    xmlns:xlink="http://www.w3.org/1999/xlink" x="0px" y="0px"
    viewBox="-247 379.2 116.9 34.8" style="enable-background:new -247 379.2 116.9 34.8;"
    xml:space="preserve">
<style type="text/css">
	.st0{fill:#FF5A5F;}
	.st1{fill:#9D9D9D;}
</style>
<g id="Group_2095" transform="translate(14.309 10.012)">
	<path id="Path_8094" class="st0" d="M-236.5,381.2l-7.7-7.7c-2.2-2.2-5.7-2.2-7.9,0l-7.5,7.5c-2.2,2.2-2.2,5.7,0,7.9l7.7,7.7
		c2.2,2.2,5.7,2.2,7.9,0l7.5-7.5C-234.4,386.9-234.4,383.3-236.5,381.2z M-238.4,387.2l-7.5,7.5c-1.2,1.2-3.1,1.2-4.2,0l-7.7-7.7
		c-1.2-1.2-1.2-3.1,0-4.2c0,0,0,0,0,0l7.5-7.5c0.3-0.3,0.5-0.5,0.9-0.6v7.8c-1.4,0.7-1.9,2.4-1.2,3.8c0.7,1.4,2.4,1.9,3.8,1.2
		s1.9-2.4,1.2-3.8c-0.3-0.5-0.7-1-1.2-1.2v-7.8c0.3,0.1,0.6,0.3,0.8,0.6l7.7,7.7C-237.2,384.2-237.2,386.1-238.4,387.2L-238.4,387.2
		z"/>
	<path id="Path_8095" class="st1" d="M-217.6,374.6c-0.2-0.2-0.5-0.3-0.8-0.3c-0.2,0-0.4,0-0.6,0.2c-0.2,0.2-0.4,0.4-0.5,0.6
		l-3.6,8.3l-3.6-8.3c-0.1-0.2-0.3-0.4-0.5-0.6c-0.2-0.1-0.5-0.2-0.7-0.2c-0.3,0-0.6,0.1-0.9,0.3c-0.2,0.2-0.3,0.5-0.3,0.7
		c0,0.2,0.1,0.5,0.2,0.7l4.6,10.2c0.1,0.2,0.3,0.5,0.5,0.6c0.2,0.1,0.4,0.2,0.6,0.2l0.2,0c0.2,0,0.5-0.1,0.6-0.2
		c0.2-0.1,0.3-0.3,0.4-0.6l4.6-10.2c0.1-0.2,0.2-0.4,0.2-0.6C-217.3,375.1-217.4,374.8-217.6,374.6z"/>
	<path id="Path_8096" class="st1" d="M-201.1,381.2c0.2-0.2,0.4-0.5,0.4-0.8c0-1.1-0.3-2.2-0.8-3.1c-0.5-1-1.3-1.7-2.2-2.3
		c-0.9-0.6-1.9-0.9-3-0.9c-1.1,0-2.1,0.3-3,0.8c-1,0.6-1.7,1.4-2.3,2.4c-0.6,1.1-0.9,2.4-0.9,3.6c0,1.2,0.3,2.3,0.8,3.3
		c0.5,1,1.3,1.8,2.3,2.3c1.8,0.9,3.9,1.1,5.8,0.5c0.6-0.2,1.2-0.5,1.8-0.9c0.4-0.2,0.6-0.6,0.6-1c0-0.3-0.1-0.5-0.3-0.7
		c-0.4-0.4-1-0.4-1.5-0.1c-0.1,0-0.2,0.1-0.4,0.3c-0.3,0.2-0.6,0.3-1,0.4c-0.5,0.2-1.1,0.2-1.7,0.2c-0.9,0-1.8-0.3-2.6-0.9
		c-0.8-0.6-1.3-1.5-1.5-2.4l-0.1-0.3h8.5C-201.6,381.5-201.3,381.4-201.1,381.2z M-203.4,379.5h-7l0.1-0.3c0.2-1.8,1.8-3.1,3.6-2.9
		c0.8,0,1.6,0.3,2.2,0.8c0.6,0.5,1,1.2,1.1,1.9L-203.4,379.5z"/>
	<path id="Path_8097" class="st1" d="M-185.9,385.1l-3.7-4.6l3.5-4.3c0.2-0.2,0.3-0.5,0.3-0.8c0-0.3-0.1-0.6-0.3-0.8
		c-0.2-0.2-0.5-0.3-0.8-0.3c-0.4,0-0.8,0.2-1,0.6l-3,4l-3.2-4c-0.4-0.6-1.2-0.7-1.8-0.3c-0.1,0-0.1,0.1-0.2,0.1
		c-0.2,0.2-0.4,0.5-0.4,0.9c0,0.3,0.1,0.5,0.3,0.7l3.7,4.6l-3.6,4.4c-0.2,0.2-0.3,0.5-0.3,0.8c0,0.3,0.2,0.6,0.4,0.7
		c0.2,0.2,0.5,0.3,0.8,0.3c0.2,0,0.4,0,0.5-0.1c0.2-0.1,0.3-0.2,0.5-0.4l3.1-3.9l3.2,3.9c0.2,0.3,0.6,0.6,1,0.6
		c0.3,0,0.6-0.1,0.9-0.4c0.3-0.2,0.4-0.6,0.4-0.9C-185.6,385.6-185.7,385.3-185.9,385.1z"/>
	<path id="Path_8098" class="st1" d="M-168.4,381.2c0.2-0.2,0.4-0.5,0.4-0.8c0-1.1-0.3-2.2-0.8-3.1c-0.5-1-1.3-1.7-2.2-2.3
		c-0.9-0.6-1.9-0.9-3-0.9c-1.1,0-2.1,0.3-3,0.8c-1,0.6-1.7,1.4-2.3,2.4c-0.6,1.1-0.9,2.4-0.9,3.6c0,1.2,0.3,2.3,0.8,3.3
		c0.5,1,1.3,1.8,2.3,2.3c1.8,0.9,3.9,1.1,5.8,0.5c0.6-0.2,1.2-0.5,1.8-0.9c0.4-0.2,0.6-0.6,0.6-1c0-0.3-0.1-0.5-0.3-0.7
		c-0.4-0.4-1-0.4-1.5-0.1c-0.1,0-0.2,0.1-0.4,0.3c-0.3,0.2-0.6,0.3-1,0.4c-0.5,0.2-1.1,0.2-1.7,0.2c-0.9,0-1.8-0.3-2.6-0.9
		c-0.8-0.6-1.3-1.5-1.5-2.4l-0.1-0.3h8.5C-169,381.5-168.6,381.4-168.4,381.2z M-177.7,379.5l0.1-0.3c0.2-1.8,1.8-3.1,3.6-2.9
		c0.8,0,1.6,0.3,2.2,0.8c0.6,0.5,1,1.2,1.1,1.9v0.4L-177.7,379.5z"/>
	<path id="Path_8099" class="st1" d="M-160.2,369.6c-0.2-0.2-0.5-0.4-0.9-0.4c-0.7,0-1.3,0.5-1.3,1.2c0,0,0,0,0,0.1v15.3
		c0,0.3,0.1,0.7,0.4,0.9c0.2,0.2,0.5,0.4,0.9,0.4c0.7,0,1.3-0.5,1.3-1.2c0,0,0,0,0-0.1v-15.3C-159.8,370.1-159.9,369.8-160.2,369.6z
		"/>
	<path id="Path_8100" class="st1" d="M-145,381.6c-0.4-0.5-0.9-0.9-1.4-1.1c-0.7-0.3-1.4-0.6-2.2-0.8c-0.6-0.2-1.2-0.3-1.5-0.5
		c-0.4-0.1-0.7-0.3-1-0.6c-0.3-0.3-0.4-0.7-0.4-1.1c0-0.7,0.4-1.6,2.1-1.6c0.6,0,1.2,0.1,1.7,0.3c0.5,0.2,0.9,0.5,1.2,0.9
		c0.2,0.2,0.4,0.3,0.7,0.3c0.2,0,0.5-0.1,0.6-0.2c0.2-0.2,0.4-0.5,0.4-0.8c0-0.3-0.1-0.5-0.3-0.7c-0.5-0.6-1.1-1.1-1.9-1.3
		c-1.5-0.6-3.2-0.6-4.7,0c-0.7,0.3-1.2,0.7-1.7,1.3c-0.4,0.6-0.6,1.2-0.6,1.9c0,0.7,0.2,1.4,0.6,2c0.4,0.5,0.9,0.9,1.5,1.1
		c0.8,0.3,1.5,0.6,2.3,0.8c0.7,0.2,1.4,0.4,2.1,0.8c0.5,0.2,0.8,0.8,0.8,1.3c0,0.7-0.4,1.6-2.2,1.7c-0.7,0-1.4-0.1-2.1-0.4
		c-0.6-0.3-1.2-0.7-1.6-1.2c-0.2-0.2-0.5-0.4-0.8-0.4c-0.2,0-0.4,0.1-0.6,0.2c-0.3,0.2-0.5,0.5-0.5,0.9c0,0.2,0.1,0.4,0.2,0.6
		c0.6,0.8,1.3,1.3,2.2,1.7c0.9,0.4,2,0.5,3,0.5c0.8,0,1.5-0.2,2.2-0.5c0.7-0.3,1.3-0.7,1.8-1.3c0.4-0.6,0.7-1.3,0.7-2
		C-144.4,382.9-144.6,382.2-145,381.6z"/>
</g>
<text transform="matrix(1 0 0 1 -212.929 452.1657)" class="st1" style="font-family:'Poppins-Regular'; font-size:12px;">t-shirt maker</text>
<g>
	<path class="st1" d="M-208.6,408.5v1h-0.8c-0.7,0-1.2-0.2-1.5-0.5c-0.3-0.3-0.5-0.9-0.5-1.6v-3.6h-1v-0.9h1v-1.6h1.1v1.6h1.7v0.9
		h-1.7v3.6c0,0.4,0.1,0.7,0.2,0.9c0.2,0.2,0.4,0.2,0.8,0.2H-208.6z"/>
	<path class="st1" d="M-203.6,404.6v0.9h-4.8v-0.9H-203.6z"/>
	<path class="st1" d="M-197.6,403.4c0.5,0.4,0.7,0.9,0.8,1.6h-1c0-0.4-0.2-0.7-0.5-1s-0.6-0.4-1.1-0.4c-0.4,0-0.7,0.1-0.9,0.3
		c-0.2,0.2-0.3,0.4-0.3,0.8c0,0.2,0.1,0.4,0.2,0.6c0.1,0.1,0.3,0.3,0.6,0.3s0.5,0.2,0.9,0.2c0.5,0.1,0.9,0.2,1.2,0.3
		c0.3,0.1,0.6,0.3,0.8,0.6s0.3,0.6,0.3,1c0,0.5-0.2,1-0.6,1.3c-0.4,0.3-0.9,0.5-1.6,0.5c-0.8,0-1.4-0.2-1.9-0.6
		c-0.5-0.4-0.8-0.9-0.9-1.6h1.1c0,0.4,0.2,0.7,0.5,1c0.3,0.2,0.7,0.4,1.2,0.4c0.4,0,0.7-0.1,0.9-0.3s0.3-0.4,0.3-0.8
		c0-0.3-0.1-0.5-0.2-0.6c-0.2-0.2-0.3-0.3-0.6-0.3c-0.2-0.1-0.5-0.2-0.9-0.3c-0.5-0.1-0.9-0.2-1.2-0.3s-0.5-0.3-0.7-0.5
		c-0.2-0.2-0.3-0.6-0.3-1c0-0.6,0.2-1,0.6-1.3s1-0.5,1.7-0.5C-198.6,402.8-198,403-197.6,403.4z"/>
	<path class="st1" d="M-189.9,403.5c0.5,0.5,0.7,1.2,0.7,2.1v3.8h-1.1v-3.7c0-0.7-0.2-1.2-0.5-1.5c-0.3-0.4-0.8-0.5-1.4-0.5
		c-0.6,0-1.1,0.2-1.4,0.6c-0.4,0.4-0.5,1-0.5,1.7v3.5h-1.1v-8.9h1.1v3.9c0.2-0.5,0.5-0.9,0.9-1.2c0.4-0.3,0.9-0.4,1.5-0.4
		C-191,402.7-190.4,403-189.9,403.5z"/>
	<path class="st1" d="M-187.5,400.4c0.1-0.1,0.3-0.2,0.5-0.2c0.2,0,0.4,0.1,0.5,0.2s0.2,0.3,0.2,0.5c0,0.2-0.1,0.4-0.2,0.5
		s-0.3,0.2-0.5,0.2c-0.2,0-0.4-0.1-0.5-0.2c-0.1-0.1-0.2-0.3-0.2-0.5C-187.7,400.7-187.6,400.6-187.5,400.4z M-186.4,402.9v6.6h-1.1
		v-6.6H-186.4z"/>
	<path class="st1" d="M-182.6,403.1c0.4-0.3,0.9-0.4,1.5-0.4v1.2h-0.3c-0.6,0-1.1,0.2-1.5,0.5c-0.4,0.3-0.6,0.8-0.6,1.6v3.5h-1.1
		v-6.6h1.1v1.3C-183.4,403.7-183,403.4-182.6,403.1z"/>
	<path class="st1" d="M-176.9,408.5v1h-0.8c-0.7,0-1.2-0.2-1.5-0.5c-0.3-0.3-0.5-0.9-0.5-1.6v-3.6h-1v-0.9h1v-1.6h1.1v1.6h1.7v0.9
		h-1.7v3.6c0,0.4,0.1,0.7,0.2,0.9c0.2,0.2,0.4,0.2,0.8,0.2H-176.9z"/>
	<path class="st1" d="M-162.7,403.5c0.5,0.5,0.7,1.2,0.7,2.1v3.8h-1.1v-3.7c0-0.6-0.2-1.1-0.5-1.5s-0.8-0.5-1.3-0.5
		c-0.6,0-1,0.2-1.4,0.6c-0.3,0.4-0.5,0.9-0.5,1.7v3.5h-1.1v-3.7c0-0.6-0.2-1.1-0.5-1.5c-0.3-0.3-0.8-0.5-1.3-0.5
		c-0.6,0-1,0.2-1.4,0.6c-0.3,0.4-0.5,0.9-0.5,1.7v3.5h-1.1v-6.6h1.1v1.5c0.2-0.5,0.4-0.9,0.9-1.2c0.4-0.3,0.9-0.4,1.4-0.4
		c0.6,0,1,0.1,1.5,0.4c0.4,0.3,0.7,0.7,0.9,1.3c0.2-0.5,0.5-1,0.9-1.2c0.4-0.3,0.9-0.4,1.5-0.4C-163.7,402.7-163.1,403-162.7,403.5z
		"/>
	<path class="st1" d="M-155.9,403.2c0.4,0.3,0.8,0.7,0.9,1.3v-1.7h1.1v6.6h-1.1v-1.7c-0.2,0.5-0.5,1-0.9,1.3c-0.4,0.3-1,0.5-1.6,0.5
		c-0.6,0-1.1-0.1-1.6-0.4c-0.5-0.3-0.8-0.7-1.1-1.2c-0.3-0.5-0.4-1.1-0.4-1.8c0-0.7,0.1-1.3,0.4-1.8c0.3-0.5,0.6-0.9,1.1-1.2
		c0.5-0.3,1-0.4,1.6-0.4C-156.9,402.8-156.4,402.9-155.9,403.2z M-158.9,404.4c-0.4,0.4-0.6,1-0.6,1.8s0.2,1.3,0.6,1.8
		c0.4,0.4,0.9,0.6,1.6,0.6c0.4,0,0.8-0.1,1.2-0.3s0.6-0.5,0.8-0.8c0.2-0.4,0.3-0.8,0.3-1.3c0-0.5-0.1-0.9-0.3-1.3
		c-0.2-0.4-0.5-0.7-0.8-0.8c-0.3-0.2-0.7-0.3-1.2-0.3C-157.9,403.7-158.5,404-158.9,404.4z"/>
	<path class="st1" d="M-148.6,409.4l-2.5-3v3h-1.1v-8.9h1.1v5.2l2.5-2.9h1.3l-3,3.3l3,3.3H-148.6z"/>
	<path class="st1" d="M-140.2,406.4h-5.3c0,0.8,0.2,1.3,0.6,1.7c0.4,0.4,0.9,0.6,1.5,0.6c0.5,0,1-0.1,1.3-0.4
		c0.4-0.3,0.6-0.6,0.7-1.1h1.2c-0.1,0.5-0.3,0.9-0.5,1.2c-0.3,0.4-0.6,0.6-1.1,0.8c-0.4,0.2-0.9,0.3-1.5,0.3c-0.6,0-1.2-0.1-1.7-0.4
		c-0.5-0.3-0.9-0.7-1.1-1.2c-0.3-0.5-0.4-1.1-0.4-1.8c0-0.7,0.1-1.3,0.4-1.8c0.3-0.5,0.7-0.9,1.1-1.2c0.5-0.3,1-0.4,1.7-0.4
		c0.6,0,1.2,0.1,1.7,0.4c0.5,0.3,0.8,0.6,1.1,1.1s0.4,1,0.4,1.5C-140.2,406-140.2,406.2-140.2,406.4z M-141.5,404.6
		c-0.2-0.3-0.4-0.6-0.8-0.7s-0.7-0.2-1-0.2c-0.6,0-1.1,0.2-1.5,0.6s-0.6,0.9-0.7,1.6h4.2C-141.3,405.4-141.3,405-141.5,404.6z"/>
	<path class="st1" d="M-136.7,403.1c0.4-0.3,0.9-0.4,1.5-0.4v1.2h-0.3c-0.6,0-1.1,0.2-1.5,0.5c-0.4,0.3-0.6,0.8-0.6,1.6v3.5h-1.1
		v-6.6h1.1v1.3C-137.4,403.7-137.1,403.4-136.7,403.1z"/>
</g>
</svg>