<svg width="24" height="24" viewBox="0 0 24 24" fill="none" xmlns="http://www.w3.org/2000/svg">
<path d="M1.36542 17.7885C1.12022 17.7885 0.914687 17.7056 0.748821 17.5397C0.582971 17.3738 0.500046 17.1683 0.500046 16.9231V16.5693C0.500046 15.9039 0.847479 15.3575 1.54235 14.9299C2.23721 14.5023 3.14297 14.2885 4.25962 14.2885C4.44424 14.2885 4.63014 14.2943 4.81732 14.3059C5.0045 14.3174 5.19296 14.3398 5.3827 14.3732C5.18783 14.6847 5.04328 15.0081 4.94905 15.3433C4.85483 15.6786 4.80772 16.0225 4.80772 16.3751V17.7885H1.36542ZM7.40785 17.7885C7.14751 17.7885 6.93113 17.7019 6.7587 17.5287C6.58625 17.3554 6.50002 17.1408 6.50002 16.8847V16.4135C6.50002 15.9454 6.63144 15.5174 6.89427 15.1297C7.15709 14.742 7.53593 14.4039 8.0308 14.1155C8.52566 13.827 9.11027 13.6107 9.78462 13.4664C10.459 13.3222 11.1961 13.2501 11.9961 13.2501C12.8115 13.2501 13.5564 13.3222 14.2307 13.4664C14.9051 13.6107 15.4897 13.827 15.9846 14.1155C16.4795 14.4039 16.8557 14.742 17.1134 15.1297C17.3711 15.5174 17.5 15.9454 17.5 16.4135V16.8847C17.5 17.1408 17.4133 17.3554 17.2401 17.5287C17.0669 17.7019 16.8522 17.7885 16.5961 17.7885H7.40785ZM19.1923 17.7885V16.3764C19.1923 15.9999 19.1477 15.6456 19.0586 15.3135C18.9695 14.9815 18.8359 14.668 18.6577 14.3732C18.8538 14.3398 19.0413 14.3174 19.2202 14.3059C19.399 14.2943 19.5756 14.2885 19.75 14.2885C20.8666 14.2885 21.7708 14.4998 22.4625 14.9222C23.1541 15.3446 23.5 15.8937 23.5 16.5693V16.9231C23.5 17.1683 23.417 17.3738 23.2512 17.5397C23.0853 17.7056 22.8798 17.7885 22.6346 17.7885H19.1923ZM8.07692 16.2885H15.9385V16.1828C15.8359 15.7789 15.4103 15.4392 14.6615 15.1635C13.9128 14.8879 13.0256 14.7501 12 14.7501C10.9743 14.7501 10.0872 14.8879 9.33845 15.1635C8.58973 15.4392 8.16922 15.7789 8.07692 16.1828V16.2885ZM4.25707 13.3174C3.7857 13.3174 3.38304 13.1498 3.04907 12.8146C2.7151 12.4795 2.54812 12.0766 2.54812 11.6059C2.54812 11.129 2.7157 10.7261 3.05087 10.3972C3.38604 10.0684 3.78895 9.90396 4.25962 9.90396C4.73654 9.90396 5.14102 10.0684 5.47307 10.3972C5.80512 10.7261 5.97115 11.1299 5.97115 11.6087C5.97115 12.0735 5.80688 12.4745 5.47835 12.8116C5.14981 13.1488 4.74272 13.3174 4.25707 13.3174ZM19.75 13.3174C19.2833 13.3174 18.8814 13.1488 18.5442 12.8116C18.2071 12.4745 18.0385 12.0735 18.0385 11.6087C18.0385 11.1299 18.2071 10.7261 18.5442 10.3972C18.8814 10.0684 19.2839 9.90396 19.7518 9.90396C20.2339 9.90396 20.6394 10.0684 20.9682 10.3972C21.2971 10.7261 21.4615 11.129 21.4615 11.6059C21.4615 12.0766 21.2975 12.4795 20.9694 12.8146C20.6414 13.1498 20.2349 13.3174 19.75 13.3174ZM12.0034 12.5001C11.2832 12.5001 10.6699 12.2477 10.1635 11.7429C9.65707 11.2381 9.40387 10.6251 9.40387 9.90396C9.40387 9.16839 9.65627 8.55182 10.1611 8.05424C10.6659 7.55665 11.2788 7.30786 12 7.30786C12.7356 7.30786 13.3521 7.55633 13.8497 8.05326C14.3473 8.55019 14.5961 9.16597 14.5961 9.90059C14.5961 10.6208 14.3477 11.2341 13.8507 11.7405C13.3538 12.2469 12.738 12.5001 12.0034 12.5001ZM12.0048 11.0001C12.3106 11.0001 12.5689 10.8931 12.7798 10.679C12.9907 10.4649 13.0961 10.2049 13.0961 9.89916C13.0961 9.59339 12.9911 9.33506 12.781 9.12416C12.5709 8.91326 12.3106 8.80781 12 8.80781C11.6974 8.80781 11.4391 8.91286 11.225 9.12296C11.0109 9.33306 10.9038 9.59339 10.9038 9.90396C10.9038 10.2065 11.0109 10.4649 11.225 10.679C11.4391 10.8931 11.699 11.0001 12.0048 11.0001Z" fill="white"/>
</svg>
