<svg id="Group_423" data-name="Group 423" xmlns="http://www.w3.org/2000/svg" xmlns:xlink="http://www.w3.org/1999/xlink" width="60" height="64" viewBox="0 0 60 64">
  <defs>
    <clipPath id="clip-path">
      <rect id="Rectangle_200" data-name="Rectangle 200" width="60" height="64" fill="none" stroke="#17168c" strokeWidth="1"/>
    </clipPath>
  </defs>
  <line id="Line_121" data-name="Line 121" x2="20" transform="translate(17 21)" fill="none" stroke="#17168c" strokeLinecap="round" strokeWidth="2"/>
  <line id="Line_122" data-name="Line 122" x2="20" transform="translate(17 29)" fill="none" stroke="#17168c" strokeLinecap="round" strokeWidth="2"/>
  <line id="Line_123" data-name="Line 123" x2="14" transform="translate(17 37)" fill="none" stroke="#17168c" strokeLinecap="round" strokeWidth="2"/>
  <line id="Line_124" data-name="Line 124" x2="9" transform="translate(17 45)" fill="none" stroke="#17168c" strokeLinecap="round" strokeWidth="2"/>
  <g id="Group_422" data-name="Group 422">
    <g id="Group_421" data-name="Group 421" clip-path="url(#clip-path)">
      <path id="Path_204" data-name="Path 204" d="M12,21a2,2,0,1,1-2-2,2,2,0,0,1,2,2" fill="#fff" stroke="#17168c" strokeWidth="1"/>
      <path id="Path_205" data-name="Path 205" d="M12,29a2,2,0,1,1-2-2,2,2,0,0,1,2,2" fill="#fff" stroke="#17168c" strokeWidth="1"/>
      <path id="Path_206" data-name="Path 206" d="M12,37a2,2,0,1,1-2-2,2,2,0,0,1,2,2" fill="#fff" stroke="#17168c" strokeWidth="1"/>
      <path id="Path_207" data-name="Path 207" d="M12,45a2,2,0,1,1-2-2,2,2,0,0,1,2,2" fill="#fff" stroke="#17168c" strokeWidth="1"/>
      <path id="Path_208" data-name="Path 208" d="M45,29V14L32,1H3A2,2,0,0,0,1,3V61a2,2,0,0,0,2,2H32" fill="none" stroke="#17168c" strokeLinecap="round" strokeLinejoin="round" strokeWidth="2"/>
      <path id="Path_209" data-name="Path 209" d="M44,14H33a1,1,0,0,1-1-1V9" fill="none" stroke="#17168c" strokeLinecap="round" strokeLinejoin="round" strokeWidth="2"/>
      <circle id="Ellipse_23" data-name="Ellipse 23" cx="14" cy="14" r="14" transform="translate(31 35)" fill="none" stroke="#17168c" strokeLinecap="round" strokeLinejoin="round" strokeWidth="2"/>
      <path id="Path_210" data-name="Path 210" d="M39,49l5,5,7-10" fill="none" stroke="#17168c" strokeLinecap="round" strokeLinejoin="round" strokeWidth="2"/>
    </g>
  </g>
</svg>
