<svg width="36" height="24" viewBox="0 0 36 24" fill="none" xmlns="http://www.w3.org/2000/svg">
<rect x="0.5" width="35" height="24" rx="4" fill="white"/>
<rect x="1" y="0.5" width="34" height="23" rx="3.5" stroke="black" stroke-opacity="0.1"/>
<path fill-rule="evenodd" clip-rule="evenodd" d="M10.4 15.2412H8.84439C8.73794 15.2412 8.6474 15.3186 8.6308 15.4236L8.00163 19.4127C7.98913 19.4914 8.05009 19.5624 8.12993 19.5624H8.87259C8.97905 19.5624 9.06958 19.485 9.08618 19.3797L9.25588 18.3038C9.27225 18.1985 9.363 18.1212 9.46924 18.1212H9.96169C10.9864 18.1212 11.5778 17.6253 11.7323 16.6427C11.8019 16.2128 11.7353 15.875 11.5339 15.6384C11.3129 15.3787 10.9206 15.2412 10.4 15.2412ZM10.5795 16.6982C10.4944 17.2564 10.0679 17.2564 9.65553 17.2564H9.42078L9.58547 16.2138C9.59525 16.1509 9.64984 16.1045 9.71353 16.1045H9.82112C10.102 16.1045 10.3671 16.1045 10.504 16.2646C10.5856 16.3602 10.6106 16.5021 10.5795 16.6982ZM15.0501 16.6803H14.3052C14.2417 16.6803 14.1869 16.7267 14.1771 16.7897L14.1441 16.9981L14.092 16.9226C13.9308 16.6885 13.5712 16.6103 13.2122 16.6103C12.389 16.6103 11.6859 17.2337 11.549 18.1084C11.4778 18.5446 11.579 18.9617 11.8264 19.2527C12.0535 19.5202 12.3783 19.6316 12.7647 19.6316C13.428 19.6316 13.7959 19.2051 13.7959 19.2051L13.7626 19.4122C13.7501 19.4913 13.8111 19.5623 13.8904 19.5623H14.5615C14.6682 19.5623 14.7582 19.4849 14.7751 19.3796L15.1777 16.83C15.1904 16.7515 15.1297 16.6803 15.0501 16.6803ZM14.0117 18.1302C13.9398 18.5557 13.602 18.8414 13.1713 18.8414C12.955 18.8414 12.782 18.7721 12.6711 18.6406C12.561 18.5101 12.5191 18.3242 12.5541 18.1172C12.6213 17.6952 12.9647 17.4003 13.389 17.4003C13.6004 17.4003 13.7724 17.4705 13.8857 17.6031C13.9992 17.7371 14.0442 17.9241 14.0117 18.1302ZM18.269 16.6802H19.0176C19.1224 16.6802 19.1836 16.7977 19.124 16.8837L16.6342 20.4776C16.5939 20.5359 16.5275 20.5705 16.4565 20.5705H15.7089C15.6036 20.5705 15.5421 20.452 15.6031 20.3657L16.3783 19.2714L15.5538 16.8516C15.5253 16.7675 15.5874 16.6802 15.6769 16.6802H16.4124C16.508 16.6802 16.5923 16.7429 16.6199 16.8344L17.0575 18.2958L18.09 16.775C18.1304 16.7156 18.1976 16.6802 18.269 16.6802Z" fill="#253B80"/>
<path fill-rule="evenodd" clip-rule="evenodd" d="M26.3851 19.4129L27.0236 15.3509C27.0334 15.2878 27.088 15.2414 27.1515 15.2412H27.8702C27.9496 15.2412 28.0105 15.3124 27.998 15.3911L27.3684 19.38C27.352 19.4852 27.2615 19.5626 27.1548 19.5626H26.5129C26.4336 19.5626 26.3726 19.4916 26.3851 19.4129ZM21.4958 15.2414H19.9399C19.8337 15.2414 19.7431 15.3188 19.7265 15.4238L19.0973 19.4129C19.0848 19.4916 19.1458 19.5626 19.2252 19.5626H20.0236C20.0978 19.5626 20.1612 19.5085 20.1728 19.4348L20.3513 18.3041C20.3678 18.1987 20.4585 18.1214 20.5647 18.1214H21.0569C22.0819 18.1214 22.6731 17.6255 22.8278 16.6429C22.8976 16.213 22.8305 15.8752 22.6292 15.6386C22.4083 15.3789 22.0164 15.2414 21.4958 15.2414ZM21.6752 16.6984C21.5904 17.2566 21.1639 17.2566 20.7512 17.2566H20.5167L20.6817 16.2141C20.6914 16.1511 20.7456 16.1047 20.8094 16.1047H20.917C21.1978 16.1047 21.463 16.1047 21.5999 16.2648C21.6816 16.3604 21.7064 16.5023 21.6752 16.6984ZM26.1455 16.6805H25.401C25.337 16.6805 25.2827 16.7269 25.2731 16.79L25.2402 16.9983L25.1879 16.9228C25.0266 16.6887 24.6672 16.6105 24.3083 16.6105C23.485 16.6105 22.7822 17.234 22.6452 18.1086C22.5743 18.5448 22.675 18.962 22.9225 19.2529C23.15 19.5204 23.4744 19.6319 23.8608 19.6319C24.5241 19.6319 24.8919 19.2053 24.8919 19.2053L24.8587 19.4124C24.8462 19.4915 24.9071 19.5625 24.987 19.5625H25.6578C25.764 19.5625 25.8545 19.4851 25.8711 19.3799L26.274 16.8302C26.2863 16.7517 26.2254 16.6805 26.1455 16.6805ZM25.1071 18.1304C25.0357 18.556 24.6975 18.8416 24.2666 18.8416C24.0507 18.8416 23.8775 18.7723 23.7664 18.6408C23.6563 18.5103 23.6149 18.3244 23.6496 18.1174C23.717 17.6954 24.0601 17.4005 24.4843 17.4005C24.6959 17.4005 24.8678 17.4707 24.9811 17.6033C25.095 17.7373 25.1401 17.9243 25.1071 18.1304Z" fill="#179BD7"/>
<path d="M16.1557 13.8138L16.3469 12.5991L15.9209 12.5892H13.8867L15.3004 3.62534C15.3047 3.59828 15.319 3.57305 15.3399 3.55513C15.3607 3.53722 15.3875 3.52734 15.4152 3.52734H18.8453C19.984 3.52734 20.7698 3.7643 21.1801 4.232C21.3724 4.45141 21.4949 4.68068 21.5542 4.933C21.6163 5.19776 21.6175 5.51406 21.5567 5.89985L21.5523 5.92801V6.1752L21.7447 6.28418C21.9067 6.37011 22.0354 6.46848 22.1341 6.58111C22.2987 6.7687 22.4052 7.00712 22.4501 7.28978C22.4965 7.5805 22.4812 7.92643 22.4052 8.31807C22.3174 8.76859 22.1755 9.16096 21.9839 9.48202C21.8076 9.77785 21.5831 10.0232 21.3165 10.2134C21.062 10.394 20.7596 10.5312 20.4177 10.619C20.0863 10.7052 19.7086 10.7488 19.2943 10.7488H19.0274C18.8365 10.7488 18.651 10.8175 18.5056 10.9408C18.3597 11.0665 18.263 11.2383 18.2335 11.4263L18.2134 11.5357L17.8755 13.6767L17.8601 13.7553C17.8561 13.7802 17.8491 13.7927 17.8389 13.8011C17.8298 13.8087 17.8166 13.8138 17.8038 13.8138H16.1557Z" fill="#253B80"/>
<path d="M21.9269 5.95703C21.9167 6.02248 21.905 6.0894 21.8919 6.15815C21.4394 8.48056 19.892 9.28286 17.9154 9.28286H16.9091C16.6674 9.28286 16.4637 9.45838 16.4261 9.6968L15.9108 12.9645L15.7649 13.8907C15.7404 14.0473 15.8611 14.1884 16.019 14.1884H17.8039C18.0153 14.1884 18.1948 14.0348 18.2281 13.8264L18.2456 13.7357L18.5817 11.603L18.6033 11.4861C18.6362 11.2769 18.8161 11.1234 19.0274 11.1234H19.2944C21.0236 11.1234 22.3774 10.4213 22.7731 8.38951C22.9384 7.54077 22.8528 6.8321 22.4154 6.33367C22.2831 6.18338 22.1189 6.05868 21.9269 5.95703Z" fill="#179BD7"/>
<path d="M21.4535 5.7688C21.3844 5.74869 21.3131 5.7304 21.2399 5.71395C21.1664 5.69787 21.0911 5.6836 21.0136 5.67117C20.7422 5.62729 20.4449 5.60645 20.1264 5.60645H17.438C17.3718 5.60645 17.3089 5.62143 17.2526 5.6485C17.1286 5.7081 17.0365 5.82549 17.0142 5.96919L16.4422 9.59159L16.4258 9.69727C16.4635 9.45884 16.6672 9.28332 16.9088 9.28332H17.9152C19.8917 9.28332 21.4393 8.48066 21.8916 6.15862C21.9051 6.08987 21.9164 6.02295 21.9266 5.9575C21.8122 5.89679 21.6882 5.84487 21.5547 5.80061C21.5219 5.78965 21.4879 5.77905 21.4535 5.7688Z" fill="#222D65"/>
<path d="M17.0156 5.96866C17.0379 5.82495 17.1301 5.70757 17.254 5.64833C17.3107 5.62126 17.3733 5.60627 17.4394 5.60627H20.1279C20.4464 5.60627 20.7437 5.62712 21.0149 5.671C21.0925 5.68343 21.1679 5.6977 21.2414 5.71378C21.3145 5.73024 21.3858 5.74853 21.4549 5.76863C21.4893 5.77887 21.5233 5.78947 21.5565 5.80008C21.69 5.84433 21.814 5.89662 21.9284 5.95696C22.0631 5.09871 21.9274 4.51437 21.4634 3.98523C20.9518 3.40271 20.0284 3.15332 18.8469 3.15332H15.4168C15.1755 3.15332 14.9697 3.32884 14.9323 3.56763L13.5037 12.6236C13.4755 12.8028 13.6137 12.9645 13.7943 12.9645H15.912L16.4437 9.59105L17.0156 5.96866Z" fill="#253B80"/>
</svg>
