<svg  width="16" height="17" viewBox="0 0 16 17" fill="black" xmlns="http://www.w3.org/2000/svg">
    <path d="M12 14.2C12.2652 14.2 12.5196 14.3054 12.7071 14.4929C12.8946 14.6804 13 14.9348 13 15.2C13 15.4652 12.8946 15.7196 12.7071 15.9071C12.5196 16.0946 12.2652 16.2 12 16.2H4C3.73478 16.2 3.48043 16.0946 3.29289 15.9071C3.10536 15.7196 3 15.4652 3 15.2C3 14.9348 3.10536 14.6804 3.29289 14.4929C3.48043 14.3054 3.73478 14.2 4 14.2H12ZM8.5 0L13 7.2L11.29 13.2H4.7L3 7.2L7.5 0V6.29C7.16639 6.40795 6.88522 6.64003 6.70618 6.94524C6.52715 7.25045 6.46177 7.60912 6.5216 7.95787C6.58144 8.30661 6.76264 8.62298 7.03317 8.85105C7.3037 9.07912 7.64616 9.20421 8 9.20421C8.35384 9.20421 8.6963 9.07912 8.96683 8.85105C9.23736 8.62298 9.41856 8.30661 9.4784 7.95787C9.53823 7.60912 9.47285 7.25045 9.29382 6.94524C9.11478 6.64003 8.83361 6.40795 8.5 6.29V0Z" fill="black"></path>
  </svg>