<svg xmlns="http://www.w3.org/2000/svg" width="40" height="40" viewBox="0 0 40 40" fill="none">
    <path d="M14.0165 23.6838C13.6629 23.949 13.4291 24.3439 13.3666 24.7815C13.3041 25.219 13.4179 25.6635 13.6832 26.0172C13.9484 26.3708 14.3432 26.6046 14.7808 26.6671C15.2184 26.7296 15.6629 26.6157 16.0165 26.3505C17.1674 25.4929 18.5645 25.0296 19.9998 25.0296C21.4352 25.0296 22.8322 25.4929 23.9832 26.3505C24.2716 26.5669 24.6225 26.6838 24.9832 26.6838C25.2419 26.6838 25.4971 26.6236 25.7285 26.5079C25.9599 26.3922 26.1612 26.2242 26.3165 26.0172C26.4478 25.8421 26.5434 25.6428 26.5977 25.4308C26.652 25.2188 26.664 24.9981 26.6331 24.7815C26.6021 24.5648 26.5288 24.3563 26.4173 24.168C26.3058 23.9797 26.1582 23.8152 25.9832 23.6838C24.2552 22.3935 22.1564 21.6963 19.9998 21.6963C17.8432 21.6963 15.7444 22.3935 14.0165 23.6838ZM19.9998 28.3338C19.5054 28.3338 19.022 28.4805 18.6109 28.7552C18.1998 29.0299 17.8793 29.4203 17.6901 29.8771C17.5009 30.3339 17.4514 30.8366 17.5479 31.3216C17.6443 31.8065 17.8824 32.252 18.2321 32.6016C18.5817 32.9512 19.0271 33.1893 19.5121 33.2858C19.997 33.3823 20.4997 33.3328 20.9565 33.1435C21.4133 32.9543 21.8038 32.6339 22.0785 32.2228C22.3532 31.8116 22.4998 31.3283 22.4998 30.8338C22.4998 30.1708 22.2364 29.5349 21.7676 29.0661C21.2987 28.5972 20.6629 28.3338 19.9998 28.3338ZM35.5665 14.3172C31.2973 10.464 25.7507 8.33105 19.9998 8.33105C14.2489 8.33105 8.70234 10.464 4.43315 14.3172C4.10384 14.6133 3.90567 15.0282 3.88223 15.4704C3.85878 15.9127 4.01199 16.3462 4.30815 16.6755C4.60431 17.0048 5.01916 17.203 5.46143 17.2264C5.9037 17.2499 6.33718 17.0967 6.66649 16.8005C10.3215 13.4966 15.0729 11.6674 19.9998 11.6674C24.9267 11.6674 29.6782 13.4966 33.3332 16.8005C33.6413 17.0723 34.039 17.2207 34.4498 17.2172C34.6824 17.2166 34.9123 17.1674 35.1247 17.0727C35.3371 16.978 35.5273 16.8398 35.6832 16.6672C35.9786 16.3397 36.1322 15.9085 36.1103 15.4681C36.0885 15.0276 35.8929 14.6137 35.5665 14.3172ZM19.9998 15.0005C16.0331 15.0042 12.1978 16.4225 9.18315 19.0005C8.84721 19.2878 8.63917 19.6968 8.60479 20.1375C8.5704 20.5782 8.7125 21.0146 8.99982 21.3505C9.28714 21.6864 9.69614 21.8945 10.1368 21.9289C10.5776 21.9632 11.0139 21.8212 11.3498 21.5338C13.7626 19.477 16.8293 18.3472 19.9998 18.3472C23.1703 18.3472 26.2371 19.477 28.6498 21.5338C28.9858 21.8212 29.4221 21.9632 29.8628 21.9289C30.3035 21.8945 30.7125 21.6864 30.9998 21.3505C31.2871 21.0146 31.4292 20.5782 31.3949 20.1375C31.3605 19.6968 31.1524 19.2878 30.8165 19.0005C27.8018 16.4225 23.9665 15.0042 19.9998 15.0005Z"
          fill="#0F3CC9"></path>
</svg>