<svg width="24" height="24" viewBox="0 0 24 24" fill="none" xmlns="http://www.w3.org/2000/svg">
<path fill-rule="evenodd" clip-rule="evenodd" d="M13.462 5.65392L9.39843 8H6.19843L12.662 4.26828C13.6185 3.716 14.8417 4.04375 15.394 5.00033L17.1259 8H15.2783L14.0084 5.80033C13.8979 5.60902 13.6533 5.54347 13.462 5.65392ZM6 10.6H18C18.2209 10.6 18.4 10.7791 18.4 11V11.5H16C14.3431 11.5 13 12.8431 13 14.5C13 16.1569 14.3431 17.5 16 17.5H18.4V18C18.4 18.2209 18.2209 18.4 18 18.4H6C5.77909 18.4 5.6 18.2209 5.6 18V11C5.6 10.7791 5.77909 10.6 6 10.6ZM20 11V11.5V13.1V15.9V17.5V18C20 19.1046 19.1046 20 18 20H6C4.89543 20 4 19.1046 4 18V11C4 9.89543 4.89543 9 6 9H18C19.1046 9 20 9.89543 20 11ZM16 13.1H18.4V15.9H16C15.2268 15.9 14.6 15.2732 14.6 14.5C14.6 13.7268 15.2268 13.1 16 13.1ZM16 15.25C16.4142 15.25 16.75 14.9142 16.75 14.5C16.75 14.0858 16.4142 13.75 16 13.75C15.5858 13.75 15.25 14.0858 15.25 14.5C15.25 14.9142 15.5858 15.25 16 15.25Z" fill="#666666"/>
</svg>
