<svg xmlns="http://www.w3.org/2000/svg" width="8" height="7.633" viewBox="0 0 8 7.633">
    <path data-name="Path 1630"
        d="m8.627 9.274 1.726-1.423a.346.346 0 0 0-.2-.614L7.929 7.1a.349.349 0 0 1-.3-.219L6.809 4.8a.348.348 0 0 0-.648 0l-.817 2.075a.349.349 0 0 1-.3.219l-2.231.135a.346.346 0 0 0-.2.614l1.721 1.414a.355.355 0 0 1 .118.354l-.564 2.163a.347.347 0 0 0 .522.379l1.877-1.2a.33.33 0 0 1 .37 0l1.886 1.2a.347.347 0 0 0 .522-.379L8.5 9.619a.346.346 0 0 1 .127-.345z"
        transform="translate(-2.481 -4.575)" style="fill:#fff" />
</svg>