<svg width="10" height="10" viewBox="0 0 16 16" fill="none" xmlns="http://www.w3.org/2000/svg">
    <path fill-rule="evenodd" clip-rule="evenodd"
          d="M8 16.0001C12.4183 16.0001 16 12.4184 16 8.00012C16 6.76411 15.7197 5.59356 15.2192 4.54859L14.8839 4.88388L8.88388 10.8839C8.64946 11.1183 8.33152 11.25 8 11.25C7.66848 11.25 7.35054 11.1183 7.11612 10.8839L4.11612 7.88388C3.62796 7.39573 3.62796 6.60427 4.11612 6.11612C4.60427 5.62796 5.39573 5.62796 5.88388 6.11612L8 8.23223L13.1161 3.11612L13.7717 2.46051C12.3159 0.944049 10.2682 0.00012207 8 0.00012207C3.58172 0.00012207 0 3.58184 0 8.00012C0 12.4184 3.58172 16.0001 8 16.0001Z"
          fill="#01B088"></path>
</svg>