<svg xmlns="http://www.w3.org/2000/svg" width="40" height="35" viewBox="0 0 40 35">
    <path fill="#F8E71C" fill-rule="nonzero" stroke="#F8E71C" stroke-width=".5" d="M38.99 7.776c0-.936-.76-1.698-1.697-1.698H25.8V2.795A2.51 2.51 0 0 0 23.293.29h-7.318a2.51 2.51 0 0 0-2.506 2.506v3.283H1.976c-.936 0-1.698.762-1.698 1.697L.257 17.877c0 .164.093.314.24.385.53.257 1.071.498 1.622.729v14.023c0 .936.761 1.697 1.697 1.697h31.637c.935 0 1.697-.761 1.697-1.697V18.788a29.532 29.532 0 0 0 1.634-.795.427.427 0 0 0 .228-.379l-.021-9.838zm-24.668-4.98c0-.912.742-1.653 1.653-1.653h7.318c.897 0 1.653.756 1.653 1.652v3.283H14.322V2.795zm21.973 30.218a.855.855 0 0 1-.843.844H3.815a.855.855 0 0 1-.843-.844v-13.69c3.9 1.512 8.301 2.408 13.138 2.649h.022c.03 0 .06-.01.089-.017v1.607c0 .624.507 1.13 1.13 1.13h4.565c.624 0 1.13-.506 1.13-1.13v-1.6c4.952-.262 9.389-1.214 13.249-2.818v13.87zm-19.22-9.45v-3.132c0-.153.124-.278.276-.278h4.565a.28.28 0 0 1 .277.278v3.131a.28.28 0 0 1-.277.277h-4.565a.277.277 0 0 1-.276-.277zm5.972-2.456v-.676c0-.624-.507-1.131-1.13-1.131H17.35c-.623 0-1.13.507-1.13 1.131v.706c-.023-.005-.044-.016-.068-.018-5.665-.281-10.724-1.462-15.042-3.51l.021-9.835c0-.465.379-.843.844-.843h35.318c.465 0 .844.378.844.844l.02 9.58c-4.228 2.18-9.31 3.44-15.11 3.752z"/>
</svg>
