<svg xmlns="http://www.w3.org/2000/svg" width="48" height="48"><g data-name="Group 4892" transform="translate(-185 -2407)"><rect data-name="Rectangle 1512" width="48" height="48" rx="8" transform="translate(185 2407)" fill="rgba(59,211,230,0.08)"/><g data-name="Group 3393" fill="none"><path data-name="Rectangle 1214" d="M189 2411h40v40h-40z"/><path data-name="Rectangle 1215" d="M189 2411h40v40h-40z"/></g><g data-name="Group 3395"><g data-name="Group 3394"><path data-name="Path 4487" d="M222.333 2416h-26.667a3.343 3.343 0 00-3.333 3.333v23.334a3.343 3.343 0 003.333 3.333h26.667a3.343 3.343 0 003.333-3.333v-23.334a3.343 3.343 0 00-3.333-3.333zM204 2439.333h-5a1.667 1.667 0 110-3.333h5a1.667 1.667 0 110 3.333zm0-6.667h-5a1.667 1.667 0 110-3.333h5a1.667 1.667 0 110 3.333zm0-6.667h-5a1.667 1.667 0 010-3.333h5a1.667 1.667 0 010 3.333zm16.167 3.533l-5.284 5.285a1.68 1.68 0 01-2.367 0l-2.35-2.367a1.662 1.662 0 012.35-2.35l1.183 1.183 4.117-4.117a1.66 1.66 0 012.35 0l.017.017a1.675 1.675 0 01-.017 2.35z" fill="#3bd3e6" fill-rule="evenodd"/></g></g></g></svg>