<svg xmlns="http://www.w3.org/2000/svg" width="35" height="34" viewBox="0 0 35 34">
    <g fill="#868E96" fill-rule="nonzero" transform="translate(.8)">
        <path d="M23.017 10.983c-.693-.694-1.595-.89-2.567-.933-.9-.041-1.17-.05-3.45-.05-2.28 0-2.55.009-3.45.05-.972.044-1.874.239-2.567.933-.694.693-.89 1.595-.933 2.567-.041.9-.05 1.17-.05 3.45 0 2.28.009 2.55.05 3.45.044.972.239 1.874.933 2.567.693.694 1.595.89 2.567.933.9.041 1.17.05 3.45.05 2.28 0 2.55-.009 3.45-.05.972-.044 1.874-.239 2.567-.933.694-.693.89-1.595.933-2.567.041-.9.05-1.17.05-3.45 0-2.28-.009-2.55-.05-3.45-.044-.972-.239-1.874-.933-2.567zM17 21.384a4.385 4.385 0 1 1 0-8.769 4.385 4.385 0 0 1 0 8.77zm4.558-7.917a1.025 1.025 0 1 1 0-2.05 1.025 1.025 0 0 1 0 2.05z"/>
        <circle cx="17" cy="17" r="3"/>
        <path d="M29.75 0H4.25A4.25 4.25 0 0 0 0 4.25v25.5A4.25 4.25 0 0 0 4.25 34h25.5A4.25 4.25 0 0 0 34 29.75V4.25A4.25 4.25 0 0 0 29.75 0zm-4.301 20.505c-.063 1.382-.402 2.595-1.376 3.568-.974.974-2.188 1.313-3.568 1.376-.907.041-1.197.051-3.505.051s-2.598-.01-3.505-.051c-1.382-.063-2.595-.402-3.568-1.376-.974-.974-1.313-2.188-1.376-3.568C8.51 19.598 8.5 19.308 8.5 17s.01-2.598.051-3.505c.063-1.382.402-2.595 1.376-3.568.974-.974 2.187-1.313 3.568-1.376C14.402 8.51 14.692 8.5 17 8.5s2.598.01 3.505.051c1.382.063 2.595.402 3.568 1.376.974.974 1.313 2.187 1.376 3.568.041.907.051 1.197.051 3.505s-.01 2.598-.051 3.505z"/>
    </g>
</svg>
