<svg version="1.1" id="Layer_1" xmlns="http://www.w3.org/2000/svg" xmlns:xlink="http://www.w3.org/1999/xlink" x="0px" y="0px" viewBox="0 0 139.3 139.3" style="enable-background:new 0 0 139.3 139.3;" xml:space="preserve">
<g id="Group_2188" transform="translate(0)">
	<path id="Path_13266" style="fill:#2D2D2D;" d="M61.6,39.2L49.4,27l6.3-6.2c0.4,0.4,0.7,0.8,1,1.1c9.4,9.4,18.7,18.8,28.1,28.2
		c4.7,4.7,9.3,9.4,14,14c5.2,5,5.3,13.2,0.3,18.4c-0.1,0.1-0.2,0.2-0.3,0.3c-7.4,7.5-14.8,14.9-22.2,22.3c-3.8,3.7-9.4,4.6-14.2,2.3
		c-1.4-0.7-2.8-1.6-3.9-2.7c-7.6-7.5-15.1-15-22.7-22.6c-4.8-5-4.8-12.9-0.1-17.9c2.5-2.6,5.3-5,7.9-7.6c5.8-5.7,11.7-11.3,17.5-17
		C61.4,39.5,61.4,39.4,61.6,39.2z M41.2,73.5h53.1c-0.1-1.1-0.6-2.1-1.4-2.9c-1.8-1.8-3.6-3.6-5.4-5.4c-6-6-12-12-17.9-17.9
		c-0.6-0.6-1.2-1.2-1.8-1.9c-0.2,0.2-0.4,0.3-0.5,0.4l-6.5,6.4L46.7,66c-1.4,1.4-2.9,2.8-4.3,4.2C41.5,71.1,41,72.3,41.2,73.5
		L41.2,73.5z"></path>
	<path id="Path_13267" style="fill:#2D2D2D;" d="M107.4,82.2c1.2,1.9,2.4,3.7,3.4,5.5c1.9,2.9,3.4,6,4.7,9.3c1.4,3.2,0.5,7-2.2,9.2
		c-2.5,2.6-6.3,3.2-9.5,1.6c-3.2-1.3-5.3-4.5-5.2-7.9c0-1.4,0.4-2.7,1-3.9c1.5-3.4,3.3-6.7,5.3-9.9
		C105.7,84.8,106.5,83.6,107.4,82.2z"></path>
</g>
</svg>