<svg xmlns="http://www.w3.org/2000/svg" width="25" height="35" viewBox="0 0 25 35">
    <path fill="#F8E71C" fill-rule="nonzero" d="M12.174.38C8.61.38 5.707 3.285 5.707 6.848s2.904 6.467 6.467 6.467c3.563 0 6.467-2.904 6.467-6.467 0-3.563-2.904-6.468-6.467-6.468zm0 1.522a4.934 4.934 0 0 1 4.946 4.946 4.934 4.934 0 0 1-4.946 4.945 4.934 4.934 0 0 1-4.946-4.945 4.934 4.934 0 0 1 4.946-4.946zm0 12.935c-3.301 0-6.29.892-8.5 2.378C1.464 18.7 0 20.833 0 23.207v10.652c0 .398.362.76.76.76h22.827a.79.79 0 0 0 .76-.76V23.207c0-2.374-1.463-4.506-3.673-5.992-2.21-1.486-5.199-2.378-8.5-2.378zm0 1.522c.35 0 .693.013 1.034.035l-.5 2.247h-1.07l-.498-2.247c.34-.022.684-.035 1.034-.035zm-2.544.214l.642 2.853-1.13 8.239a.773.773 0 0 0 .214.642l2.283 2.282a.79.79 0 0 0 1.07 0l2.282-2.282a.773.773 0 0 0 .214-.642l-1.129-8.239.642-2.853c1.987.323 3.754 1 5.112 1.914 1.916 1.288 2.996 2.972 2.996 4.72v9.89H1.522v-9.89c0-1.748 1.08-3.432 2.996-4.72 1.358-.913 3.125-1.591 5.112-1.914zm2.056 3.59h.975l.999 7.323-1.486 1.486-1.486-1.486.998-7.323z"/>
</svg>
