<svg xmlns="http://www.w3.org/2000/svg" width="48" height="48"><g data-name="Group 4890" transform="translate(-185 -2407)"><rect data-name="Rectangle 1512" width="48" height="48" rx="8" transform="translate(185 2407)" fill="rgba(86,168,247,0.08)"/><g data-name="assignment_ind-24px (5)"><path data-name="Path 4490" d="M189 2411h40v40h-40z" fill="none"/><path data-name="Path 4491" d="M220.667 2416H213.7a4.98 4.98 0 00-9.4 0h-6.967a3.343 3.343 0 00-3.333 3.334v23.333a3.343 3.343 0 003.333 3.333h23.334a3.343 3.343 0 003.333-3.333v-23.333a3.343 3.343 0 00-3.333-3.334zM209 2416a1.667 1.667 0 11-1.667 1.667A1.672 1.672 0 01209 2416zm0 6.667a5 5 0 11-5 5 4.993 4.993 0 015-5zm10 20h-20v-2.333c0-3.334 6.667-5.167 10-5.167s10 1.833 10 5.167z" fill="#56a8f7"/></g></g></svg>