<svg xmlns="http://www.w3.org/2000/svg" height="90" fill="none" viewBox="0 0 151 75">
    <path fill="#E4E4E4"
          d="m129.725 53.247-40.67 8.377C87.976 71.244 81.76 74.55 78.788 75h-6.08c-5.837 0-8.648-5.495-9.323-8.242-5.675.675-14.998 1.216-19.997 1.216-4 0-7.792-1.711-9.188-2.567L30.626 65s-1.5 3.5-9 3.5c-6.5 0-8.91-5.93-8.91-5.93L6.5 61.352c-2.9-.567-4.63-4.29-5.134-6.08C.69 53.246-.12 47.301.015 43.788S2.447 32.844 8.797 27.98c5.08-3.891 20.493-6.846 27.564-7.837a23 23 0 0 0 3.648-2.162c-1.297-2.702 2.252-3.378 4.188-3.378C53.603 7.362 59.646 4.65 61.493 4.2 75.14.957 85.542-.124 98.244.01c12.7.135 21.483 1.216 26.077 3.918s10.539 8.243 12.836 11.08c1.837 2.27 3.378 2.747 3.918 2.702 3.567.865 6.26 3.783 7.161 5.135.797 1.384 2.389 5.154 2.389 9.154 0 5-.474 11.82-1.173 13.41-.648 2.486-2.702 3.558-3.648 3.783-.54 9.836-4.369 11.755-6.215 11.485h-4.999c-3.243 0-4.594-4.954-4.865-7.431"/>
    <path stroke="#fff"
          d="M114.187 3.345c-4.96-.468-10.091-.314-12.565.855-3.246 1.532-7.03 7.057-9.269 10.912-.77 1.327-1.045 2.873-.875 4.397a1.37 1.37 0 0 0 1.459 1.214l24.763-1.808m-3.513-15.57c4.792.452 7.513 1.394 9.439 2.655 2.348 1.539 5.764 4.236 7.936 6.287 1.173 1.108 1.885 2.58 2.29 4.143a1.104 1.104 0 0 1-.988 1.378L117.7 18.915m-3.513-15.57c.856 2.573 2.757 9.29 3.513 15.57M55.818 7.983c-3.907 2.056-11.626 8.104-15.51 11.287-.196.16-.081.472.17.475l42.712.39a1.67 1.67 0 0 0 1.473-.875c2.354-4.253 7.126-10.983 9.783-14.582a.533.533 0 0 0-.368-.852c-3.859-.4-12.014-.898-20.155-.302-11.08.81-12.971 1.757-18.105 4.459Z"/>
    <ellipse cx="79.151" cy="58.37" stroke="#fff" rx="9.999" ry="15.944"/>
    <ellipse cx="140.207" cy="49.125" stroke="#fff" rx="5.625" ry="11.625"/>
    <path stroke="#fff"
          d="m11.635 62.57 19.186 2.566M34.455 45.335c-1.022 4.12-3.197 9.301-4.668 12.476a2.57 2.57 0 0 1-2.403 1.49c-6.426-.185-12.91-1.375-16.604-2.245a3.83 3.83 0 0 1-2.554-1.987c-2.03-4.015-3.695-9.163-4.534-12.184-.204-.735-.2-1.515.06-2.233.213-.582.44-1.1.658-1.544.55-1.115 1.72-1.701 2.963-1.716 8.064-.095 17.688.864 22.665 1.508.78.1 1.527.408 2.06.988.861.938 1.578 2.074 2.072 2.992.404.752.49 1.626.285 2.454ZM42.903 41.503c-1.223-.838-2.202-1.92-2.81-2.73a.897.897 0 0 1 .18-1.267c1.439-1.088 4.752-3.218 10.545-6.07 6.455-3.177 14.62-3.406 18.733-3.073.514.042.835.56.666 1.047l-.52 1.5c-.237.688-.722 1.256-1.332 1.652-2.41 1.566-4.917 3.91-6.6 5.651-.895.926-2.054 1.568-3.328 1.756l-13.331 1.967c-.767.114-1.563.006-2.203-.433Z"/>
</svg>