
<svg width="24" height="24" viewBox="0 0 24 24" fill="none" xmlns="http://www.w3.org/2000/svg">
<path d="M21 6.55356L18.7882 6.55311C18.509 6.55311 18.2324 6.49882 17.9734 6.39249L15.0051 5.17925C14.3501 4.91139 13.6147 4.9428 12.9553 5.27976L10.6706 6.62939L8.5699 7.52092C7.61634 8.00819 7.75156 9.50902 8.81707 9.78093C9.07785 9.84733 9.37068 9.88726 9.69688 9.88726C11.7326 9.88726 14.2667 8.99708 14.2667 8.99708C14.2667 8.99708 16.6923 11.7636 17.3017 12.4012C18.4703 13.6234 17.8531 15.3253 16.2761 15.3302C15.8682 17.3461 14.128 16.8598 14.128 16.8598C14.128 16.8598 14.0696 18.8358 12.0843 18.6141C11.8169 20.1423 9.99585 20.4909 8.75298 19.2351C8.11376 18.5894 5.85805 16.2379 4.83205 15.1673C4.50146 14.8223 4.05102 14.6298 3.57863 14.6298H3" stroke="#465166" strokeWidth="1.5" stroke-miterlimit="10" strokeLinecap="round" strokeLinejoin="round"/>
<path d="M3 6H12" stroke="#465166" strokeWidth="1.5" stroke-miterlimit="10" strokeLinecap="round" strokeLinejoin="round"/>
<path d="M14 17.9775C14 17.9775 16.0694 18.0281 17.1743 17.9775C17.8512 17.9468 18.4509 17.6582 19.0548 16.8851C19.4861 16.3332 20.0288 16 20.602 16H21" stroke="#465166" strokeWidth="1.5" stroke-miterlimit="10" strokeLinecap="round" strokeLinejoin="round"/>
</svg>
