<svg xmlns="http://www.w3.org/2000/svg" width="21.557" height="21.579" viewBox="0 0 21.557 21.579">
  <path id="Path_5531" data-name="Path 5531" d="M770.093,576.936a10.79,10.79,0,1,1-10.735,10.85A10.769,10.769,0,0,1,770.093,576.936Zm3.362,17.612c-1.263-.776-1.771-1.359-1.852-2.411a1.447,1.447,0,0,0-1.611-1.554c-1.1-.031-1.188-1.047-1.241-1.7-.05-.62.033-1.53,1.047-1.741a4.042,4.042,0,0,1,3.847,1.011c1.069-.792,1.069-.792.3-1.813l-3.457-.559a8.329,8.329,0,0,1,.542-1.531,1.54,1.54,0,0,1,.866-.735,5.875,5.875,0,0,1,1.743.148c.944.163,1.419-.143,1.317-1.257h-2.88c-.01-.134-.057-.464-.057-.793,0-.644.074-1.291.023-1.929-.02-.246-.271-.649-.462-.679a8.04,8.04,0,0,0-4.516.386c.136.942.24,1.7.355,2.451.1.681.07,1.222-.852,1.226-.21,0-.418.3-.627.46.164.207.316.425.494.62.2.221.576.394.621.636a2.934,2.934,0,0,1-3.1,3.571c-.213-.006-.455-.15-.629-.085a7.131,7.131,0,0,0-1,.555c.261.22.53.639.782.629a2.512,2.512,0,0,1,2.783,2.341,5.821,5.821,0,0,1-.207,2.392c-.224.872.029,1.272.832,1.63a8.931,8.931,0,0,0,10.828-2.932c.583-.8,1.092-1.592.482-2.635a1.726,1.726,0,0,1-.065-.938c.122-1.409-.139-1.6-1.642-1.074l.838,1.388a4.263,4.263,0,0,1-1.263.125c-.758-.185-1.079.193-1.222.813-.12.521-.1,1.076-.236,1.591C774.029,592.928,773.743,593.679,773.456,594.548Z" transform="translate(-759.359 -576.935)" fill="#cecece"/>
</svg>
