<svg height="60" viewBox="0 0 100 60" width="100" xmlns="http://www.w3.org/2000/svg"><g fill="none" fill-rule="evenodd" transform="translate(0 -1)"><rect fill="#fff" fill-rule="nonzero" height="60" rx="4" width="100" y="1"/><path d="m13 0h74v61h-74z"/><g fill-rule="nonzero"><path d="m30.6315636 53.7482014v-3.0215827c.0356107-.5140744-.1516185-1.0186213-.5139218-1.3849213s-.8646445-.5589305-1.378867-.5287478c-.6776617-.0444435-1.3257932.2836077-1.6914284.8561151-.3333544-.5554377-.9437373-.883936-1.5907481-.8561151-.5633476-.02849-1.0996491.2435973-1.4095236.7151079v-.5942446h-1.0470747v4.8143885h1.0571427v-2.6489209c-.0455284-.3333358.0600445-.6696043.2879089-.9170405.2278644-.2474361.5542358-.3802127.8900502-.3620961.6946937 0 1.0470746.4532374 1.0470746 1.2690647v2.6791367h1.0571428v-2.6690648c-.0436602-.3329568.0625583-.6681356.2900002-.9151131.2274419-.2469774.552675-.3803085.8879588-.3640235.7148298 0 1.0571427.4532374 1.0571427 1.2690647v2.6791367zm15.6406783-4.8143885h-1.7216324v-1.4604316h-1.0571428v1.4604316h-.9564624v.9568346h.9765985v2.2158273c0 1.1179856.4329251 1.7827338 1.6712923 1.7827338.4626553.0015547.9163452-.1276227 1.3088434-.3726619l-.3020408-.8964029c-.2807956.1675517-.5994851.2611165-.9262584.2719425-.5034013 0-.6946938-.3223022-.6946938-.8057554v-2.1956834h1.7115644zm8.930339-.1208633c-.5200552-.0153006-1.0068112.2552246-1.2685713.705036v-.5841727h-1.0370067v4.8143885h1.0470747v-2.6992806c0-.7956834.3423129-1.2388489 1.0068026-1.2388489.2239553-.0030646.4463232.0380039.6544217.1208633l.3221768-1.0071942c-.2391297-.0855793-.4910654-.1298555-.7450339-.1309353zm-13.5012228.5035971c-.5926921-.3525295-1.2741339-.5273262-1.963265-.5035971-1.2182312 0-2.0136052.5841727-2.0136052 1.5410072 0 .7856115.5839455 1.2690647 1.6612243 1.4201439l.5034013.0705036c.5738774.0805755.8457141.2316546.8457141.5035971 0 .3726618-.3825849.5841726-1.0974148.5841726-.5749837.01665-1.1388431-.1607332-1.6008161-.5035971l-.5034013.8158274c.609928.4260384 1.3404679.6449326 2.0840814.6244604 1.3893875 0 2.1948296-.6546763 2.1948296-1.571223 0-.9165468-.6342856-1.2892086-1.6813603-1.4402878l-.5034013-.0705036c-.4530612-.0604316-.8155101-.1510791-.8155101-.4733813 0-.3223021.3423129-.5640287.9161904-.5640287.5304216.006164 1.050395.1483454 1.5102038.4129496zm28.0444862-.5035971c-.5200551-.0153006-1.0068111.2552246-1.2685713.705036v-.5841727h-1.0370066v4.8143885h1.0470747v-2.6992806c0-.7956834.3423129-1.2388489 1.0068026-1.2388489.2239552-.0030646.4463231.0380039.6544217.1208633l.3221768-1.0071942c-.2391297-.0855793-.4910655-.1298555-.7450339-.1309353zm-13.4911547 2.5179856c-.0251813.6841039.238967 1.3471538.727608 1.8264.4886411.4792462 1.1565334.730317 1.8397386.6915856.6286871.0319985 1.2465394-.1728345 1.7317005-.5741007l-.5034013-.8460432c-.3619602.2761279-.8033365.4280204-1.2585033.4330935-.8025723-.0649623-1.4208057-.7354988-1.4208057-1.5410071 0-.8055084.6182334-1.4760448 1.4208057-1.5410072.4551668.0050731.8965431.1569656 1.2585033.4330935l.5034013-.8460432c-.4851611-.4012661-1.1030134-.6060991-1.7317005-.5741007-.6832052-.0387314-1.3510975.2123395-1.8397386.6915856-.488641.4792462-.7527893 1.1422961-.727608 1.8264zm9.8062572 0v-2.3971223h-1.0470747v.5841727c-.3607356-.4643417-.9227465-.7267155-1.5102039-.705036-1.3901042 0-2.5170064 1.1273406-2.5170064 2.5179856s1.1269022 2.5179856 2.5170064 2.5179856c.5874574.0216795 1.1494683-.2406943 1.5102039-.705036v.5841727h1.0470747zm-3.896326 0c.0465621-.7903108.7160591-1.3984346 1.5068767-1.3687404.7908175.0296941 1.412862.6863136 1.4000724 1.4778925-.0127895.7915789-.6557216 1.4277442-1.4470853 1.4318551-.4029531.0051006-.7897237-.1583924-1.0669278-.4510042-.277204-.2926118-.4196467-.6877475-.392936-1.090003zm-12.6353725-2.5179856c-1.3901043.0194691-2.5012299 1.1625924-2.4817684 2.5532374s1.1621403 2.5022028 2.5522446 2.4827338c.7242632.0371901 1.4365086-.1961296 1.9985031-.6546763l-.5034013-.7755395c-.3975048.3189173-.8899622.4961292-1.3994556.5035971-.7196794.0619173-1.3578846-.4604536-1.4397277-1.1784173h3.5741492c0-.1309352 0-.2618705 0-.4028777 0-1.5107913-.9363264-2.5179855-2.2854419-2.5179855zm0 .9366907c.3164395-.0067491.6225916.1125689.8510698.3316911.2284783.2191222.3605558.5200885.3671613.8366542h-2.5170065c.0379204-.6723911.6058325-1.1913158 1.2786393-1.1683453zm26.2322415 1.5913668v-4.3410071h-1.0068026v2.5179856c-.3607357-.4643417-.9227465-.7267155-1.5102039-.705036-1.3901043 0-2.5170065 1.1273406-2.5170065 2.5179856s1.1269022 2.5179856 2.5170065 2.5179856c.5874574.0216795 1.1494682-.2406943 1.5102039-.705036v.5841727h1.0068026zm1.7468025 1.7071943c.0654487-.0008022.1304256.0111719.1912925.0352518.057812.0236006.1107304.0577548.1560544.1007194.0442335.0434208.0800723.0946392.1057143.1510791.0515287.1188728.0515287.2537892 0 .3726619-.025642.05644-.0614808.1076583-.1057143.1510791-.045324.0429646-.0982424.0771189-.1560544.1007195-.0602661.0266026-.1254203.0403246-.1912925.0402877-.1947913-.0014688-.371252-.1152322-.4530612-.2920863-.0509321-.1189959-.0509321-.253666 0-.3726619.025642-.0564399.0614808-.1076583.1057143-.1510791.0453239-.0429646.0982424-.0771188.1560544-.1007194.065568-.0260922.135887-.0381026.2063945-.0352518zm0 .8510791c.0502442.0003053.0999882-.0099905.1459864-.0302158.0433108-.0193444.0825902-.0466798.1157823-.0805756.1305304-.1424712.1305304-.3611259 0-.5035971-.033113-.0339892-.0724114-.0613378-.1157823-.0805755-.0460436-.0200828-.0957571-.0303723-.1459864-.0302158-.0501859.0002653-.0998154.0105374-.1459864.0302158-.0452283.0185525-.086302.0459457-.1208163.0805755-.1305304.1424712-.1305304.3611259 0 .5035971.034599.0345264.0756509.061905.1208163.0805756.050788.0219104.1058159.0322322.1610884.0302158zm.0302041-.5992806c.0469932-.0022798.0933008.0119743.1308843.0402878.0312624.0258829.0481309.065258.0453061.1057554.0014614.0338192-.0113212.0667014-.0352381.0906475-.0291781.0265123-.0664003.0424709-.1057142.0453237l.1459863.1661871h-.1157823l-.1359183-.1661871h-.0453061v.1661871h-.0956463v-.4431655zm-.1107483.0856115v.1208634h.1107483c.0197074.0058779.0407007.0058779.0604081 0 .00718-.0142542.00718-.0310696 0-.0453238.00718-.0142542.00718-.0310695 0-.0453237-.0197074-.0058779-.0407007-.0058779-.0604081 0zm-5.5374143-2.0446043c.0465621-.7903107.7160591-1.3984345 1.5068767-1.3687404.7908176.0296942 1.412862.6863137 1.4000725 1.4778925-.0127896.7915789-.6557216 1.4277442-1.4470854 1.4318551-.4029531.0051006-.7897237-.1583924-1.0669277-.4510042s-.4196468-.6877474-.3929361-1.090003zm-35.353873 0v-2.4071942h-1.0470747v.5841727c-.3607356-.4643417-.9227465-.7267155-1.5102038-.705036-1.3901043 0-2.5170065 1.1273406-2.5170065 2.5179856s1.1269022 2.5179856 2.5170065 2.5179856c.5874573.0216795 1.1494682-.2406943 1.5102038-.705036v.5841727h1.0470747zm-3.896326 0c.0465621-.7903107.7160591-1.3984345 1.5068767-1.3687404.7908175.0296942 1.412862.6863137 1.4000725 1.4778925-.0127896.7915789-.6557217 1.4277442-1.4470854 1.4318551-.4046896.007948-.7941529-.1542986-1.0735895-.4472468-.2794367-.2929483-.4232168-.6897288-.3963423-1.0937604z" fill="#231f20"/><g transform="translate(20 7)"><path d="m21.507 3.979h15.885v28.693h-15.885z" fill="#ff5f00"/><path d="m22.515812 18.3276712c-.005939-5.5999285 2.5510409-10.89140904 6.9337606-14.34890408-7.4431826-5.87942581-18.1318914-5.02303659-24.55438905 1.96732032-6.42249765 6.99035686-6.42249765 17.76774216 0 24.75809906s17.11120645 7.8467462 24.55438905 1.9673203c-4.3813255-3.4563974-6.9381492-8.7456856-6.9337606-14.3438356z" fill="#eb001b"/><path d="m58.8235043 18.3276712c-.0001621 6.9860969-3.9689245 13.3588502-10.2207388 16.4117271-6.2518143 3.0528768-13.689092 2.2499046-19.1531929-2.0678915 4.3794139-3.4593318 6.93643-8.7479168 6.93643-14.3463698s-2.5570161-10.88703806-6.93643-14.34636988c5.4641009-4.317796 12.9013786-5.12076828 19.1531929-2.06789142 6.2518143 3.05287687 10.2205767 9.4256301 10.2207388 16.411727zm-1.7347009 11.3027398v-.5879452h.2370086v-.1216439h-.6000855v.1216439h.2571795v.5879452zm1.1648718 0v-.7095891h-.1815384l-.2117949.5068493-.2117949-.5068493h-.1613675v.7095891h.1311111v-.5321918l.1966667.4612329h.1361538l.1966667-.4612329v.5372603z" fill="#f79e1b"/></g></g></g></svg>