<svg xmlns="http://www.w3.org/2000/svg" role="graphics-symbol" viewBox="0 0 20 20" class="calendarDate22" style="width: 16px; height: 16px; display: block; fill: inherit; flex-shrink: 0; color: rgba(55, 53, 47, 0.45);"><g><path d="M7.065 10.164c0-.753-.428-1.246-1.103-1.246-.688 0-.896.519-.87 1.337-.584.13-1.026-.26-1.026-1.026 0-1.012.91-1.908 2.779-1.908 1.583 0 2.674.973 2.674 2.22 0 1.298-.701 2.207-2.506 3.842l-.973.883c1.804.04 2.999-.052 3.557-.39.233.221.363.533.363.922 0 .792-.895 1.247-1.791 1.247-.87 0-4.388-.104-4.388-.104l-.195-.74L5.3 13.189c1.168-1.376 1.765-2.116 1.765-3.025zm6.593 0c0-.753-.429-1.246-1.104-1.246-.688 0-.896.519-.87 1.337-.584.13-1.025-.26-1.025-1.026 0-1.012.909-1.908 2.778-1.908 1.584 0 2.674.973 2.674 2.22 0 1.298-.7 2.207-2.505 3.842l-.974.883c1.805.04 2.999-.052 3.557-.39.234.221.364.533.364.922 0 .792-.896 1.247-1.792 1.247-.87 0-4.388-.104-4.388-.104l-.194-.74 1.713-2.012c1.168-1.376 1.766-2.116 1.766-3.025z"></path><path d="M16.664 0H3.334A3.333 3.333 0 000 3.334v13.332A3.333 3.333 0 003.334 20h13.332A3.333 3.333 0 0020 16.666V3.334A3.333 3.333 0 0016.666 0h-.002zm-.525 17.932H3.861a1.797 1.797 0 01-1.797-1.797V5.485h15.872v10.652c0 .993-.804 1.797-1.797 1.797v-.002z"></path></g></svg>