<svg xmlns="http://www.w3.org/2000/svg" width="32.479" height="32.121" viewBox="0 0 32.479 32.121">
  <g id="Group_2283" data-name="Group 2283" transform="translate(15280 18193.999)">
    <circle id="Ellipse_481" data-name="Ellipse 481" cx="14.277" cy="14.277" r="14.277" transform="translate(-15280 -18190.432)" fill="#edd6d6"/>
    <g id="Group_2280" data-name="Group 2280" transform="translate(-15275.711 -18194)">
      <path id="Path_1262" data-name="Path 1262" d="M-23.5,29.19A14.055,14.055,0,0,1-37.6,15.1,14.055,14.055,0,0,1-23.5,1,14.055,14.055,0,0,1-9.41,15.1,14.137,14.137,0,0,1-23.5,29.19Zm0-25.628A11.484,11.484,0,0,0-35.037,15.1,11.484,11.484,0,0,0-23.5,26.628,11.484,11.484,0,0,0-11.972,15.1,11.566,11.566,0,0,0-23.5,3.563Z" transform="translate(37.6 -1)" fill="#a06363"/>
    </g>
    <g id="Group_2281" data-name="Group 2281" transform="translate(-15266.565 -18187.801)">
      <path id="Path_1263" data-name="Path 1263" d="M-25.641,16.3a1.231,1.231,0,0,1-1.153-.9,1.333,1.333,0,0,1,.769-1.666c.769-.256,2.947-1.281,2.947-2.691a2.506,2.506,0,0,0-1.666-2.435,2.475,2.475,0,0,0-3.2,1.538,1.333,1.333,0,0,1-1.666.769,1.333,1.333,0,0,1-.769-1.666,4.988,4.988,0,0,1,6.535-3.075,5.247,5.247,0,0,1,3.46,4.869c0,3.332-4.229,4.869-4.741,5C-25.385,16.3-25.513,16.3-25.641,16.3Z" transform="translate(30.463 -5.838)" fill="#a06363"/>
    </g>
    <g id="Group_2282" data-name="Group 2282" transform="translate(-15262.896 -18174.779)">
      <path id="Path_1264" data-name="Path 1264" d="M-26.319,18.563a1.163,1.163,0,0,1-.9-.384,1.163,1.163,0,0,1-.384-.9,1.163,1.163,0,0,1,.384-.9,1.239,1.239,0,0,1,1.794,0,1.163,1.163,0,0,1,.384.9.77.77,0,0,1-.128.513c-.128.128-.128.256-.256.384s-.256.256-.384.256S-26.19,18.563-26.319,18.563Z" transform="translate(27.6 -16)" fill="#a06363"/>
    </g>
  </g>
</svg>
