<svg width="36" height="24" viewBox="0 0 36 24" fill="none" xmlns="http://www.w3.org/2000/svg">
<rect x="0.5" width="35" height="24" rx="4" fill="white"/>
<rect x="1" y="0.5" width="34" height="23" rx="3.5" stroke="black" stroke-opacity="0.1"/>
<path d="M20.5948 12.1266C20.5948 15.939 17.5397 19.0296 13.771 19.0296C10.0024 19.0296 6.94727 15.939 6.94727 12.1266C6.94727 8.3142 10.0024 5.22363 13.771 5.22363C17.5397 5.22363 20.5948 8.3142 20.5948 12.1266Z" fill="#ED0006"/>
<path d="M29.4464 12.1266C29.4464 15.939 26.3913 19.0296 22.6226 19.0296C18.8539 19.0296 15.7988 15.939 15.7988 12.1266C15.7988 8.3142 18.8539 5.22363 22.6226 5.22363C26.3913 5.22363 29.4464 8.3142 29.4464 12.1266Z" fill="#0099DF"/>
<path fill-rule="evenodd" clip-rule="evenodd" d="M18.1983 17.3809C19.6655 16.1148 20.5958 14.2308 20.5958 12.127C20.5958 10.0232 19.6655 8.13918 18.1983 6.87305C16.7311 8.13918 15.8008 10.0232 15.8008 12.127C15.8008 14.2308 16.7311 16.1148 18.1983 17.3809Z" fill="#6C6BBD"/>
</svg>
