<?xml version="1.0" encoding="UTF-8"?>
<svg width="25px" height="25px" viewBox="0 0 25 25" version="1.1" xmlns="http://www.w3.org/2000/svg" xmlns:xlink="http://www.w3.org/1999/xlink">
    <!-- Generator: Sketch 40.3 (33839) - http://www.bohemiancoding.com/sketch -->
    <title>Stroke 1110 + Stroke 1111 + Stroke 1112</title>
    <desc>Created with Sketch.</desc>
    <defs></defs>
    <g id="Page-1" stroke="none" stroke-width="1" fill="none" fill-rule="evenodd" stroke-linejoin="round">
        <g id="Flyout---Products" transform="translate(-147.000000, -511.000000)" stroke="#000000">
            <g id="Stroke-1110-+-Stroke-1111-+-Stroke-1112" transform="translate(148.000000, 512.000000)">
                <path d="M22.5208333,18.6875 C22.5208333,20.8044583 20.8044583,22.5208333 18.6875,22.5208333 L4.3125,22.5208333 C2.19554167,22.5208333 0.479166667,20.8044583 0.479166667,18.6875 L0.479166667,4.3125 C0.479166667,2.19554167 2.19554167,0.479166667 4.3125,0.479166667 L18.6875,0.479166667 C20.8044583,0.479166667 22.5208333,2.19554167 22.5208333,4.3125 L22.5208333,18.6875 L22.5208333,18.6875 Z" id="Stroke-1110" stroke-linecap="round"></path>
                <path d="M14.0118875,11.9791667 C14.0118875,13.3697083 12.8868042,14.4947917 11.4962625,14.4947917 C10.1076375,14.4947917 8.9806375,13.3697083 8.9806375,11.9791667 C8.9806375,10.5895833 10.1076375,9.46354167 11.4962625,9.46354167 C12.8868042,9.46354167 14.0118875,10.5895833 14.0118875,11.9791667 L14.0118875,11.9791667 Z" id="Stroke-1111"></path>
                <path d="M16.9467833,11.9791667 C16.9467833,11.5881667 16.9036583,11.20675 16.825075,10.83875 L18.1447,10.0778333 L16.4676167,7.17216667 L15.1729083,7.937875 C14.6094083,7.42804167 14.0717833,7.03320833 13.2332417,6.79458333 L13.2332417,5.27083333 L9.879075,5.27083333 L9.879075,6.79458333 C9.04053333,7.03320833 8.44253333,7.42804167 7.87903333,7.937875 L6.54024167,7.17216667 L4.85549167,10.0778333 L6.17128333,10.83875 C6.0927,11.20675 6.04765833,11.5881667 6.04765833,11.9791667 C6.04765833,12.3701667 6.089825,12.7525417 6.16745,13.1195833 L4.847825,13.8805 L6.52490833,16.7861667 L7.87903333,16.0214167 C8.44253333,16.5302917 9.04053333,16.925125 9.879075,17.1647083 L9.879075,18.6875 L13.2332417,18.6875 L13.2332417,17.1647083 C14.0717833,16.925125 14.6094083,16.5302917 15.1738667,16.0214167 L16.4819917,16.7861667 L18.1514083,13.8805 L16.8298667,13.1195833 C16.9074917,12.7525417 16.9467833,12.3701667 16.9467833,11.9791667 L16.9467833,11.9791667 Z" id="Stroke-1112"></path>
            </g>
        </g>
    </g>
</svg>