<svg xmlns="http://www.w3.org/2000/svg" width="20.988" height="15.5" viewBox="0 0 20.988 15.5">
  <g id="Group_2267" data-name="Group 2267" transform="translate(-16.545 -13.328)">
    <path id="Path_13332" data-name="Path 13332" d="M17465.783,16579.828h-19.488a.75.75,0,0,1,0-1.5h19.488a.75.75,0,0,1,0,1.5Z" transform="translate(-17429 -16565)" fill="#333333"/>
    <path id="Path_13333" data-name="Path 13333" d="M17465.783,16579.828h-19.488a.75.75,0,0,1,0-1.5h19.488a.75.75,0,0,1,0,1.5Z" transform="translate(-17429 -16558)" fill="#333333"/>
    <path id="Path_13334" data-name="Path 13334" d="M17465.783,16579.828h-19.488a.75.75,0,0,1,0-1.5h19.488a.75.75,0,0,1,0,1.5Z" transform="translate(-17429 -16551)" fill="#333333"/>
  </g>
</svg>
