<svg width="20" height="20" viewBox="0 0 20 20" fill="none" xmlns="http://www.w3.org/2000/svg">
<path fill-rule="evenodd" clip-rule="evenodd" d="M15.5783 7.92754L15.5783 7.92754V7.93756C15.5783 9.43439 14.9938 10.9087 13.9466 12.5537C13.0851 13.907 11.9778 15.278 10.737 16.8143L10.7369 16.8143C10.4976 17.1106 10.2533 17.4131 10.0048 17.7228C9.71035 17.3526 9.42143 16.993 9.13944 16.6419L9.13935 16.6418L9.13933 16.6418C7.95936 15.1729 6.90072 13.855 6.06544 12.5495C5.01172 10.9026 4.42119 9.4303 4.42119 7.93756C4.42119 5.60948 5.25028 4.20698 6.27624 3.36308C7.34342 2.48528 8.74786 2.11272 9.99974 2.11272C11.5253 2.11272 12.9163 2.49969 13.9034 3.3469C14.8549 4.16359 15.5982 5.55139 15.5783 7.92754ZM9.99974 0.91272C13.4112 0.91272 16.8226 2.63404 16.7783 7.93756C16.7783 11.2463 14.4209 14.1643 11.6526 17.5907L11.6523 17.5911C11.372 17.9381 11.0874 18.2903 10.8006 18.6487C10.3923 19.159 9.61036 19.1565 9.20434 18.6444C8.87571 18.2299 8.54927 17.8237 8.22827 17.4242C5.53269 14.0694 3.22119 11.1926 3.22119 7.93756C3.22119 2.63404 7.07566 0.91272 9.99974 0.91272ZM11.6402 7.44662C11.6402 8.35252 10.9059 9.0869 9.99996 9.0869C9.09406 9.0869 8.35968 8.35252 8.35968 7.44662C8.35968 6.54072 9.09406 5.80635 9.99996 5.80635C10.9059 5.80635 11.6402 6.54072 11.6402 7.44662ZM12.8402 7.44662C12.8402 9.01527 11.5686 10.2869 9.99996 10.2869C8.43131 10.2869 7.15968 9.01527 7.15968 7.44662C7.15968 5.87798 8.43131 4.60635 9.99996 4.60635C11.5686 4.60635 12.8402 5.87798 12.8402 7.44662Z" fill="#4E3844"/>
</svg>
