<svg width="22" height="22" viewBox="0 0 22 22" fill="none" xmlns="http://www.w3.org/2000/svg">
<g id="Icons/Base/Account">
<path id="Union" fill-rule="evenodd" clip-rule="evenodd" d="M16.0224 7.22566C16.0224 9.99936 13.7739 12.2479 11.0002 12.2479C8.22645 12.2479 5.97792 9.99936 5.97792 7.22566C5.97792 4.45195 8.22645 2.20342 11.0002 2.20342C13.7739 2.20342 16.0224 4.45195 16.0224 7.22566ZM13.8904 12.7373C15.8714 11.6964 17.2224 9.61879 17.2224 7.22566C17.2224 3.78921 14.4366 1.00342 11.0002 1.00342C7.56371 1.00342 4.77792 3.78921 4.77792 7.22566C4.77792 9.61878 6.12893 11.6964 8.10986 12.7373C4.69863 13.9309 2.25195 17.1781 2.25195 20.9967H3.45195C3.45195 16.828 6.83139 13.4486 11.0001 13.4486C15.1689 13.4486 18.5483 16.828 18.5483 20.9967H19.7483C19.7483 17.1781 17.3016 13.9309 13.8904 12.7373Z" fill="#221D1D"/>
</g>
</svg>
