<svg xmlns="http://www.w3.org/2000/svg" viewBox="0 0 511.999 511.999" width="512" height="512"><path d="M69.453 371.091c-4.802-4.8-12.588-4.8-17.391 0l-25.255 25.255c-4.802 4.802-4.802 12.588 0 17.391a12.263 12.263 0 0 0 8.695 3.602c3.148 0 6.296-1.201 8.696-3.602l25.255-25.255c4.802-4.802 4.802-12.588 0-17.391zM105.176 406.814c-4.8-4.8-12.588-4.8-17.389 0L3.601 491.001c-4.802 4.802-4.802 12.588 0 17.391 2.4 2.4 5.548 3.602 8.695 3.602 3.147 0 6.294-1.201 8.695-3.602l84.185-84.187c4.803-4.803 4.802-12.589 0-17.391zM140.901 442.54c-4.803-4.802-12.588-4.803-17.389-.001l-42.093 42.093c-4.802 4.802-4.803 12.588 0 17.391 2.401 2.4 5.548 3.602 8.695 3.602s6.294-1.201 8.695-3.602l42.093-42.091c4.8-4.803 4.802-12.589-.001-17.392zM372.797 139.201c-14.32-14.32-33.361-22.208-53.614-22.208-20.254 0-39.294 7.887-53.616 22.208-14.32 14.32-22.208 33.362-22.208 53.616s7.888 39.294 22.208 53.616c14.32 14.32 33.361 22.207 53.616 22.207 20.253 0 39.293-7.887 53.614-22.207 29.563-29.566 29.563-77.668 0-107.232zm-17.391 89.841c-9.675 9.676-22.54 15.005-36.224 15.005-13.685 0-26.55-5.329-36.225-15.005-9.677-9.676-15.005-22.54-15.005-36.225s5.328-26.549 15.005-36.225c9.675-9.676 22.54-15.005 36.225-15.005 13.683 0 26.549 5.329 36.224 15.005 19.974 19.974 19.974 52.476 0 72.45z" fill="#179dc7"/><path d="M503.429 17.28a12.299 12.299 0 0 0-8.705-8.705c-42.05-11.241-86.564-11.426-128.727-.536-6.572 1.698-13.05 3.693-19.443 5.911-.553.151-1.098.341-1.63.57a252.625 252.625 0 0 0-93.832 59.178l-.045.044c-.069.069-.14.134-.209.203-.113.113-.21.235-.317.35-.103.112-.214.214-.315.331l-37.664 43.835c-59.25-.654-116.831 22.757-158.814 64.74-13.651 13.651-25.43 28.95-35.009 45.472a12.296 12.296 0 0 0 7.604 18.083l68.347 17.399-13.373 36.318c-6.604 17.937-2.138 38.259 11.377 51.774l67.085 67.085c9.369 9.367 22.005 14.388 34.853 14.388a48.97 48.97 0 0 0 16.923-3.011l36.321-13.373 17.402 68.35a12.295 12.295 0 0 0 18.083 7.603c16.519-9.578 31.817-21.356 45.472-35.009 41.986-41.986 65.386-99.576 64.739-158.823l43.83-37.66c.114-.098.214-.207.325-.309.118-.109.243-.209.358-.323.07-.07.135-.143.205-.211.013-.015.028-.028.042-.043a252.61 252.61 0 0 0 59.178-93.828c.226-.535.418-1.082.569-1.638 2.218-6.39 4.213-12.868 5.91-19.439 10.887-42.162 10.701-86.675-.54-128.726zM48.859 227.117a197.968 197.968 0 0 1 22.259-26.526c32.16-32.16 74.618-52.036 119.449-56.553l-84.003 97.769-57.705-14.69zm55.513 81.854l11.445-31.081 15.862 15.862-23.975 38.369c-4.878-6.588-6.213-15.323-3.332-23.15zm21.033 41.231l24.122-38.603 16.745 16.744-31.363 31.362-9.504-9.503zm26.893 26.893l31.363-31.362 16.744 16.744-38.603 24.122-9.504-9.504zm50.735 30.537c-7.828 2.88-16.561 1.546-23.149-3.332l38.368-23.975 15.862 15.862-31.081 11.445zm108.386 33.26a198.18 198.18 0 0 1-26.526 22.259l-14.693-57.71 97.772-84.007c-4.514 44.83-24.394 87.295-56.553 119.458zM420.93 243.508l-163.895 140.82L127.677 254.97l99.48-115.781c.097-.107.189-.219.283-.33l41.056-47.783a228.142 228.142 0 0 1 78.203-50.981l125.21 125.211a228.094 228.094 0 0 1-50.979 78.202zm59.437-104.524L373.023 31.638c35.488-9.017 72.789-9.37 108.392-1.049 8.321 35.602 7.969 72.904-1.048 108.395z" fill="#179dc7"/></svg>