<svg width="43" height="43" viewBox="0 0 43 43" fill="none" xmlns="http://www.w3.org/2000/svg">
<path d="M20.2422 37.5784C19.8014 37.4028 19.3212 37.2882 18.9307 37.0337C18.2319 36.5822 17.8377 35.8907 17.7661 35.0522C17.7302 34.6508 17.7589 34.2459 17.7589 33.8267C20.2529 33.8267 22.7433 33.8267 25.2481 33.8267C25.3054 34.8264 25.2803 35.7832 24.578 36.5822C24.1337 37.0875 23.589 37.4064 22.9297 37.5282C22.8687 37.539 22.8114 37.5641 22.7541 37.582C21.9156 37.5784 21.0807 37.5784 20.2422 37.5784Z" fill="#34C759"/>
<path d="M37.5741 21.7509C37.3233 22.292 36.8933 22.464 36.3092 22.4496C35.1518 22.421 33.9908 22.4496 32.8298 22.4389C32.131 22.4317 31.6795 21.7867 31.9268 21.1632C32.0773 20.7869 32.3675 20.5684 32.7653 20.5648C34.0624 20.554 35.356 20.5576 36.6532 20.5612C37.119 20.5648 37.3734 20.873 37.5705 21.2492C37.5741 21.414 37.5741 21.5825 37.5741 21.7509Z" fill="#34C759"/>
<path d="M21.4992 31.9239C20.2952 31.9239 19.0912 31.9239 17.8872 31.9239C17.1455 31.9239 16.7943 31.5764 16.7872 30.8274C16.7764 29.4694 16.3177 28.3155 15.361 27.3229C11.0467 22.833 12.9279 15.3224 18.8583 13.4375C22.9505 12.1368 27.2218 13.932 29.1246 17.7949C30.6439 20.8729 30.0957 24.6426 27.7665 27.1832C27.0677 27.9464 26.4872 28.7599 26.3117 29.799C26.2507 30.1681 26.2221 30.5444 26.2077 30.9206C26.1791 31.5405 25.8207 31.9168 25.2008 31.9204C23.9682 31.9275 22.7319 31.9239 21.4992 31.9239ZM22.4381 17.716C22.4309 17.2036 22.0188 16.8023 21.4849 16.7879C19.4245 16.7306 17.4501 18.2428 16.9484 20.2566C16.8337 20.7189 17.0953 21.2062 17.5432 21.3639C18.0485 21.5394 18.5609 21.2958 18.7437 20.7619C18.9049 20.2924 19.1056 19.8517 19.4675 19.4969C20.0265 18.9487 20.7073 18.7086 21.4777 18.6692C22.0547 18.6441 22.4452 18.2428 22.4381 17.716Z" fill="#34C759"/>
<path d="M22.4425 8.28109C22.4425 8.88667 22.4461 9.49584 22.4425 10.1014C22.4389 10.7106 22.0484 11.1334 21.5001 11.1334C20.9519 11.1334 20.5649 10.7106 20.5613 10.0978C20.5577 8.88309 20.5577 7.66834 20.5613 6.45717C20.5649 5.848 20.9554 5.42517 21.5037 5.42517C22.0519 5.42517 22.4389 5.848 22.4425 6.46075C22.4425 7.06634 22.4425 7.67192 22.4425 8.28109Z" fill="#34C759"/>
<path d="M8.28072 22.4425C7.67514 22.4425 7.06597 22.446 6.46039 22.4425C5.84764 22.4389 5.4248 22.0483 5.4248 21.5C5.4248 20.9518 5.84764 20.5612 6.46039 20.5576C7.67514 20.554 8.8863 20.554 10.1011 20.5576C10.7138 20.5612 11.1366 20.9482 11.1366 21.5C11.1366 22.0483 10.7138 22.4389 10.1011 22.4425C9.49189 22.4425 8.88631 22.4425 8.28072 22.4425Z" fill="#34C759"/>
<path d="M14.4584 13.3981C14.419 13.9033 14.247 14.2007 13.8886 14.3584C13.5195 14.5232 13.1648 14.4659 12.871 14.19C12.5055 13.846 12.1543 13.4841 11.7995 13.1293C11.2656 12.5954 10.7317 12.0651 10.2014 11.5312C9.92187 11.2481 9.82154 10.9041 9.9577 10.5242C10.0867 10.1695 10.3519 9.92224 10.7245 9.92582C10.9861 9.9294 11.3086 10.0154 11.4878 10.1838C12.4051 11.0546 13.2974 11.9576 14.1753 12.8677C14.3365 13.029 14.3975 13.2798 14.4584 13.3981Z" fill="#34C759"/>
<path d="M32.0344 9.89001C32.5217 9.92226 32.8155 10.0728 32.9875 10.4132C33.1631 10.7643 33.138 11.1083 32.8908 11.4129C32.708 11.6387 32.4895 11.8393 32.2816 12.0472C31.5793 12.7495 30.877 13.4554 30.171 14.1542C29.8844 14.4373 29.5368 14.5268 29.1605 14.3835C28.8237 14.2581 28.6195 14.0001 28.5621 13.6382C28.5155 13.3372 28.6015 13.072 28.813 12.8606C29.7052 11.9612 30.5939 11.0582 31.5005 10.1767C31.6653 10.019 31.9125 9.95093 32.0344 9.89001Z" fill="#34C759"/>
</svg>
