<svg width="36" height="24" viewBox="0 0 36 24" fill="none" xmlns="http://www.w3.org/2000/svg">
<rect x="0.5" width="35" height="24" rx="4" fill="white"/>
<rect x="1" y="0.5" width="34" height="23" rx="3.5" stroke="black" stroke-opacity="0.1"/>
<path d="M15.5 23L34.5 17.25V20C34.5 21.6569 33.1569 23 31.5 23H15.5Z" fill="#FD6020"/>
<path fill-rule="evenodd" clip-rule="evenodd" d="M30.8935 9.11133C31.9388 9.11133 32.5137 9.59487 32.5137 10.5082C32.566 11.2067 32.0956 11.7977 31.4684 11.9051L32.8796 13.893H31.782L30.5799 11.9589H30.4754V13.893H29.5869V9.11133H30.8935ZM30.4756 11.3139H30.7369C31.3118 11.3139 31.5731 11.0453 31.5731 10.5617C31.5731 10.1319 31.3118 9.86328 30.7369 9.86328H30.4756V11.3139ZM26.5039 13.893H29.0126V13.0871H27.3924V11.7977H28.9603V10.9918H27.3924V9.91723H29.0126V9.11133H26.5039V13.893ZM23.8899 12.3349L22.6878 9.11133H21.7471L23.6809 14.0005H24.1512L26.085 9.11133H25.1443L23.8899 12.3349ZM13.2803 11.5283C13.2803 12.8715 14.3256 13.9998 15.6322 13.9998C16.0503 13.9998 16.4162 13.8923 16.782 13.7311V12.6566C16.5207 12.9789 16.1548 13.1939 15.7367 13.1939C14.9005 13.1939 14.221 12.5491 14.221 11.6895V11.582C14.1688 10.7224 14.8482 9.97024 15.6845 9.91651C16.1026 9.91651 16.5207 10.1314 16.782 10.4538V9.37924C16.4684 9.16433 16.0503 9.11061 15.6845 9.11061C14.3256 9.00315 13.2803 10.1314 13.2803 11.5283ZM11.6598 10.9376C11.1372 10.7227 10.9804 10.6152 10.9804 10.3466C11.0326 10.0242 11.294 9.75557 11.6075 9.8093C11.8689 9.8093 12.1302 9.97048 12.3393 10.1854L12.8096 9.54066C12.4438 9.2183 11.9734 9.00339 11.503 9.00339C10.7713 8.94967 10.1441 9.54066 10.0919 10.2928V10.3466C10.0919 10.9913 10.3532 11.3674 11.1894 11.636C11.3985 11.6897 11.6075 11.7972 11.8166 11.9046C11.9734 12.0121 12.0779 12.1733 12.0779 12.3882C12.0779 12.7643 11.7643 13.0866 11.4508 13.0866H11.3985C10.9804 13.0866 10.6145 12.818 10.4577 12.4419L9.88281 13.0329C10.1964 13.6239 10.8236 13.9463 11.4508 13.9463C12.287 14 12.9664 13.3553 13.0187 12.4956V12.3345C12.9664 11.6897 12.7051 11.3674 11.6598 10.9376ZM8.62891 13.893H9.51741V9.11133H8.62891V13.893ZM4.5 9.11133H5.80662H6.06794C7.3223 9.16506 8.31532 10.2396 8.26306 11.529C8.26306 12.2275 7.94947 12.8722 7.42682 13.3558C6.95644 13.7318 6.38153 13.9468 5.80662 13.893H4.5V9.11133ZM5.65 13.0874C6.06811 13.1411 6.5385 12.98 6.85208 12.7113C7.16567 12.389 7.32247 11.9591 7.32247 11.4756C7.32247 11.0458 7.16567 10.616 6.85208 10.2936C6.5385 10.025 6.06811 9.86379 5.65 9.91752H5.38867V13.0874H5.65Z" fill="black"/>
<path fill-rule="evenodd" clip-rule="evenodd" d="M19.4471 9C18.1405 9 17.043 10.0745 17.043 11.4714C17.043 12.8146 18.0883 13.9429 19.4471 13.9966C20.806 14.0503 21.8513 12.9221 21.9036 11.5252C21.8513 10.1283 20.806 9 19.4471 9V9Z" fill="#FD6020"/>
</svg>
