<svg width="312" height="171" viewBox="0 0 312 171" fill="none" xmlns="http://www.w3.org/2000/svg">
<path fill-rule="evenodd" clip-rule="evenodd" d="M71.4822 9.50633C76.6812 4.12439 83.4697 0.108171 90.9533 0.828289C107.502 2.42075 117.587 13.0371 123.531 26.3724C129.453 39.6589 131.362 55.8139 131.592 69.0355C131.624 70.8853 131.606 72.6848 131.539 74.4425C141.28 68.2589 150.276 63.432 154.531 61.1489C154.672 61.0731 154.808 61.0001 154.939 60.93C201.019 36.1921 259.093 30.9918 309.904 37.3508C310.726 37.4537 311.309 38.2035 311.206 39.0255C311.103 39.8475 310.354 40.4305 309.532 40.3276C259.114 34.0179 201.72 39.2207 156.358 63.5732C156.23 63.6421 156.096 63.7136 155.958 63.7879C151.444 66.2099 141.655 71.4629 131.322 78.144C130.29 91.1418 126.506 101.957 120.929 114.347C119.125 118.354 115.655 123.158 111.481 125.685C109.37 126.962 106.969 127.721 104.47 127.356C101.946 126.988 99.5714 125.511 97.4663 122.804C94.5643 119.072 93.8961 114.953 94.8686 110.758C95.8238 106.638 98.3456 102.488 101.723 98.4774C108.341 90.62 118.607 82.883 128.435 76.4436C128.582 74.0797 128.637 71.6359 128.592 69.0877C128.365 56.038 126.475 40.3472 120.791 27.5937C115.128 14.8889 105.8 5.27078 90.666 3.8145C84.4758 3.21884 78.5312 6.52724 73.6399 11.5907C68.7638 16.6384 65.1689 23.2028 63.6863 28.5393C61.0828 37.9104 61.1671 47.0008 61.2572 56.7205C61.27 58.0971 61.2828 59.4863 61.2882 60.8908C61.2909 61.5966 61.2982 62.2529 61.305 62.8565C61.3192 64.1373 61.3308 65.1803 61.2901 65.9544C61.2603 66.5225 61.1978 67.1098 61.0214 67.6133C60.8299 68.1598 60.4295 68.7989 59.6316 69.075C58.9535 69.3096 58.2884 69.1635 57.8469 69.0291C57.3671 68.8831 56.8314 68.645 56.274 68.3794C55.8843 68.1938 55.4686 67.9877 55.0117 67.7611C54.0842 67.3012 52.987 66.7571 51.5942 66.1301C41.5044 61.5878 27.8042 61.6817 18.5299 66.3047C13.9265 68.5993 10.5373 71.9427 9.10043 76.2588C7.66693 80.5648 8.08326 86.1203 11.6578 93.0377C19.2301 107.691 31.7365 115.987 45.1512 124.885C45.4 125.05 45.6492 125.215 45.8986 125.381C49.4892 123.666 52.9755 123.07 56.5992 123.549C60.4493 124.059 64.338 125.766 68.5697 128.401C69.8046 129.17 70.9055 130.326 71.7495 131.563C72.5925 132.798 73.2498 134.219 73.5062 135.581C73.7543 136.899 73.6765 138.504 72.5447 139.652C71.4033 140.809 69.6605 141.026 67.714 140.678C64.2097 140.051 60.1355 138.017 56.3748 135.793C53.361 134.011 50.4234 132.029 48.0093 130.4C47.3869 129.98 46.7993 129.584 46.2542 129.22C46.0744 129.1 45.8947 128.98 45.715 128.861C44.4452 129.582 43.1306 130.471 41.7543 131.541C37.7415 134.661 34.2168 139.925 32.5567 145.636C30.8977 151.343 31.161 157.256 34.3442 161.856C35.3346 163.287 36.0202 164.473 36.3373 165.41C36.3425 165.426 36.3477 165.441 36.3529 165.457C36.7289 165.278 37.1065 165.093 37.4861 164.904C38.1369 164.581 38.7976 164.242 39.4653 163.9C41.7218 162.745 44.0586 161.549 46.364 160.735C47.1453 160.46 48.002 160.87 48.2776 161.651C48.5532 162.432 48.1433 163.289 47.3621 163.565C45.2651 164.304 43.1783 165.372 40.9601 166.507C40.2619 166.864 39.5507 167.228 38.8221 167.59C35.8582 169.065 32.6626 170.479 29.2958 170.916C28.8228 170.978 28.411 170.853 28.1486 170.748C27.8648 170.634 27.5951 170.477 27.3536 170.317C26.8696 169.995 26.3444 169.553 25.8175 169.064C24.7557 168.078 23.5288 166.755 22.3557 165.419C20.0018 162.74 17.7543 159.884 17.2706 159.262C17.0868 159.026 16.9198 158.794 16.7953 158.58C16.7343 158.475 16.6582 158.332 16.5992 158.166C16.5564 158.046 16.4353 157.684 16.5329 157.241C16.5896 156.983 16.7219 156.696 16.9717 156.455C17.2162 156.219 17.4914 156.106 17.7109 156.056C18.096 155.969 18.4174 156.048 18.5331 156.079C18.8093 156.153 19.0674 156.288 19.2369 156.382C19.9566 156.782 21.1608 157.655 22.4467 158.606C22.8283 158.888 23.222 159.181 23.6217 159.478C26.0676 161.296 28.7433 163.285 30.3041 164.112C31.3957 164.69 32.3174 165.129 33.0471 165.411C32.7805 164.928 32.4002 164.318 31.8773 163.563C28.0186 157.987 27.8566 151.057 29.676 144.799C31.4944 138.543 35.3521 132.719 39.9129 129.173C40.9397 128.374 41.9498 127.658 42.9486 127.025C29.8037 118.31 16.8597 109.639 8.99259 94.4149C5.16284 87.0036 4.49476 80.5958 6.25402 75.3112C8.0099 70.0368 12.0906 66.1625 17.1916 63.6198C27.3261 58.568 41.9725 58.5085 52.8257 63.3945C54.2636 64.0418 55.4771 64.6431 56.4292 65.1149C56.8629 65.3298 57.2424 65.5178 57.5641 65.671C57.8509 65.8076 58.0866 65.9144 58.2818 65.996C58.2863 65.9349 58.2905 65.8687 58.2943 65.7969C58.3299 65.1197 58.3199 64.2326 58.3063 63.0325C58.2993 62.4111 58.2913 61.7058 58.2882 60.9023C58.283 59.5217 58.2697 58.1453 58.2564 56.7718C58.1629 47.0849 58.0709 37.5444 60.7958 27.7363C62.4156 21.9056 66.2681 14.9039 71.4822 9.50633ZM58.8922 66.2003C58.8921 66.2004 58.8902 66.2003 58.8863 66.1997C58.8902 66.2 58.8922 66.2003 58.8922 66.2003ZM30.6113 167.623C30.0709 167.369 29.4976 167.079 28.9 166.763C28.0699 166.323 26.9963 165.62 25.8429 164.812C26.5621 165.593 27.2509 166.301 27.8583 166.865C28.3369 167.309 28.7262 167.627 29.0143 167.818C29.0715 167.856 29.1187 167.885 29.1564 167.907C29.6416 167.836 30.1264 167.74 30.6113 167.623ZM29.262 167.962C29.2628 167.962 29.2635 167.962 29.2642 167.963C29.2699 167.965 29.2726 167.966 29.2726 167.966C29.2726 167.966 29.269 167.964 29.262 167.962ZM48.884 127.371C49.1578 127.556 49.4383 127.745 49.7248 127.938C52.1347 129.564 54.9737 131.48 57.9018 133.211C61.6299 135.416 65.3073 137.2 68.2425 137.725C69.8014 138.004 70.2947 137.661 70.4085 137.545C70.5317 137.42 70.7282 137.04 70.558 136.136C70.3962 135.276 69.9429 134.238 69.2714 133.254C68.6008 132.271 67.7832 131.446 66.9841 130.948C62.9296 128.424 59.4596 126.954 56.2058 126.524C53.7643 126.201 51.3784 126.454 48.884 127.371ZM128.112 80.2563C118.992 86.3643 109.922 93.3998 104.018 100.41C100.784 104.249 98.5942 107.972 97.7911 111.436C97.0053 114.825 97.5328 118.002 99.8346 120.962C101.586 123.215 103.322 124.157 104.903 124.388C106.508 124.622 108.206 124.16 109.927 123.118C113.417 121.005 116.546 116.773 118.193 113.116C123.357 101.644 126.871 91.7437 128.112 80.2563Z" fill="black" fill-opacity="0.9"/>
</svg>
