<svg width="36" height="24" viewBox="0 0 36 24" fill="none" xmlns="http://www.w3.org/2000/svg">
<rect x="0.5" width="35" height="24" rx="4" fill="white"/>
<rect x="1" y="0.5" width="34" height="23" rx="3.5" stroke="black" stroke-opacity="0.1"/>
<path d="M15.9212 12.6914H4.5V16.4962H15.9212V12.6914Z" fill="#84B740"/>
<path d="M15.9212 7.5H4.5V11.3082H15.9212V7.5Z" fill="#259BD6"/>
<path d="M27.3434 15.7234L27.2925 15.7336C27.1162 15.7675 27.0518 15.7811 26.9229 15.7811C26.6245 15.7811 26.2718 15.6285 26.2718 14.9096C26.2718 14.5399 26.3328 14.0482 26.889 14.0482H26.8924C26.9873 14.055 27.0958 14.0652 27.2993 14.1262L27.3434 14.1398V15.7234ZM27.4349 12.139L27.3434 12.156V13.4853L27.262 13.4616L27.2383 13.4548C27.1467 13.4277 26.9365 13.3666 26.733 13.3666C25.6207 13.3666 25.3867 14.2076 25.3867 14.913C25.3867 15.8794 25.9293 16.4356 26.8754 16.4356C27.2756 16.4356 27.5706 16.3949 27.869 16.2965C28.1437 16.2084 28.242 16.0829 28.242 15.815V12C27.9775 12.0475 27.7028 12.095 27.4349 12.139Z" fill="#27292D"/>
<path d="M30.6484 15.7471L30.6009 15.7607L30.4314 15.8048C30.272 15.8455 30.1296 15.8692 30.021 15.8692C29.7599 15.8692 29.6039 15.7403 29.6039 15.5199C29.6039 15.3775 29.6684 15.1367 30.0956 15.1367H30.6484V15.7471ZM30.2584 13.3496C29.9159 13.3496 29.5632 13.4106 29.1258 13.5463L28.8409 13.6311L28.9359 14.2754L29.214 14.1838C29.5056 14.0889 29.8684 14.0278 30.1397 14.0278C30.2618 14.0278 30.6348 14.0278 30.6348 14.4314V14.6077H30.116C29.1699 14.6077 28.7324 14.9095 28.7324 15.5572C28.7324 16.11 29.136 16.4423 29.8142 16.4423C30.0244 16.4423 30.3161 16.4016 30.567 16.3406L30.5806 16.3372L30.5941 16.3406L30.6789 16.3541C30.9434 16.4016 31.2181 16.4491 31.486 16.4999V14.3839C31.486 13.6989 31.0723 13.3496 30.2584 13.3496Z" fill="#27292D"/>
<path d="M24.0605 15.7471L24.013 15.7607L23.8435 15.8048C23.6841 15.8455 23.5451 15.8692 23.4332 15.8692C23.172 15.8692 23.016 15.7403 23.016 15.5199C23.016 15.3775 23.0805 15.1367 23.5044 15.1367H24.0571L24.0605 15.7471ZM23.6739 13.3496C23.328 13.3496 22.9787 13.4106 22.5413 13.5463L22.2564 13.6311L22.3514 14.2754L22.6295 14.1838C22.9211 14.0889 23.2839 14.0278 23.5552 14.0278C23.6773 14.0278 24.0503 14.0278 24.0503 14.4314V14.6077H23.5315C22.5854 14.6077 22.1445 14.9095 22.1445 15.5572C22.1445 16.11 22.5481 16.4423 23.2297 16.4423C23.4399 16.4423 23.7316 16.4016 23.9825 16.3406L23.9961 16.3372L24.0096 16.3406L24.091 16.3541C24.3589 16.4016 24.6302 16.4491 24.8981 16.5033V14.3873C24.9015 13.6955 24.4878 13.3496 23.6739 13.3496Z" fill="#27292D"/>
<path d="M20.4895 13.3569C20.0588 13.3569 19.7027 13.4993 19.5705 13.5604L19.5366 13.5773L19.506 13.5536C19.3229 13.4213 19.055 13.3535 18.682 13.3535C18.3531 13.3535 18.0445 13.401 17.7087 13.4993C17.4205 13.5875 17.3086 13.7265 17.3086 13.9877V16.4055H18.2106V14.1708L18.2547 14.1572C18.4378 14.0962 18.5463 14.086 18.6515 14.086C18.9126 14.086 19.0448 14.225 19.0448 14.4963V16.4089H19.9333V14.459C19.9333 14.3437 19.9096 14.2759 19.9062 14.2623L19.8757 14.2047L19.9367 14.1776C20.0723 14.1165 20.2216 14.086 20.3775 14.086C20.5573 14.086 20.7709 14.1572 20.7709 14.4963V16.4089H21.656V14.4081C21.656 13.6994 21.2762 13.3569 20.4895 13.3569Z" fill="#27292D"/>
<path d="M29.9844 9.98229C29.8522 9.98229 29.6318 9.96873 29.4588 9.93482L29.408 9.92464V8.61907C29.408 8.51055 29.3876 8.44273 29.3842 8.43255L29.3571 8.3783L29.4147 8.35456C29.4283 8.34778 29.4419 8.34439 29.4588 8.3376L29.469 8.33082C29.4893 8.32404 29.5097 8.31726 29.53 8.31047C29.5402 8.30708 29.547 8.30369 29.5538 8.30369C29.7539 8.24943 29.937 8.25622 30.0184 8.24943H30.0217C30.5745 8.24943 30.6389 8.74115 30.6389 9.11078C30.6355 9.82969 30.2795 9.98229 29.9844 9.98229ZM29.9811 7.5C29.9743 7.5 29.9641 7.5 29.9573 7.5C29.4385 7.5 28.9061 7.64243 28.7162 7.9205C28.6144 8.05614 28.5568 8.2257 28.5534 8.42577V9.77204C28.5534 9.88734 28.5297 9.93142 28.5263 9.9416L28.4958 9.99925H26.8578V9.0633H26.8545C26.8341 8.07649 26.2508 7.53391 25.4065 7.53391H25.3081H24.5824C24.5485 7.77468 24.5214 7.94424 24.4875 8.185H25.3081C25.7388 8.185 25.966 8.55124 25.966 9.11417V10.0569L25.9083 10.0264C25.8982 10.023 25.8269 9.99925 25.715 9.99925H24.2976C24.2704 10.179 24.2365 10.413 24.1992 10.6469H28.5568C28.706 10.6164 28.8789 10.5893 29.0282 10.5656C29.2486 10.6741 29.6589 10.7317 29.9404 10.7317C30.8865 10.7317 31.5003 10.0976 31.5003 9.12095C31.4969 8.15448 30.9034 7.52035 29.9811 7.5Z" fill="#27292D"/>
<path d="M22.341 11.0435H22.3817C23.3278 11.0435 23.7687 10.7315 23.7687 9.96175C23.7687 9.409 23.3651 8.96816 22.6869 8.96816H21.8154C21.5543 8.96816 21.3983 8.81895 21.3983 8.56801C21.3983 8.39845 21.4627 8.1882 21.89 8.1882H23.7958C23.8365 7.94065 23.8568 7.78466 23.8941 7.53711H21.9137C20.9913 7.53711 20.5268 7.9237 20.5268 8.56801C20.5268 9.20553 20.9303 9.53786 21.6085 9.53786H22.48C22.7411 9.53786 22.8971 9.74472 22.8971 9.96175C22.8971 10.1042 22.8327 10.3992 22.4088 10.3992H22.263L19.4721 10.3924H18.9635C18.5328 10.3924 18.231 10.1483 18.231 9.58195V9.19197C18.231 8.60192 18.465 8.23568 18.9635 8.23568H19.7909C19.8282 7.98474 19.8519 7.82535 19.8858 7.58798H18.8549H18.7566C17.9122 7.58798 17.3289 8.15429 17.3086 9.1411V9.17841V9.58195C17.3289 10.5688 17.9122 11.0401 18.7566 11.0401H18.8549H19.5806L21.0931 11.0435H21.9951H22.341Z" fill="#27292D"/>
</svg>
