<svg width="16" height="20" viewBox="0 0 72 72" fill="none" xmlns="http://www.w3.org/2000/svg"><path fill-rule="evenodd" clip-rule="evenodd" d="M34.852 6.22836C35.973 5.76401 37.2634 6.02068 38.1214 6.87868L53.1214 21.8787C53.7485 22.5058 54.066 23.3782 53.9886 24.2617C53.9113 25.1451 53.447 25.9491 52.7205 26.4577L39.0886 36.0003L52.7204 45.5423C53.447 46.0508 53.9113 46.8548 53.9886 47.7383C54.066 48.6218 53.7485 49.4942 53.1214 50.1213L38.1214 65.1213C37.2634 65.9793 35.973 66.236 34.852 65.7716C33.731 65.3073 33.0001 64.2134 33.0001 63V40.2624L22.7205 47.4583C21.3632 48.4085 19.4926 48.0784 18.5424 46.721C17.5922 45.3637 17.9223 43.4931 19.2797 42.543L28.6258 36.0004L19.2797 29.4583C17.9224 28.5082 17.5922 26.6376 18.5424 25.2803C19.4925 23.9229 21.3631 23.5928 22.7204 24.5429L33.0001 31.7384V9C33.0001 7.78661 33.731 6.6927 34.852 6.22836ZM39.0001 43.2622L46.3503 48.4072L39.0001 55.7574V43.2622ZM39.0001 28.7382V16.2426L46.3503 23.5929L39.0001 28.7382Z" fill="currentColor"></path></svg>