<?xml version="1.0" encoding="utf-8"?>
<!-- Generator: Adobe Illustrator 26.4.0, SVG Export Plug-In . SVG Version: 6.00 Build 0)  -->
<svg version="1.1" id="Layer_1" xmlns="http://www.w3.org/2000/svg" xmlns:xlink="http://www.w3.org/1999/xlink" x="0px" y="0px"
	 viewBox="0 0 39.5 27.1" style="enable-background:new 0 0 39.5 27.1;" xml:space="preserve">
<style type="text/css">
	.st0{fill:#BF9CE8;}
	.st1{fill:#2C0074;}
	.st2{fill:#FFFFFF;}
	.st3{fill:#5E369F;}
</style>
<g id="Group_2276" transform="translate(4022.554 -21380.033)">
	<g id="Ellipse_479" transform="translate(-3987.118 21388.814)">
		<g>
			<circle class="st0" cx="2" cy="2" r="2"/>
		</g>
		<g>
			<path class="st1" d="M2,4C0.9,4,0,3.1,0,2s0.9-2,2-2c1.1,0,2,0.9,2,2S3.1,4,2,4z M2,1C1.5,1,1,1.5,1,2s0.5,1,1,1s1-0.5,1-1
				S2.6,1,2,1z"/>
		</g>
	</g>
	<g id="Ellipse_480" transform="translate(-4016.978 21380.033)">
		<g>
			<circle class="st0" cx="1.2" cy="1.2" r="1.2"/>
		</g>
		<g>
			<path class="st1" d="M1.2,2.4C0.5,2.4,0,1.9,0,1.2S0.5,0,1.2,0c0.7,0,1.2,0.5,1.2,1.2S1.9,2.4,1.2,2.4z M1.2,1C1.1,1,1,1.1,1,1.2
				c0,0.2,0.4,0.2,0.4,0C1.4,1.1,1.3,1,1.2,1z"/>
		</g>
	</g>
	<g id="Path_1514">
		<path class="st2" d="M-3990.5,21404.3h-25.2c-1.2,0-2.2-1-2.2-2.2s1-2.2,2.2-2.2h25.2c1.2,0,2.2,1,2.2,2.2
			S-3989.3,21404.3-3990.5,21404.3L-3990.5,21404.3"/>
	</g>
	<g id="Path_1515">
		<path class="st3" d="M-3987.9,21405.6h-30.5c-1.6-0.1-2.8-1.5-2.7-3c0.1-1.4,1.2-2.6,2.7-2.7h30.5c1.6,0.1,2.8,1.5,2.7,3
			C-3985.3,21404.4-3986.4,21405.5-3987.9,21405.6z"/>
		<path class="st1" d="M-3987.8,21407.1l-30.7,0c-1.2-0.1-2.2-0.6-3-1.5c-0.8-0.9-1.1-2-1.1-3.2c0.1-2.2,1.9-3.9,4-4l0.1,0l30.6,0
			c2.4,0.2,4.2,2.2,4,4.6C-3983.9,21405.2-3985.6,21407-3987.8,21407.1L-3987.8,21407.1z M-4018.3,21404.1h30.4
			c0.7-0.1,1.2-0.6,1.2-1.3c0-0.7-0.5-1.4-1.2-1.4h-30.4c-0.7,0.1-1.2,0.6-1.2,1.3c0,0.4,0.1,0.7,0.3,1
			C-4019,21403.9-4018.7,21404.1-4018.3,21404.1z"/>
	</g>
	<g id="Group_2275" transform="translate(0 1)">
		<g id="Path_1516">
			<path class="st0" d="M-3995.8,21404.2c4.9-4,5.5-11.2,1.5-16.1s-11.2-5.5-16.1-1.5c-4.9,4-5.5,11.2-1.5,16.1
				c0.5,0.6,1.1,1.2,1.7,1.6L-3995.8,21404.2z"/>
		</g>
		<g id="Path_1517">
			<path class="st1" d="M-4010.8,21405.8l-0.4-0.3c-0.7-0.6-1.3-1.2-1.9-1.9c-2.2-2.7-3.2-6-2.9-9.5c0.3-3.4,2-6.5,4.6-8.8
				c5.5-4.6,13.7-3.8,18.2,1.7c4.5,5.5,3.8,13.7-1.7,18.2l-0.4,0.3L-4010.8,21405.8z M-4003.1,21385.5c-2.2,0-4.5,0.7-6.3,2.3
				c-2,1.7-3.3,4.1-3.6,6.7c-0.2,2.6,0.5,5.2,2.2,7.3c0.3,0.4,0.7,0.8,1.1,1.1l13.3-0.1c3.9-3.5,4.3-9.6,0.9-13.6
				C-3997.4,21386.7-4000.3,21385.5-4003.1,21385.5z"/>
		</g>
	</g>
	<g id="Path_1518">
		<path class="st1" d="M-4009.2,21397.8c-0.1,0-0.1,0-0.2,0c-0.8-0.1-1.4-0.9-1.3-1.7c0.2-1.3,0.5-2.5,1.1-3.6l0.1-0.2
			c0.8-1.2,1.9-2.1,3.1-2.8c0.7-0.4,1.6-0.1,2,0.6c0.4,0.7,0.1,1.6-0.6,2c-0.8,0.4-1.4,1-1.9,1.7c-0.4,0.8-0.7,1.7-0.8,2.6
			C-4007.8,21397.2-4008.5,21397.8-4009.2,21397.8z"/>
	</g>
</g>
</svg>
