<svg xmlns="http://www.w3.org/2000/svg" width="19.861" height="16.846" viewBox="0 0 19.861 16.846">
  <g id="Grupo_2419" data-name="Grupo 2419" transform="translate(-22.585 -412.604)">
    <g id="Grupo_2369" data-name="Grupo 2369" transform="translate(29.415 429.449) rotate(-90)">
      <path id="Trazado_13953" data-name="Trazado 13953" d="M16.481,7.35,10.2,12.336a2.572,2.572,0,0,1-3.516,0L.382,7.328A1.014,1.014,0,0,1,.22,5.905a.982.982,0,0,1,1.4-.162l5.691,4.543V-5.785A1.064,1.064,0,0,1,8.375-6.83a.94.94,0,0,1,.693.306,1.011,1.011,0,0,1,.262.74V10.356l5.835-4.59a1.045,1.045,0,0,1,1.449.162A1.01,1.01,0,0,1,16.481,7.35Z" fill="#aaa"/>
    </g>
  </g>
</svg>
