<svg xmlns="http://www.w3.org/2000/svg" width="25" height="24" viewBox="0 0 25 24" fill="none">
    <path
        d="M21.8335 3.05556H1.38911V0.5H21.8335V3.05556ZM14.5502 10.7222C13.528 11.9489 12.8891 13.5078 12.8891 15.1944C12.8891 16.6511 13.4385 18.21 14.1669 19.6667V20.9444H1.38911V13.2778H0.111328V10.7222L1.38911 4.33333H21.8335L22.728 8.80556C21.8847 8.39667 20.9647 8.16667 19.9935 8.16667L19.738 6.88889H3.48466L2.71799 10.7222H14.5502ZM11.6113 13.2778H3.94466V18.3889H11.6113V13.2778ZM24.3891 15.1944C24.3891 18.5167 19.9169 23.5 19.9169 23.5C19.9169 23.5 15.4447 18.5167 15.4447 15.1944C15.4447 12.7667 17.4891 10.7222 19.9169 10.7222C22.3447 10.7222 24.3891 12.7667 24.3891 15.1944ZM21.4502 15.3222C21.4502 14.5556 20.6835 13.7889 19.9169 13.7889C19.1502 13.7889 18.3835 14.4278 18.3835 15.3222C18.3835 16.0889 19.0224 16.8556 19.9169 16.8556C20.8113 16.8556 21.578 16.0889 21.4502 15.3222Z"
        fill="#1A2B58"></path>
</svg>