<svg xmlns="http://www.w3.org/2000/svg" width="20.648" height="17.356" viewBox="0 0 20.648 17.356"><defs><style>.a{fill:#a7a7a7;}</style></defs><g transform="translate(0.284 0)"><path class="a" d="M43.411,48.556a1.3,1.3,0,0,1-.347-.047h0l-10.356-2.86a1.259,1.259,0,0,1-.268-2.33l7.4-3.97a1.3,1.3,0,0,1,.946-.111L50.5,41.782a1.272,1.272,0,0,1,.94,1.031,1.26,1.26,0,0,1-.574,1.256l-6.757,4.285A1.3,1.3,0,0,1,43.411,48.556ZM34.222,44.3l9.124,2.52,5.743-3.642L40.5,40.926Zm6.13-3.411h0Z" transform="translate(-31.77 -39.194)"></path></g><g transform="translate(0 7.192)"><path class="a" d="M41.636,83.47a3.234,3.234,0,0,1-1-.16c-5.48-1.777-9.144-2.944-9.635-3.069a.853.853,0,0,1-.128-1.658c.32-.1.319-.1,4.433,1.217,2.1.671,4.519,1.455,5.856,1.889a1.53,1.53,0,0,0,1.267-.149l7.2-4.265a.853.853,0,1,1,.869,1.467l-7.2,4.265A3.251,3.251,0,0,1,41.636,83.47ZM31.375,80.213m0,0h0Z" transform="translate(-30.273 -77.156)"></path></g><g transform="translate(0 11.041)"><path class="a" d="M41.636,103.788a3.229,3.229,0,0,1-1-.16c-5.48-1.777-9.144-2.944-9.635-3.069a.853.853,0,0,1-.128-1.658c.32-.1.319-.1,4.433,1.217,2.1.671,4.519,1.455,5.856,1.889a1.529,1.529,0,0,0,1.267-.149l7.2-4.265a.852.852,0,1,1,.869,1.467l-7.2,4.265A3.251,3.251,0,0,1,41.636,103.788ZM31.375,100.53m0,0h0Z" transform="translate(-30.273 -97.473)"></path></g></svg>