<svg width="24" height="24" viewBox="0 0 24 24" fill="none" xmlns="http://www.w3.org/2000/svg">
<path fill-rule="evenodd" clip-rule="evenodd" d="M12.0037 3.40039H11.9998C11.7876 3.40044 11.5841 3.48481 11.4341 3.63492C11.2841 3.78503 11.1999 3.98859 11.2 4.2008L11.2004 5.03965C7.15756 5.44084 4 8.85177 4 13.0002C4 17.4185 7.58172 21.0002 12 21.0002C16.4183 21.0002 20 17.4185 20 13.0002C20 11.7938 19.733 10.6497 19.2548 9.62395L19.9 9.25668C20.284 9.03811 20.4181 8.54965 20.1995 8.16567C19.9382 7.70654 19.6397 7.27195 19.3081 6.86582C18.594 5.99148 17.726 5.24905 16.7427 4.6775C15.7593 4.10595 14.6846 3.71922 13.5714 3.53158C13.0554 3.44459 12.5311 3.40039 12.0039 3.40039H12.0037ZM17.8581 10.4189L12.4016 13.5248C12.2349 13.6197 12.0397 13.6516 11.8515 13.6146L11.85 13.6143C11.475 13.5405 11.2046 13.2119 11.2044 12.8297L11.2012 6.64956C8.04359 7.04268 5.6 9.73607 5.6 13.0002C5.6 16.5348 8.46538 19.4002 12 19.4002C15.5346 19.4002 18.4 16.5348 18.4 13.0002C18.4 12.0817 18.2065 11.2085 17.8581 10.4189ZM13.3055 5.10932C13.1381 5.0811 12.9696 5.05831 12.8004 5.04101L12.8037 11.4549L18.3776 8.28217C18.279 8.14395 18.176 8.00911 18.0688 7.87786C17.4759 7.15185 16.7552 6.53539 15.9387 6.06082C15.1221 5.58624 14.2297 5.26513 13.3055 5.10932Z" fill="#666666"/>
</svg>
