<svg xmlns="http://www.w3.org/2000/svg" stroke="#FFF" focusable="false" viewBox="0 0 29 19">
    <g fill="none" fill-rule="evenodd">
        <g class="Icon-fill">
            <path
                d="M26.58 19.0001H2.42C2.10482 19.0027 1.79222 18.9433 1.50002 18.8251C1.20783 18.7069 0.941782 18.5323 0.717062 18.3113C0.492342 18.0903 0.313355 17.8272 0.190321 17.537C0.0672866 17.2468 0.00261552 16.9353 0 16.6201L0 2.38008C0.00261552 2.06491 0.0672866 1.75333 0.190321 1.46315C0.313355 1.17297 0.492342 0.909867 0.717062 0.688861C0.941782 0.467855 1.20783 0.293278 1.50002 0.175097C1.79222 0.0569162 2.10482 -0.00255337 2.42 8.40317e-05H26.58C26.8952 -0.00255337 27.2078 0.0569162 27.5 0.175097C27.7922 0.293278 28.0582 0.467855 28.2829 0.688861C28.5077 0.909867 28.6866 1.17297 28.8097 1.46315C28.9327 1.75333 28.9974 2.06491 29 2.38008V16.6301C28.9921 17.2649 28.733 17.8707 28.2794 18.3148C27.8259 18.759 27.2148 19.0054 26.58 19.0001ZM10 5.83008C10 5.37008 9.65 5.00008 9.22 5.00008H3.78C3.35 5.00008 3 5.37008 3 5.83008V9.17008C3 9.63008 3.35 10.0001 3.78 10.0001H9.22C9.65 10.0001 10 9.63008 10 9.17008V5.83008ZM25 15.0001C25.65 15.0001 26 14.7001 26 14.0001C26 13.3001 25.65 13.0001 25 13.0001H22C21.35 13.0001 21 13.3001 21 14.0001C21 14.7001 21.35 15.0001 22 15.0001H25ZM19 15.0001C19.65 15.0001 20 14.7001 20 14.0001C20 13.3001 19.65 13.0001 19 13.0001H16C15.35 13.0001 15 13.3001 15 14.0001C15 14.7001 15.35 15.0001 16 15.0001H19ZM13 15.0001C13.65 15.0001 14 14.7001 14 14.0001C14 13.3001 13.65 13.0001 13 13.0001H10C9.35 13.0001 9 13.3001 9 14.0001C9 14.7001 9.35 15.0001 10 15.0001H13ZM7 15.0001C7.65 15.0001 8 14.7001 8 14.0001C8 13.3001 7.65 13.0001 7 13.0001H4C3.35 13.0001 3 13.3001 3 14.0001C3 14.7001 3.35 15.0001 4 15.0001H7Z">
            </path>
        </g>
    </g>
</svg>