<svg width="24" height="24" viewBox="0 0 24 24" fill="none" xmlns="http://www.w3.org/2000/svg">
    <path d="M18 20.6306L18 3.36904C18 2.95285 17.8851 2.55371 17.6805 2.25942C17.4759 1.96513 17.1984 1.7998 16.9091 1.7998L7.09091 1.7998C6.80158 1.7998 6.52411 1.96513 6.31952 2.25942C6.11493 2.55371 6 2.95285 6 3.36904L6 20.6306C6 21.0468 6.11493 21.4459 6.31952 21.7402C6.5241 22.0345 6.80158 22.1998 7.09091 22.1998L16.9091 22.1998C17.1984 22.1998 17.4759 22.0345 17.6805 21.7402C17.8851 21.4459 18 21.0468 18 20.6306ZM7.09091 20.9998L7.09091 2.9998L16.9091 2.9998L16.9091 20.9998L7.09091 20.9998Z"
          fill="#D3D7D9"></path>
</svg>