<svg width="84" height="83" viewBox="0 0 84 83" fill="none" xmlns="http://www.w3.org/2000/svg">
<circle cx="42.1646" cy="41.7349" r="41.2154" fill="#F4CC7C"/>
<circle cx="41.7365" cy="41.3146" r="28.1779" fill="#FFDE9F"/>
<path fill-rule="evenodd" clip-rule="evenodd" d="M47.8483 32.3196V35.2496H51.4228V38.0088H47.7432C47.463 40.0531 46.5808 41.5981 45.097 42.6421C43.6133 43.6873 41.3524 44.2093 38.3154 44.2093V46.3557C38.3154 48.7183 39.3199 49.8991 41.3296 49.8991C42.3108 49.8991 43.0407 49.604 43.5199 49.0128C43.9985 48.4227 44.2387 47.537 44.2387 46.3557H48.8295C48.7361 48.6043 48.0701 50.359 46.8321 51.6192C45.5935 52.8799 43.8295 53.51 41.5397 53.51C38.9931 53.51 37.0479 52.8572 35.7042 51.5511C34.3606 50.2455 33.689 48.2865 33.689 45.6743V41.075C36.2357 41.075 38.1403 41.0015 39.4017 40.8534C40.6636 40.7065 41.5686 40.4168 42.1179 39.985C42.6666 39.5538 43.0118 38.8945 43.1519 38.0088H32.918V35.2496H43.2219V32.3196H32.918V29.1172H51.4228V32.3196H47.8483Z" fill="#2C1645"/>
</svg>
