<svg width="36" height="24" viewBox="0 0 36 24" fill="none" xmlns="http://www.w3.org/2000/svg">
<rect x="0.5" width="35" height="24" rx="4" fill="#1F72CD"/>
<rect x="1" y="0.5" width="34" height="23" rx="3.5" stroke="black" stroke-opacity="0.1"/>
<path fill-rule="evenodd" clip-rule="evenodd" d="M7.18111 8.5L4 15.7467H7.80824L8.28035 14.5913H9.35949L9.8316 15.7467H14.0234V14.8649L14.3969 15.7467H16.5652L16.9387 14.8462V15.7467H25.6566L26.7166 14.6213L27.7092 15.7467L32.1868 15.7561L28.9957 12.1436L32.1868 8.5H27.7786L26.7467 9.60463L25.7854 8.5H16.3016L15.4872 10.3704L14.6537 8.5H10.8534V9.35186L10.4307 8.5H7.18111ZM20.1992 9.5293H25.2054L26.7365 11.2319L28.3171 9.5293H29.8482L27.5218 12.1428L29.8482 14.7262H28.2476L26.7165 13.0039L25.1279 14.7262H20.1992V9.5293ZM21.4355 11.5547V10.6054V10.6045H24.5592L25.9222 12.1226L24.4989 13.649H21.4355V12.6127H24.1666V11.5547H21.4355ZM7.91832 9.5293H9.77463L11.8847 14.4434V9.5293H13.9182L15.5479 13.0527L17.0499 9.5293H19.0733V14.7293H17.8421L17.8321 10.6546L16.0372 14.7293H14.9358L13.1308 10.6546V14.7293H10.5981L10.1179 13.5635H7.52372L7.04454 14.7283H5.6875L7.91832 9.5293ZM7.9668 12.4859L8.82148 10.4092L9.67516 12.4859H7.9668Z" fill="white"/>
</svg>
