<svg width="12" height="11" viewBox="0 0 12 11" fill="none" xmlns="http://www.w3.org/2000/svg"><path d="M1 4.50006L2.5 4.50006L2.5 10.5001L1 10.5001C0.867393 10.5001 0.740216 10.4474 0.646447 10.3536C0.552679 10.2598 0.500001 10.1327 0.500001 10.0001L0.5 5.00006C0.5 4.86745 0.552679 4.74027 0.646447 4.6465C0.740215 4.55273 0.867392 4.50006 1 4.50006ZM3.6465 3.85356L6.8465 0.653555C6.88903 0.610902 6.94553 0.585039 7.00561 0.580721C7.06569 0.576403 7.12531 0.593922 7.1735 0.630055L7.6 0.950055C7.71845 1.03898 7.80792 1.16098 7.85713 1.30068C7.90633 1.44038 7.91308 1.59153 7.8765 1.73506L7.3 4.00006L10.5 4.00005C10.7652 4.00005 11.0196 4.10541 11.2071 4.29295C11.3946 4.48048 11.5 4.73484 11.5 5.00005L11.5 6.05205C11.5001 6.18274 11.4747 6.31218 11.425 6.43305L9.8775 10.1906C9.83975 10.2822 9.77563 10.3605 9.69329 10.4156C9.61094 10.4707 9.51408 10.5001 9.415 10.5001L4 10.5001C3.86739 10.5001 3.74022 10.4474 3.64645 10.3536C3.55268 10.2598 3.5 10.1327 3.5 10.0001L3.5 4.20706C3.50003 4.07446 3.55273 3.9473 3.6465 3.85356Z" fill="#00b088"></path></svg>