<?xml version="1.0" encoding="UTF-8"?>
<svg width="92px" height="139px" viewBox="0 0 92 139" version="1.1" xmlns="http://www.w3.org/2000/svg" xmlns:xlink="http://www.w3.org/1999/xlink">
    <!-- Generator: Sketch 44.1 (41455) - http://www.bohemiancoding.com/sketch -->
    <title>Group</title>
    <desc>Created with Sketch.</desc>
    <defs></defs>
    <g id="Page-1" stroke="none" stroke-width="1" fill="none" fill-rule="evenodd">
        <g id="Group" transform="translate(3.000000, 3.000000)">
            <path d="M81.6446,132.891 L4.3556,132.891 C2.1556,132.891 0.3556,131.091 0.3556,128.891 L0.3556,51.602 C0.3556,49.402 2.1556,47.602 4.3556,47.602 L81.6446,47.602 C83.8446,47.602 85.6446,49.402 85.6446,51.602 L85.6446,128.891 C85.6446,131.091 83.8446,132.891 81.6446,132.891 Z" id="Stroke-31" stroke="#B36CDB" stroke-width="6"></path>
            <path d="M21.0812,47.602 L21.0812,17.751 C21.0812,8.369 28.7572,0.693 38.1392,0.693 L46.6682,0.693 C56.0502,0.693 63.7262,8.369 63.7262,17.751 L63.7262,47.602" id="Stroke-33" stroke="#B36CDB" stroke-width="6"></path>
            <path d="M52.3204,84.3305 C52.3204,89.8655 47.8344,94.3525 42.2994,94.3525 C36.7634,94.3525 32.2764,89.8655 32.2764,84.3305 C32.2764,78.7955 36.7634,74.3085 42.2994,74.3085 C47.8344,74.3085 52.3204,78.7955 52.3204,84.3305" id="Fill-35" fill="#B36CDB"></path>
            <polygon id="Fill-37" fill="#B36CDB" points="49.8155 111.891 34.7825 111.891 39.0775 84.688 45.5205 84.688"></polygon>
        </g>
    </g>
</svg>