<svg width="48" height="49" viewBox="0 0 48 49" fill="none" xmlns="http://www.w3.org/2000/svg">
<g clip-path="url(#clip0_97_1172)">
<path d="M37.8575 22.0834H29.1329C28.6512 22.0834 28.2765 22.6168 28.4371 23.0434L30.5246 28.4301C30.6316 28.6434 30.4175 28.9101 30.1499 28.9101L27.4736 28.7501C27.3666 28.7501 27.2595 28.8034 27.1524 28.9101L25.1185 31.8434C25.0114 32.0034 24.7973 32.0568 24.5832 31.9501L21.4787 29.8701C21.3717 29.7634 21.2111 29.7634 21.0505 29.8701L16.7685 32.7501C16.5009 32.9634 16.1262 32.6968 16.2332 32.3768L17.4643 28.1101C17.5179 27.9501 17.4108 27.7368 17.2502 27.6834L15.0022 26.7768C14.7881 26.6701 14.681 26.4034 14.8416 26.2434L16.822 23.7901C16.9291 23.6834 16.9291 23.4701 16.822 23.3634L15.1627 20.9634C15.0022 20.7501 15.1627 20.4301 15.4304 20.4301L18.0531 20.2168C18.2672 20.2168 18.3743 20.0568 18.3743 19.8434L18.1602 16.2168C18.1602 15.9501 18.4278 15.7901 18.6419 15.8434L21.8534 17.1768C22.014 17.2301 22.1746 17.1768 22.2816 17.0701L24.5297 14.6168C24.6903 14.4034 25.0114 14.4568 25.1185 14.7234L26.4566 18.1368C26.6172 18.5634 27.1524 18.7234 27.5271 18.4568L32.7726 14.5634C33.3614 14.1368 32.9867 13.1768 32.2374 13.2834L28.8653 13.7101C28.7047 13.7101 28.5441 13.6568 28.4906 13.4968L26.6707 8.85678C26.4566 8.37678 25.8678 8.27011 25.4932 8.64344L21.5323 12.9101C21.4252 13.0168 21.2646 13.0701 21.1041 13.0168L15.9121 10.8301C15.4304 10.6168 14.9486 10.9368 14.8951 11.4701L14.681 16.8034C14.681 17.0168 14.5204 17.1234 14.3599 17.1234L9.59609 17.4434C9.06083 17.4968 8.73968 18.0834 9.06083 18.5634L12.2188 23.2034C12.3259 23.3101 12.3259 23.5234 12.2188 23.6301L9.0073 27.3101C8.73968 27.5768 8.90025 28.1634 9.32846 28.3234L13.0217 29.9234C13.1823 29.9768 13.2893 30.1901 13.2358 30.3501L10.8807 39.4701C10.7201 40.1101 11.4695 40.5901 12.0047 40.2168L20.8364 33.9234C20.9435 33.8168 21.1041 33.8168 21.2646 33.9234L25.2791 36.7501C25.6002 36.9634 26.0819 36.9101 26.296 36.5368L28.8117 32.6968C28.8653 32.5901 29.0258 32.5368 29.1329 32.5368L35.1278 33.2834C35.6095 33.3368 36.0912 32.9634 35.9306 32.4834L33.4149 26.0301C33.3614 25.8701 33.4149 25.6568 33.629 25.5501L38.1787 23.4168C38.821 23.0968 38.6069 22.0834 37.8575 22.0834Z" fill="#8039E9"/>
</g>
<defs>
<clipPath id="clip0_97_1172">
<rect width="29.6531" height="32" fill="white" transform="translate(8.90002 8.37695)"/>
</clipPath>
</defs>
</svg>
