<svg xmlns="http://www.w3.org/2000/svg" width="35" height="34" viewBox="0 0 35 34">
    <g fill="none" fill-rule="evenodd" transform="translate(.6)">
        <rect width="34" height="34" fill="#868E96" rx="4.5"/>
        <g fill="#FFF" fill-rule="nonzero">
            <path d="M14.31 19.275v6c0 .113.012.23-.013.343-.056.23-.2.336-.438.242-.088-.03-.17-.074-.257-.118-1.66-.82-3.313-1.654-4.98-2.468-.394-.193-.57-.454-.57-.902.013-3.998.007-7.997.007-12.001 0-.504.094-.56.545-.336 1.797.895 3.595 1.79 5.399 2.674.244.118.32.267.32.528-.013 2.015-.013 4.03-.013 6.038zM20.898 22.428c-.075-.112-.131-.193-.188-.28-1.252-2.02-2.499-4.042-3.751-6.057-.113-.186-.113-.31 0-.497 1.133-1.822 2.267-3.644 3.388-5.478.163-.268.313-.324.601-.18 1.848.932 3.702 1.852 5.556 2.773.182.087.332.149.175.404a4542.505 4542.505 0 0 0-5.7 9.203.387.387 0 0 1-.08.112zM26.836 14.058v11.243c0 .105.006.211-.013.31-.05.23-.188.343-.432.256-.056-.02-.113-.05-.169-.075L21.3 23.348c-.062-.031-.119-.074-.2-.118 1.898-3.072 3.789-6.125 5.68-9.178.013-.006.038 0 .057.006zM14.905 13.84c1.885 3.047 3.739 6.038 5.624 9.085-.125-.043-.194-.062-.263-.093-1.723-.858-3.445-1.716-5.174-2.568-.137-.069-.225-.137-.225-.317.006-1.978.006-3.961.006-5.939.006-.03.013-.062.032-.168z"/>
        </g>
    </g>
</svg>
