<svg height="60" width="100" xmlns="http://www.w3.org/2000/svg"><g fill="none" fill-rule="evenodd"><rect fill="#fff" height="60" rx="4" width="100"/><path d="m35.162 15.61c-1.42 0-2.76.474-4.021 1.42v8.61c1.28.99 2.601 1.484 3.962 1.484 2.758 0 4.138-1.915 4.138-5.742 0-3.85-1.358-5.773-4.08-5.773zm-4.23-.4a8.298 8.298 0 0 1 2.43-1.544 6.95 6.95 0 0 1 2.64-.526c.96 0 1.83.184 2.61.555.78.37 1.44.905 1.979 1.607.542.698.955 1.546 1.246 2.544.29 1 .436 2.125.436 3.381 0 1.277-.157 2.43-.467 3.459s-.743 1.903-1.305 2.622a5.88 5.88 0 0 1 -2.04 1.682c-.799.402-1.69.603-2.668.603-1.802 0-3.353-.606-4.652-1.822v7.224c0 .412-.198.619-.598.619h-1.771c-.4 0-.601-.207-.601-.619v-20.774c0-.411.201-.618.6-.618h1.32c.402 0 .63.207.692.618l.148.989zm19.923 11.09a6.26 6.26 0 0 0 2.055-.37 8.088 8.088 0 0 0 2.055-1.088v-2.923a15.05 15.05 0 0 0 -1.564-.272 13.135 13.135 0 0 0 -1.595-.098c-2.243 0-3.364.829-3.364 2.49 0 .726.208 1.283.627 1.675.416.392 1.012.587 1.786.587m-3.483-10.251-.225.072a.81.81 0 0 1 -.252.043c-.258 0-.389-.171-.389-.515v-.773c0-.267.042-.454.12-.558.08-.106.238-.205.477-.301.635-.267 1.42-.483 2.352-.645a16.56 16.56 0 0 1 2.8-.243c1.884 0 3.273.373 4.169 1.117.893.744 1.34 1.899 1.34 3.464v9.792c0 .382-.203.574-.597.574h-1.277c-.38 0-.597-.182-.658-.544l-.15-.947a8.221 8.221 0 0 1 -2.365 1.376 7.317 7.317 0 0 1 -2.576.485c-1.429 0-2.56-.386-3.395-1.16-.835-.773-1.25-1.808-1.25-3.106 0-1.392.515-2.504 1.547-3.334 1.034-.832 2.424-1.245 4.17-1.245 1.113 0 2.36.16 3.753.485v-1.887c0-1.032-.238-1.757-.715-2.176-.477-.421-1.312-.632-2.502-.632-1.39 0-2.848.219-4.376.659m19.101 16.035c-.517 1.393-1.117 2.396-1.797 3.001-.68.608-1.566.913-2.659.913a5.877 5.877 0 0 1 -1.639-.212c-.211-.062-.364-.158-.46-.288-.097-.136-.145-.34-.145-.625v-.786c0-.387.145-.576.434-.576.09 0 .238.02.428.056.193.043.45.065.774.065.731 0 1.299-.186 1.7-.548.402-.362.764-1.032 1.09-2.001l.547-1.549-5.547-14.442c-.137-.345-.201-.588-.201-.732 0-.24.134-.362.399-.362h1.727c.306 0 .514.05.635.153.112.096.228.322.343.667l4.025 11.774 3.88-11.774c.115-.345.233-.571.348-.667.115-.102.321-.153.632-.153h1.61c.267 0 .401.122.401.362 0 .144-.067.387-.204.732l-6.322 16.992z" fill="#333e48"/><g fill="#f8981c"><path d="m74.522 41.775c-6.484 4.72-15.88 7.225-23.975 7.225-11.344 0-21.557-4.133-29.286-11.018-.605-.538-.065-1.278.666-.858 8.337 4.786 18.647 7.664 29.302 7.664 7.181 0 15.084-1.467 22.35-4.508 1.097-.456 2.017.712.943 1.495"/><path d="m77.034 39.946c-.82-1.069-5.432-.506-7.503-.253-.625.075-.724-.482-.158-.885 3.678-2.625 9.701-1.864 10.403-.988.705.885-.187 7.02-3.63 9.948-.532.448-1.035.21-.8-.385.775-1.968 2.512-6.368 1.688-7.437"/></g></g></svg>