<svg id="Group_44" data-name="Group 44" xmlns="http://www.w3.org/2000/svg" width="16.438" height="16.438" viewBox="0 0 16.438 16.438">
  <path id="Path_5537" data-name="Path 5537" d="M239.581,433.285h-9.208A2.376,2.376,0,0,1,228,430.912V421.7a2.375,2.375,0,0,1,2.373-2.371h5.339a.78.78,0,0,1,0,1.56h-5.339a.813.813,0,0,0-.814.811v9.208a.815.815,0,0,0,.814.814h9.208a.813.813,0,0,0,.811-.814v-5.568a.78.78,0,0,1,1.56,0v5.568A2.375,2.375,0,0,1,239.581,433.285Z" transform="translate(-228 -416.847)" fill="#fff"/>
  <path id="Path_5538" data-name="Path 5538" d="M262.074,410.55v4.5a.78.78,0,0,1-1.56,0v-2.618l-7.349,7.352a.78.78,0,0,1-1.1-1.1l7.352-7.352h-2.459a.78.78,0,0,1,0-1.56h4.341a.8.8,0,0,1,.159.016.519.519,0,0,1,.068.018.7.7,0,0,1,.088.034.626.626,0,0,1,.083.042c.005,0,.008,0,.01.005a.893.893,0,0,1,.143.114.226.226,0,0,1,.034.036.589.589,0,0,1,.062.078v0a.537.537,0,0,1,.057.1c.016.034.029.068.042.1v0c.008.029.016.06.021.088a.231.231,0,0,1,.008.057C262.072,410.5,262.074,410.521,262.074,410.55Z" transform="translate(-245.637 -409.77)" fill="#fff"/>
</svg>
