<svg width="10.73" height="12px" viewBox="0 0 10 15" fill="none" xmlns="http://www.w3.org/2000/svg">
    <path opacity="1"
          d="M4.99967 0.166748C2.54967 0.166748 0.333008 2.04508 0.333008 4.95008C0.333008 6.80508 1.76217 8.98675 4.61467 11.5009C4.83634 11.6934 5.16884 11.6934 5.39051 11.5009C8.23717 8.98675 9.66634 6.80508 9.66634 4.95008C9.66634 2.04508 7.44967 0.166748 4.99967 0.166748ZM4.99967 6.00008C4.35801 6.00008 3.83301 5.47508 3.83301 4.83341C3.83301 4.19175 4.35801 3.66675 4.99967 3.66675C5.64134 3.66675 6.16634 4.19175 6.16634 4.83341C6.16634 5.47508 5.64134 6.00008 4.99967 6.00008Z"
          fill="#cacaca"></path>
</svg>