<svg class="icon-list " aria-hidden="true" focusable="false" role="presentation" xmlns="http://www.w3.org/2000/svg" width="20" height="20" viewBox="0 0 20 20" fill="currentColor">      <path fill-rule="evenodd" clip-rule="evenodd" d="M0.5 2C0.223858 2 0 2.22386 0 2.5V3.5C0 3.77614 0.223858 4 0.5 4H1.5C1.77614 4 2 3.77614 2 3.5V2.5C2 2.22386 1.77614 2 1.5 2H0.5ZM5 2C4.44772 2 4 2.44772 4 3C4 3.55228 4.44772 4 5 4H19C19.5523 4 20 3.55228 20 3C20 2.44772 19.5523 2 19 2H5ZM5 9C4.44772 9 4 9.44772 4 10C4 10.5523 4.44772 11 5 11H19C19.5523 11 20 10.5523 20 10C20 9.44772 19.5523 9 19 9H5ZM4 17C4 16.4477 4.44772 16 5 16H19C19.5523 16 20 16.4477 20 17C20 17.5523 19.5523 18 19 18H5C4.44772 18 4 17.5523 4 17ZM0 9.5C0 9.22386 0.223858 9 0.5 9H1.5C1.77614 9 2 9.22386 2 9.5V10.5C2 10.7761 1.77614 11 1.5 11H0.5C0.223858 11 0 10.7761 0 10.5V9.5ZM0.5 16C0.223858 16 0 16.2239 0 16.5V17.5C0 17.7761 0.223858 18 0.5 18H1.5C1.77614 18 2 17.7761 2 17.5V16.5C2 16.2239 1.77614 16 1.5 16H0.5Z" fill="currentColor"></path>    </svg>