<svg width="22" height="22" viewBox="0 0 22 22" fill="none" xmlns="http://www.w3.org/2000/svg">
<path d="M1.7479 7.19081C1.71043 6.61423 2.168 6.12598 2.74579 6.12598H19.2544C19.8322 6.12598 20.2898 6.61423 20.2523 7.19081L19.4501 19.5374C19.4159 20.0634 18.9793 20.4725 18.4522 20.4725H3.54799C3.02087 20.4725 2.58427 20.0634 2.55009 19.5374L1.7479 7.19081Z" stroke="#221D1D" stroke-width="1.2" stroke-linejoin="round"/>
<path d="M15.2925 10.7251L15.2925 6.43286C15.2925 6.43286 15.2925 6.43286 15.2925 6.43286C15.2925 6.43286 15.2925 1.52739 11.0002 1.52739C6.70801 1.52739 6.70801 6.4328 6.70801 6.4328C6.70801 6.4328 6.70801 6.4328 6.70801 6.4328L6.70801 10.7251" stroke="#221D1D" stroke-width="1.2" stroke-linecap="round"/>
</svg>
