<svg width="24" height="24" viewBox="0 0 24 24" fill="none" xmlns="http://www.w3.org/2000/svg">
<path fill-rule="evenodd" clip-rule="evenodd" d="M4.12495 6.23721C4.10506 6.23721 4.08598 6.24511 4.07192 6.25917C4.05785 6.27324 4.04995 6.29232 4.04995 6.31221V8.13721H19.95V6.31221C19.95 6.29231 19.9421 6.27324 19.928 6.25917C19.9139 6.24511 19.8948 6.23721 19.875 6.23721H4.12495ZM4.04995 17.7622V9.73721H19.95V17.6872C19.95 17.7071 19.942 17.7262 19.928 17.7402C19.9139 17.7543 19.8948 17.7622 19.875 17.7622H4.04995ZM2.94055 5.1278C3.25467 4.81368 3.68071 4.63721 4.12495 4.63721H19.875C20.3192 4.63721 20.7452 4.81368 21.0594 5.1278C21.3735 5.44193 21.55 5.86797 21.55 6.31221V17.6872C21.55 18.1314 21.3735 18.5575 21.0594 18.8716C20.7452 19.1857 20.3192 19.3622 19.875 19.3622H3.24995H2.44995V18.5622V6.31221C2.44995 5.86797 2.62642 5.44193 2.94055 5.1278ZM5.87495 15.8622H10.25V14.2622H5.87495V15.8622Z" fill="#666666"/>
</svg>
