<svg id="Layer_1" data-name="Layer 1" xmlns="http://www.w3.org/2000/svg" viewBox="0 0 200 200"><defs><style>.cls-1{fill:#f4f4f4;}.cls-2{fill:#d2d2d2;stroke:#d2d2d2;stroke-miterlimit:10;stroke-width:2px;}</style></defs><title>Artboard 1 copy</title><path class="cls-1" d="M166.78,85.5V76.39a9.09,9.09,0,0,0-9.07-9.07H148.6A18.18,18.18,0,0,0,166.78,85.5Z"/><path class="cls-1" d="M148.6,151.72h9.11a9.09,9.09,0,0,0,9.07-9.07v-9.11A18.18,18.18,0,0,0,148.6,151.72Z"/><path class="cls-1" d="M39.07,133.54v9.11a9.09,9.09,0,0,0,9.07,9.07h9.11A18.18,18.18,0,0,0,39.07,133.54Z"/><path class="cls-1" d="M57.25,67.32H48.14a9.09,9.09,0,0,0-9.07,9.07V85.5A18.18,18.18,0,0,0,57.25,67.32Z"/><path class="cls-2" d="M53.08,147.84H43V146h8.15A17.26,17.26,0,0,0,34,129.66v-1.87A19.13,19.13,0,0,1,53.08,146.9Z"/><path class="cls-2" d="M155.07,147.84H41a7.74,7.74,0,0,1-7.73-7.73V69.3A7.74,7.74,0,0,1,41,61.57H155.07a7.74,7.74,0,0,1,5.75,2.58.93.93,0,1,1-1.39,1.25,5.87,5.87,0,0,0-4.36-2H41a5.87,5.87,0,0,0-5.86,5.86v70.81A5.87,5.87,0,0,0,41,146H155.07a5.87,5.87,0,0,0,5.86-5.86V78a.93.93,0,1,1,1.87,0v62.1A7.74,7.74,0,0,1,155.07,147.84Z"/><path class="cls-2" d="M112.87,62.51H111V50.91a.77.77,0,0,0-.76-.76H87.68a.77.77,0,0,0-.76.76V62.51H85V50.91a2.64,2.64,0,0,1,2.63-2.63h22.56a2.64,2.64,0,0,1,2.63,2.63Z"/><path class="cls-2" d="M70.1,147.84a.93.93,0,0,1-.93-.93V94A.93.93,0,1,1,71,94V146.9A.93.93,0,0,1,70.1,147.84Z"/><path class="cls-2" d="M70.1,73.54a.93.93,0,0,1-.93-.93V62.51a.93.93,0,1,1,1.87,0v10.1A.93.93,0,0,1,70.1,73.54Z"/><path class="cls-2" d="M125.92,147.84a.93.93,0,0,1-.93-.93V135.6a.93.93,0,1,1,1.87,0v11.3A.93.93,0,0,1,125.92,147.84Z"/><path class="cls-2" d="M125.92,112.9A.93.93,0,0,1,125,112V62.51a.93.93,0,0,1,1.87,0V112A.93.93,0,0,1,125.92,112.9Z"/><path class="cls-2" d="M34,81.62V79.75A17.26,17.26,0,0,0,51.21,62.51h1.87A19.13,19.13,0,0,1,34,81.62Z"/><path class="cls-2" d="M161.68,81.62a19.13,19.13,0,0,1-19.11-19.11h1.87a17.26,17.26,0,0,0,17.24,17.24Z"/><path class="cls-2" d="M144.43,146.9h-1.87a19.13,19.13,0,0,1,19.11-19.11v1.87A17.26,17.26,0,0,0,144.43,146.9Z"/></svg>