<?xml version="1.0" encoding="UTF-8"?>
<svg width="24px" height="24px" viewBox="0 0 24 24" version="1.1" xmlns="http://www.w3.org/2000/svg" xmlns:xlink="http://www.w3.org/1999/xlink">
    <!-- Generator: Sketch 40.3 (33839) - http://www.bohemiancoding.com/sketch -->
    <title>Fill 487</title>
    <desc>Created with Sketch.</desc>
    <defs></defs>
    <g id="Page-1" stroke="none" stroke-width="1" fill="none" fill-rule="evenodd">
        <g id="Footer-Final" transform="translate(-875.000000, -562.000000)" fill="#999999">
            <path d="M889.571,574.0045 L887.8895,574.0045 L887.8895,580 L885.398,580 L885.398,574.0045 L884.21225,574.0045 L884.21225,571.8865 L885.398,571.8865 L885.398,570.5155 C885.398,569.53375 885.86375,568 887.912,568 L889.75775,568.0075 L889.75775,570.064 L888.41825,570.064 C888.2,570.064 887.8895,570.172 887.8895,570.64075 L887.8895,571.8865 L889.78925,571.8865 L889.571,574.0045 L889.571,574.0045 Z M887,562 C880.373,562 875,567.373 875,574 C875,580.6285 880.373,586 887,586 C893.62775,586 899,580.6285 899,574 C899,567.373 893.62775,562 887,562 L887,562 Z" id="Fill-487"></path>
        </g>
    </g>
</svg>