<svg height="60" viewBox="0 0 100 60" width="100" xmlns="http://www.w3.org/2000/svg" xmlns:xlink="http://www.w3.org/1999/xlink"><defs><rect id="a" height="60" rx="4" width="100"/><mask id="b" fill="#fff"><use fill="#fff" fill-rule="evenodd" xlink:href="#a"/></mask></defs><g fill="none" fill-rule="evenodd"><use fill="#fff" fill-rule="nonzero" xlink:href="#a"/><g fill="#182e66" mask="url(#b)"><path d="m37.1348792.42403624-5.0106228 23.21147306h-6.0604589l5.0110781-23.21147306zm25.49654 14.98832776 3.190482-8.71710245 1.8351645 8.71710245zm6.7652058 8.2231453h5.603375l-4.8958966-23.21147306h-5.1690542c-1.1654729 0-2.1470196.66943593-2.5817956 1.70155818l-9.0938752 21.50991488h6.3650298l1.2633543-3.4662707h7.7740683zm-15.8212942-7.5776178c.0264053-6.12551927-8.546194-6.46519936-8.4892861-9.20248861.0186658-.83183279.8190178-1.71734677 2.5699587-1.94380016.867731-.11097119 3.2624135-.20074056 5.9771458 1.03843768l1.0616729-4.92423359c-1.4586621-.52237656-3.3348002-1.02580682-5.6689328-1.02580682-5.991259 0-10.2060823 3.15320565-10.2397718 7.6723493-.0382421 3.3417664 3.0111084 5.2052704 5.3033568 6.31814 2.3632694 1.1372291 3.1554268 1.8671127 3.1440452 2.8834464-.0163895 1.5572054-1.8852434 2.2469409-3.6243475 2.2726538-3.0488952.0473657-4.8157703-.8160442-6.2243535-1.466985l-1.099915 5.088886c1.4181437.6428209 4.0318077 1.20309 6.7374347 1.2315095 6.3691271 0 10.5343268-3.1162153 10.5529926-7.9421085zm-25.100006-15.63385526-9.8195642 23.21147306h-6.4055481l-4.83261507-18.52451932c-.29273401-1.13858241-.54813646-1.55765652-1.43908584-2.03853166-1.45729634-.78491814-3.86336044-1.51841062-5.97851159-1.97447512l.14295253-.67394696h10.31261377c1.3138886 0 2.4952957.86611657 2.7957691 2.36558089l2.5526588 13.43247557 6.3044798-15.79805646z" transform="translate(13 18)"/></g></g></svg>