<svg xmlns="http://www.w3.org/2000/svg" width="48" height="48"><g data-name="Group 4888" transform="translate(-185 -2407)"><rect data-name="Rectangle 1512" width="48" height="48" rx="8" transform="translate(185 2407)" fill="rgba(102,204,128,0.08)"/><g data-name="event_available-24px (1)"><path data-name="Path 4469" d="M189 2411h40v40h-40z" fill="none"/><path data-name="Path 4470" d="M215.667 2428.55a1.257 1.257 0 00-1.767 0l-7.25 7.25-2.65-2.65a1.25 1.25 0 00-1.767 1.767l3.233 3.233a1.66 1.66 0 002.35 0l7.833-7.833a1.243 1.243 0 00.018-1.767zm5-12.55H219v-1.667a1.667 1.667 0 00-3.333 0V2416h-13.334v-1.667a1.667 1.667 0 10-3.333 0V2416h-1.667a3.318 3.318 0 00-3.316 3.333l-.017 23.333a3.332 3.332 0 003.333 3.333h23.334a3.343 3.343 0 003.333-3.333v-23.333a3.343 3.343 0 00-3.333-3.333zM219 2442.666h-20a1.672 1.672 0 01-1.667-1.667v-16.666h23.334V2441a1.672 1.672 0 01-1.667 1.666z" fill="#66cc80"/></g></g></svg>