<svg version="1.1" id="Layer_1" xmlns="http://www.w3.org/2000/svg" xmlns:xlink="http://www.w3.org/1999/xlink" x="0px" y="0px" viewBox="0 0 170 170" style="enable-background:new 0 0 170 170;" xml:space="preserve">
<g id="Group_2547_3_" transform="translate(-321.041 -290.09)">
	<path style="fill:#2D2D2D;" d="M473.3,387.5c0,17.3-12,37.8-46,37.8c-4.3,0-7.7-3.4-7.7-7.7c0-4.3,3.5-7.7,7.7-7.7
		c19.1,0,30.5-8.4,30.5-22.2c0-10.4-8-22.6-30.5-22.6h-67.3l14.3,14.4c3,3,3,8,0,11.1c-1.5,1.5-3.5,2.3-5.5,2.3c-2,0-4-0.7-5.5-2.3
		l-26.8-26.8c-3-3-3-7.9,0-11l26.8-26.8c3-3,7.9-3,11,0c3,3,3,7.5,0,10.6l-12.8,12.5h65.8C458.9,349.1,473.3,369.2,473.3,387.5z"></path>
</g>
</svg>