<svg width="24" height="24" viewBox="0 0 24 24" fill="none" xmlns="http://www.w3.org/2000/svg">
<path d="M15.1 13.2999C15.1 13.6999 15 14.0999 14.7 14.3999C14.4 14.6999 14.1 14.7999 13.6 14.7999C13.4 14.7999 13.2 14.7999 13 14.6999C12.8 14.5999 12.7 14.4999 12.5 14.2999H10.8C11 14.8999 11.4 15.3999 11.9 15.6999C12.4 16.0999 13 16.2999 13.6 16.2999C14.4 16.2999 15.1 15.9999 15.7 15.3999C16.3 14.7999 16.6 14.0999 16.6 13.2999C16.6 12.5999 16.4 12.0999 16.1 11.4999C15.8 10.8999 15.3 10.5999 14.7 10.3999V12.0999C14.8 12.1999 15 12.3999 15.1 12.5999C15.1 12.8999 15.1 13.0999 15.1 13.2999Z" fill="white"/>
<path d="M22.7 16.1C22.7 15.9 22.5 15.7 22.4 15.6L20.6 14.2C20.6 14 20.6 13.9 20.6 13.7C20.6 13.6 20.6 13.4 20.6 13.3C20.6 13.2 20.6 13 20.6 12.9C20.6 12.7 20.6 12.6 20.6 12.5L22.4 11.1C22.6 11 22.7 10.8 22.7 10.6C22.7 10.4 22.7 10.2 22.6 10L21.1 7.40005C21 7.00005 20.8 6.90005 20.6 6.80005C20.4 6.70005 20.2 6.70005 20 6.80005L17.9 7.70005C17.7 7.50005 17.4 7.30005 17.1 7.20005C16.8 7.00005 16.5 6.90005 16.3 6.80005L16 4.60005C16 4.40005 15.9 4.20005 15.7 4.00005C15.5 3.90005 15.4 3.80005 15.1 3.80005H14.6V7.90005C15.2 8.00005 15.7 8.20005 16.2 8.50005C16.7 8.80005 17.2 9.10005 17.6 9.50005L20.1 8.40005L21.1 10.1L18.9 11.7C19 11.9 19 12.2 19.1 12.4C19.2 12.6 19.1 12.9 19.1 13.2C19.1 13.5 19.1 13.8 19.1 14C19.1 14.2 19 14.5 18.9 14.7L21.1 16.3L20.1 18L17.6 17C17.2 17.4 16.8 17.7 16.4 18C16 18.2 15.5 18.4 15 18.6L14.7 21.3H12.7L12.4 18.6C11.9 18.5 11.4 18.3 11 18C10.5 17.7 10.1 17.4 9.8 17.1L7.3 18.2L6.3 16.5L8.5 14.8C8.5 14.7 8.4 14.6 8.4 14.6C8.4 14.5 8.4 14.4 8.4 14.4H6.4L4.8 15.6C4.6 15.7 4.5 15.9 4.5 16.1C4.5 16.3 4.5 16.5 4.6 16.7L6.1 19.3C6.2 19.5 6.4 19.6 6.6 19.7C6.8 19.8 7 19.8 7.2 19.7L9.3 18.8C9.5 19 9.8 19.2 10 19.3C10.2 19.4 10.5 19.6 10.8 19.7L11.1 22C11.1 22.2001 11.2 22.4 11.4 22.6C11.6 22.8001 11.8 22.8 12 22.8H15C15.2 22.8 15.4 22.7001 15.6 22.6C15.8 22.4 15.9 22.3 15.9 22L16.2 19.7C16.5 19.6 16.7 19.5 17 19.3C17.3 19.1 17.5 19 17.8 18.8L19.9 19.7C20.1 19.8 20.3 19.8 20.5 19.7C20.7 19.6 20.9 19.5 21 19.3L22.5 16.7C22.7 16.5 22.8 16.3 22.7 16.1Z" fill="white"/>
<path d="M5.59999 9.90005L6.69999 7.30005L9.29999 6.20005C9.39999 6.10005 9.49999 6.00005 9.49999 5.90005C9.49999 5.80005 9.39999 5.70005 9.29999 5.70005L6.69999 4.60005L5.59999 1.90005C5.49999 1.80005 5.49999 1.80005 5.39999 1.80005C5.29999 1.80005 5.19999 1.90005 5.19999 2.00005L4.09999 4.60005L1.39999 5.70005C1.29999 5.70005 1.29999 5.80005 1.29999 5.90005C1.29999 6.00005 1.29999 6.00005 1.39999 6.10005L3.99999 7.20005L5.09999 9.90005C5.19999 10 5.49999 10 5.59999 9.90005Z" fill="white"/>
<path d="M11 7.50005C10.9 7.40005 10.9 7.30005 10.8 7.30005C10.7 7.30005 10.6 7.40005 10.6 7.50005L9.89999 9.30005L7.99999 10C7.89999 10.1 7.79999 10.1 7.79999 10.2C7.79999 10.3 7.89999 10.4 7.99999 10.5L9.79999 11.1L10.4 13C10.5 13.2 10.8 13.2 10.9 13L11.5 11.1L13.3 10.5C13.4 10.4 13.5 10.3 13.5 10.2C13.5 10.1 13.4 10 13.3 10L11.5 9.40005L11 7.50005Z" fill="white"/>
<path d="M9.2 3.19995L10.2 3.49995L10.5 4.49995C10.6 4.69995 10.9 4.69995 11 4.49995L11.3 3.49995L12.3 3.19995C12.5 3.09995 12.5 3.09995 12.5 2.99995C12.5 2.89995 12.4 2.79995 12.3 2.79995L11.3 2.49995L11 1.49995C11 1.29995 11 1.19995 10.9 1.19995C10.8 1.19995 10.7 1.29995 10.7 1.39995L10.4 2.39995L9.2 2.69995C9 2.79995 9 2.79995 9 2.89995C9 2.99995 9 3.19995 9.2 3.19995Z" fill="white"/>
</svg>
