<svg xmlns="http://www.w3.org/2000/svg" role="graphics-symbol" viewBox="0 0 28 28" class="openTeam"
     style="width: 24px; height: 100%; display: block; fill: rgba(55, 53, 47, 0.45); flex-shrink: 0;">
    <path d="M3.24121 21.4326C3.24121 22.4082 3.80371 23.0322 4.7002 23.0322H22.4629C23.3506 23.0322 23.9131 22.4082 23.9131 21.4326V10.2178C23.9131 9.24219 23.3506 8.61816 22.4629 8.61816H17.2334V5.89355C17.2334 4.91797 16.6709 4.29395 15.7832 4.29395H4.7002C3.80371 4.29395 3.24121 4.91797 3.24121 5.89355V21.4326ZM4.65625 21.1074V6.21875C4.65625 5.86719 4.81445 5.70898 5.16602 5.70898H15.3174C15.6602 5.70898 15.8184 5.86719 15.8184 6.21875V21.1074C15.8184 21.4502 15.6602 21.6172 15.3174 21.6172H13.2959V19.0244C13.2959 18.2686 12.9619 17.917 12.2412 17.917H8.2334C7.5127 17.917 7.17871 18.2686 7.17871 19.0244V21.6172H5.16602C4.81445 21.6172 4.65625 21.4502 4.65625 21.1074ZM7.31934 9.5498H9.0332C9.24414 9.5498 9.39355 9.40918 9.39355 9.18945V7.52832C9.39355 7.31738 9.24414 7.16797 9.0332 7.16797H7.31934C7.1084 7.16797 6.97656 7.31738 6.97656 7.52832V9.18945C6.97656 9.40918 7.1084 9.5498 7.31934 9.5498ZM11.4414 9.5498H13.1465C13.3574 9.5498 13.5068 9.40918 13.5068 9.18945V7.52832C13.5068 7.31738 13.3574 7.16797 13.1465 7.16797H11.4414C11.2217 7.16797 11.0898 7.31738 11.0898 7.52832V9.18945C11.0898 9.40918 11.2217 9.5498 11.4414 9.5498ZM17.2334 21.4326V10.0332H21.9971C22.3398 10.0332 22.498 10.2002 22.498 10.543V21.1074C22.498 21.4502 22.3398 21.6172 21.9971 21.6172H17.2246C17.2334 21.5557 17.2334 21.4941 17.2334 21.4326ZM7.31934 13.0303H9.0332C9.24414 13.0303 9.39355 12.8896 9.39355 12.6699V11.0088C9.39355 10.7979 9.24414 10.6484 9.0332 10.6484H7.31934C7.1084 10.6484 6.97656 10.7979 6.97656 11.0088V12.6699C6.97656 12.8896 7.1084 13.0303 7.31934 13.0303ZM11.4414 13.0303H13.1465C13.3574 13.0303 13.5068 12.8896 13.5068 12.6699V11.0088C13.5068 10.7979 13.3574 10.6484 13.1465 10.6484H11.4414C11.2217 10.6484 11.0898 10.7979 11.0898 11.0088V12.6699C11.0898 12.8896 11.2217 13.0303 11.4414 13.0303ZM19.1582 13.4521H20.5732C20.749 13.4521 20.8721 13.3291 20.8721 13.1533V11.7822C20.8721 11.6064 20.749 11.4834 20.5732 11.4834H19.1582C18.9736 11.4834 18.8682 11.6064 18.8682 11.7822V13.1533C18.8682 13.3291 18.9736 13.4521 19.1582 13.4521ZM7.31934 16.5107H9.0332C9.24414 16.5107 9.39355 16.3613 9.39355 16.1504V14.4893C9.39355 14.2695 9.24414 14.1289 9.0332 14.1289H7.31934C7.1084 14.1289 6.97656 14.2695 6.97656 14.4893V16.1504C6.97656 16.3613 7.1084 16.5107 7.31934 16.5107ZM11.4414 16.5107H13.1465C13.3574 16.5107 13.5068 16.3613 13.5068 16.1504V14.4893C13.5068 14.2695 13.3574 14.1289 13.1465 14.1289H11.4414C11.2217 14.1289 11.0898 14.2695 11.0898 14.4893V16.1504C11.0898 16.3613 11.2217 16.5107 11.4414 16.5107ZM19.1582 16.8096H20.5732C20.749 16.8096 20.8721 16.6865 20.8721 16.5107V15.1396C20.8721 14.9639 20.749 14.8408 20.5732 14.8408H19.1582C18.9736 14.8408 18.8682 14.9639 18.8682 15.1396V16.5107C18.8682 16.6865 18.9736 16.8096 19.1582 16.8096ZM19.1582 20.167H20.5732C20.749 20.167 20.8721 20.0439 20.8721 19.8682V18.4971C20.8721 18.3213 20.749 18.1982 20.5732 18.1982H19.1582C18.9736 18.1982 18.8682 18.3213 18.8682 18.4971V19.8682C18.8682 20.0439 18.9736 20.167 19.1582 20.167ZM8.33008 19.3496C8.33008 19.165 8.42676 19.0684 8.61133 19.0684H11.8633C12.0566 19.0684 12.1445 19.165 12.1445 19.3496V21.6172H8.33008V19.3496Z"></path>
</svg>