<svg width="32" height="33" viewBox="0 0 32 33" fill="none" xmlns="http://www.w3.org/2000/svg">
<g clip-path="url(#clip0_21330_171273)">
<path d="M12.9554 16.32C13.7907 16.637 15.1435 16.6655 15.1435 15.2255V9.43781C15.1435 8.77527 15.604 8.48759 16.238 8.71821C16.872 8.94883 18.7431 9.66843 19.1172 9.89905C19.4912 10.1297 20.4993 11.2812 20.4993 12.0586V15.3412C20.4993 15.3412 24.7614 13.7578 24.9627 13.6714C25.164 13.585 26.7768 12.8654 26.921 11.5697C27.0653 10.2739 26.7768 8.77685 25.9993 8.22923C25.2219 7.6816 24.0704 7.30754 24.0704 7.30754L5.84259 0.741581C5.06514 0.683727 4.08638 0.655197 4 1.77819V11.9723C4 12.894 4.23062 13.268 4.92169 13.5272L12.9554 16.32Z" fill="url(#paint0_linear_21330_171273)"/>
<path opacity="0.1" d="M12.9554 16.32C13.7907 16.637 15.1435 16.6655 15.1435 15.2255V9.43781C15.1435 8.77527 15.604 8.48759 16.238 8.71821C16.872 8.94883 18.7431 9.66843 19.1172 9.89905C19.4912 10.1297 20.4993 11.2812 20.4993 12.0586V15.3412C20.4993 15.3412 24.7614 13.7578 24.9627 13.6714C25.164 13.585 26.7768 12.8654 26.921 11.5697C27.0653 10.2739 26.7768 8.77685 25.9993 8.22923C25.2219 7.6816 24.0704 7.30754 24.0704 7.30754L5.84259 0.741581C5.06514 0.683727 4.08638 0.655197 4 1.77819V11.9723C4 12.894 4.23062 13.268 4.92169 13.5272L12.9554 16.32Z" fill="url(#paint1_linear_21330_171273)"/>
<path d="M26.957 24.5995C26.8603 25.4316 26.4299 25.8128 25.4242 26.576L11.694 31.6377C10.7921 31.881 10.0297 31.3952 9.95996 30.4244V20.3001C9.95996 19.3982 10.376 18.9821 11.0695 18.7048L15.2048 17.2299L20.4932 15.3437L20.5004 15.3413C20.5004 15.3413 24.7617 13.7579 24.9638 13.6715C25.1651 13.5851 26.7778 12.8655 26.9213 11.569C26.9395 11.4041 26.9514 11.2361 26.9554 11.0665H26.957C26.957 11.0665 27.0544 23.7673 26.957 24.5995Z" fill="url(#paint2_linear_21330_171273)"/>
<path opacity="0.7" d="M20.4922 22.4147C20.4827 23.4235 19.5063 24.2794 18.6679 24.6527C18.3421 24.7977 16.372 25.488 16.372 25.488C15.4114 25.786 15.2292 25.3731 15.2046 24.7415V17.23L20.493 15.3439C20.4954 17.089 20.5002 21.6047 20.4922 22.4147Z" fill="#9291EC"/>
</g>
<defs>
<linearGradient id="paint0_linear_21330_171273" x1="8.30096" y1="-1.30468" x2="18.9658" y2="17.1664" gradientUnits="userSpaceOnUse">
<stop stop-color="#0051C7"/>
<stop offset="0.13" stop-color="#0E50C1"/>
<stop offset="0.72" stop-color="#4C4EAB"/>
<stop offset="1" stop-color="#654EA3"/>
</linearGradient>
<linearGradient id="paint1_linear_21330_171273" x1="8.30096" y1="-1.30468" x2="18.9658" y2="17.1664" gradientUnits="userSpaceOnUse">
<stop stop-color="#231F20" stop-opacity="0"/>
<stop offset="0.44" stop-color="#231F20" stop-opacity="0.07"/>
<stop offset="0.69" stop-color="#231F20" stop-opacity="0.3"/>
<stop offset="0.9" stop-color="#231F20" stop-opacity="0.7"/>
<stop offset="1" stop-color="#231F20"/>
</linearGradient>
<linearGradient id="paint2_linear_21330_171273" x1="12.5142" y1="32.6434" x2="25.4686" y2="10.2059" gradientUnits="userSpaceOnUse">
<stop stop-color="#0764DE"/>
<stop offset="0.07" stop-color="#1466DE"/>
<stop offset="0.38" stop-color="#4972E0"/>
<stop offset="0.65" stop-color="#707BE2"/>
<stop offset="0.87" stop-color="#8881E3"/>
<stop offset="1" stop-color="#9183E4"/>
</linearGradient>
<clipPath id="clip0_21330_171273">
<rect width="32" height="32" fill="white" transform="translate(0 0.246826)"/>
</clipPath>
</defs>
</svg>
