<svg width="20" height="20" viewBox="0 0 72 72" fill="none" xmlns="http://www.w3.org/2000/svg"><path d="M12.9533 26.0038C13.224 24.7829 14.3285 24 15.579 24H50.421C51.6715 24 52.776 24.7829 53.0467 26.0038C53.4754 27.937 54 31.2691 54 36C54 40.7309 53.4754 44.063 53.0467 45.9962C52.776 47.2171 51.6715 48 50.421 48H15.579C14.3285 48 13.224 47.2171 12.9533 45.9962C12.5246 44.063 12 40.7309 12 36C12 31.2691 12.5246 27.937 12.9533 26.0038Z" fill="currentColor"></path><path fill-rule="evenodd" clip-rule="evenodd" d="M12.7887 15C8.77039 15 5.23956 17.668 4.48986 21.6158C3.74326 25.5473 3 30.7737 3 36C3 41.2263 3.74326 46.4527 4.48986 50.3842C5.23956 54.332 8.77039 57 12.7887 57H53.2113C57.2296 57 60.7604 54.332 61.5101 50.3842C61.8155 48.7765 62.1202 46.9522 62.3738 45H63.7918C64.5731 45 65.3283 44.8443 66 44.5491C67.2821 43.9857 68.2596 42.9142 68.5322 41.448C68.7927 40.0466 69 38.2306 69 36C69 33.7694 68.7927 31.9534 68.5322 30.552C68.2596 29.0858 67.2821 28.0143 66 27.4509C65.3283 27.1557 64.5731 27 63.7918 27H62.3738C62.1202 25.0478 61.8155 23.2235 61.5101 21.6158C60.7604 17.668 57.2296 15 53.2113 15H12.7887ZM53.2113 21H12.7887C11.3764 21 10.5466 21.8816 10.3845 22.7352C9.67563 26.4681 9 31.29 9 36C9 40.71 9.67563 45.5319 10.3845 49.2648C10.5466 50.1184 11.3764 51 12.7887 51H53.2113C54.6236 51 55.4534 50.1184 55.6155 49.2648C56.3244 45.5319 57 40.71 57 36C57 31.29 56.3244 26.4681 55.6155 22.7352C55.4534 21.8816 54.6236 21 53.2113 21Z" fill="currentColor"></path></svg>