<svg width="24" height="24" viewBox="0 0 24 24" fill="none" xmlns="http://www.w3.org/2000/svg">
    <path
        d="M11.5639 7.63177V11.1393H8.01713V13.028H11.5639V16.5356H13.5048V13.028H17.0516V11.1393H13.5048V7.63177H11.5639Z"
        fill="white"></path>
    <path
        d="M14.234 0.684168C13.7611 0.240904 13.1404 0 12.5 0C11.8596 0 11.2389 0.240904 10.766 0.674532L0.5 10.7251L1.86946 12.0549L2.60837 11.3321V19.9661C2.60837 20.4094 2.79557 20.8334 3.11084 21.1418C3.42611 21.4501 3.85961 21.6332 4.31281 21.6332H20.6773C21.1305 21.6332 21.564 21.4598 21.8892 21.1418C22.2143 20.8238 22.3916 20.3998 22.3916 19.9565V11.3032L23.1305 12.0259L24.5 10.7251L14.234 0.684168ZM4.53941 19.7542V9.4049L12.1355 1.97542C12.1847 1.92723 12.234 1.88869 12.303 1.86942C12.3621 1.84051 12.431 1.83087 12.5 1.83087H12.5099C12.5788 1.83087 12.6478 1.84051 12.7069 1.86942C12.766 1.89833 12.8251 1.92723 12.8744 1.97542L20.4704 9.4049V19.7542H4.53941Z"
        fill="white"></path>
</svg>