<svg width="16" height="16" viewBox="0 0 16 16" fill="none" xmlns="http://www.w3.org/2000/svg">
    <path d="M14.8538 11.1465C14.9002 11.193 14.9371 11.2481 14.9623 11.3088C14.9874 11.3695 15.0004 11.4346 15.0004 11.5003C15.0004 11.566 14.9874 11.631 14.9623 11.6917C14.9371 11.7524 14.9002 11.8076 14.8538 11.854L13.3538 13.354C13.2599 13.4478 13.1327 13.5006 13 13.5006C12.8673 13.5006 12.7401 13.4478 12.6462 13.354C12.5524 13.2602 12.4997 13.133 12.4997 13.0003C12.4997 12.8676 12.5524 12.7403 12.6462 12.6465L13.2931 12.0003H10.7575C10.5985 12.0001 10.4419 11.962 10.3006 11.8892C10.1593 11.8163 10.0374 11.7109 9.945 11.5815L5.2425 5.00028H2C1.86739 5.00028 1.74021 4.9476 1.64645 4.85383C1.55268 4.76006 1.5 4.63289 1.5 4.50028C1.5 4.36767 1.55268 4.24049 1.64645 4.14672C1.74021 4.05296 1.86739 4.00028 2 4.00028H5.2425C5.40146 4.00047 5.55809 4.03856 5.69939 4.11139C5.8407 4.18421 5.9626 4.28967 6.055 4.41903L10.7575 11.0003H13.2931L12.6462 10.354C12.5524 10.2602 12.4997 10.133 12.4997 10.0003C12.4997 9.8676 12.5524 9.74035 12.6462 9.64653C12.7401 9.55271 12.8673 9.5 13 9.5C13.1327 9.5 13.2599 9.55271 13.3538 9.64653L14.8538 11.1465ZM8.9375 6.68778C8.99093 6.72594 9.05136 6.75321 9.11533 6.76803C9.1793 6.78284 9.24556 6.78491 9.31033 6.77411C9.3751 6.76332 9.4371 6.73987 9.49281 6.70511C9.54852 6.67035 9.59684 6.62496 9.635 6.57153L10.76 5.00153H13.2956L12.6462 5.64653C12.5524 5.74035 12.4997 5.8676 12.4997 6.00028C12.4997 6.13296 12.5524 6.26021 12.6462 6.35403C12.7401 6.44785 12.8673 6.50056 13 6.50056C13.1327 6.50056 13.2599 6.44785 13.3538 6.35403L14.8538 4.85403C14.9002 4.80759 14.9371 4.75245 14.9623 4.69175C14.9874 4.63105 15.0004 4.56599 15.0004 4.50028C15.0004 4.43457 14.9874 4.36951 14.9623 4.30881C14.9371 4.24811 14.9002 4.19296 14.8538 4.14653L13.3538 2.64653C13.2599 2.55271 13.1327 2.5 13 2.5C12.8673 2.5 12.7401 2.55271 12.6462 2.64653C12.5524 2.74035 12.4997 2.8676 12.4997 3.00028C12.4997 3.13296 12.5524 3.26021 12.6462 3.35403L13.2931 4.00028H10.7575C10.5985 4.00047 10.4419 4.03856 10.3006 4.11139C10.1593 4.18421 10.0374 4.28967 9.945 4.41903L8.82187 5.98903C8.78348 6.04246 8.75601 6.10295 8.74104 6.16702C8.72607 6.23109 8.7239 6.29749 8.73464 6.3624C8.74538 6.42732 8.76883 6.48948 8.80364 6.54531C8.83845 6.60114 8.88394 6.64956 8.9375 6.68778ZM7.0625 9.31278C7.00907 9.27461 6.94864 9.24734 6.88467 9.23253C6.8207 9.21772 6.75444 9.21565 6.68967 9.22644C6.6249 9.23724 6.56289 9.26068 6.50719 9.29544C6.45148 9.3302 6.40316 9.3756 6.365 9.42903L5.2425 11.0003H2C1.86739 11.0003 1.74021 11.053 1.64645 11.1467C1.55268 11.2405 1.5 11.3677 1.5 11.5003C1.5 11.6329 1.55268 11.7601 1.64645 11.8538C1.74021 11.9476 1.86739 12.0003 2 12.0003H5.2425C5.40146 12.0001 5.55809 11.962 5.69939 11.8892C5.8407 11.8163 5.9626 11.7109 6.055 11.5815L7.17688 10.0115C7.21533 9.95817 7.24288 9.89775 7.25795 9.83372C7.27301 9.7697 7.2753 9.70333 7.26468 9.63842C7.25405 9.57351 7.23072 9.51134 7.19603 9.45546C7.16134 9.39958 7.11596 9.35109 7.0625 9.31278Z"
          fill="#AEB3B6"></path>
</svg>