<svg xmlns="http://www.w3.org/2000/svg" width="23.661" height="23.658" viewBox="0 0 23.661 23.658">
  <g id="Group_5140" data-name="Group 5140" opacity="0.55">
    <g id="Group_3007" data-name="Group 3007" transform="translate(0)">
      <path id="Path_499" data-name="Path 499" d="M793.642,538.559a6.085,6.085,0,1,0,6.085,6.085,6.085,6.085,0,0,0-6.085-6.085Zm0,9.99a3.906,3.906,0,1,1,3.906-3.906,3.907,3.907,0,0,1-3.906,3.906Z" transform="translate(-781.811 -532.874)" fill="#fff"/>
      <ellipse id="Ellipse_106" data-name="Ellipse 106" cx="1.381" cy="1.381" rx="1.381" ry="1.381" transform="translate(16.305 4.876) rotate(-25.241)" fill="#fff"/>
      <path id="Path_500" data-name="Path 500" d="M797.255,528.591a6.861,6.861,0,0,0-5.006-1.936h-9.818a6.544,6.544,0,0,0-6.912,6.912v9.764a6.891,6.891,0,0,0,1.993,5.091,6.967,6.967,0,0,0,4.976,1.876h9.71a7,7,0,0,0,5.018-1.871,6.844,6.844,0,0,0,1.948-5.036v-9.818A6.881,6.881,0,0,0,797.255,528.591Zm-.27,14.794a4.725,4.725,0,0,1-1.293,3.484,4.878,4.878,0,0,1-3.5,1.252h-9.709a4.841,4.841,0,0,1-3.462-1.259,4.774,4.774,0,0,1-1.329-3.53v-9.764a4.383,4.383,0,0,1,4.736-4.736h9.818a4.423,4.423,0,0,1,4.736,4.736Z" transform="translate(-775.508 -526.645)" fill="#fff"/>
    </g>
  </g>
</svg>
