<svg viewBox="0 0 24 24" width="14px" height="14px" xmlns="http://www.w3.org/2000/svg">
    <path fill-rule="evenodd" clip-rule="evenodd"
        d="M18.852 8.245l-1.16-4.051a.5.5 0 00-.619-.344L2.205 8.108a.498.498 0 00-.226.137h16.873zm-6.44-1.5h4.45l-.337-1.177-4.112 1.177z">
    </path>
    <path fill-rule="evenodd" clip-rule="evenodd"
        d="M3.48 8.874v10.764h17V8.874h-17zm-1-1.5a.5.5 0 00-.5.5v12.764a.5.5 0 00.5.5h19a.5.5 0 00.5-.5V7.874a.5.5 0 00-.5-.5h-19z">
    </path>
    <path d="M18.852 13.775a1.15 1.15 0 11-2.299 0 1.15 1.15 0 012.299 0z"></path>
</svg>