<svg xmlns="http://www.w3.org/2000/svg" width="37" height="22" viewBox="0 0 37 22">
    <g fill="#F8E71C" fill-rule="nonzero">
        <path d="M36.615 21V.538A.538.538 0 0 0 36.077 0H.538A.538.538 0 0 0 0 .538V21c0 .297.241.538.538.538h35.539a.538.538 0 0 0 .538-.538zm-1.077-.538H1.077V1.077h34.461v19.385z"/>
        <path d="M3.23 15.077a3.235 3.235 0 0 1 3.232 3.23c0 .298.24.54.538.54h22.615a.538.538 0 0 0 .539-.54 3.235 3.235 0 0 1 3.23-3.23.538.538 0 0 0 .54-.539V7a.538.538 0 0 0-.54-.538 3.235 3.235 0 0 1-3.23-3.231.538.538 0 0 0-.539-.539H7a.538.538 0 0 0-.538.539A3.235 3.235 0 0 1 3.23 6.46.538.538 0 0 0 2.692 7v7.538c0 .298.241.539.539.539zM29.11 3.769a4.316 4.316 0 0 0 3.736 3.736v6.529a4.316 4.316 0 0 0-3.736 3.735h-6.79a8.06 8.06 0 0 0 0-14h6.79zm-10.802 14a7 7 0 1 1 7-7 7.008 7.008 0 0 1-7 7zM3.769 7.505A4.316 4.316 0 0 0 7.505 3.77h6.79a8.06 8.06 0 0 0 0 14h-6.79a4.316 4.316 0 0 0-3.736-3.735V7.505z"/>
        <path d="M18.861 10.36V8.323c.265.066.518.175.748.323a.532.532 0 1 0 .572-.897 3.392 3.392 0 0 0-1.32-.468v-.873a.538.538 0 0 0-1.077 0v.924a2.052 2.052 0 0 0-.82.425c-.363.31-.59.748-.632 1.223-.087 1.13.6 1.647 1.454 2.058v2.128a2.764 2.764 0 0 1-.757-.464.53.53 0 0 0-.877.434c.01.142.078.274.187.366a3.6 3.6 0 0 0 1.445.742v.348a.538.538 0 1 0 1.077 0v-.313a1.99 1.99 0 0 0 1.746-1.698c.093-1.193-.768-1.77-1.746-2.221zm-1.077-.538a.798.798 0 0 1-.398-.77.808.808 0 0 1 .398-.61v1.38zm1.742 2.692a.898.898 0 0 1-.665.705v-1.664c.517.305.694.58.665.96v-.001z"/>
    </g>
</svg>
