<svg viewBox="0 0 24 24" width="14px" height="14px" xmlns="http://www.w3.org/2000/svg">
    <path
        d="M4.005 14.998h-.75v.75h.75v-.75zm15.996 0v.75h.75v-.75h-.75zm-8.754-8.132a.75.75 0 001.5 0h-1.5zM12.747 5a.75.75 0 00-1.5 0h1.5zm-7.992 9.998a7.247 7.247 0 017.248-7.248v-1.5a8.747 8.747 0 00-8.748 8.748h1.5zm7.248-7.248c4 0 7.248 3.248 7.248 7.248h1.5c0-4.829-3.919-8.748-8.748-8.748v1.5zm7.998 6.498H4.005v1.5h15.996v-1.5zM3 19.748h18v-1.5H3v1.5zm9.747-12.882V5h-1.5v1.866h1.5z">
    </path>
</svg>