
<svg width="24" height="24" viewBox="0 0 24 24" fill="none" xmlns="http://www.w3.org/2000/svg">
<g clip-path="url(#clip0_2363_25308)">
<path d="M12 5V6.294" stroke="#EF6E0B" stroke-width="1.5" stroke-miterlimit="10" stroke-linecap="round" stroke-linejoin="round"/>
<path d="M12 17.7061V19.0001" stroke="#EF6E0B" stroke-width="1.5" stroke-miterlimit="10" stroke-linecap="round" stroke-linejoin="round"/>
<path d="M18.9991 12H17.7051" stroke="#EF6E0B" stroke-width="1.5" stroke-miterlimit="10" stroke-linecap="round" stroke-linejoin="round"/>
<path d="M6.294 12H5" stroke="#EF6E0B" stroke-width="1.5" stroke-miterlimit="10" stroke-linecap="round" stroke-linejoin="round"/>
<path d="M12.0009 17.7069C13.1294 17.7069 14.2326 17.3723 15.1709 16.7454C16.1092 16.1184 16.8406 15.2273 17.2725 14.1847C17.7044 13.1422 17.8174 11.9949 17.5974 10.8881C17.3773 9.78128 16.8339 8.76456 16.036 7.96653C15.2381 7.16849 14.2215 6.62497 13.1147 6.40469C12.0079 6.18441 10.8607 6.29726 9.81802 6.72898C8.77537 7.1607 7.88415 7.8919 7.25704 8.83011C6.62994 9.76833 6.29512 10.8714 6.29492 11.9999C6.29479 12.7493 6.44228 13.4914 6.72898 14.1838C7.01567 14.8762 7.43595 15.5054 7.96582 16.0353C8.49568 16.5653 9.12475 16.9857 9.8171 17.2725C10.5094 17.5593 11.2515 17.7069 12.0009 17.7069V17.7069Z" stroke="#EF6E0B" stroke-width="1.5" stroke-miterlimit="10" stroke-linecap="round" stroke-linejoin="round"/>
<path d="M11.9991 14.5871C12.5108 14.5871 13.0109 14.4354 13.4364 14.1511C13.8618 13.8668 14.1934 13.4628 14.3892 12.9901C14.585 12.5174 14.6362 11.9972 14.5364 11.4954C14.4366 10.9936 14.1902 10.5326 13.8284 10.1708C13.4666 9.809 13.0056 9.56262 12.5038 9.4628C12.002 9.36298 11.4818 9.41421 11.0091 9.61001C10.5364 9.80581 10.1324 10.1374 9.8481 10.5628C9.56383 10.9883 9.41211 11.4884 9.41211 12.0001C9.41211 12.6862 9.68467 13.3442 10.1698 13.8294C10.655 14.3145 11.313 14.5871 11.9991 14.5871Z" fill="#EF6E0B" stroke="#EF6E0B" stroke-width="1.5" stroke-miterlimit="10" stroke-linecap="round" stroke-linejoin="round"/>
</g>
<defs>
<clipPath id="clip0_2363_25308">
<rect width="24" height="24" fill="white"/>
</clipPath>
</defs>
</svg>
