<svg xmlns="http://www.w3.org/2000/svg" xmlns:xlink="http://www.w3.org/1999/xlink" width="120" height="94" viewBox="0 0 120 94">
  <defs>
    <clipPath id="clip-Artboard_1">
      <rect width="120" height="94"/>
    </clipPath>
  </defs>
  <g id="Artboard_1" data-name="Artboard – 1" clip-path="url(#clip-Artboard_1)">
    <rect width="120" height="94" fill="#fff"/>
    <g id="Group_1286" data-name="Group 1286" transform="translate(-135 -291.506)">
      <rect id="Rectangle_209" data-name="Rectangle 209" width="46" height="32" rx="5" transform="translate(162 327)" fill="#89b5f4"/>
      <g id="Group_1259" data-name="Group 1259" transform="translate(200.1 307.506)">
        <g id="Group_1257" data-name="Group 1257" transform="translate(-34.1 11.398)">
          <path id="Path_977" data-name="Path 977" d="M10.539,43.591H-27.052A6.922,6.922,0,0,1-34.1,36.543V13.048A6.922,6.922,0,0,1-27.052,6H10.539a6.922,6.922,0,0,1,7.048,7.048V36.543A7.068,7.068,0,0,1,10.539,43.591ZM-27.052,10.7A2.22,2.22,0,0,0-29.4,13.048V36.543a2.22,2.22,0,0,0,2.349,2.349H10.539a2.22,2.22,0,0,0,2.349-2.349V13.048A2.22,2.22,0,0,0,10.539,10.7Z" transform="translate(34.1 -6)" fill="#0054c6"/>
        </g>
        <g id="Group_1258" data-name="Group 1258" transform="translate(-20.003 2)">
          <path id="Path_978" data-name="Path 978" d="M-6.955,48.988A2.22,2.22,0,0,1-9.3,46.639V9.048A2.22,2.22,0,0,0-11.654,6.7h-9.4A2.22,2.22,0,0,0-23.4,9.048V46.639a2.22,2.22,0,0,1-2.349,2.349A2.22,2.22,0,0,1-28.1,46.639V9.048A6.922,6.922,0,0,1-21.052,2h9.4A6.922,6.922,0,0,1-4.606,9.048V46.639A2.354,2.354,0,0,1-6.955,48.988Z" transform="translate(28.1 -2)" fill="#0054c6"/>
        </g>
      </g>
      <circle id="Ellipse_82" data-name="Ellipse 82" cx="3.5" cy="3.5" r="3.5" transform="translate(239 343)" fill="#89b5f4"/>
      <circle id="Ellipse_83" data-name="Ellipse 83" cx="1.5" cy="1.5" r="1.5" transform="translate(231 324)" fill="#8ab4f4"/>
      <circle id="Ellipse_84" data-name="Ellipse 84" cx="2.5" cy="2.5" r="2.5" transform="translate(145 362)" fill="#8ab4f4"/>
    </g>
  </g>
</svg>
