<svg xmlns="http://www.w3.org/2000/svg" viewBox="0 0 128 24" width="88" height="16" aria-labelledby=":lithium-r1:">
    <title id=":lithium-r1:">4.0 of 5 bubbles</title>
    <path d="M 12 0C5.388 0 0 5.388 0 12s5.388 12 12 12 12-5.38 12-12c0-6.612-5.38-12-12-12z" transform=""></path>
    <path d="M 12 0C5.388 0 0 5.388 0 12s5.388 12 12 12 12-5.38 12-12c0-6.612-5.38-12-12-12z"
        transform="translate(26 0)"></path>
    <path d="M 12 0C5.388 0 0 5.388 0 12s5.388 12 12 12 12-5.38 12-12c0-6.612-5.38-12-12-12z"
        transform="translate(52 0)"></path>
    <path d="M 12 0C5.388 0 0 5.388 0 12s5.388 12 12 12 12-5.38 12-12c0-6.612-5.38-12-12-12z"
        transform="translate(78 0)"></path>
    <path
        d="M 12 0C5.388 0 0 5.388 0 12s5.388 12 12 12 12-5.38 12-12c0-6.612-5.38-12-12-12zm0 2a9.983 9.983 0 019.995 10 10 10 0 01-10 10A10 10 0 012 12 10 10 0 0112 2z"
        transform="translate(104 0)"></path>
</svg>