<svg xmlns="http://www.w3.org/2000/svg" role="graphics-symbol" viewBox="0 0 16 14" class="connections"
     style="width: 16px; height: 16px; display: block; fill: rgba(55, 53, 47, 0.85); flex-shrink: 0;">
    <g>
        <path d="M2.825 5.581A2.32 2.32 0 112.832.939a2.32 2.32 0 01-.007 4.642zm10.343 0A2.32 2.32 0 1113.175.94a2.32 2.32 0 01-.007 4.641zM2.825 4.331c.609 0 1.073-.473 1.073-1.074 0-.602-.464-1.067-1.073-1.067a1.05 1.05 0 00-1.06 1.067c0 .601.465 1.073 1.06 1.073zm10.343 0c.608 0 1.066-.473 1.066-1.074 0-.602-.458-1.067-1.066-1.067-.595 0-1.066.465-1.066 1.067a1.06 1.06 0 001.066 1.073zm-6.89-.466a.595.595 0 110-1.19.595.595 0 010 1.19zm1.722 0a.595.595 0 110-1.19.595.595 0 010 1.19zm1.723 0a.595.595 0 010-1.19.6.6 0 01.594.596.6.6 0 01-.594.594zm1.675 3.131a.594.594 0 01-.595-.588c0-.328.266-.595.595-.595a.592.592 0 010 1.183zm-6.795 0a.594.594 0 01-.595-.588.595.595 0 011.19 0 .594.594 0 01-.595.588zm5.502 1.429a.595.595 0 010-1.19.6.6 0 01.595.595.6.6 0 01-.595.595zm-4.21 0a.595.595 0 010-1.19.6.6 0 01.594.595.6.6 0 01-.594.595zM8 13.196a2.327 2.327 0 01-2.317-2.33 2.32 2.32 0 014.642 0A2.328 2.328 0 018 13.195zm0-1.258c.608 0 1.066-.471 1.066-1.073 0-.595-.458-1.06-1.066-1.06a1.05 1.05 0 00-1.066 1.06A1.06 1.06 0 008 11.938z"></path>
    </g>
</svg>