<?xml version="1.0" standalone="no"?>
<!-- Generator: Adobe Fireworks 10, Export SVG Extension by Aaron Beall (http://fireworks.abeall.com) . Version: 0.6.1  -->
<!DOCTYPE svg PUBLIC "-//W3C//DTD SVG 1.1//EN" "http://www.w3.org/Graphics/SVG/1.1/DTD/svg11.dtd">
<svg id="Untitled-Page%201" viewBox="0 0 27 27" style="background-color:#ffffff00" version="1.1"
	xmlns="http://www.w3.org/2000/svg" xmlns:xlink="http://www.w3.org/1999/xlink" xml:space="preserve"
	x="0px" y="0px" width="27px" height="27px"
>
	<g id="Layer%201">
		<path id="Ellipse" opacity="0.302" d="M 0.5 13.5 C 0.5 6.3203 6.3202 0.5 13.5 0.5 C 20.6798 0.5 26.5 6.3203 26.5 13.5 C 26.5 20.6797 20.6798 26.5 13.5 26.5 C 6.3202 26.5 0.5 20.6797 0.5 13.5 Z" fill="#064685"/>
		<g>
			<path id="Ellipse2" d="M 3.5 13.5 C 3.5 7.9771 7.9771 3.5 13.5 3.5 C 19.0229 3.5 23.5 7.9771 23.5 13.5 C 23.5 19.0229 19.0229 23.5 13.5 23.5 C 7.9771 23.5 3.5 19.0229 3.5 13.5 Z" fill="#064685"/>
		</g>
		<g>
			<path d="M 13.9037 6.4593 C 13.5533 6.7658 13.3783 7.136 13.3783 7.57 C 13.3783 8.0044 13.5555 8.3747 13.9098 8.6808 C 14.2641 8.9873 14.6886 9.1401 15.183 9.1401 C 15.6855 9.1401 16.1142 8.9873 16.4685 8.6808 C 16.8228 8.3747 17 8.0044 17 7.57 C 17 7.136 16.8245 6.7658 16.4746 6.4593 C 16.1242 6.1532 15.6937 6 15.183 6 C 14.6804 6 14.2538 6.1532 13.9037 6.4593 L 13.9037 6.4593 ZM 15.4203 10.8793 L 11.1496 11.459 L 10.9825 11.8937 C 11.1644 11.8869 11.3203 11.8832 11.4508 11.8832 C 11.7368 11.8832 11.9623 11.9431 12.1268 12.0632 C 12.2914 12.1831 12.3741 12.321 12.3741 12.4764 C 12.3741 12.7236 12.284 13.0909 12.1042 13.5781 L 10.2294 18.6419 C 10.0762 19.0446 10 19.3767 10 19.6379 C 10 20.0323 10.158 20.3581 10.474 20.6147 C 10.7901 20.8713 11.2154 21 11.7495 21 C 13.1455 21 14.4635 20.0349 15.7036 18.1041 L 15.2858 17.884 C 14.7756 18.5963 14.3386 19.088 13.9742 19.3594 C 13.8367 19.4696 13.6992 19.5247 13.5616 19.5247 C 13.4807 19.5247 13.4036 19.49 13.3309 19.4201 C 13.2578 19.3507 13.2216 19.2752 13.2216 19.1944 C 13.2216 19.0616 13.2969 18.7812 13.448 18.3535 L 16.176 10.8793 L 15.4203 10.8793 L 15.4203 10.8793 Z" fill="#ffffff"/>
		</g>
	</g>
</svg>