<?xml version="1.0" encoding="UTF-8"?>
<svg width="25px" height="24px" viewBox="0 0 25 24" version="1.1" xmlns="http://www.w3.org/2000/svg" xmlns:xlink="http://www.w3.org/1999/xlink">
    <!-- Generator: Sketch 40.3 (33839) - http://www.bohemiancoding.com/sketch -->
    <title>Fill 490</title>
    <desc>Created with Sketch.</desc>
    <defs></defs>
    <g id="Page-1" stroke="none" stroke-width="1" fill="none" fill-rule="evenodd">
        <g id="Footer-Final" transform="translate(-952.000000, -562.000000)" fill="#999999">
            <path d="M970.333333,579.7345 L967.760833,579.7345 L967.760833,575.59525 C967.760833,574.555 967.388833,573.84475 966.457333,573.84475 C965.747083,573.84475 965.323333,574.3255 965.137333,574.78675 C965.069083,574.9525 965.052583,575.1805 965.052583,575.41375 L965.052583,579.7345 L962.480833,579.7345 C962.480833,579.7345 962.513833,572.72275 962.480833,571.9975 L965.052583,571.9975 L965.052583,573.09325 C965.395333,572.5645 966.005833,571.816 967.370833,571.816 C969.062833,571.816 970.333333,572.92075 970.333333,575.2975 L970.333333,579.7345 L970.333333,579.7345 Z M959.771083,570.94 L959.753833,570.94 C958.891333,570.94 958.333333,570.34525 958.333333,569.60275 C958.333333,568.84375 958.908583,568.2655 959.787583,568.2655 C960.668083,568.2655 961.210333,568.84375 961.226083,569.60275 C961.226083,570.34525 960.668083,570.94 959.771083,570.94 L959.771083,570.94 Z M958.484833,579.7345 L961.057333,579.7345 L961.057333,571.9975 L958.484833,571.9975 L958.484833,579.7345 Z M964.333333,562 C957.705583,562 952.333333,567.373 952.333333,574 C952.333333,580.6285 957.705583,586 964.333333,586 C970.960333,586 976.333333,580.6285 976.333333,574 C976.333333,567.373 970.960333,562 964.333333,562 L964.333333,562 Z" id="Fill-490"></path>
        </g>
    </g>
</svg>