<svg width="36" height="24" viewBox="0 0 36 24" fill="none" xmlns="http://www.w3.org/2000/svg">
<rect x="0.5" width="35" height="24" rx="4" fill="white"/>
<rect x="1" y="0.5" width="34" height="23" rx="3.5" stroke="black" stroke-opacity="0.1"/>
<path fill-rule="evenodd" clip-rule="evenodd" d="M10.0137 4.95605H18.3423C24.0019 4.95605 26.1767 8.049 26.1767 11.9585C26.1767 16.635 23.1369 18.9857 18.3423 18.9857H10.0137V4.95605ZM10.8044 5.79738V18.1939H18.3423C22.8897 18.1939 25.3611 16.066 25.3611 11.9833C25.3611 7.77687 22.6919 5.79738 18.3423 5.79738H10.8044ZM13.029 12.2062C13.8617 12.2062 14.5366 11.5305 14.5366 10.6969C14.5366 9.86326 13.8617 9.1875 13.029 9.1875C12.1964 9.1875 11.5215 9.86326 11.5215 10.6969C11.5215 11.5305 12.1964 12.2062 13.029 12.2062ZM11.8181 12.8495H14.2401V17.1549H11.8181V12.8495Z" fill="black"/>
<path fill-rule="evenodd" clip-rule="evenodd" d="M22.6183 9.31128H23.3103V11.3897H24.3236C24.0517 7.60398 21.0613 6.7627 18.3427 6.7627H15.4512V9.31128H15.8713C16.6622 9.31128 17.1317 9.8309 17.1317 10.6969C17.1317 11.5629 16.6622 12.0826 15.896 12.0826H15.4512V17.155H18.3427C22.7666 17.155 24.2741 15.1013 24.3483 12.0826H22.6183V9.31128ZM19.2819 11.3897V12.0826H17.5519V9.31129H19.2324V10.0041H18.2439V10.3258H19.183V11.0186H18.2686V11.3897H19.2819ZM19.5784 12.0826L20.4186 9.31129H21.4072L22.2475 12.0826H21.5308L21.3825 11.563H20.4681L20.3198 12.0826H19.5784ZM20.6736 10.8453H20.6658V10.8701L20.6736 10.8453ZM20.6736 10.8453H21.1601L20.9377 10.0783H20.913L20.6736 10.8453ZM15.4512 11.3897V10.0041H15.8713C16.1432 10.0041 16.4397 10.0783 16.4397 10.6969C16.4397 11.3155 16.1679 11.3897 15.8713 11.3897H15.4512Z" fill="#D50072"/>
</svg>
