<svg width="33" height="32" viewBox="0 0 33 32" fill="none" xmlns="http://www.w3.org/2000/svg">
<g clip-path="url(#clip0_26795_1900)">
<path d="M13.9725 2.08005C15.6373 0.373162 18.388 0.313895 20.1252 1.93781C20.451 2.246 20.7284 2.58975 20.9456 2.98091C21.6212 2.68458 22.3692 2.53048 23.1051 2.53048C26.0849 2.53048 28.5098 4.90117 28.5098 7.84082C28.5098 10.7686 26.097 13.1511 23.1051 13.1511C22.7552 13.1511 22.3933 13.1156 22.0555 13.0445C21.3678 14.2535 20.0528 15.0121 18.6413 15.0121C18.0502 15.0121 17.459 14.8817 16.9403 14.621C15.9751 16.8494 13.3451 17.8925 11.0771 16.9324C9.94305 16.4583 9.06236 15.5574 8.64011 14.4195C8.36264 14.4787 8.0731 14.5024 7.78356 14.5024C5.46723 14.4787 3.60935 12.6059 3.64554 10.33C3.66967 8.88392 4.45384 7.55633 5.72058 6.83328C5.45517 6.2406 5.32246 5.58867 5.32246 4.94858C5.32246 2.34083 7.46989 0.219068 10.124 0.207214C11.632 0.207214 13.0556 0.894713 13.9725 2.08005Z" fill="#139CD8"/>
<path d="M7.25207 9.69774C7.24 9.72145 7.24 9.74516 7.26413 9.75701C7.31239 9.78072 7.34858 9.81628 7.39684 9.83999C7.62605 9.95852 7.8794 10.0178 8.14481 10.0059C8.65151 10.0059 8.96518 9.74516 8.96518 9.31843V9.30658C8.96518 8.90356 8.60325 8.77318 8.26546 8.6665L8.22926 8.64279C7.97592 8.55982 7.75876 8.50055 7.75876 8.3346V8.32275C7.75876 8.19236 7.89147 8.07383 8.08449 8.07383C8.31371 8.07383 8.53087 8.13309 8.7239 8.23977C8.74802 8.25163 8.77215 8.25163 8.78422 8.22792V8.21607C8.79628 8.19236 8.88073 7.96714 8.88073 7.94344C8.88073 7.91973 8.88073 7.89602 8.8566 7.88417C8.63945 7.75378 8.3861 7.68266 8.12069 7.69452H8.07243C7.60193 7.69452 7.27619 7.96714 7.27619 8.37016V8.38201C7.27619 8.79688 7.63812 8.93913 7.97592 9.0221L8.02417 9.04581C8.27752 9.12878 8.48261 9.17619 8.48261 9.354V9.36585C8.48261 9.51994 8.34991 9.63848 8.12069 9.63848C7.89147 9.63848 7.66225 9.57921 7.46922 9.44882C7.43303 9.42512 7.4089 9.41326 7.38477 9.40141C7.36064 9.38956 7.33651 9.38956 7.32445 9.41326V9.42512L7.25207 9.69774Z" fill="white"/>
<path d="M14.6964 9.69761C14.6843 9.72132 14.6843 9.74502 14.7085 9.75688C14.7567 9.78058 14.7929 9.81614 14.8412 9.83985C15.0704 9.95839 15.3237 10.0177 15.5892 10.0058C16.0958 10.0058 16.4095 9.74502 16.4095 9.3183V9.30645C16.4095 8.90343 16.0476 8.77304 15.7098 8.66636L15.6736 8.65451C15.4203 8.57154 15.2031 8.51227 15.2031 8.34632V8.33447C15.2031 8.20408 15.3358 8.08554 15.5288 8.08554C15.758 8.08554 15.9752 8.14481 16.1682 8.25149C16.1924 8.26335 16.2165 8.26335 16.2286 8.23964V8.22779C16.2406 8.20408 16.3251 7.97886 16.3251 7.95516C16.3251 7.93145 16.3251 7.90774 16.3009 7.89589C16.0838 7.7655 15.8304 7.69438 15.565 7.70623H15.5168C15.0463 7.70623 14.7205 7.97886 14.7205 8.38188V8.39373C14.7205 8.8086 15.0825 8.95084 15.4203 9.03382L15.4685 9.05753C15.7219 9.1405 15.9269 9.18791 15.9269 9.36571V9.37757C15.9269 9.53166 15.7942 9.6502 15.565 9.6502C15.3358 9.6502 15.1066 9.59093 14.9136 9.46054C14.8774 9.43684 14.8532 9.42498 14.8291 9.41313C14.805 9.40128 14.7809 9.40127 14.7688 9.42498V9.43684L14.6964 9.69761Z" fill="white"/>
<path d="M20.2096 8.40552C20.1734 8.27514 20.1011 8.1566 20.0166 8.04992C19.9201 7.94324 19.8115 7.86026 19.6909 7.801C19.4013 7.68246 19.0756 7.68246 18.774 7.801C18.6533 7.86026 18.5327 7.94324 18.4483 8.04992C18.3638 8.1566 18.2914 8.27514 18.2552 8.40552C18.1708 8.70186 18.1708 9.01005 18.2552 9.30638C18.2914 9.43677 18.3638 9.5553 18.4483 9.66199C18.5448 9.76867 18.6533 9.85164 18.774 9.91091C19.0635 10.0294 19.3893 10.0294 19.6909 9.91091C19.8236 9.85164 19.9322 9.76867 20.0166 9.66199C20.1011 9.5553 20.1734 9.43677 20.2096 9.30638C20.2458 9.16414 20.2699 9.01005 20.2699 8.85595C20.2699 8.70186 20.2579 8.54776 20.2096 8.40552ZM19.7874 8.85595C19.7994 9.05746 19.7512 9.24712 19.6547 9.42492C19.5582 9.5553 19.4013 9.63828 19.2324 9.61457C19.0635 9.62643 18.9067 9.5553 18.8102 9.42492C18.6292 9.06931 18.6292 8.65444 18.8102 8.29884C18.9067 8.16845 19.0635 8.08548 19.2324 8.10919C19.4013 8.09733 19.5582 8.16845 19.6547 8.29884C19.7512 8.46479 19.7994 8.65444 19.7874 8.85595Z" fill="white"/>
<path d="M23.6961 9.55554C23.6961 9.53184 23.6719 9.51998 23.6478 9.53184C23.5875 9.55554 23.5151 9.57925 23.4548 9.5911C23.3824 9.60296 23.298 9.61481 23.2256 9.61481C23.0446 9.62666 22.8636 9.55554 22.743 9.43701C22.6103 9.27106 22.55 9.06955 22.562 8.85619C22.55 8.66654 22.6103 8.47688 22.7189 8.31093C22.8275 8.16869 23.0084 8.08572 23.1894 8.10943C23.3462 8.10943 23.491 8.12128 23.6358 8.16869C23.6599 8.16869 23.684 8.15684 23.684 8.14499C23.7202 8.05016 23.7564 7.96718 23.7926 7.8605C23.7926 7.8368 23.7805 7.81309 23.7685 7.81309C23.6719 7.77753 23.5754 7.75382 23.4789 7.74197C23.3703 7.73012 23.2618 7.71826 23.1653 7.71826C22.9964 7.71826 22.8395 7.74197 22.6948 7.80124C22.562 7.8605 22.4414 7.94348 22.3449 8.05016C22.2484 8.15684 22.176 8.27537 22.1398 8.40576C22.0915 8.548 22.0674 8.7021 22.0674 8.85619C22.0553 9.15253 22.1519 9.44886 22.3449 9.68593C22.562 9.91115 22.8757 10.0178 23.1894 9.99412C23.3945 9.99412 23.5996 9.95856 23.7926 9.88744C23.8047 9.87559 23.8167 9.85188 23.8167 9.84003L23.6961 9.55554Z" fill="white"/>
<path d="M25.8681 8.32268C25.8319 8.20414 25.7716 8.08561 25.6751 7.99078C25.6027 7.90781 25.5062 7.83669 25.3976 7.78927C25.2649 7.74186 25.1201 7.7063 24.9754 7.7063C24.8065 7.7063 24.6496 7.73001 24.5049 7.78927C24.3842 7.84854 24.2636 7.93151 24.1791 8.03819C24.0947 8.14488 24.0223 8.27526 23.9861 8.40565C23.9499 8.54789 23.9258 8.70199 23.9258 8.85608C23.9258 9.01017 23.9499 9.16427 23.9982 9.30651C24.0344 9.4369 24.1067 9.56729 24.2033 9.66211C24.3118 9.75694 24.4325 9.83991 24.5652 9.89918C24.7341 9.95845 24.915 9.99401 25.096 9.98216C25.3494 9.99401 25.5906 9.9466 25.8199 9.85177C25.844 9.83991 25.844 9.82806 25.8319 9.78065L25.7354 9.51987C25.7354 9.50802 25.7113 9.49617 25.6992 9.49617H25.6872C25.4941 9.57914 25.3011 9.6147 25.096 9.60285C24.915 9.6147 24.7341 9.55543 24.6014 9.4369C24.4807 9.30651 24.4204 9.14056 24.4325 8.96276H25.8681C25.8922 8.96276 25.9043 8.95091 25.9043 8.9272C25.9284 8.9272 25.9767 8.64272 25.8681 8.32268ZM24.4445 8.61901C24.4566 8.50048 24.4928 8.38194 24.5652 8.28712C24.6496 8.14488 24.8065 8.07376 24.9754 8.08561C25.1322 8.07376 25.289 8.15673 25.3855 8.28712C25.4459 8.38194 25.4821 8.50048 25.4821 8.61901H24.4445Z" fill="white"/>
<path d="M14.3466 8.32268C14.3104 8.20414 14.2501 8.08561 14.1536 7.99078C14.0812 7.90781 13.9847 7.83669 13.8761 7.78927C13.7434 7.74186 13.5987 7.7063 13.4539 7.7063C13.285 7.7063 13.1281 7.73001 12.9834 7.78927C12.8627 7.84854 12.7421 7.93151 12.6576 8.03819C12.5732 8.14488 12.5008 8.27526 12.4646 8.40565C12.4284 8.54789 12.4043 8.70199 12.4043 8.85608C12.4043 9.01017 12.4284 9.16427 12.4767 9.30651C12.5129 9.4369 12.5853 9.56729 12.6818 9.66211C12.7904 9.75694 12.911 9.83991 13.0437 9.89918C13.2126 9.95845 13.3936 9.99401 13.5745 9.98216C13.8279 9.99401 14.0692 9.9466 14.2984 9.85177C14.3225 9.83991 14.3225 9.82806 14.3104 9.78065L14.2019 9.51987C14.2019 9.50802 14.1777 9.49617 14.1657 9.49617H14.1415C13.9485 9.57914 13.7555 9.6147 13.5504 9.60285C13.3694 9.6147 13.1885 9.55543 13.0558 9.4369C12.9351 9.30651 12.8748 9.14056 12.8869 8.97461H14.3225C14.3466 8.97461 14.3587 8.96276 14.3587 8.93905C14.3828 8.9272 14.4311 8.64272 14.3466 8.32268ZM12.911 8.61901C12.9231 8.50048 12.9592 8.38194 13.0316 8.28712C13.1161 8.14488 13.2729 8.07376 13.4418 8.08561C13.5986 8.07376 13.7555 8.15673 13.852 8.28712C13.9123 8.38194 13.9485 8.50048 13.9485 8.61901H12.911Z" fill="white"/>
<path d="M10.3776 8.548C10.3173 8.548 10.2449 8.53615 10.1484 8.53615C10.0277 8.53615 9.9071 8.55986 9.78646 8.58356C9.67788 8.60727 9.58137 8.65468 9.48485 8.71395C9.4004 8.77322 9.32802 8.85619 9.27976 8.95102C9.23151 9.04585 9.19531 9.16438 9.19531 9.27106C9.19531 9.37774 9.21944 9.49628 9.2677 9.5911C9.31595 9.68593 9.37628 9.75705 9.46072 9.81632C9.54517 9.87559 9.65375 9.923 9.76233 9.94671C9.88297 9.97041 10.0157 9.99412 10.1363 9.98227C10.2811 9.98227 10.4259 9.97041 10.5706 9.94671C10.7033 9.923 10.8843 9.88744 10.9326 9.87559C10.9687 9.86373 11.0049 9.86373 11.0291 9.85188C11.0532 9.85188 11.0653 9.82817 11.0532 9.80446V8.51244C11.0773 8.28723 10.9929 8.05016 10.824 7.88421C10.6309 7.74197 10.4017 7.67085 10.1604 7.69456C10.0277 7.69456 9.89503 7.70641 9.77439 7.73012C9.61756 7.75382 9.46072 7.81309 9.32802 7.88421C9.30389 7.89606 9.30389 7.91977 9.31595 7.94348L9.41247 8.21611C9.41247 8.22796 9.4366 8.23981 9.44866 8.23981H9.46072C9.47279 8.23981 9.47279 8.23981 9.48485 8.22796C9.67788 8.13313 9.89503 8.08572 10.1001 8.08572C10.2208 8.07387 10.3535 8.10943 10.4621 8.16869C10.5465 8.22796 10.5827 8.31093 10.5827 8.51244V8.57171L10.3776 8.548ZM9.81059 9.55554C9.77439 9.53184 9.75026 9.50813 9.72614 9.47257C9.64169 9.31847 9.66582 9.12882 9.81059 9.01029C9.93123 8.92731 10.076 8.89175 10.2328 8.91546C10.3655 8.91546 10.4862 8.92731 10.6189 8.93916V9.57925C10.4862 9.60296 10.3655 9.62666 10.2328 9.62666C10.0881 9.65037 9.94329 9.62666 9.81059 9.55554Z" fill="white"/>
<path d="M21.9952 7.82507C22.0072 7.81322 21.9952 7.78951 21.9831 7.77766C21.9107 7.75395 21.8263 7.7421 21.7418 7.7421C21.6212 7.73024 21.4885 7.75395 21.3799 7.80136C21.2834 7.83692 21.211 7.89619 21.1386 7.97916V7.80136C21.1386 7.77766 21.1145 7.7658 21.1024 7.7658H20.7164C20.6922 7.7658 20.6802 7.78951 20.6802 7.80136V9.91127C20.6802 9.93498 20.7043 9.94683 20.7164 9.94683H21.0904C21.1145 9.94683 21.1266 9.92313 21.1266 9.91127V8.85632C21.1266 8.72593 21.1386 8.6074 21.1748 8.48886C21.1989 8.40589 21.2472 8.33477 21.3075 8.28735C21.3558 8.23994 21.4161 8.20438 21.4885 8.18067C21.5488 8.15697 21.6091 8.15697 21.6815 8.15697C21.7298 8.15697 21.7901 8.16882 21.8383 8.18067C21.8625 8.18067 21.8866 8.16882 21.8866 8.14511C21.9107 8.05028 21.971 7.86063 21.9952 7.82507Z" fill="white"/>
<path d="M18.4356 6.84104L18.3028 6.81734C18.2425 6.80548 18.1701 6.79363 18.1098 6.79363C17.8806 6.78177 17.6634 6.8529 17.5066 7.00699C17.3498 7.18479 17.2533 7.41001 17.2171 7.64707L17.1929 7.7419H16.8672C16.8431 7.7419 16.819 7.75376 16.819 7.77746L16.7707 8.0738C16.7707 8.0975 16.7828 8.12121 16.8069 8.12121H17.1447L16.819 9.88737C16.8069 10.0059 16.7707 10.1244 16.7345 10.243C16.7104 10.3141 16.6742 10.3852 16.638 10.4445C16.6018 10.4919 16.5656 10.5275 16.5053 10.5393C16.445 10.5512 16.3967 10.563 16.3364 10.563C16.3123 10.563 16.2519 10.5512 16.2157 10.5512C16.1916 10.5512 16.1554 10.5393 16.1313 10.5275C16.1072 10.5156 16.0951 10.5275 16.083 10.5512C16.071 10.5749 15.9865 10.8119 15.9745 10.8356C15.9624 10.8594 15.9745 10.8831 15.9986 10.8949C16.0468 10.9068 16.083 10.9186 16.1313 10.9305C16.2037 10.9423 16.264 10.9542 16.3364 10.9542C16.457 10.9542 16.5777 10.9423 16.6983 10.8949C16.8069 10.8594 16.8913 10.7882 16.9637 10.7053C17.0482 10.6104 17.1085 10.5037 17.1568 10.3971C17.2171 10.243 17.2533 10.077 17.2895 9.92293L17.6152 8.12121H18.0857C18.1098 8.12121 18.134 8.10936 18.134 8.08565L18.1822 7.78932C18.1822 7.76561 18.1701 7.7419 18.146 7.7419H17.6755C17.6876 7.63522 17.7117 7.52854 17.76 7.42186C17.7841 7.36259 17.8082 7.31518 17.8565 7.27962C17.8927 7.24406 17.9289 7.22035 17.9771 7.19664C18.0254 7.18479 18.0857 7.17294 18.134 7.17294C18.1701 7.17294 18.2184 7.18479 18.2546 7.18479C18.2787 7.18479 18.3028 7.19664 18.327 7.2085C18.3752 7.22035 18.3752 7.2085 18.3873 7.18479L18.4959 6.88846C18.4717 6.86475 18.4476 6.8529 18.4356 6.84104Z" fill="white"/>
<path d="M12.0059 9.91127C12.0059 9.93498 11.9818 9.94683 11.9698 9.94683H11.5958C11.5716 9.94683 11.5596 9.92312 11.5596 9.91127V6.88865C11.5596 6.86494 11.5837 6.85309 11.5958 6.85309H11.9577C11.9818 6.85309 11.9939 6.8768 11.9939 6.88865L12.0059 9.91127Z" fill="white"/>
<path d="M20.5942 28.4929C20.249 28.9585 19.7899 29.2421 19.2169 29.3437C15.1715 30.0648 15.0547 23.4183 18.7542 23.3513C19.4129 23.3397 20.0086 23.5639 20.5412 24.0237C20.5765 24.0533 20.5942 24.045 20.5942 23.9988V21.3383C20.5942 21.2929 20.6169 21.2702 20.6623 21.2702H21.4915C21.5419 21.2702 21.5671 21.2951 21.5671 21.3448C21.5671 23.5545 21.5671 25.7624 21.5671 27.9686C21.5671 28.3805 21.605 28.7718 21.6536 29.174C21.6594 29.2201 21.6392 29.2432 21.5931 29.2432H20.8017C20.7592 29.2432 20.7362 29.2223 20.7326 29.1805L20.6753 28.5167C20.6688 28.4374 20.6417 28.4295 20.5942 28.4929ZM17.258 25.3772C16.8482 26.6313 17.1769 28.7286 18.9455 28.6215C20.9466 28.5015 20.5953 26.3621 20.5942 25.027C20.5942 24.9902 20.5823 24.9581 20.5585 24.9307C19.6093 23.8226 17.7672 23.8183 17.258 25.3772Z" fill="#848A8F"/>
<path d="M30.9989 24.3264C30.9088 25.6511 30.8995 26.8392 30.9708 27.8907C31.0205 28.6216 31.7632 28.7026 32.3135 28.5524C32.3604 28.5394 32.3888 28.5571 32.3989 28.6053L32.5243 29.2075C32.5344 29.2551 32.5157 29.2835 32.4681 29.2929C31.5211 29.4853 30.5319 29.4594 30.1416 28.547C30.0508 28.3344 30.0043 27.9217 30.0022 27.3091C29.9986 26.3138 29.9982 25.3171 30.0011 24.3189C30.0011 24.2742 29.9791 24.2522 29.9351 24.2529L29.1589 24.2605C29.1382 24.2608 29.1175 24.2569 29.0983 24.2492C29.079 24.2414 29.0615 24.2299 29.0467 24.2153C29.0319 24.2008 29.0201 24.1834 29.0121 24.1642C29.0041 24.1451 29 24.1245 29 24.1037V23.7016C29 23.6655 29.018 23.6454 29.0541 23.641L29.947 23.5264C29.9823 23.5221 30 23.5019 30 23.4659V22.1805C30 22.1329 30.0227 22.1012 30.0681 22.0854L30.7805 21.8378C30.8067 21.8287 30.8347 21.826 30.8621 21.8301C30.8895 21.8342 30.9155 21.8449 30.9378 21.8613C30.9602 21.8777 30.9782 21.8993 30.9904 21.9242C31.0025 21.9491 31.0084 21.9766 31.0076 22.0043L30.9719 23.4583C30.9704 23.4951 30.9885 23.5135 31.0259 23.5135H32.4324C32.4685 23.5135 32.4865 23.5315 32.4865 23.5675V24.1891C32.4865 24.2106 32.4779 24.2313 32.4627 24.2465C32.4475 24.2617 32.4269 24.2702 32.4054 24.2702H31.0595C31.0213 24.2702 31.0011 24.289 30.9989 24.3264Z" fill="#848A8F"/>
<path d="M1.12845 31.9999H0.209532C0.200883 29.5718 0.192234 27.1437 0.183586 24.7156C0.181424 24.3426 0.141424 23.9837 0.10791 23.6151V23.534L0.932773 23.5189C1.00052 23.5181 1.03728 23.5513 1.04304 23.6183L1.10791 24.2972C1.11367 24.3635 1.13638 24.37 1.17602 24.3167C1.69998 23.6219 2.3634 23.299 3.16628 23.348C4.44484 23.4259 5.23799 24.085 5.54574 25.3253C5.78574 26.2897 5.71438 27.3632 5.19655 28.2097C4.35871 29.5805 2.53601 29.7902 1.22034 28.7491C1.17782 28.7152 1.1562 28.7257 1.15548 28.7805L1.12845 31.9999ZM2.67331 28.6259C4.94358 28.814 5.25709 25.3513 3.85601 24.3848C2.98466 23.7848 1.69926 24.2832 1.31764 25.1978C1.03548 25.8756 1.1598 27.0356 1.16304 27.814C1.16304 27.85 1.1753 27.881 1.1998 27.907C1.59403 28.3372 2.0852 28.5769 2.67331 28.6259Z" fill="#848A8F"/>
<path d="M10.3012 28.5167C9.47633 29.6389 7.07201 29.8605 6.5585 28.3113C6.24498 27.3643 6.59201 26.3026 7.62768 25.9891C8.41831 25.7491 9.26227 25.6562 10.1596 25.7102C10.1754 25.7112 10.1912 25.7091 10.2062 25.7039C10.2211 25.6987 10.2349 25.6906 10.2467 25.68C10.2585 25.6695 10.268 25.6567 10.2748 25.6423C10.2815 25.628 10.2854 25.6125 10.2861 25.5967C10.3866 23.667 8.28822 23.9697 7.20174 24.5826C7.17075 24.6007 7.14696 24.5938 7.13039 24.5621L6.84822 24.0378C6.83585 24.0145 6.8331 23.9873 6.84058 23.962C6.84807 23.9368 6.86517 23.9154 6.88822 23.9027C8.17579 23.1935 10.6406 22.9091 11.1509 24.7394C11.2071 24.9426 11.2345 25.3055 11.2331 25.8281C11.2309 26.9444 11.2529 28.0619 11.299 29.1805C11.3012 29.2223 11.2814 29.2432 11.2396 29.2432H10.5001C10.4561 29.2432 10.432 29.2212 10.4277 29.1772L10.3671 28.5351C10.3614 28.4702 10.3394 28.4641 10.3012 28.5167ZM10.2666 27.1967C10.285 26.9026 10.3055 26.721 10.2947 26.4821C10.2933 26.4461 10.2745 26.4255 10.2385 26.4205C9.5866 26.3362 8.17255 26.3253 7.70876 26.8929C7.23957 27.468 7.42552 28.4475 8.23633 28.6043C9.17579 28.787 10.2039 28.2107 10.2666 27.1967Z" fill="#848A8F"/>
<path d="M13.6537 24.3654C14.0955 23.5935 14.7726 23.2677 15.685 23.3881C15.7398 23.3953 15.7657 23.4266 15.7629 23.4821L15.7229 24.1405C15.7207 24.1837 15.6976 24.2043 15.6537 24.2021C14.1337 24.1091 13.6883 25.0659 13.6796 26.3599C13.6731 27.2998 13.6724 28.2417 13.6775 29.1859C13.6775 29.2241 13.6584 29.2432 13.6202 29.2432H12.7585C12.7218 29.2432 12.7034 29.2248 12.7034 29.188C12.7012 27.3372 12.8039 25.4086 12.6245 23.5708C12.6209 23.5326 12.6382 23.5135 12.6764 23.5135H13.498C13.5376 23.5135 13.5585 23.5329 13.5607 23.5718L13.6029 24.3535C13.6031 24.3594 13.6052 24.3651 13.609 24.3697C13.6128 24.3743 13.6179 24.3775 13.6237 24.3789C13.6295 24.3802 13.6356 24.3796 13.641 24.3772C13.6464 24.3747 13.6509 24.3706 13.6537 24.3654Z" fill="#848A8F"/>
<path d="M28.5094 26.8035C28.5046 27.4908 28.227 28.148 27.7376 28.6305C27.2483 29.1131 26.5872 29.3815 25.9 29.3767L25.4092 29.3733C25.0689 29.3709 24.7324 29.3015 24.4189 29.1691C24.1054 29.0367 23.8211 28.8438 23.5822 28.6015C23.3432 28.3592 23.1544 28.0722 23.0263 27.7569C22.8983 27.4416 22.8336 27.1042 22.836 26.7639L22.8417 25.9488C22.8465 25.2616 23.1241 24.6044 23.6135 24.1218C24.1028 23.6392 24.7638 23.3708 25.4511 23.3756L25.9419 23.379C26.2822 23.3814 26.6187 23.4508 26.9321 23.5832C27.2456 23.7156 27.5299 23.9085 27.7689 24.1508C28.0078 24.3931 28.1967 24.6801 28.3247 24.9954C28.4528 25.3107 28.5174 25.6481 28.5151 25.9884L28.5094 26.8035ZM26.0593 28.601C27.8734 28.3448 28.0463 25.1913 26.6626 24.3848C25.815 23.8918 24.4701 24.0983 24.0507 25.081C23.3955 26.6151 23.895 28.907 26.0593 28.601Z" fill="#848A8F"/>
</g>
<defs>
<clipPath id="clip0_26795_1900">
<rect width="32.4324" height="31.9999" fill="white" transform="translate(0.10791)"/>
</clipPath>
</defs>
</svg>
