<svg id="lap" xmlns="http://www.w3.org/2000/svg" viewBox="0 0 1267.9 694.7"><style>.st0{fill:url(#SVGID_1_)}.st1{fill:url(#SVGID_2_)}.st2{fill:url(#SVGID_3_)}.st3{fill:url(#SVGID_4_)}.st4{fill:#fff}</style><linearGradient id="SVGID_1_" gradientUnits="userSpaceOnUse" x1="633.8" y1="661.2" x2="633.8"><stop offset="0" stop-color="#dadada"/><stop offset=".15" stop-color="#e4e4e4"/><stop offset=".38" stop-color="#ebebeb"/><stop offset="1" stop-color="#ededed"/></linearGradient><path class="st0" d="M1080.2 0H187.4c-17.1 0-31.1 14.4-31.1 32.2v618.2c0 5.9 4.7 10.8 10.5 10.8h934c5.8 0 10.5-4.8 10.5-10.8V32.2c0-17.7-13.9-32.2-31.1-32.2zm-3.2 609.8H190.8V52.1H1077v557.7z"/><radialGradient id="SVGID_2_" cx="650.79" cy="-151410.41" r="715.11" gradientTransform="matrix(.9659 0 0 -.0511 5.35 -7073.959)" gradientUnits="userSpaceOnUse"><stop offset="0" stop-color="#f6f6f6"/><stop offset=".58" stop-color="#f4f4f4"/><stop offset=".79" stop-color="#ededed"/><stop offset=".94" stop-color="#e2e2e2"/><stop offset="1" stop-color="#dadada"/></radialGradient><path class="st1" d="M0 657.8h1267.9v13.4H0z"/><linearGradient id="SVGID_3_" gradientUnits="userSpaceOnUse" x1="633.9" y1="78.1" x2="633.9" y2="101.6" gradientTransform="matrix(1 0 0 -1 0 772.8)"><stop offset="0" stop-color="#9d9d9c"/><stop offset=".34" stop-color="#b1b1b1"/><stop offset=".71" stop-color="#c1c1c0"/><stop offset="1" stop-color="#c6c6c6"/></linearGradient><path class="st2" d="M633.9 671.2H0s47.6 23.5 95.4 23.5h1077c47.8 0 95.4-23.5 95.4-23.5H633.9z"/><linearGradient id="SVGID_4_" gradientUnits="userSpaceOnUse" x1="634" y1="107.12" x2="634" y2="115.02" gradientTransform="matrix(1 0 0 -1 0 772.8)"><stop offset="0" stop-color="#9d9d9c"/><stop offset=".34" stop-color="#b1b1b1"/><stop offset=".71" stop-color="#c1c1c0"/><stop offset="1" stop-color="#c6c6c6"/></linearGradient><path class="st3" d="M633.9 657.8h-66.2s5 7.9 10 7.9h112.6c5 0 10-7.9 10-7.9h-66.4z"/><ellipse class="st4" cx="633.9" cy="28.6" rx="3.8" ry="4"/></svg>