<svg width="20" height="20" viewBox="0 0 20 20" fill="none" xmlns="http://www.w3.org/2000/svg">
<g clip-path="url(#clip0_1899_11052)">
<path d="M13.9774 0.909119H6.02282C3.18191 0.909119 0.90918 3.18185 0.90918 6.02276V9.43185V13.9773C0.90918 16.8182 3.18191 19.0909 6.02282 19.0909H13.9774C16.8183 19.0909 19.091 16.8182 19.091 13.9773V9.43185V6.02276C19.091 3.18185 16.8183 0.909119 13.9774 0.909119ZM10.0001 6.59094C11.8751 6.59094 13.4092 8.12503 13.4092 10C13.4092 11.875 11.8751 13.4091 10.0001 13.4091C8.12509 13.4091 6.591 11.875 6.591 10C6.591 8.12503 8.12509 6.59094 10.0001 6.59094ZM13.4092 4.88639C13.4092 4.26139 13.9205 3.75003 14.5455 3.75003C15.1705 3.75003 15.6819 4.26139 15.6819 4.88639C15.6819 5.51139 15.1705 6.02276 14.5455 6.02276C13.9205 6.02276 13.4092 5.51139 13.4092 4.88639Z" fill="#221D1D"/>
</g>
<defs>
<clipPath id="clip0_1899_11052">
<rect width="20" height="20" fill="white"/>
</clipPath>
</defs>
</svg>
