<svg width="12px" height="12px" viewBox="0 0 7 11" fill="#2e054e" xmlns="http://www.w3.org/2000/svg"><path d="M3.3125 9.99995L1.0625 6.07495V5.14995H1.8125C2.1125 5.14995 2.375 5.10829 2.6 5.02495C2.83334 4.93329 3.025 4.80411 3.175 4.63745C3.33334 4.47079 3.44166 4.27079 3.5 4.03745H1.0625V3.11245H3.4875C3.4375 2.89579 3.35 2.70411 3.225 2.53745C3.10834 2.37079 2.95 2.24161 2.75 2.14995C2.55834 2.04995 2.325 1.99995 2.05 1.99995H1.0625V1.07495H6.7V1.99995H4.7375C4.87916 2.15829 4.99584 2.32911 5.0875 2.51245C5.1875 2.69579 5.25416 2.89579 5.2875 3.11245H6.7V4.03745H5.3125C5.22916 4.65411 4.99166 5.13745 4.6 5.48745C4.20834 5.82911 3.70416 6.06245 3.0875 6.18745L5.5375 9.99995H3.3125Z" fill="#2e054e"></path><path fill-rule="evenodd" clip-rule="evenodd" d="M0.862488 0.875H6.89999V2.2H5.13991C5.18534 2.27125 5.22698 2.34455 5.26478 2.41989C5.34864 2.57431 5.41099 2.73872 5.45215 2.9125H6.89999V4.2375H5.48283C5.37493 4.813 5.12788 5.28399 4.73325 5.63663L4.73147 5.63822C4.37187 5.95192 3.92894 6.17679 3.40861 6.31726L5.90375 10.2H3.19661L0.862488 6.12826V4.95H1.81249C2.09361 4.95 2.33107 4.91102 2.52869 4.83813C2.7357 4.75653 2.89981 4.64428 3.02633 4.50371L3.02994 4.4997C3.10437 4.42135 3.16601 4.33423 3.21466 4.2375H0.862488V2.9125H3.21274C3.17283 2.82038 3.12351 2.73553 3.06499 2.6575L3.06105 2.65225C2.96643 2.51708 2.83705 2.40991 2.66666 2.33181L2.65735 2.32755C2.50097 2.24595 2.30131 2.2 2.04999 2.2H0.862488V0.875ZM1.26249 1.275V1.8H2.04999C2.34666 1.8 2.61197 1.85355 2.83792 1.97031C3.06439 2.07497 3.24935 2.2246 3.38693 2.4201C3.52872 2.60993 3.62678 2.82666 3.68237 3.06753L3.7389 3.3125H1.26249V3.8375H3.75615L3.69402 4.08601C3.62794 4.35031 3.50405 4.58083 3.32184 4.7733C3.14901 4.96465 2.93101 5.10984 2.67311 5.21115L2.66947 5.21258C2.41745 5.30593 2.13049 5.35 1.81249 5.35H1.26249V6.02174L3.42837 9.8H5.17123L2.76113 6.04959L3.04776 5.99149C3.63706 5.87203 4.10717 5.65167 4.46759 5.33759C4.81689 5.02505 5.03616 4.58884 5.11429 4.01071L5.1377 3.8375H6.49999V3.3125H5.11591L5.08981 3.14292C5.05982 2.948 5.00027 2.77027 4.91191 2.60827L4.90849 2.60199C4.82506 2.43514 4.71869 2.27894 4.58844 2.13335L4.29019 1.8H6.49999V1.275H1.26249Z" fill="#2e054e"></path></svg>