<?xml version="1.0" encoding="UTF-8"?>
<svg width="13px" height="20px" viewBox="0 0 13 20" version="1.1" xmlns="http://www.w3.org/2000/svg" xmlns:xlink="http://www.w3.org/1999/xlink">
    <!-- Generator: Sketch 46.2 (44496) - http://www.bohemiancoding.com/sketch -->
    <title>help</title>
    <desc>Created with Sketch.</desc>
    <defs></defs>
    <g id="Email" stroke="none" stroke-width="1" fill="none" fill-rule="evenodd">
        <g id="Alternative-Flow-Design-[not-using]" transform="translate(-1328.000000, -15.000000)" fill="#FFFFFF">
            <g id="Icon/Section/Help" transform="translate(1324.500000, 15.000000)">
                <path d="M11.5548734,16.7374051 L11.5548734,18.2556936 C11.5548734,18.7681159 11.1373441,19.1666667 10.6439003,19.1666667 L8.30953178,19.1666667 C7.79710942,19.1666667 7.3985587,18.7491373 7.3985587,18.2556936 L7.3985587,16.7374051 C7.3985587,16.2249827 7.81608803,15.826432 8.30953178,15.826432 L10.6439003,15.826432 C11.1563227,15.8074534 11.5548734,16.2249827 11.5548734,16.7374051 L11.5548734,16.7374051 Z M14.5155359,2.3136646 C13.3768196,1.32677709 11.8395525,0.833333333 9.86577747,0.833333333 C8.02485269,0.833333333 6.54452143,1.26984127 5.42478368,2.12387854 C4.43789617,2.88302277 3.90649521,3.96480331 3.79262357,5.38819876 C3.77364496,5.71083506 4.03934545,5.99551415 4.36198175,6.01449275 L7.01898658,6.07142857 C7.45549451,6.07142857 7.85404524,5.80572809 7.96791688,5.40717736 C8.0628099,5.06556246 8.23361736,4.79986197 8.46136063,4.5721187 C8.84093275,4.2305038 9.29641929,4.05969634 9.84679886,4.05969634 C10.5300287,4.05969634 11.0614296,4.26846101 11.4410018,4.68599034 C11.8205739,5.10351967 11.9913813,5.65389924 11.9913813,6.35610766 C11.9913813,7.02035887 11.8395525,7.62767426 11.5169162,8.14009662 C11.1942799,8.65251898 10.7577719,9.08902692 10.2073924,9.43064182 C9.12561184,10.1897861 8.38544621,10.8540373 7.98689548,11.4233954 C7.66425918,11.878882 7.47447312,12.505176 7.3985587,13.321256 C7.36060149,13.7008282 7.66425918,14.0234645 8.0438313,14.0234645 L10.947558,14.0234645 C11.2701943,14.0234645 11.5548734,13.7767426 11.5928306,13.4541063 C11.6307878,13.0365769 11.7256809,12.6759834 11.8395525,12.3913043 C12.0293385,11.9927536 12.3899321,11.6131815 12.921333,11.2715666 C13.8702633,10.7781228 14.6483862,10.094893 15.2746802,9.22187716 C15.8819956,8.34886128 16.2046319,7.39993099 16.2046319,6.37508627 C16.2046319,4.64803313 15.6352737,3.31953071 14.5155359,2.3136646 L14.5155359,2.3136646 Z" id="Help"></path>
            </g>
        </g>
    </g>
</svg>