<svg fill="none" xmlns="http://www.w3.org/2000/svg" width="24" height="24" viewBox="0 0 30 30">
    <path fill-rule="evenodd" clip-rule="evenodd"
        d="M4.7 2.3a21.5 21.5 0 0 1 19.2 0A1 1 0 0 1 23 4 19.5 19.5 0 0 0 5.6 4a1 1 0 0 1-.9-1.7Zm1.7 3a19.8 19.8 0 0 1 15.8 0c2.6 1.2 4.8 3 6.3 5a1 1 0 0 1-1.6 1.2A14.2 14.2 0 0 0 21.4 7 17.5 17.5 0 0 0 7.3 7C5 8 3 9.8 1.8 11.5a1 1 0 0 1-1.6-1.1c1.4-2 3.7-4 6.2-5.1ZM14.2 7c5 0 9.4 2.5 11.6 6.2 1.2 2 1.6 4 1.6 5.6 0 2.8-2.6 4.6-5 4.6-1.1 0-2.3-.3-3.3-1-1-.8-1.7-2-1.7-3.6 0-.9-.5-1.5-1-2-.7-.4-1.5-.6-2.2-.6-1.8 0-3 1.3-3 2.6 0 1 .3 2.5.7 3.5.5 1 1.3 2.2 2 2.9 1.3 1.2 3 2.3 5.2 2.8a1 1 0 0 1-.4 1.9 12.6 12.6 0 0 1-8.5-6.8c-.6-1.2-1-3-1-4.3 0-2.5 2.4-4.5 5-4.5 1 0 2.2.3 3.2 1s1.8 1.9 1.9 3.5c0 1 .4 1.6 1 2 .5.4 1.3.7 2.2.7 1.5 0 3-1.2 3-2.7 0-1.3-.4-3-1.4-4.6a11.4 11.4 0 0 0-9.9-5.2c-3.7 0-7.7 1.8-9.8 5.2a9 9 0 0 0-1.2 4.9c0 2.4.4 3.4 1 5a1 1 0 1 1-1.8.8c-.7-1.8-1-3-1.2-5.8a10.9 10.9 0 0 1 1.6-5.9c2.4-4.1 7.1-6.1 11.4-6.2Zm-9 11.6c0-4.4 4.4-8 9-8 4.7 0 9.2 3.2 9.2 8.3a1 1 0 1 1-2 0c0-3.7-3.3-6.3-7.2-6.3-3.8 0-7 2.9-7 6 0 1.8.2 3.5 1.2 5.3a13.2 13.2 0 0 0 3 4 1 1 0 1 1-1.2 1.5 15.2 15.2 0 0 1-3.6-4.6c-1-2.1-1.4-4.1-1.3-6.2Zm9-.8c.6 0 1 .5 1 1a5.9 5.9 0 0 0 3 5.1c1.4.8 2.3 1 3.7 1a11.8 11.8 0 0 0 1.8-.1 1 1 0 1 1 .3 1.9l-2 .2c-1.8 0-3.1-.4-4.8-1.3a7.8 7.8 0 0 1-4-6.8c0-.5.5-1 1-1Z"
        fill="#F04405"></path>
</svg>