<svg xmlns="http://www.w3.org/2000/svg" width="20.025" height="19.834" viewBox="0 0 20.025 19.834">
  <g id="Grupo_2418" data-name="Grupo 2418" transform="translate(-22.422 -230.036)">
    <g id="Grupo_2362" data-name="Grupo 2362" transform="translate(40.866 245.87) rotate(180)">
      <path id="Trazado_13953" data-name="Trazado 13953" d="M16.481,7.35,10.2,12.336a2.572,2.572,0,0,1-3.516,0L.382,7.328A1.014,1.014,0,0,1,.22,5.905a.982.982,0,0,1,1.4-.162l5.691,4.543V1.045A1.064,1.064,0,0,1,8.375,0a.94.94,0,0,1,.693.306,1.011,1.011,0,0,1,.262.74v9.311l5.835-4.59a1.045,1.045,0,0,1,1.449.162A1.01,1.01,0,0,1,16.481,7.35Z" transform="translate(0 -4)" fill="#fff"/>
    </g>
    <g id="Grupo_2364" data-name="Grupo 2364" transform="translate(42.447 236.839) rotate(180)">
      <path id="Trazado_13955" data-name="Trazado 13955" d="M19.013,6.8h-18A1.011,1.011,0,0,1,0,5.792V1.012a1.012,1.012,0,1,1,2.023,0V4.781H18V1.012a1.012,1.012,0,1,1,2.023,0v4.78A1.011,1.011,0,0,1,19.013,6.8Z" fill="#fff"/>
    </g>
  </g>
</svg>
