<svg id="Capa_1" data-name="Capa 1" xmlns="http://www.w3.org/2000/svg" viewBox="0 0 512 512"><defs><style>.cls-1{fill:#c7c7c7}</style></defs><title>Tavola disegno 1</title><path class="cls-1" d="M169.31 210.36a14.39 14.39 0 0 0 0 20.41l76.54 76.54a14.49 14.49 0 0 0 10.15 4.27 14.08 14.08 0 0 0 10.15-4.27l76.54-76.54a14.44 14.44 0 1 0-20.42-20.41l-51.84 51.84V14.43a14.43 14.43 0 0 0-28.86 0V262.2l-51.84-51.84a14.38 14.38 0 0 0-20.42 0z"/><path class="cls-1" d="M491.9 328.58l-50.23-181.71a14.61 14.61 0 0 0-7.91-9.3l-1.39-.64a14.68 14.68 0 0 0-6-1.29h-90.52a14.43 14.43 0 1 0 0 28.86h80.8l42.44 153.71H346.86a14.37 14.37 0 0 0-14.43 14.43v13a34.63 34.63 0 0 1-34.64 34.63h-88.07a34.63 34.63 0 0 1-34.64-34.63v-13a14.37 14.37 0 0 0-14.43-14.43H52.8l42.65-154h80.81a14.43 14.43 0 0 0 0-28.86H85.62a14.83 14.83 0 0 0-6 1.28l-1.39.65a14.31 14.31 0 0 0-7.91 9.3L20.1 328.26a15.41 15.41 0 0 0-.54 3.85v75.78A104.24 104.24 0 0 0 123.67 512h264.66a104.24 104.24 0 0 0 104.11-104.11v-75.46a11.11 11.11 0 0 0-.54-3.85zm-28.32 79.31a75.36 75.36 0 0 1-75.25 75.25H123.67a75.36 75.36 0 0 1-75.25-75.25v-60.82h98a63.55 63.55 0 0 0 63.49 62H298a63.55 63.55 0 0 0 63.49-62h102.3v60.82z"/></svg>