<svg viewBox="0 0 24 24" width="14px" height="14px" xmlns="http://www.w3.org/2000/svg">
    <path fill-rule="evenodd" clip-rule="evenodd"
        d="M13.578 4.891L16.25 2.22l1.06 1.06-2.671 2.672c-.679.679-1.055 1.462-1.12 2.199-.043.5.054 1.003.327 1.472L18.75 4.72l1.06 1.06-4.906 4.906c.473.281.974.387 1.466.354.718-.047 1.467-.394 2.096-1.023A869.223 869.223 0 0021.02 7.45l.226-.228h.001l1.066 1.055-.227.23a983.524 983.524 0 01-2.56 2.57c-.849.849-1.927 1.384-3.057 1.459a4.026 4.026 0 01-2.647-.768L12.591 13l7.72 7.72-1.061 1.06-5.97-5.97-3 3-1.75-1.75-4.72 4.72-1.06-1.06L7.47 16 3.077 11.61a4.75 4.75 0 010-6.718l.702-.702 7.75 7.75 1.232-1.232a3.971 3.971 0 01-.737-2.686c.1-1.147.67-2.246 1.553-3.13zm-1.359 9.86L3.808 6.338a3.25 3.25 0 00.33 4.21l6.142 6.14 1.94-1.939z">
    </path>
</svg>