<?xml version="1.0" encoding="UTF-8"?>
<svg width="20px" height="15px" viewBox="0 0 20 15" version="1.1" xmlns="http://www.w3.org/2000/svg" xmlns:xlink="http://www.w3.org/1999/xlink">
    <!-- Generator: Sketch 40.3 (33839) - http://www.bohemiancoding.com/sketch -->
    <title>Group</title>
    <desc>Created with Sketch.</desc>
    <defs></defs>
    <g id="Page-1" stroke="none" stroke-width="1" fill="none" fill-rule="evenodd">
        <g id="Flyout---Mobile-closed" transform="translate(-290.000000, -17.000000)" fill="#FEFEFE">
            <g id="Group" transform="translate(290.000000, 17.000000)">
                <path d="M17.5588235,3.55548387 L2.2163235,3.55548387 C1.3248435,3.55548387 0.6013235,2.83290323 0.6013235,1.94258065 C0.6013235,1.05225806 1.3248435,0.329677419 2.2163235,0.329677419 L17.5588235,0.329677419 C18.4503035,0.329677419 19.1738235,1.05225806 19.1738235,1.94258065 C19.1738235,2.83290323 18.4503035,3.55548387 17.5588235,3.55548387" id="Fill-30"></path>
                <path d="M17.5588235,9.20064516 L2.2163235,9.20064516 C1.3248435,9.20064516 0.6013235,8.47806452 0.6013235,7.58774194 C0.6013235,6.69741935 1.3248435,5.97483871 2.2163235,5.97483871 L17.5588235,5.97483871 C18.4503035,5.97483871 19.1738235,6.69741935 19.1738235,7.58774194 C19.1738235,8.47806452 18.4503035,9.20064516 17.5588235,9.20064516" id="Fill-32"></path>
                <path d="M17.5588235,14.8458065 L2.2163235,14.8458065 C1.3248435,14.8458065 0.6013235,14.1232258 0.6013235,13.2329032 C0.6013235,12.3425806 1.3248435,11.62 2.2163235,11.62 L17.5588235,11.62 C18.4503035,11.62 19.1738235,12.3425806 19.1738235,13.2329032 C19.1738235,14.1232258 18.4503035,14.8458065 17.5588235,14.8458065" id="Fill-34"></path>
            </g>
        </g>
    </g>
</svg>