<svg id="Layer_1" data-name="Layer 1" xmlns="http://www.w3.org/2000/svg" viewBox="0 0 400 400"><title>Coins SVGs</title><circle cx="200" cy="200" r="122.51" style="fill:#c5f3ff"/><path d="M205.39,170.2l61.73-72.69s64.17,37.2,54,124.17l-62.77,37.51Z" style="fill:#76dcff"/><path d="M244.85,225l-69.43-96.5L81.8,233.21S84.2,251.3,104,276.37c7.87,10,131.19-41.94,131.19-41.94Z" style="fill:#489cef"/><path d="M91.08,256.06l34.71-37.27,36.94,40.15-34.06,40.64S102.31,281.2,91.08,256.06Z" style="fill:#3d81e2"/><path d="M216.34,230.32l55-66.38,49.75,57.74s-4,45.79-49.75,77.9Z" style="fill:#287ce0"/><path d="M121.67,294.58,200,202.88l71.33,96.7S200,351.7,121.67,294.58Z" style="fill:#264d9a"/><path d="M141.14,166.87,107,120.27s-42.1,41-25.22,112.94Z" style="fill:#9fe6ff"/></svg>