<svg width="64" height="64" viewBox="0 0 64 64" fill="none" xmlns="http://www.w3.org/2000/svg">
<path d="M32 53C43.598 53 53 43.598 53 32C53 20.402 43.598 11 32 11C20.402 11 11 20.402 11 32C11 43.598 20.402 53 32 53Z" fill="#00C5A1"/>
<path d="M22.73 43.5503C22.73 42.3321 22.9701 41.1258 23.4366 40.0005C23.9031 38.8752 24.5868 37.8531 25.4486 36.9922C26.3105 36.1313 27.3336 35.4487 28.4594 34.9834C29.5853 34.5181 30.7918 34.279 32.01 34.2803V34.2803C34.4685 34.2803 36.8264 35.2571 38.5649 36.9956C40.3033 38.7341 41.28 41.0917 41.28 43.5503" stroke="#0B0B0B" stroke-miterlimit="10" strokeLinecap="round"/>
<path d="M32.0001 30.75C34.8444 30.75 37.1501 28.4444 37.1501 25.6001C37.1501 22.7558 34.8444 20.4502 32.0001 20.4502C29.1558 20.4502 26.8501 22.7558 26.8501 25.6001C26.8501 28.4444 29.1558 30.75 32.0001 30.75Z" stroke="#0B0B0B" stroke-miterlimit="10" strokeLinecap="round"/>
</svg>
