<svg width="20" height="20" viewBox="0 0 20 20" fill="none" xmlns="http://www.w3.org/2000/svg">
<g clip-path="url(#clip0_1899_11048)">
<path fill-rule="evenodd" clip-rule="evenodd" d="M19.091 18.0895C19.091 18.6413 18.6414 19.0909 18.0896 19.0909V19.0841H13.4575V12.0472H15.8213L16.1755 9.30186H13.4575V7.55112C13.4575 6.75409 13.6755 6.21593 14.8199 6.21593H16.2709V3.76353C16.0189 3.72947 15.1537 3.65454 14.1523 3.65454C12.0541 3.65454 10.6236 4.93523 10.6236 7.27864V9.30186H8.25293V12.0472H10.6236V19.0841H1.91058C1.35879 19.0841 0.90918 18.6345 0.90918 18.0827V1.91052C0.90918 1.35873 1.35879 0.909119 1.91058 0.909119H18.0896C18.6414 0.909119 19.091 1.35873 19.091 1.91052V18.0895Z" fill="#221D1D"/>
</g>
<defs>
<clipPath id="clip0_1899_11048">
<rect width="20" height="20" fill="white"/>
</clipPath>
</defs>
</svg>
