<svg xmlns="http://www.w3.org/2000/svg" role="graphics-symbol" viewBox="0 0 24 24" class="newSidebarTrash"
     style="width: 24px; height: 24px; display: block; fill: rgb(145, 145, 142); flex-shrink: 0;">
    <path d="M8.624 19.866c-1.187 0-1.927-.689-1.978-1.868l-.49-10.48H5.4a.711.711 0 01-.725-.719.71.71 0 01.725-.71h3.186V5.012c0-1.164.732-1.845 2.007-1.845h2.79c1.275 0 2.014.68 2.014 1.845V6.09h3.194c.41 0 .725.307.725.71 0 .41-.315.718-.725.718h-.755l-.49 10.474c-.052 1.186-.799 1.875-1.978 1.875H8.624zM10.08 5.07v1.018h3.823V5.07c0-.352-.241-.571-.63-.571h-2.57c-.381 0-.623.22-.623.57zM8.807 18.423h6.372c.41 0 .68-.278.695-.718l.47-10.188H7.626l.484 10.188c.022.432.293.718.696.718zm1.04-1.128c-.315 0-.535-.205-.542-.52l-.22-7.559c-.007-.307.205-.52.535-.52.315 0 .534.205.542.52l.22 7.552c.007.307-.206.527-.535.527zm2.153 0c-.33 0-.55-.213-.55-.52V9.216c0-.315.22-.52.55-.52.322 0 .542.205.542.52v7.559c0 .308-.22.52-.542.52zm2.146 0c-.33 0-.542-.213-.535-.527l.22-7.552c.007-.315.227-.52.542-.52.33 0 .542.213.535.52l-.22 7.559c-.007.315-.227.52-.542.52z"></path>
</svg>