<svg xmlns="http://www.w3.org/2000/svg" role="graphics-symbol" viewBox="0 0 16 16" class="arrowsUpDown"
     style="width: 16px; height: 100%; display: block; fill: currentcolor; flex-shrink: 0; margin-right: 6px;">
    <path d="M4.11 2.385a.61.61 0 01.48-.211c.191 0 .353.07.486.21L8.03 5.409a.66.66 0 01.2.475c0 .191-.061.347-.182.469a.627.627 0 01-.463.181.59.59 0 01-.451-.187L5.926 5.098l-.72-.844.04 1.219v7.242a.624.624 0 01-.187.469.624.624 0 01-.47.187.636.636 0 01-.468-.187.635.635 0 01-.182-.47V5.474l.041-1.22-.726.845-1.201 1.248a.61.61 0 01-.457.187.627.627 0 01-.463-.181.634.634 0 01-.182-.47.66.66 0 01.2-.474l2.958-3.023zm7.786 10.781a.636.636 0 01-.486.205.665.665 0 01-.486-.205l-2.947-3.035a.64.64 0 01-.206-.475c0-.191.061-.345.182-.463a.634.634 0 01.469-.181c.18 0 .33.06.451.181l1.201 1.248.727.85-.041-1.219V2.824c0-.187.06-.342.181-.463a.636.636 0 01.47-.187.627.627 0 01.65.65v7.248l-.041 1.219.726-.85 1.207-1.248a.6.6 0 01.451-.181c.188 0 .342.06.463.181a.615.615 0 01.182.463.648.648 0 01-.2.475l-2.953 3.035z"></path>
</svg>