<svg xmlns="http://www.w3.org/2000/svg" width="20" height="20" viewBox="0 0 20.172 20.172"><path d="M8.594 11.578a12.945 12.945 0 003.265 2.382l1.903-1.903a.875.875 0 01.896-.209 9.993 9.993 0 002.77.497.853.853 0 01.601.258.865.865 0 01.258.614v3.045a.83.83 0 01-.251.607.865.865 0 01-.614.258A14.773 14.773 0 013.045 2.75a.88.88 0 01.872-.872H6.96a.865.865 0 01.614.258.891.891 0 01.258.602 9.784 9.784 0 00.503 2.775.865.865 0 01-.208.895L6.224 8.312a12.6 12.6 0 002.37 3.266z" stroke="#fff" fill="#fff"></path></svg>