<?xml version="1.0" encoding="UTF-8"?>
<svg width="25px" height="24px" viewBox="0 0 25 24" version="1.1" xmlns="http://www.w3.org/2000/svg" xmlns:xlink="http://www.w3.org/1999/xlink">
    <!-- Generator: Sketch 40.3 (33839) - http://www.bohemiancoding.com/sketch -->
    <title>Fill 488</title>
    <desc>Created with Sketch.</desc>
    <defs></defs>
    <g id="Page-1" stroke="none" stroke-width="1" fill="none" fill-rule="evenodd">
        <g id="Footer-Final" transform="translate(-913.000000, -562.000000)" fill="#999999">
            <path d="M930.438167,571.5535 C930.443417,571.65925 930.445667,571.765 930.445667,571.8715 C930.445667,575.125 927.969167,578.8765 923.440667,578.8765 C922.050167,578.8765 920.756417,578.46925 919.666667,577.77025 C919.860167,577.79275 920.055917,577.804 920.253917,577.804 C921.408167,577.804 922.468667,577.41175 923.310917,576.751 C922.234667,576.73075 921.324917,576.01825 921.012167,575.04175 C921.162167,575.0695 921.315917,575.08525 921.474917,575.08525 C921.699917,575.08525 921.917417,575.0545 922.122917,574.999 C920.997917,574.77175 920.148917,573.77725 920.148917,572.58475 L920.148917,572.554 C920.481167,572.7385 920.860667,572.84875 921.264167,572.8615 C920.603417,572.42125 920.169167,571.66675 920.169167,570.8125 C920.169167,570.361 920.290667,569.938 920.502167,569.575 C921.715667,571.0645 923.530667,572.04475 925.576667,572.14675 C925.534667,571.96675 925.512917,571.77925 925.512917,571.58575 C925.512917,570.22675 926.615417,569.125 927.975167,569.125 C928.682417,569.125 929.322917,569.4235 929.772167,569.90125 C930.332417,569.79175 930.859667,569.58625 931.335917,569.3035 C931.150667,569.8795 930.761417,570.361 930.252917,570.66625 C930.750917,570.60775 931.225667,570.47425 931.666667,570.27925 C931.337417,570.77275 930.919667,571.20625 930.438167,571.5535 L930.438167,571.5535 Z M925.666667,562 C919.039667,562 913.666667,567.373 913.666667,574 C913.666667,580.6285 919.039667,586 925.666667,586 C932.293667,586 937.666667,580.6285 937.666667,574 C937.666667,567.373 932.293667,562 925.666667,562 L925.666667,562 Z" id="Fill-488"></path>
        </g>
    </g>
</svg>