<svg xmlns="http://www.w3.org/2000/svg" width="48" height="48"><g data-name="Group 4891" transform="translate(-185 -2407)"><rect data-name="Rectangle 1512" width="48" height="48" rx="8" transform="translate(185 2407)" fill="rgba(138,98,214,0.08)"/><g data-name="forum-24px (2)"><path data-name="Path 4475" d="M189 2411h40v40h-40z" fill="none"/><path data-name="Path 4476" d="M222.334 2421h-1.667v13.334a1.672 1.672 0 01-1.667 1.667h-20v1.666a3.343 3.343 0 003.333 3.333H219l6.667 6.667v-23.333a3.343 3.343 0 00-3.333-3.334zm-5 8.333v-11.666a3.343 3.343 0 00-3.333-3.333h-18.334a3.343 3.343 0 00-3.333 3.333v21.667l6.666-6.667h15a3.343 3.343 0 003.334-3.333z" fill="#8a62d6"/></g></g></svg>