<svg width="24" height="24" viewBox="0 0 24 24" fill="none" xmlns="http://www.w3.org/2000/svg">
<path d="M9.8 13.1L9.5 13.9H11.8L11.5 13.1L10.6 10.7L9.8 13.1Z" fill="white"/>
<path d="M22.4 4.1001C22.1 3.7001 21.6 3.6001 21.1 3.6001H13.4V5.1001H21.1C21.2 5.1001 21.2 5.1001 21.3 5.2001C21.4 5.3001 21.4 5.3001 21.4 5.4001V20.8001C21.4 20.9001 21.4 20.9001 21.3 21.0001C21.2 21.1001 21.2 21.1001 21.1 21.1001H5.70002C5.60002 21.1001 5.60002 21.1001 5.50002 21.0001C5.40002 20.9001 5.40002 20.9001 5.40002 20.8001V13.1001H3.90002V20.8001C3.90002 21.3001 4.10002 21.7001 4.40002 22.1001C4.70002 22.5001 5.20002 22.6001 5.70002 22.6001H21.1C21.6 22.6001 22 22.4001 22.4 22.1001C22.7 21.8001 22.9 21.3001 22.9 20.8001V5.4001C22.9 4.9001 22.7 4.5001 22.4 4.1001Z" fill="white"/>
<path d="M19.1 10.2C19.3 10.2 19.5 10.1 19.6 10C19.7 9.90005 19.8 9.70005 19.8 9.50005C19.8 9.30005 19.7 9.10005 19.6 9.00005C19.5 8.90005 19.3 8.80005 19.1 8.80005H15.8C15.6 8.80005 15.4 8.90005 15.3 9.00005C15.2 9.10005 15.1 9.30005 15.1 9.50005C15.1 9.70005 15.2 9.90005 15.3 10C15.4 10.1 15.6 10.2 15.8 10.2H16.8V15.8V16H15.8C15.6 16 15.4 16.1 15.3 16.2C15.2 16.3 15.1 16.5 15.1 16.7C15.1 16.9 15.2 17.1 15.3 17.2C15.4 17.3 15.6 17.4 15.8 17.4H19.1C19.3 17.4 19.5 17.3 19.6 17.2C19.7 17.1 19.8 16.9 19.8 16.7C19.8 16.5 19.7 16.3 19.6 16.2C19.5 16.1 19.3 16 19.1 16H18.1V10.4V10.2H19.1Z" fill="white"/>
<path d="M11.2 8.90005C11.1 8.80005 11 8.80005 10.8 8.80005H10.4C10.3 8.80005 10.2 8.80005 10.1 8.90005C9.99999 9.00005 9.89999 9.10005 9.89999 9.20005L8.39999 13.1L7.09999 16.5C6.99999 16.7 6.99999 16.9 7.19999 17.1C7.29999 17.3 7.49999 17.4 7.79999 17.4C7.89999 17.4 8.09999 17.4 8.19999 17.3C8.29999 17.2 8.39999 17.1 8.49999 17L8.99999 15.1H12.2L12.9 16.9C12.9 17 13 17.2 13.2 17.2C13.3 17.3 13.5 17.3 13.6 17.3C13.8 17.3 14 17.2 14.2 17C14.3 16.8 14.4 16.6 14.3 16.4L13 13L11.5 9.10005C11.4 9.10005 11.3 9.00005 11.2 8.90005ZM11.8 13.9H9.49999L9.79999 13.1L10.7 10.7L11.6 13.1L11.8 13.9Z" fill="white"/>
<path d="M5.39998 11.2001L6.49998 8.6001L9.09998 7.5001C9.19998 7.4001 9.29998 7.4001 9.29998 7.3001C9.29998 7.2001 9.29998 7.1001 9.19998 7.0001L6.49998 5.9001L5.39998 3.3001C5.39998 3.2001 5.29998 3.1001 5.19998 3.1001C5.09998 3.1001 4.99998 3.2001 4.99998 3.3001L3.89998 5.9001L1.29998 7.0001C1.09998 7.1001 1.09998 7.1001 1.09998 7.2001C1.09998 7.3001 1.19998 7.3001 1.29998 7.4001L3.89998 8.5001L4.99998 11.2001C4.99998 11.4001 5.39998 11.4001 5.39998 11.2001Z" fill="white"/>
<path d="M8.40001 3.4L9.40001 3.7L9.70001 4.7C9.80001 4.9 10.1 4.9 10.2 4.7L10.5 3.7L11.5 3.4C11.7 3.3 11.7 3.3 11.7 3.2C11.7 3.1 11.8 3 11.7 3L10.7 2.7L10.4 1.7C10.3 1.6 10.3 1.5 10.2 1.5C10.1 1.5 9.90001 1.5 9.90001 1.6L9.60001 2.6L8.40001 2.9C8.30001 3 8.20001 3 8.20001 3.1C8.20001 3.2 8.30001 3.4 8.40001 3.4Z" fill="white"/>
</svg>
