
<svg width="14" height="12" viewBox="0 0 14 12" fill="none" xmlns="http://www.w3.org/2000/svg">
<path d="M7.00421 10.3641C7.00421 10.6107 6.86171 10.8348 6.63871 10.9393C6.55248 10.9801 6.46009 10.9998 6.3683 10.9998C6.22294 10.9998 6.07894 10.9499 5.96262 10.8534L2.48692 7.9733H0.635762C0.284701 7.9736 0 7.68875 0 7.33768V4.80472C0 4.45351 0.284701 4.16881 0.635762 4.16881H2.48707L5.96277 1.28869C6.15267 1.1313 6.416 1.09774 6.63886 1.20307C6.86171 1.30765 7.00436 1.53186 7.00436 1.77834L7.00421 10.3641ZM9.44749 9.37062C9.432 9.37167 9.4171 9.37227 9.40175 9.37227C9.23382 9.37227 9.07191 9.30591 8.95228 9.18613L8.86726 9.10081C8.64425 8.87826 8.61807 8.52569 8.80586 8.27259C9.28197 7.63066 9.53327 6.8697 9.53327 6.07143C9.53327 5.21281 9.24796 4.40746 8.70805 3.74236C8.5025 3.48956 8.52146 3.1224 8.75184 2.89217L8.83671 2.80715C8.96371 2.68015 9.1339 2.61093 9.31808 2.62191C9.49745 2.63094 9.66493 2.71536 9.77869 2.8544C10.5276 3.7708 10.9232 4.88342 10.9232 6.07158C10.9232 7.17818 10.5734 8.23151 9.91126 9.11722C9.80066 9.26483 9.63153 9.35752 9.44749 9.37062ZM12.076 11.3354C11.961 11.4713 11.7948 11.5528 11.6168 11.5603C11.608 11.5606 11.5992 11.5609 11.5901 11.5609C11.4217 11.5609 11.2601 11.4944 11.1405 11.3748L11.057 11.2913C10.8236 11.0581 10.8078 10.685 11.02 10.4325C12.0453 9.21307 12.6102 7.66437 12.6102 6.07143C12.6102 4.41454 12.0054 2.81949 10.9077 1.58017C10.6852 1.32857 10.6964 0.947716 10.9333 0.709963L11.0167 0.626449C11.1404 0.502156 11.3011 0.433689 11.4854 0.439558C11.6604 0.444523 11.8259 0.521868 11.9422 0.652782C13.2691 2.14671 14 4.0713 14 6.07143C14.0003 7.99587 13.317 9.86538 12.076 11.3354Z" fill="#868686"/>
</svg>
