<svg id="Layer_1" data-name="Layer 1" xmlns="http://www.w3.org/2000/svg" xmlns:xlink="http://www.w3.org/1999/xlink" viewBox="0 0 96.77 133.11"><defs><style>.cls-1{opacity:0.08;fill:url(#linear-gradient);}.cls-2{fill:#4942d4;}.cls-3{fill:url(#linear-gradient-2);}.cls-4{mask:url(#mask);}.cls-5{opacity:0.71;}.cls-6{fill:url(#linear-gradient-3);}.cls-7{fill:#243add;opacity:0.84;}.cls-8{filter:url(#luminosity-invert);}</style><linearGradient id="linear-gradient" x1="19.63" y1="82.39" x2="39.12" y2="71.08" gradientUnits="userSpaceOnUse"><stop offset="0" stop-color="#fff"/><stop offset="1"/></linearGradient><linearGradient id="linear-gradient-2" x1="16.06" y1="104.16" x2="96.87" y2="6.86" gradientUnits="userSpaceOnUse"><stop offset="0" stop-color="#2947e7"/><stop offset="1" stop-color="#2fbef6"/></linearGradient><filter id="luminosity-invert" filterUnits="userSpaceOnUse" color-interpolation-filters="sRGB"><feColorMatrix values="-1 0 0 0 1 0 -1 0 0 1 0 0 -1 0 1 0 0 0 1 0"/></filter><mask id="mask" x="9.9" y="57.2" width="24.18" height="19.32" maskUnits="userSpaceOnUse"><g class="cls-8"><g transform="translate(-7.01 -3.45)"><polygon class="cls-1" points="41.1 60.65 16.92 76.13 16.92 79.97 39.79 79.97 41.1 60.65"/></g></g></mask><linearGradient id="linear-gradient-3" x1="54.2" y1="85.81" x2="75.48" y2="100.9" gradientUnits="userSpaceOnUse"><stop offset="0" stop-color="#2839e6"/><stop offset="1" stop-color="#2c87f0"/></linearGradient></defs><title>streak_logo_mark</title><path class="cls-2" d="M71,6.57V76.92A3.12,3.12,0,0,1,67.89,80H10.14a3.12,3.12,0,0,1-2.41-5.1L65.49,4.59A3.11,3.11,0,0,1,71,6.57Z" transform="translate(-7.01 -3.45)"/><path class="cls-3" d="M71,6.57V76.92A3.12,3.12,0,0,1,67.89,80H10.14a3.12,3.12,0,0,1-2.41-5.1L65.49,4.59A3.11,3.11,0,0,1,71,6.57Z" transform="translate(-7.01 -3.45)"/><g class="cls-4"><polygon class="cls-5" points="34.09 57.2 9.9 72.68 9.9 76.52 32.78 76.52 34.09 57.2"/></g><path class="cls-6" d="M39.79,133.77V63.41a3.22,3.22,0,0,1,3.12-3.47h57.75a3.12,3.12,0,0,1,2.41,5.1L45.32,135.39C43.46,137.65,39.79,136.34,39.79,133.77Z" transform="translate(-7.01 -3.45)"/><path class="cls-7" d="M39.79,80H67.9A3.11,3.11,0,0,0,71,76.89v-17H42.93A3.11,3.11,0,0,0,39.79,63Z" transform="translate(-7.01 -3.45)"/></svg>