
<svg width="20" height="14" viewBox="0 0 20 14" fill="none" xmlns="http://www.w3.org/2000/svg">
<path d="M14.609 8.12877C14.2677 7.78949 13.7165 7.78949 13.3752 8.12877L11.3627 10.1413L7.60896 6.38752C7.26766 6.04824 6.71652 6.04824 6.37521 6.38752L0.250211 12.5125C-0.0880864 12.8576 -0.0826723 13.4116 0.262406 13.7499C0.422914 13.9073 0.63789 13.9968 0.86271 14H18.3627C18.8459 14.0028 19.24 13.6134 19.2428 13.1301C19.2442 12.895 19.1509 12.6693 18.984 12.5038L14.609 8.12877Z" fill="#5a90dc"/>
<path d="M12.2378 5.25C13.6875 5.25 14.8628 4.07475 14.8628 2.625C14.8628 1.17525 13.6875 0 12.2378 0C10.788 0 9.61279 1.17525 9.61279 2.625C9.61279 4.07475 10.788 5.25 12.2378 5.25Z" fill="#5a90dc"/>
</svg>
