<svg width="301" height="14" viewBox="0 0 301 14" fill="none" xmlns="http://www.w3.org/2000/svg">
<path d="M65.8862 2.80937C94.364 2.40435 122.856 2.14398 151.348 2.02826C179.839 1.91254 208.066 1.95112 236.416 2.13434C252.52 2.24042 268.64 2.38507 284.744 2.57793L286.943 0.601051C250.173 0.996427 213.417 1.48824 176.66 2.07648C139.904 2.66472 103.147 3.3494 66.3887 4.14015C45.7541 4.58375 25.1349 5.04663 4.49985 5.54808C3.29059 5.57701 1.47568 5.76988 0.788687 6.50277C0.148519 7.18745 1.32417 7.54425 2.30085 7.52496C40.6076 6.91743 78.9415 6.85957 117.256 7.36103C155.571 7.86248 193.851 8.93289 232.08 10.553C253.558 11.4594 275.02 12.5491 296.449 13.8124C297.611 13.8799 299.535 13.5231 300.16 12.8577C300.847 12.1345 299.578 11.8837 298.648 11.8355C260.515 9.58864 222.286 7.89141 184.022 6.7535C145.759 5.61558 107.429 5.04663 69.1108 5.03698C47.5802 5.03698 26.0484 5.20092 4.51535 5.54808L2.31635 7.52496C39.0594 6.62813 75.8173 5.83738 112.575 5.13342C149.332 4.4391 186.088 3.83157 222.844 3.33011C243.478 3.05046 264.127 2.79009 284.76 2.56829C285.969 2.55865 287.8 2.33685 288.471 1.6136C289.142 0.890351 287.92 0.601051 286.959 0.591407C258.455 0.263534 229.981 0.0610241 201.491 0.0128074C173.001 -0.0354093 144.773 0.0513807 116.421 0.292464C100.314 0.427471 84.1921 0.610694 68.0852 0.842134C66.876 0.861421 65.0454 1.07357 64.374 1.79682C63.7338 2.4815 64.9095 2.8383 65.8862 2.81902L65.8862 2.80937Z" fill="#ECD996"/>
</svg>
