<svg width="384" height="147" viewBox="0 0 384 147" fill="none" xmlns="http://www.w3.org/2000/svg">
    <g filter="url(#filter0_b_2821_5712)">
        <rect y="0.216797" width="67.5268" height="67.5211" rx="14.6004" fill="white"
            fill-opacity="0.06"></rect>
        <rect x="0.472262" y="0.689059" width="66.5823" height="66.5766" rx="14.1281" stroke="white"
            stroke-opacity="0.06" stroke-width="0.944524"></rect>
        <path
            d="M47.3554 11.1669H20.1655C15.0731 11.1669 10.9502 15.2898 10.9502 20.3822V47.5778C10.9502 52.6645 15.0731 56.7874 20.1655 56.7874H47.3611C52.4478 56.7874 56.5764 52.6645 56.5764 47.572V20.3822C56.5707 15.2898 52.4478 11.1669 47.3554 11.1669Z"
            fill="url(#paint0_linear_2821_5712)"></path>
        <path
            d="M33.5671 21.6486L34.491 20.0519C35.0612 19.0539 36.3329 18.7175 37.3309 19.2877C38.3288 19.858 38.6653 21.1296 38.095 22.1276L29.1933 37.536H35.6315C37.7186 37.536 38.8876 39.9881 37.9809 41.6874H19.1055C17.9536 41.6874 17.0298 40.7636 17.0298 39.6117C17.0298 38.4598 17.9536 37.536 19.1055 37.536H24.3975L31.1722 25.7944L29.0566 22.1219C28.4863 21.1239 28.8227 19.8637 29.8207 19.282C30.8187 18.7118 32.0789 19.0482 32.6606 20.0462L33.5671 21.6486Z"
            fill="white"></path>
        <path
            d="M25.5597 43.8261L23.5638 47.2875C22.9935 48.2855 21.7219 48.6219 20.7239 48.0516C19.7259 47.4814 19.3895 46.2098 19.9598 45.2118L21.4424 42.6457C23.1189 42.1267 24.4818 42.5259 25.5597 43.8261Z"
            fill="white"></path>
        <path
            d="M42.7473 37.5476H48.1476C49.2995 37.5476 50.2234 38.4714 50.2234 39.6233C50.2234 40.7752 49.2995 41.6991 48.1476 41.6991H45.1481L47.1725 45.2118C47.7427 46.2098 47.4063 47.4701 46.4083 48.0517C45.4103 48.6219 44.1501 48.2855 43.5684 47.2876C40.1583 41.374 37.5978 36.9488 35.8985 34.0006C34.1592 31.001 35.4024 27.9901 36.6284 26.9694C37.9914 29.3074 40.0272 32.8373 42.7473 37.5476Z"
            fill="white"></path>
    </g>
    <g filter="url(#filter1_b_2821_5712)">
        <rect x="80.5537" y="0.216797" width="65.9006" height="65.9006" rx="14.6004" fill="white"
            fill-opacity="0.06"></rect>
        <rect x="81.026" y="0.689059" width="64.9561" height="64.9561" rx="14.1281" stroke="white"
            stroke-opacity="0.06" stroke-width="0.944524"></rect>
        <g clip-path="url(#clip0_2821_5712)">
            <path
                d="M94.5456 11.8471C94.0481 12.3736 93.7539 13.1911 93.7539 14.2504V52.0837C93.7539 53.1438 94.0482 53.9605 94.5456 54.487L94.6721 54.6104L115.866 33.417V33.1671V32.9171L94.6721 11.7229L94.5456 11.8471Z"
                fill="url(#paint1_linear_2821_5712)"></path>
            <path
                d="M122.93 40.4846L115.866 33.4171V33.1672V32.9171L122.931 25.8514L123.091 25.9423L131.461 30.6981C133.851 32.0564 133.851 34.2789 131.461 35.638L123.091 40.3939L122.93 40.4846Z"
                fill="url(#paint2_linear_2821_5712)"></path>
            <path
                d="M123.09 40.3929L115.865 33.1672L94.5454 54.4871C95.3337 55.3214 96.6345 55.4247 98.1004 54.5921L123.09 40.3929Z"
                fill="url(#paint3_linear_2821_5712)"></path>
            <path
                d="M123.09 25.9413L98.1004 11.7421C96.6345 10.9095 95.3337 11.0128 94.5454 11.8471L115.865 33.1672L123.09 25.9413Z"
                fill="url(#paint4_linear_2821_5712)"></path>
        </g>
    </g>
    <g filter="url(#filter2_b_2821_5712)">
        <rect x="159.481" y="0.216797" width="65.9006" height="65.9006" rx="14.6004" fill="white"
            fill-opacity="0.06"></rect>
        <rect x="159.954" y="0.689059" width="64.9561" height="64.9561" rx="14.1281" stroke="white"
            stroke-opacity="0.06" stroke-width="0.944524"></rect>
        <g clip-path="url(#clip1_2821_5712)">
            <path
                d="M175.744 18.8331C185.971 6.93115 204.935 9.27964 212.022 23.1836C207.031 23.1863 199.218 23.1808 194.986 23.1836C191.917 23.1836 189.934 23.1148 187.789 24.245C185.267 25.5733 183.362 28.0345 182.699 30.9275L175.744 18.8331Z"
                fill="#F44336"></path>
            <path
                d="M185.113 33.1687C185.113 37.2029 188.394 40.4837 192.425 40.4837C196.457 40.4837 199.738 37.2029 199.738 33.1687C199.738 29.1345 196.457 25.8538 192.425 25.8538C188.391 25.851 185.113 29.1345 185.113 33.1687Z"
                fill="#2196F3"></path>
            <path
                d="M195.261 42.7441C191.158 43.9624 186.353 42.6121 183.725 38.0691C181.717 34.6042 176.41 25.3615 174.001 21.1567C165.553 34.1037 172.832 51.7448 188.166 54.756L195.261 42.7441Z"
                fill="#4CAF50"></path>
            <path
                d="M199.215 25.851C202.633 29.03 203.379 34.178 201.063 38.1682C199.32 41.1767 193.751 50.5734 191.053 55.1218C206.852 56.0953 218.369 40.6129 213.166 25.8483L199.215 25.851Z"
                fill="#FFC107"></path>
        </g>
    </g>
    <g filter="url(#filter3_b_2821_5712)">
        <rect x="238.409" y="0.216797" width="65.9006" height="65.9006" rx="14.6004" fill="white"
            fill-opacity="0.06"></rect>
        <rect x="238.881" y="0.689059" width="64.9561" height="64.9561" rx="14.1281" stroke="white"
            stroke-opacity="0.06" stroke-width="0.944524"></rect>
        <g clip-path="url(#clip2_2821_5712)">
            <path
                d="M291.116 25.9248C290.19 23.696 288.313 21.2899 286.839 20.5295C288.039 22.8807 288.733 25.2393 288.998 26.9995C288.998 27.0029 288.999 27.0115 289.002 27.035C286.592 21.0265 282.504 18.6037 279.166 13.3284C278.998 13.0617 278.829 12.7942 278.664 12.5123C278.58 12.3683 278.502 12.2212 278.429 12.0712C278.291 11.8035 278.184 11.5205 278.111 11.228C278.112 11.1992 278.091 11.1745 278.062 11.1708C278.049 11.167 278.035 11.167 278.022 11.1708C278.019 11.1718 278.015 11.1754 278.011 11.1766C278.007 11.1785 277.975 11.1975 277.976 11.1958C272.621 14.3322 270.833 20.1117 270.666 23.0145C268.527 23.1615 266.482 23.9494 264.798 25.2755C264.622 25.1265 264.438 24.9873 264.246 24.8585C263.76 23.1585 263.739 21.3592 264.186 19.6485C261.996 20.6457 260.293 22.2219 259.054 23.6137H259.045C258.199 22.5433 258.259 19.0122 258.307 18.2749C258.297 18.2292 257.677 18.5969 257.596 18.6524C256.85 19.1847 256.153 19.7819 255.512 20.4372C254.783 21.1762 254.117 21.9748 253.521 22.8246C253.521 22.8256 253.521 22.8269 253.52 22.8279C253.52 22.8268 253.521 22.8256 253.521 22.8246C252.15 24.7672 251.178 26.9623 250.661 29.283C250.651 29.3292 250.642 29.3771 250.632 29.4237C250.592 29.6113 250.448 30.5503 250.422 30.7543C250.42 30.77 250.419 30.7851 250.418 30.8008C250.231 31.7715 250.115 32.7545 250.072 33.7421C250.072 33.7785 250.069 33.8145 250.069 33.851C250.07 45.6238 259.615 55.1672 271.389 55.1672C281.933 55.1672 290.688 47.5127 292.402 37.4584C292.438 37.1856 292.467 36.9112 292.499 36.636C292.923 32.9803 292.452 29.1379 291.116 25.9248ZM266.544 42.6103C266.644 42.6579 266.738 42.7099 266.84 42.7557C266.844 42.7586 266.85 42.7618 266.855 42.7645C266.75 42.7148 266.647 42.6633 266.544 42.6103ZM289.004 27.0402L289.001 27.0195C289.002 27.0271 289.003 27.035 289.005 27.0425L289.004 27.0402Z"
                fill="url(#paint5_linear_2821_5712)"></path>
            <path
                d="M291.116 25.9247C290.19 23.696 288.313 21.2899 286.84 20.5294C288.039 22.8806 288.733 25.2392 288.998 26.9994C288.998 26.9943 288.999 27.0037 289.001 27.0195C289.002 27.027 289.004 27.0349 289.005 27.0424C291.016 32.4953 289.921 38.0403 288.342 41.4287C285.899 46.6714 279.984 52.0444 270.726 51.7823C260.724 51.4991 251.912 44.0776 250.267 34.3571C249.967 32.8243 250.267 32.0459 250.418 30.8013C250.234 31.7608 250.164 32.0379 250.072 33.7427C250.072 33.779 250.07 33.815 250.07 33.8515C250.07 45.6237 259.615 55.1671 271.389 55.1671C281.933 55.1671 290.688 47.5127 292.402 37.4583C292.438 37.1855 292.467 36.9112 292.499 36.6359C292.923 32.9802 292.452 29.1379 291.116 25.9247Z"
                fill="url(#paint6_radial_2821_5712)"></path>
            <path
                d="M291.116 25.9247C290.19 23.696 288.313 21.2899 286.84 20.5294C288.039 22.8806 288.733 25.2392 288.998 26.9994C288.998 26.9943 288.999 27.0037 289.001 27.0195C289.002 27.027 289.004 27.0349 289.005 27.0424C291.016 32.4953 289.921 38.0403 288.342 41.4287C285.899 46.6714 279.984 52.0444 270.726 51.7823C260.724 51.4991 251.912 44.0776 250.267 34.3571C249.967 32.8243 250.267 32.0459 250.418 30.8013C250.234 31.7608 250.164 32.0379 250.072 33.7427C250.072 33.779 250.07 33.815 250.07 33.8515C250.07 45.6237 259.615 55.1671 271.389 55.1671C281.933 55.1671 290.688 47.5127 292.402 37.4583C292.438 37.1855 292.467 36.9112 292.499 36.6359C292.923 32.9802 292.452 29.1379 291.116 25.9247Z"
                fill="url(#paint7_radial_2821_5712)"></path>
            <path
                d="M280.756 28.4305C280.802 28.4631 280.845 28.4956 280.888 28.528C280.353 27.5784 279.687 26.7091 278.909 25.9455C272.282 19.3195 277.98 11.1948 277.981 11.1931C272.626 14.3295 270.833 20.1114 270.666 23.0141C270.914 22.9969 271.162 22.976 271.415 22.976C275.411 22.9761 278.892 25.1734 280.756 28.4305Z"
                fill="url(#paint8_radial_2821_5712)"></path>
            <path
                d="M271.428 29.7536C271.393 30.2839 269.52 32.1126 268.865 32.1126C262.802 32.1126 261.818 35.7794 261.818 35.7794C262.087 38.8673 264.237 41.4102 266.84 42.7557C266.959 42.817 267.079 42.8725 267.199 42.9273C267.406 43.0186 267.615 43.104 267.826 43.1833C268.718 43.4994 269.653 43.6796 270.6 43.7183C281.225 44.2167 283.284 31.0158 275.616 27.1824C277.579 26.8409 279.618 27.6306 280.756 28.4302C278.892 25.1735 275.411 22.9761 271.415 22.9761C271.162 22.9761 270.915 22.997 270.666 23.0141C268.528 23.1612 266.483 23.949 264.799 25.2751C265.124 25.5501 265.491 25.9177 266.264 26.6792C267.71 28.1045 271.42 29.5804 271.428 29.7536Z"
                fill="url(#paint9_radial_2821_5712)"></path>
            <path
                d="M271.428 29.7536C271.393 30.2839 269.52 32.1126 268.865 32.1126C262.802 32.1126 261.818 35.7794 261.818 35.7794C262.087 38.8673 264.237 41.4102 266.84 42.7557C266.959 42.817 267.079 42.8725 267.199 42.9273C267.406 43.0186 267.615 43.104 267.826 43.1833C268.718 43.4994 269.653 43.6796 270.6 43.7183C281.225 44.2167 283.284 31.0158 275.616 27.1824C277.579 26.8409 279.618 27.6306 280.756 28.4302C278.892 25.1735 275.411 22.9761 271.415 22.9761C271.162 22.9761 270.915 22.997 270.666 23.0141C268.528 23.1612 266.483 23.949 264.799 25.2751C265.124 25.5501 265.491 25.9177 266.264 26.6792C267.71 28.1045 271.42 29.5804 271.428 29.7536Z"
                fill="url(#paint10_radial_2821_5712)"></path>
            <path
                d="M263.804 24.566C263.953 24.6618 264.1 24.7594 264.246 24.8587C263.76 23.1587 263.74 21.3594 264.186 19.6487C261.996 20.6459 260.293 22.2221 259.055 23.6139C259.157 23.6111 262.249 23.5554 263.804 24.566Z"
                fill="url(#paint11_radial_2821_5712)"></path>
            <path
                d="M250.267 34.3571C251.912 44.0776 260.724 51.4992 270.726 51.7824C279.984 52.0444 285.898 46.671 288.341 41.4288C289.92 38.0402 291.016 32.4959 289.005 27.0425L289.004 27.0402L289.001 27.0196C288.999 27.0038 288.998 26.9944 288.998 26.9996C288.998 27.003 288.999 27.0116 289.002 27.0351C289.758 31.9727 287.247 36.756 283.32 39.9904L283.309 40.0182C275.658 46.2475 268.337 43.7766 266.855 42.7651C266.751 42.715 266.647 42.6634 266.544 42.6105C262.084 40.4789 260.241 36.4153 260.636 32.9303C256.87 32.9303 255.586 29.7538 255.586 29.7538C255.586 29.7538 258.967 27.3428 263.424 29.4397C267.551 31.3818 271.428 29.754 271.428 29.7538C271.42 29.5807 267.71 28.1047 266.263 26.6795C265.49 25.9181 265.123 25.5509 264.798 25.2754C264.622 25.1265 264.438 24.9873 264.246 24.8585C264.1 24.7593 263.953 24.6618 263.804 24.5658C262.249 23.5552 259.157 23.6109 259.055 23.6135H259.045C258.2 22.5431 258.259 19.012 258.307 18.2747C258.297 18.229 257.677 18.5967 257.596 18.6521C256.85 19.1844 256.153 19.7817 255.512 20.4369C254.783 21.1761 254.118 21.9749 253.521 22.8248C253.521 22.8258 253.521 22.8271 253.521 22.8282C253.521 22.827 253.521 22.8258 253.521 22.8248C252.151 24.7675 251.178 26.9625 250.661 29.2832C250.651 29.3293 249.894 32.64 250.267 34.3571Z"
                fill="url(#paint12_radial_2821_5712)"></path>
            <path
                d="M278.909 25.9455C279.687 26.7091 280.353 27.5784 280.888 28.528C281.006 28.6161 281.115 28.7041 281.208 28.7898C286.041 33.2429 283.509 39.5413 283.32 39.9901C287.247 36.7558 289.758 31.9724 289.002 27.0348C286.591 21.0264 282.504 18.6036 279.166 13.3283C278.998 13.0615 278.829 12.7941 278.664 12.5121C278.58 12.3682 278.502 12.2211 278.429 12.0711C278.29 11.8033 278.184 11.5203 278.11 11.2278C278.111 11.1991 278.091 11.1744 278.062 11.1707C278.049 11.1669 278.041 11.1654 278.028 11.1692C278.025 11.1702 278.014 11.1752 278.011 11.1764C278.007 11.1783 278.001 11.1827 277.996 11.1853C277.184 11.6031 272.282 19.3194 278.909 25.9455Z"
                fill="url(#paint13_radial_2821_5712)"></path>
            <path
                d="M281.209 28.7898C281.116 28.704 281.006 28.6161 280.889 28.5279C280.845 28.4953 280.803 28.4628 280.756 28.4304C279.618 27.6308 277.58 26.841 275.616 27.1825C283.284 31.0159 281.225 44.2168 270.6 43.7185C269.654 43.6799 268.719 43.4995 267.826 43.1834C267.615 43.104 267.406 43.0187 267.2 42.9274C267.079 42.8726 266.959 42.8172 266.84 42.7558C266.845 42.7587 266.85 42.762 266.855 42.7647C268.337 43.776 275.658 46.247 283.309 40.0177L283.321 39.99C283.509 39.5416 286.042 33.2431 281.209 28.7898Z"
                fill="url(#paint14_radial_2821_5712)"></path>
            <path
                d="M261.818 35.7794C261.818 35.7794 262.802 32.1126 268.864 32.1126C269.52 32.1126 271.393 30.2839 271.428 29.7536C271.463 29.2233 267.551 31.3815 263.424 29.4395C258.967 27.3426 255.585 29.7536 255.585 29.7536C255.585 29.7536 256.87 32.9301 260.636 32.9301C260.241 36.4151 262.084 40.4791 266.544 42.6103C266.644 42.6579 266.737 42.71 266.84 42.7557C264.236 41.4102 262.087 38.8673 261.818 35.7794Z"
                fill="url(#paint15_radial_2821_5712)"></path>
            <path
                d="M291.116 25.9248C290.19 23.696 288.313 21.2899 286.839 20.5295C288.039 22.8807 288.733 25.2393 288.998 26.9995C288.998 27.0029 288.999 27.0115 289.002 27.035C286.592 21.0265 282.504 18.6037 279.166 13.3284C278.998 13.0616 278.829 12.7942 278.664 12.5122C278.58 12.3683 278.502 12.2212 278.429 12.0712C278.291 11.8034 278.184 11.5205 278.111 11.2279C278.112 11.1992 278.091 11.1745 278.062 11.1708C278.049 11.167 278.041 11.1655 278.028 11.1693C278.025 11.1704 278.015 11.1753 278.011 11.1765C278.007 11.1784 277.99 11.1881 277.988 11.1893C272.481 14.4858 270.833 20.1117 270.666 23.0145C270.914 22.9973 271.162 22.9764 271.414 22.9764C275.411 22.9764 278.892 25.1737 280.755 28.4306C279.617 27.6309 277.579 26.8412 275.615 27.1827C283.283 31.0161 281.225 44.217 270.599 43.7186C269.653 43.68 268.718 43.4997 267.825 43.1837C267.614 43.1043 267.405 43.0189 267.199 42.9277C267.079 42.8729 266.958 42.8174 266.84 42.7561C266.844 42.759 266.85 42.7623 266.854 42.7649C266.75 42.7148 266.646 42.6633 266.544 42.6103C266.643 42.6579 266.737 42.71 266.839 42.7557C264.236 41.4102 262.086 38.8674 261.818 35.7795C261.818 35.7795 262.802 32.1127 268.864 32.1127C269.519 32.1127 271.393 30.2839 271.427 29.7536C271.42 29.5805 267.709 28.1045 266.263 26.6794C265.49 25.9179 265.123 25.5508 264.798 25.2753C264.621 25.1263 264.437 24.9871 264.245 24.8583C263.76 23.1583 263.739 21.359 264.186 19.6483C261.996 20.6455 260.292 22.2217 259.054 23.6135H259.044C258.199 22.5431 258.258 19.012 258.307 18.2747C258.297 18.229 257.676 18.5967 257.595 18.6521C256.849 19.1844 256.152 19.7816 255.512 20.4369C254.783 21.1761 254.117 21.9747 253.521 22.8245C253.521 22.8256 253.521 22.8269 253.52 22.8279C253.52 22.8268 253.521 22.8256 253.521 22.8245C252.151 24.7672 251.178 26.9623 250.661 29.283C250.651 29.3292 250.642 29.3771 250.632 29.4236C250.592 29.6113 250.412 30.5638 250.386 30.7681C250.384 30.7838 250.388 30.7525 250.386 30.7681C250.222 31.7523 250.117 32.7456 250.072 33.7425C250.072 33.7789 250.07 33.8149 250.07 33.8514C250.07 45.6237 259.615 55.1671 271.389 55.1671C281.933 55.1671 290.688 47.5126 292.402 37.4583C292.438 37.1854 292.467 36.9111 292.499 36.6359C292.923 32.9803 292.452 29.1379 291.116 25.9248ZM289.001 27.0195C289.002 27.0271 289.004 27.035 289.005 27.0424L289.004 27.0401L289.001 27.0195Z"
                fill="url(#paint16_linear_2821_5712)"></path>
        </g>
    </g>
    <g filter="url(#filter4_b_2821_5712)">
        <rect x="317.337" y="0.216797" width="65.9006" height="65.9006" rx="14.6004" fill="white"
            fill-opacity="0.06"></rect>
        <rect x="317.809" y="0.689059" width="64.9561" height="64.9561" rx="14.1281" stroke="white"
            stroke-opacity="0.06" stroke-width="0.944524"></rect>
        <g clip-path="url(#clip3_2821_5712)">
            <path
                d="M355.351 54.6018C361.077 53.2775 365.946 49.718 368.992 44.8921C369.363 44.3032 368.708 43.599 368.094 43.9282C365.753 45.1842 362.974 45.9119 359.994 45.9119C351.732 45.9119 345.019 40.3236 344.881 33.3858C344.834 31.0414 346.233 28.9688 348.263 28.1024L348.262 28.1014C347.062 28.5216 345.712 28.6953 344.668 29.4189C340.709 32.1634 338.305 37.2417 338.688 41.807C339.06 46.2371 341.769 51.4284 346.455 53.7477C348.905 54.9605 352.066 54.7631 355.351 54.6018Z"
                fill="url(#paint17_linear_2821_5712)"></path>
            <path
                d="M355.153 39.8201C356.637 40.3616 358.274 40.6618 359.994 40.6618C366.735 40.6618 372.199 36.0545 372.199 30.3712C372.199 19.1041 361.69 11.269 350.579 11.1682C338.465 11.0581 328.486 20.8479 328.376 32.9622C328.376 32.9622 331.407 23.6019 342.233 23.6019C349.559 23.6019 354.681 27.9504 355.523 31.2376C355.748 31.838 355.871 32.488 355.871 33.1671C355.871 34.5911 355.33 35.8886 354.442 36.8649C353.561 37.8322 353.924 39.3717 355.153 39.8201Z"
                fill="url(#paint18_linear_2821_5712)"></path>
            <path
                d="M355.522 31.2375C354.681 27.9503 351.879 21.6157 342.779 21.6157C328.784 21.6157 328.376 32.9621 328.376 32.9621C328.264 45.2064 338.156 55.1671 350.375 55.1671C352.087 55.1671 353.752 54.9715 355.352 54.6017C337.604 55.4732 335.782 32.4701 348.262 28.1013L348.264 28.1023C348.895 27.833 349.586 27.6789 350.315 27.6711C352.697 27.6457 354.734 29.1364 355.522 31.2375Z"
                fill="url(#paint19_linear_2821_5712)"></path>
        </g>
    </g>
    <g filter="url(#filter5_b_2821_5712)">
        <rect x="79.7407" y="80.765" width="65.9006" height="65.9006" rx="14.6004" fill="white"
            fill-opacity="0.06"></rect>
        <rect x="80.213" y="81.2373" width="64.9561" height="64.9561" rx="14.1281" stroke="white"
            stroke-opacity="0.06" stroke-width="0.944524"></rect>
        <g clip-path="url(#clip4_2821_5712)">
            <g opacity="0.08">
                <path
                    d="M112.691 135.715C124.244 135.715 133.609 126.35 133.609 114.797C133.609 103.245 124.244 93.8793 112.691 93.8793C101.138 93.8793 91.7729 103.245 91.7729 114.797C91.7729 126.35 101.138 135.715 112.691 135.715Z"
                    fill="black"></path>
            </g>
            <path
                d="M112.691 134.993C124.642 134.993 134.33 125.305 134.33 113.354C134.33 101.403 124.642 91.7153 112.691 91.7153C100.74 91.7153 91.0518 101.403 91.0518 113.354C91.0518 125.305 100.74 134.993 112.691 134.993Z"
                fill="url(#paint20_linear_2821_5712)"></path>
            <g opacity="0.08">
                <path
                    d="M112.691 91.7153C100.74 91.7153 91.0518 101.403 91.0518 113.355C91.0518 125.306 100.74 134.994 112.691 134.994C124.642 134.994 134.33 125.306 134.33 113.355C134.33 101.403 124.642 91.7153 112.691 91.7153ZM112.691 133.551C101.555 133.551 92.4944 124.491 92.4944 113.355C92.4944 102.218 101.555 93.158 112.691 93.158C123.827 93.158 132.888 102.218 132.888 113.355C132.888 124.491 123.827 133.551 112.691 133.551Z"
                    fill="url(#paint21_linear_2821_5712)"></path>
            </g>
            <g opacity="0.16">
                <path
                    d="M112.691 91.7153C100.74 91.7153 91.0518 101.403 91.0518 113.355C91.0518 125.306 100.74 134.994 112.691 134.994C124.642 134.994 134.33 125.306 134.33 113.355C134.33 101.403 124.642 91.7153 112.691 91.7153ZM112.691 134.273C101.139 134.273 91.773 124.907 91.773 113.355C91.773 101.802 101.139 92.4366 112.691 92.4366C124.244 92.4366 133.609 101.802 133.609 113.355C133.609 124.907 124.244 134.273 112.691 134.273Z"
                    fill="black"></path>
            </g>
            <path
                d="M112.691 132.83C123.447 132.83 132.166 124.11 132.166 113.354C132.166 102.599 123.447 93.8793 112.691 93.8793C101.935 93.8793 93.2158 102.599 93.2158 113.354C93.2158 124.11 101.935 132.83 112.691 132.83Z"
                fill="url(#paint22_linear_2821_5712)"></path>
            <g opacity="0.16">
                <path
                    d="M112.691 93.8793C101.935 93.8793 93.2153 102.598 93.2153 113.355C93.2153 124.111 101.935 132.83 112.691 132.83C123.447 132.83 132.166 124.111 132.166 113.355C132.166 102.598 123.447 93.8793 112.691 93.8793ZM112.691 132.109C102.333 132.109 93.9367 123.712 93.9367 113.355C93.9367 102.997 102.333 94.6006 112.691 94.6006C123.048 94.6006 131.445 102.997 131.445 113.355C131.445 123.712 123.048 132.109 112.691 132.109Z"
                    fill="url(#paint23_linear_2821_5712)"></path>
            </g>
            <g opacity="0.36">
                <path
                    d="M112.691 98.8685C112.525 98.8685 112.39 98.7339 112.39 98.5678V95.6825C112.39 95.5164 112.525 95.3817 112.691 95.3817C112.857 95.3817 112.992 95.5164 112.992 95.6825V98.5678C112.992 98.7339 112.857 98.8685 112.691 98.8685Z"
                    fill="white"></path>
                <path
                    d="M110.572 97.5645C110.424 97.5645 110.294 97.4543 110.274 97.303L110.086 95.8733C110.064 95.7086 110.18 95.5575 110.345 95.5359C110.509 95.5145 110.661 95.6301 110.683 95.7948L110.871 97.2244C110.892 97.3892 110.777 97.5403 110.612 97.5619C110.599 97.5636 110.585 97.5645 110.572 97.5645Z"
                    fill="white"></path>
                <path
                    d="M106.481 98.6616C106.363 98.6616 106.251 98.5918 106.203 98.4759L105.65 97.143C105.587 96.9895 105.66 96.8136 105.813 96.7499C105.967 96.6864 106.143 96.7592 106.206 96.9126L106.759 98.2455C106.822 98.399 106.749 98.5749 106.596 98.6386C106.558 98.6543 106.519 98.6616 106.481 98.6616Z"
                    fill="white"></path>
                <path
                    d="M102.811 100.78C102.721 100.78 102.632 100.74 102.573 100.662L101.694 99.5177C101.593 99.3859 101.618 99.1971 101.75 99.096C101.881 98.9949 102.07 99.0197 102.171 99.1515L103.05 100.296C103.151 100.428 103.126 100.617 102.994 100.718C102.94 100.76 102.875 100.78 102.811 100.78Z"
                    fill="white"></path>
                <path
                    d="M99.8155 103.776C99.7515 103.776 99.6872 103.755 99.6326 103.713L98.4878 102.835C98.356 102.734 98.3312 102.545 98.4323 102.413C98.5335 102.281 98.7224 102.257 98.854 102.358L99.9988 103.236C100.131 103.337 100.155 103.526 100.054 103.658C99.9951 103.735 99.9058 103.776 99.8155 103.776Z"
                    fill="white"></path>
                <path
                    d="M97.6972 107.445C97.6589 107.445 97.6199 107.438 97.5821 107.422L96.2492 106.87C96.0957 106.806 96.0229 106.63 96.0865 106.476C96.1501 106.323 96.326 106.25 96.4796 106.314L97.8125 106.866C97.966 106.93 98.0388 107.106 97.9752 107.259C97.9272 107.375 97.8152 107.445 97.6972 107.445Z"
                    fill="white"></path>
                <path
                    d="M96.6005 111.537C96.5874 111.537 96.5742 111.536 96.5608 111.534L95.1312 111.346C94.9664 111.324 94.8505 111.173 94.8722 111.009C94.8939 110.844 95.045 110.729 95.2097 110.75L96.6394 110.938C96.8041 110.96 96.9201 111.111 96.8983 111.275C96.8784 111.427 96.749 111.537 96.6005 111.537Z"
                    fill="white"></path>
                <path
                    d="M108.864 99.3728C108.731 99.3728 108.609 99.2842 108.573 99.1498L107.827 96.3627C107.784 96.2023 107.879 96.0373 108.039 95.9943C108.2 95.9514 108.365 96.0465 108.408 96.207L109.154 98.9941C109.197 99.1546 109.102 99.3196 108.942 99.3625C108.916 99.3695 108.889 99.3728 108.864 99.3728Z"
                    fill="white"></path>
                <path
                    d="M105.298 100.849C105.194 100.849 105.093 100.795 105.037 100.699L103.595 98.2003C103.512 98.0565 103.561 97.8726 103.705 97.7895C103.848 97.7065 104.032 97.7556 104.115 97.8995L105.558 100.398C105.641 100.542 105.592 100.726 105.448 100.809C105.401 100.836 105.349 100.849 105.298 100.849Z"
                    fill="white"></path>
                <path
                    d="M102.235 103.199C102.158 103.199 102.081 103.17 102.023 103.111L99.9826 101.071C99.8652 100.954 99.8652 100.764 99.9826 100.646C100.1 100.529 100.291 100.529 100.408 100.646L102.448 102.686C102.565 102.803 102.565 102.994 102.448 103.111C102.389 103.17 102.312 103.199 102.235 103.199Z"
                    fill="white"></path>
                <path
                    d="M99.8847 106.262C99.8336 106.262 99.782 106.249 99.7345 106.222L97.2359 104.779C97.092 104.696 97.0427 104.512 97.1258 104.368C97.2089 104.224 97.3929 104.175 97.5367 104.258L100.035 105.701C100.179 105.784 100.229 105.968 100.145 106.112C100.09 106.208 99.9887 106.262 99.8847 106.262Z"
                    fill="white"></path>
                <path
                    d="M98.4085 109.828C98.3828 109.828 98.3566 109.825 98.3304 109.818L95.5433 109.071C95.3829 109.029 95.2877 108.864 95.3306 108.703C95.3736 108.543 95.5383 108.447 95.699 108.49L98.4862 109.237C98.6466 109.28 98.7418 109.445 98.6989 109.605C98.6629 109.74 98.5413 109.828 98.4085 109.828Z"
                    fill="white"></path>
                <path
                    d="M97.9043 113.655H95.019C94.8529 113.655 94.7183 113.521 94.7183 113.355C94.7183 113.188 94.8529 113.054 95.019 113.054H97.9043C98.0704 113.054 98.2051 113.188 98.2051 113.355C98.2051 113.521 98.0704 113.655 97.9043 113.655Z"
                    fill="white"></path>
                <path
                    d="M95.1701 115.962C95.0214 115.962 94.8922 115.852 94.8722 115.701C94.8506 115.536 94.9665 115.385 95.1312 115.363L96.5608 115.175C96.7259 115.154 96.8766 115.269 96.8983 115.434C96.9199 115.599 96.804 115.75 96.6394 115.771L95.2097 115.96C95.1964 115.961 95.1832 115.962 95.1701 115.962Z"
                    fill="white"></path>
                <path
                    d="M96.3645 120.419C96.2464 120.419 96.1345 120.349 96.0865 120.233C96.0229 120.079 96.0957 119.903 96.2492 119.84L97.5821 119.287C97.7358 119.224 97.9116 119.297 97.9752 119.45C98.0388 119.603 97.966 119.779 97.8125 119.843L96.4796 120.396C96.4419 120.411 96.4028 120.419 96.3645 120.419Z"
                    fill="white"></path>
                <path
                    d="M98.6711 124.414C98.5808 124.414 98.4915 124.373 98.4323 124.296C98.3312 124.164 98.356 123.976 98.4878 123.874L99.6326 122.996C99.7644 122.895 99.9532 122.919 100.054 123.051C100.155 123.183 100.131 123.372 99.9988 123.473L98.854 124.352C98.7994 124.394 98.7351 124.414 98.6711 124.414Z"
                    fill="white"></path>
                <path
                    d="M101.932 127.675C101.868 127.675 101.804 127.655 101.75 127.613C101.618 127.512 101.593 127.323 101.694 127.192L102.573 126.047C102.674 125.915 102.863 125.89 102.994 125.991C103.126 126.093 103.151 126.281 103.05 126.413L102.171 127.558C102.112 127.635 102.023 127.675 101.932 127.675Z"
                    fill="white"></path>
                <path
                    d="M105.928 129.982C105.89 129.982 105.851 129.975 105.813 129.959C105.66 129.896 105.587 129.72 105.65 129.566L106.203 128.233C106.267 128.08 106.442 128.007 106.596 128.071C106.749 128.134 106.822 128.31 106.759 128.464L106.206 129.797C106.158 129.913 106.046 129.982 105.928 129.982Z"
                    fill="white"></path>
                <path
                    d="M110.385 131.176C110.372 131.176 110.358 131.175 110.345 131.174C110.18 131.152 110.064 131.001 110.086 130.836L110.274 129.406C110.296 129.242 110.447 129.126 110.612 129.147C110.777 129.169 110.893 129.32 110.871 129.485L110.683 130.915C110.663 131.066 110.533 131.176 110.385 131.176Z"
                    fill="white"></path>
                <path
                    d="M95.621 118.229C95.4881 118.229 95.3666 118.141 95.3306 118.006C95.2877 117.846 95.3829 117.681 95.5433 117.638L98.3304 116.891C98.4912 116.849 98.6559 116.944 98.6989 117.104C98.7418 117.265 98.6466 117.429 98.4862 117.472L95.699 118.219C95.673 118.226 95.6468 118.229 95.621 118.229Z"
                    fill="white"></path>
                <path
                    d="M97.3866 122.492C97.2826 122.492 97.1816 122.438 97.1258 122.341C97.0428 122.197 97.092 122.013 97.2359 121.93L99.7345 120.488C99.8784 120.404 100.062 120.454 100.145 120.598C100.228 120.742 100.179 120.926 100.035 121.009L97.5366 122.451C97.4893 122.479 97.4376 122.492 97.3866 122.492Z"
                    fill="white"></path>
                <path
                    d="M103.855 128.96C103.804 128.96 103.752 128.947 103.705 128.92C103.561 128.837 103.511 128.653 103.595 128.509L105.037 126.01C105.12 125.866 105.304 125.817 105.448 125.9C105.592 125.983 105.641 126.167 105.558 126.311L104.116 128.81C104.06 128.906 103.959 128.96 103.855 128.96Z"
                    fill="white"></path>
                <path
                    d="M108.117 130.725C108.092 130.725 108.066 130.722 108.039 130.715C107.879 130.672 107.784 130.507 107.827 130.347L108.573 127.56C108.616 127.399 108.781 127.304 108.942 127.347C109.102 127.39 109.197 127.555 109.154 127.715L108.408 130.502C108.372 130.637 108.25 130.725 108.117 130.725Z"
                    fill="white"></path>
                <path
                    d="M112.691 131.328C112.525 131.328 112.39 131.193 112.39 131.027V128.142C112.39 127.975 112.525 127.841 112.691 127.841C112.857 127.841 112.992 127.975 112.992 128.142V131.027C112.992 131.193 112.857 131.328 112.691 131.328Z"
                    fill="white"></path>
                <path
                    d="M114.997 131.176C114.849 131.176 114.72 131.066 114.7 130.915L114.511 129.485C114.49 129.32 114.606 129.169 114.77 129.147C114.935 129.126 115.086 129.242 115.108 129.406L115.296 130.836C115.318 131.001 115.202 131.152 115.037 131.173C115.024 131.175 115.01 131.176 114.997 131.176Z"
                    fill="white"></path>
                <path
                    d="M119.454 129.982C119.336 129.982 119.224 129.912 119.176 129.797L118.624 128.464C118.56 128.31 118.633 128.134 118.786 128.071C118.939 128.007 119.116 128.08 119.179 128.233L119.732 129.566C119.796 129.72 119.723 129.896 119.569 129.959C119.532 129.975 119.493 129.982 119.454 129.982Z"
                    fill="white"></path>
                <path
                    d="M123.45 127.675C123.359 127.675 123.27 127.635 123.211 127.558L122.332 126.413C122.231 126.281 122.256 126.093 122.388 125.991C122.519 125.89 122.708 125.915 122.809 126.047L123.688 127.192C123.789 127.323 123.764 127.512 123.633 127.613C123.578 127.655 123.514 127.675 123.45 127.675Z"
                    fill="white"></path>
                <path
                    d="M126.711 124.414C126.647 124.414 126.583 124.394 126.528 124.351L125.383 123.473C125.252 123.372 125.227 123.183 125.328 123.051C125.429 122.919 125.618 122.894 125.749 122.996L126.894 123.874C127.026 123.975 127.051 124.164 126.95 124.296C126.89 124.373 126.801 124.414 126.711 124.414Z"
                    fill="white"></path>
                <path
                    d="M129.018 120.418C128.979 120.418 128.94 120.411 128.903 120.395L127.57 119.843C127.416 119.779 127.343 119.603 127.407 119.45C127.47 119.296 127.646 119.224 127.8 119.287L129.133 119.84C129.286 119.903 129.359 120.079 129.296 120.233C129.248 120.349 129.136 120.418 129.018 120.418Z"
                    fill="white"></path>
                <path
                    d="M130.212 115.962C130.199 115.962 130.186 115.961 130.173 115.96L128.743 115.771C128.578 115.75 128.462 115.599 128.484 115.434C128.506 115.269 128.657 115.153 128.822 115.175L130.251 115.363C130.416 115.385 130.532 115.536 130.51 115.701C130.49 115.852 130.361 115.962 130.212 115.962Z"
                    fill="white"></path>
                <path
                    d="M117.265 130.725C117.132 130.725 117.01 130.637 116.974 130.502L116.228 127.715C116.185 127.555 116.28 127.39 116.44 127.347C116.6 127.304 116.766 127.399 116.809 127.559L117.555 130.347C117.598 130.507 117.503 130.672 117.343 130.715C117.317 130.722 117.29 130.725 117.265 130.725Z"
                    fill="white"></path>
                <path
                    d="M121.527 128.96C121.423 128.96 121.322 128.906 121.267 128.81L119.824 126.311C119.741 126.167 119.79 125.983 119.934 125.9C120.078 125.817 120.262 125.866 120.345 126.01L121.788 128.509C121.871 128.653 121.821 128.837 121.677 128.92C121.63 128.947 121.578 128.96 121.527 128.96Z"
                    fill="white"></path>
                <path
                    d="M125.187 126.151C125.11 126.151 125.033 126.122 124.974 126.063L122.934 124.023C122.817 123.906 122.817 123.716 122.934 123.598C123.052 123.481 123.242 123.481 123.36 123.598L125.399 125.638C125.517 125.755 125.517 125.946 125.399 126.063C125.341 126.122 125.264 126.151 125.187 126.151Z"
                    fill="white"></path>
                <path
                    d="M127.995 122.492C127.944 122.492 127.893 122.479 127.845 122.451L125.347 121.009C125.203 120.925 125.154 120.742 125.237 120.598C125.32 120.454 125.504 120.405 125.648 120.488L128.146 121.93C128.29 122.013 128.339 122.197 128.256 122.341C128.2 122.438 128.099 122.492 127.995 122.492Z"
                    fill="white"></path>
                <path
                    d="M129.761 118.229C129.735 118.229 129.709 118.226 129.683 118.219L126.896 117.472C126.735 117.429 126.64 117.264 126.683 117.104C126.726 116.944 126.891 116.848 127.051 116.891L129.839 117.638C129.999 117.681 130.094 117.846 130.051 118.006C130.015 118.141 129.894 118.229 129.761 118.229Z"
                    fill="white"></path>
                <path
                    d="M130.363 113.655H127.478C127.312 113.655 127.177 113.521 127.177 113.355C127.177 113.188 127.312 113.054 127.478 113.054H130.363C130.529 113.054 130.664 113.188 130.664 113.355C130.664 113.521 130.529 113.655 130.363 113.655Z"
                    fill="white"></path>
                <path
                    d="M130.363 113.655H127.478C127.312 113.655 127.177 113.521 127.177 113.355C127.177 113.188 127.312 113.054 127.478 113.054H130.363C130.529 113.054 130.664 113.188 130.664 113.355C130.664 113.521 130.529 113.655 130.363 113.655Z"
                    fill="white"></path>
                <path
                    d="M128.781 111.537C128.633 111.537 128.504 111.427 128.484 111.276C128.462 111.111 128.578 110.96 128.743 110.938L130.172 110.75C130.337 110.729 130.488 110.844 130.51 111.009C130.531 111.173 130.415 111.325 130.251 111.346L128.821 111.535C128.808 111.536 128.794 111.537 128.781 111.537Z"
                    fill="white"></path>
                <path
                    d="M127.685 107.445C127.567 107.445 127.455 107.375 127.407 107.259C127.343 107.106 127.416 106.93 127.57 106.866L128.903 106.314C129.056 106.25 129.232 106.323 129.296 106.477C129.359 106.63 129.286 106.806 129.133 106.87L127.8 107.422C127.762 107.438 127.723 107.445 127.685 107.445Z"
                    fill="white"></path>
                <path
                    d="M125.566 103.776C125.476 103.776 125.387 103.735 125.327 103.658C125.226 103.526 125.251 103.338 125.383 103.236L126.528 102.358C126.659 102.257 126.848 102.282 126.949 102.413C127.05 102.545 127.026 102.734 126.894 102.835L125.749 103.714C125.694 103.756 125.63 103.776 125.566 103.776Z"
                    fill="white"></path>
                <path
                    d="M122.57 100.78C122.506 100.78 122.442 100.76 122.387 100.718C122.255 100.617 122.231 100.428 122.332 100.296L123.21 99.1516C123.311 99.0197 123.5 98.9948 123.632 99.096C123.764 99.1972 123.789 99.386 123.687 99.5177L122.809 100.662C122.75 100.74 122.66 100.78 122.57 100.78Z"
                    fill="white"></path>
                <path
                    d="M118.901 98.6618C118.863 98.6618 118.823 98.6544 118.786 98.6388C118.632 98.5752 118.559 98.3992 118.623 98.2457L119.176 96.9127C119.239 96.7592 119.416 96.6865 119.569 96.75C119.722 96.8136 119.795 96.9896 119.731 97.1431L119.179 98.4761C119.131 98.5918 119.019 98.6618 118.901 98.6618Z"
                    fill="white"></path>
                <path
                    d="M114.81 97.5646C114.796 97.5646 114.783 97.5637 114.77 97.562C114.605 97.5404 114.489 97.3892 114.511 97.2245L114.699 95.7949C114.721 95.6302 114.872 95.5147 115.037 95.536C115.201 95.5576 115.317 95.7088 115.296 95.8734L115.107 97.3031C115.087 97.4544 114.958 97.5646 114.81 97.5646Z"
                    fill="white"></path>
                <path
                    d="M126.973 109.828C126.84 109.828 126.719 109.74 126.683 109.605C126.64 109.445 126.735 109.28 126.895 109.237L129.683 108.49C129.843 108.447 130.008 108.543 130.051 108.703C130.094 108.864 129.999 109.029 129.838 109.072L127.051 109.818C127.025 109.825 126.999 109.828 126.973 109.828Z"
                    fill="white"></path>
                <path
                    d="M125.497 106.262C125.393 106.262 125.292 106.208 125.237 106.112C125.154 105.968 125.203 105.784 125.347 105.701L127.845 104.258C127.989 104.175 128.173 104.224 128.256 104.368C128.339 104.512 128.29 104.696 128.146 104.779L125.648 106.222C125.6 106.249 125.548 106.262 125.497 106.262Z"
                    fill="white"></path>
                <path
                    d="M120.084 100.849C120.033 100.849 119.981 100.836 119.934 100.809C119.79 100.726 119.74 100.542 119.824 100.398L121.266 97.8996C121.349 97.7558 121.533 97.7066 121.677 97.7896C121.821 97.8727 121.87 98.0566 121.787 98.2004L120.345 100.699C120.289 100.795 120.188 100.849 120.084 100.849Z"
                    fill="white"></path>
                <path
                    d="M116.518 99.373C116.493 99.373 116.466 99.3696 116.44 99.3626C116.28 99.3197 116.185 99.1548 116.228 98.9942L116.974 96.2071C117.017 96.0467 117.182 95.9515 117.343 95.9944C117.503 96.0374 117.598 96.2023 117.555 96.3628L116.809 99.1499C116.773 99.2844 116.651 99.373 116.518 99.373Z"
                    fill="white"></path>
                <path
                    d="M112.691 98.8685C112.525 98.8685 112.39 98.7339 112.39 98.5678V95.6825C112.39 95.5164 112.525 95.3817 112.691 95.3817C112.857 95.3817 112.992 95.5164 112.992 95.6825V98.5678C112.992 98.7339 112.857 98.8685 112.691 98.8685Z"
                    fill="white"></path>
            </g>
            <path d="M125.38 100.665L110.14 110.804L112.691 113.355L125.38 100.665Z" fill="#F4413D"></path>
            <path d="M125.38 100.665L112.691 113.355L115.241 115.905L125.38 100.665Z" fill="#CC2B2B"></path>
            <path d="M110.14 110.804L100.001 126.044L112.691 113.355L110.14 110.804Z" fill="white"></path>
            <path d="M100.001 126.044L115.241 115.905L112.691 113.355L100.001 126.044Z"
                fill="#D8D8D8"></path>
        </g>
    </g>
    <g filter="url(#filter6_b_2821_5712)">
        <rect x="158.668" y="80.765" width="65.9006" height="65.9006" rx="14.6004" fill="white"
            fill-opacity="0.06"></rect>
        <rect x="159.141" y="81.2373" width="64.9561" height="64.9561" rx="14.1281" stroke="white"
            stroke-opacity="0.06" stroke-width="0.944524"></rect>
        <g clip-path="url(#clip5_2821_5712)">
            <path
                d="M207.239 98.0385C203.059 93.9978 197.559 91.7153 191.701 91.7153C174.889 91.7153 164.333 109.929 172.728 124.418L169.619 135.715L181.233 132.687C186.293 135.42 190.438 135.178 191.712 135.34C211.206 135.34 220.91 111.755 207.211 98.11L207.239 98.0385Z"
                fill="#ECEFF1"></path>
            <path
                d="M191.741 131.592L191.73 131.59H191.701C185.867 131.59 182.14 128.828 181.773 128.668L174.898 130.456L176.741 123.773L176.303 123.086C174.488 120.196 173.523 116.869 173.523 113.442C173.523 97.3217 193.223 89.2605 204.622 100.655C215.994 111.93 208.01 131.592 191.741 131.592Z"
                fill="#4CAF50"></path>
            <path
                d="M201.715 117.945L201.698 118.082C201.146 117.807 198.459 116.493 197.958 116.311C196.834 115.895 197.151 116.245 194.994 118.717C194.673 119.074 194.354 119.102 193.809 118.854C193.259 118.579 191.494 118.002 189.404 116.132C187.776 114.674 186.683 112.887 186.36 112.337C185.823 111.409 186.947 111.277 187.97 109.341C188.153 108.956 188.06 108.653 187.924 108.38C187.787 108.105 186.692 105.41 186.234 104.336C185.794 103.265 185.341 103.401 185.002 103.401C183.946 103.309 183.174 103.324 182.494 104.032C179.535 107.284 180.281 110.639 182.813 114.207C187.789 120.719 190.44 121.918 195.287 123.582C196.596 123.998 197.789 123.94 198.734 123.804C199.786 123.637 201.973 122.482 202.43 121.19C202.897 119.897 202.897 118.825 202.76 118.577C202.624 118.33 202.265 118.192 201.715 117.945Z"
                fill="#FAFAFA"></path>
        </g>
    </g>
    <g filter="url(#filter7_b_2821_5712)">
        <rect x="237.596" y="80.765" width="65.9006" height="65.9006" rx="14.6004" fill="white"
            fill-opacity="0.06"></rect>
        <rect x="238.068" y="81.2373" width="64.9561" height="64.9561" rx="14.1281" stroke="white"
            stroke-opacity="0.06" stroke-width="0.944524"></rect>
        <g clip-path="url(#clip6_2821_5712)">
            <path
                d="M263.305 126.114C260.873 123.242 259.297 118.997 259.19 114.234C259.19 114.221 259.19 113.21 259.19 113.197C259.297 108.434 260.873 104.189 263.305 101.318C266.461 97.2192 271.197 95.6081 276.437 95.6081C279.66 95.6081 285.209 97.3156 285.209 97.3156C281.336 93.8507 276.23 91.7371 270.629 91.7164C270.602 91.7163 270.574 91.7153 270.546 91.7153C258.396 91.7153 248.546 101.565 248.546 113.715C248.546 125.514 257.835 135.143 269.499 135.69C269.846 135.706 270.195 135.715 270.546 135.715C276.179 135.715 281.316 133.598 285.208 130.117C285.208 130.117 279.87 131.332 276.647 131.332C271.408 131.332 266.461 130.212 263.305 126.114Z"
                fill="url(#paint24_linear_2821_5712)"></path>
            <path
                d="M263.305 101.318C265.323 98.9348 267.931 97.4975 270.78 97.4975C277.184 97.4975 282.376 104.759 282.376 113.716C282.376 122.673 277.184 129.934 270.78 129.934C267.931 129.934 265.323 128.496 263.305 126.114C266.461 130.212 271.153 132.811 276.392 132.811C279.614 132.811 282.629 131.827 285.208 130.116C289.711 126.088 292.546 120.233 292.546 113.715C292.546 107.198 289.712 101.344 285.209 97.3155C282.63 95.6045 279.615 94.6204 276.392 94.6204C271.153 94.6204 266.461 97.2193 263.305 101.318Z"
                fill="url(#paint25_linear_2821_5712)"></path>
        </g>
    </g>
    <rect x="150" y="72" width="82.9432" height="24.9432" rx="12.4716" fill="#119F7B"></rect>
    <path
        d="M158.451 89.6112C157.753 89.6112 157.157 89.4673 156.661 89.1796C156.166 88.8918 155.788 88.4771 155.525 87.9354C155.263 87.3938 155.132 86.7463 155.132 85.993V85.9803C155.132 85.2313 155.263 84.5902 155.525 84.057C155.788 83.5238 156.166 83.1154 156.661 82.8319C157.157 82.5441 157.751 82.4003 158.445 82.4003C159.042 82.4003 159.554 82.5039 159.981 82.7113C160.413 82.9144 160.754 83.198 161.003 83.5619C161.257 83.9216 161.414 84.3427 161.473 84.8251V84.8505H159.981L159.975 84.8314C159.903 84.4929 159.738 84.2157 159.48 83.9999C159.226 83.7841 158.883 83.6761 158.451 83.6761C158.092 83.6761 157.783 83.7671 157.525 83.9491C157.271 84.1311 157.076 84.3934 156.941 84.7362C156.805 85.079 156.738 85.4937 156.738 85.9803V85.993C156.738 86.4839 156.805 86.905 156.941 87.2562C157.08 87.6032 157.277 87.8698 157.531 88.056C157.785 88.238 158.092 88.329 158.451 88.329C158.862 88.329 159.192 88.2359 159.442 88.0497C159.696 87.8635 159.871 87.5884 159.969 87.2245L159.981 87.1991L161.467 87.1927L161.46 87.2499C161.384 87.7196 161.219 88.1322 160.965 88.4877C160.715 88.8431 160.381 89.1203 159.962 89.3192C159.543 89.5139 159.04 89.6112 158.451 89.6112ZM165.228 89.6112C164.538 89.6112 163.944 89.4673 163.444 89.1796C162.945 88.8876 162.56 88.4729 162.289 87.9354C162.023 87.398 161.889 86.7548 161.889 86.0057V85.993C161.889 85.2525 162.025 84.6135 162.296 84.076C162.566 83.5344 162.949 83.1197 163.444 82.8319C163.944 82.5441 164.538 82.4003 165.228 82.4003C165.918 82.4003 166.51 82.5441 167.005 82.8319C167.505 83.1197 167.89 83.5323 168.161 84.0697C168.432 84.6071 168.567 85.2483 168.567 85.993V86.0057C168.567 86.7548 168.432 87.398 168.161 87.9354C167.894 88.4729 167.511 88.8876 167.012 89.1796C166.517 89.4673 165.922 89.6112 165.228 89.6112ZM165.228 88.329C165.592 88.329 165.901 88.238 166.155 88.056C166.413 87.8698 166.61 87.6053 166.745 87.2626C166.881 86.9156 166.948 86.4987 166.948 86.0121V85.9994C166.948 85.5085 166.881 85.0917 166.745 84.7489C166.61 84.4019 166.413 84.1374 166.155 83.9554C165.901 83.7692 165.592 83.6761 165.228 83.6761C164.864 83.6761 164.553 83.7692 164.295 83.9554C164.037 84.1374 163.84 84.4019 163.705 84.7489C163.569 85.0917 163.502 85.5085 163.502 85.9994V86.0121C163.502 86.4987 163.569 86.9156 163.705 87.2626C163.84 87.6096 164.035 87.8741 164.289 88.056C164.547 88.238 164.86 88.329 165.228 88.329ZM169.409 89.4716V82.5336H170.989V83.6127H171.097C171.245 83.2276 171.484 82.9292 171.814 82.7177C172.149 82.5061 172.544 82.4003 173.001 82.4003C173.315 82.4003 173.596 82.451 173.846 82.5526C174.1 82.6542 174.318 82.7981 174.499 82.9843C174.681 83.1705 174.821 83.3926 174.918 83.6508H175.033C175.147 83.4011 175.306 83.1831 175.509 82.9969C175.716 82.8065 175.957 82.6605 176.232 82.559C176.512 82.4532 176.812 82.4003 177.134 82.4003C177.599 82.4003 177.997 82.4934 178.327 82.6796C178.661 82.8615 178.917 83.1239 179.095 83.4667C179.277 83.8094 179.368 84.2199 179.368 84.6981V89.4716H177.788V85.0853C177.788 84.7806 177.741 84.5288 177.648 84.33C177.559 84.1311 177.422 83.9808 177.235 83.8793C177.049 83.7777 176.814 83.7269 176.531 83.7269C176.256 83.7269 176.017 83.7904 175.813 83.9174C175.61 84.0401 175.452 84.2072 175.337 84.4188C175.227 84.6304 175.172 84.8695 175.172 85.1361V89.4716H173.592V84.9711C173.592 84.7129 173.541 84.4908 173.439 84.3046C173.342 84.1184 173.198 83.9766 173.008 83.8793C172.822 83.7777 172.599 83.7269 172.341 83.7269C172.083 83.7269 171.85 83.7946 171.643 83.9301C171.44 84.0612 171.279 84.2432 171.161 84.476C171.046 84.7045 170.989 84.9626 170.989 85.2504V89.4716H169.409ZM180.502 89.4716V82.5336H182.076V89.4716H180.502ZM181.295 81.3719C181.037 81.3719 180.815 81.281 180.629 81.099C180.443 80.917 180.349 80.6991 180.349 80.4452C180.349 80.1828 180.443 79.9628 180.629 79.785C180.815 79.6031 181.037 79.5121 181.295 79.5121C181.553 79.5121 181.773 79.6031 181.955 79.785C182.142 79.9628 182.235 80.1828 182.235 80.4452C182.235 80.6991 182.142 80.917 181.955 81.099C181.773 81.281 181.553 81.3719 181.295 81.3719ZM183.279 89.4716V82.5336H184.86V83.6H184.968C185.133 83.2233 185.383 82.9292 185.717 82.7177C186.051 82.5061 186.468 82.4003 186.967 82.4003C187.742 82.4003 188.334 82.6246 188.745 83.0731C189.155 83.5217 189.361 84.1586 189.361 84.9838V89.4716H187.78V85.3519C187.78 84.8103 187.666 84.404 187.437 84.1332C187.213 83.8623 186.862 83.7269 186.383 83.7269C186.07 83.7269 185.799 83.7968 185.571 83.9364C185.342 84.076 185.167 84.2728 185.044 84.5267C184.921 84.7806 184.86 85.0811 184.86 85.4281V89.4716H183.279ZM193.465 91.9091C192.855 91.9091 192.329 91.8287 191.884 91.6678C191.444 91.507 191.097 91.2785 190.843 90.9823C190.589 90.6903 190.435 90.3497 190.38 89.9603L190.386 89.9413H191.96L191.973 89.9603C192.024 90.1804 192.178 90.3602 192.437 90.4999C192.699 90.6438 193.05 90.7157 193.49 90.7157C194.032 90.7157 194.451 90.5951 194.747 90.3539C195.048 90.1127 195.198 89.7699 195.198 89.3256V87.9926H195.09C194.959 88.2422 194.787 88.4538 194.576 88.6273C194.368 88.8008 194.129 88.932 193.858 89.0209C193.592 89.1055 193.298 89.1478 192.976 89.1478C192.392 89.1478 191.886 89.0082 191.459 88.7289C191.032 88.4454 190.701 88.0539 190.469 87.5546C190.24 87.0552 190.126 86.4776 190.126 85.8217V85.809C190.126 85.1403 190.242 84.5521 190.475 84.0443C190.708 83.5365 191.038 83.1387 191.465 82.851C191.897 82.5632 192.411 82.4193 193.008 82.4193C193.329 82.4193 193.624 82.4701 193.89 82.5717C194.161 82.6732 194.398 82.8171 194.601 83.0033C194.808 83.1895 194.978 83.4138 195.109 83.6761H195.191V82.5336H196.772V89.3002C196.772 89.8334 196.637 90.2946 196.366 90.684C196.099 91.0775 195.718 91.3801 195.223 91.5917C194.728 91.8033 194.142 91.9091 193.465 91.9091ZM193.465 87.891C193.829 87.891 194.142 87.8042 194.404 87.6307C194.667 87.453 194.868 87.2097 195.007 86.9008C195.151 86.5918 195.223 86.2321 195.223 85.8217V85.809C195.223 85.3985 195.151 85.0388 195.007 84.7299C194.868 84.4167 194.667 84.1734 194.404 83.9999C194.142 83.8221 193.829 83.7333 193.465 83.7333C193.097 83.7333 192.784 83.8221 192.525 83.9999C192.271 84.1734 192.077 84.4167 191.941 84.7299C191.81 85.0388 191.745 85.3985 191.745 85.809V85.8217C191.745 86.2279 191.81 86.5876 191.941 86.9008C192.077 87.2097 192.271 87.453 192.525 87.6307C192.784 87.8042 193.097 87.891 193.465 87.891ZM203.305 89.6112C202.717 89.6112 202.209 89.5287 201.781 89.3636C201.358 89.1944 201.024 88.9616 200.779 88.6654C200.533 88.3649 200.387 88.0179 200.341 87.6244V87.6117H201.908L201.915 87.6244C201.999 87.8656 202.158 88.0624 202.391 88.2147C202.624 88.3671 202.937 88.4432 203.33 88.4432C203.593 88.4432 203.823 88.4073 204.022 88.3353C204.221 88.2592 204.378 88.1555 204.492 88.0243C204.606 87.8931 204.663 87.7408 204.663 87.5673V87.5546C204.663 87.3514 204.581 87.1822 204.416 87.0468C204.251 86.9071 203.978 86.795 203.597 86.7103L202.473 86.4564C202.033 86.3591 201.669 86.2237 201.382 86.0502C201.094 85.8767 200.878 85.663 200.734 85.4091C200.594 85.1552 200.525 84.8589 200.525 84.5204V84.514C200.525 84.0951 200.641 83.7269 200.874 83.4095C201.111 83.0922 201.439 82.8446 201.858 82.6669C202.277 82.4891 202.759 82.4003 203.305 82.4003C203.868 82.4003 204.352 82.4849 204.758 82.6542C205.165 82.8234 205.482 83.0562 205.711 83.3524C205.939 83.6486 206.07 83.9851 206.104 84.3617V84.3744H204.619L204.612 84.3553C204.553 84.1353 204.411 83.9491 204.187 83.7968C203.967 83.6402 203.671 83.5619 203.299 83.5619C203.066 83.5619 202.856 83.5979 202.67 83.6698C202.488 83.7417 202.344 83.8433 202.238 83.9745C202.137 84.1014 202.086 84.2517 202.086 84.4252V84.4315C202.086 84.5669 202.12 84.6854 202.188 84.787C202.26 84.8885 202.372 84.9774 202.524 85.0536C202.676 85.1298 202.877 85.1975 203.127 85.2567L204.251 85.5043C204.932 85.6566 205.436 85.883 205.761 86.1835C206.087 86.4839 206.25 86.8881 206.25 87.3959V87.4086C206.25 87.8487 206.123 88.2338 205.869 88.5638C205.615 88.8939 205.266 89.1521 204.822 89.3383C204.378 89.5202 203.872 89.6112 203.305 89.6112ZM210.094 89.6112C209.404 89.6112 208.81 89.4673 208.311 89.1796C207.811 88.8876 207.426 88.4729 207.155 87.9354C206.889 87.398 206.755 86.7548 206.755 86.0057V85.993C206.755 85.2525 206.891 84.6135 207.162 84.076C207.432 83.5344 207.815 83.1197 208.311 82.8319C208.81 82.5441 209.404 82.4003 210.094 82.4003C210.784 82.4003 211.376 82.5441 211.872 82.8319C212.371 83.1197 212.756 83.5323 213.027 84.0697C213.298 84.6071 213.433 85.2483 213.433 85.993V86.0057C213.433 86.7548 213.298 87.398 213.027 87.9354C212.76 88.4729 212.377 88.8876 211.878 89.1796C211.383 89.4673 210.788 89.6112 210.094 89.6112ZM210.094 88.329C210.458 88.329 210.767 88.238 211.021 88.056C211.279 87.8698 211.476 87.6053 211.611 87.2626C211.747 86.9156 211.814 86.4987 211.814 86.0121V85.9994C211.814 85.5085 211.747 85.0917 211.611 84.7489C211.476 84.4019 211.279 84.1374 211.021 83.9554C210.767 83.7692 210.458 83.6761 210.094 83.6761C209.73 83.6761 209.419 83.7692 209.161 83.9554C208.903 84.1374 208.706 84.4019 208.571 84.7489C208.435 85.0917 208.368 85.5085 208.368 85.9994V86.0121C208.368 86.4987 208.435 86.9156 208.571 87.2626C208.706 87.6096 208.901 87.8741 209.155 88.056C209.413 88.238 209.726 88.329 210.094 88.329ZM217.271 89.6112C216.581 89.6112 215.987 89.4673 215.487 89.1796C214.988 88.8876 214.603 88.4729 214.332 87.9354C214.065 87.398 213.932 86.7548 213.932 86.0057V85.993C213.932 85.2525 214.067 84.6135 214.338 84.076C214.609 83.5344 214.992 83.1197 215.487 82.8319C215.987 82.5441 216.581 82.4003 217.271 82.4003C217.961 82.4003 218.553 82.5441 219.048 82.8319C219.548 83.1197 219.933 83.5323 220.203 84.0697C220.474 84.6071 220.61 85.2483 220.61 85.993V86.0057C220.61 86.7548 220.474 87.398 220.203 87.9354C219.937 88.4729 219.554 88.8876 219.055 89.1796C218.559 89.4673 217.965 89.6112 217.271 89.6112ZM217.271 88.329C217.635 88.329 217.944 88.238 218.198 88.056C218.456 87.8698 218.653 87.6053 218.788 87.2626C218.923 86.9156 218.991 86.4987 218.991 86.0121V85.9994C218.991 85.5085 218.923 85.0917 218.788 84.7489C218.653 84.4019 218.456 84.1374 218.198 83.9554C217.944 83.7692 217.635 83.6761 217.271 83.6761C216.907 83.6761 216.596 83.7692 216.338 83.9554C216.08 84.1374 215.883 84.4019 215.747 84.7489C215.612 85.0917 215.544 85.5085 215.544 85.9994V86.0121C215.544 86.4987 215.612 86.9156 215.747 87.2626C215.883 87.6096 216.078 87.8741 216.331 88.056C216.59 88.238 216.903 88.329 217.271 88.329ZM221.451 89.4716V82.5336H223.032V83.6H223.14C223.305 83.2233 223.555 82.9292 223.889 82.7177C224.223 82.5061 224.64 82.4003 225.139 82.4003C225.914 82.4003 226.506 82.6246 226.917 83.0731C227.327 83.5217 227.532 84.1586 227.532 84.9838V89.4716H225.952V85.3519C225.952 84.8103 225.838 84.404 225.609 84.1332C225.385 83.8623 225.034 83.7269 224.555 83.7269C224.242 83.7269 223.971 83.7968 223.743 83.9364C223.514 84.076 223.339 84.2728 223.216 84.5267C223.093 84.7806 223.032 85.0811 223.032 85.4281V89.4716H221.451Z"
        fill="white"></path>
    <defs>
        <filter id="filter0_b_2821_5712" x="-13.2233" y="-13.0065" width="93.9735" height="93.9678"
            filterUnits="userSpaceOnUse" color-interpolation-filters="sRGB">
            <feFlood flood-opacity="0" result="BackgroundImageFix"></feFlood>
            <feGaussianBlur in="BackgroundImageFix" stdDeviation="6.61167"></feGaussianBlur>
            <feComposite in2="SourceAlpha" operator="in" result="effect1_backgroundBlur_2821_5712"></feComposite>
            <feBlend mode="normal" in="SourceGraphic" in2="effect1_backgroundBlur_2821_5712"
                result="shape"></feBlend>
        </filter>
        <filter id="filter1_b_2821_5712" x="67.3304" y="-13.0065" width="92.3471" height="92.3473"
            filterUnits="userSpaceOnUse" color-interpolation-filters="sRGB">
            <feFlood flood-opacity="0" result="BackgroundImageFix"></feFlood>
            <feGaussianBlur in="BackgroundImageFix" stdDeviation="6.61167"></feGaussianBlur>
            <feComposite in2="SourceAlpha" operator="in" result="effect1_backgroundBlur_2821_5712"></feComposite>
            <feBlend mode="normal" in="SourceGraphic" in2="effect1_backgroundBlur_2821_5712"
                result="shape"></feBlend>
        </filter>
        <filter id="filter2_b_2821_5712" x="146.258" y="-13.0065" width="92.3471" height="92.3473"
            filterUnits="userSpaceOnUse" color-interpolation-filters="sRGB">
            <feFlood flood-opacity="0" result="BackgroundImageFix"></feFlood>
            <feGaussianBlur in="BackgroundImageFix" stdDeviation="6.61167"></feGaussianBlur>
            <feComposite in2="SourceAlpha" operator="in" result="effect1_backgroundBlur_2821_5712"></feComposite>
            <feBlend mode="normal" in="SourceGraphic" in2="effect1_backgroundBlur_2821_5712"
                result="shape"></feBlend>
        </filter>
        <filter id="filter3_b_2821_5712" x="225.186" y="-13.0065" width="92.3471" height="92.3473"
            filterUnits="userSpaceOnUse" color-interpolation-filters="sRGB">
            <feFlood flood-opacity="0" result="BackgroundImageFix"></feFlood>
            <feGaussianBlur in="BackgroundImageFix" stdDeviation="6.61167"></feGaussianBlur>
            <feComposite in2="SourceAlpha" operator="in" result="effect1_backgroundBlur_2821_5712"></feComposite>
            <feBlend mode="normal" in="SourceGraphic" in2="effect1_backgroundBlur_2821_5712"
                result="shape"></feBlend>
        </filter>
        <filter id="filter4_b_2821_5712" x="304.114" y="-13.0065" width="92.3473" height="92.3473"
            filterUnits="userSpaceOnUse" color-interpolation-filters="sRGB">
            <feFlood flood-opacity="0" result="BackgroundImageFix"></feFlood>
            <feGaussianBlur in="BackgroundImageFix" stdDeviation="6.61167"></feGaussianBlur>
            <feComposite in2="SourceAlpha" operator="in" result="effect1_backgroundBlur_2821_5712"></feComposite>
            <feBlend mode="normal" in="SourceGraphic" in2="effect1_backgroundBlur_2821_5712"
                result="shape"></feBlend>
        </filter>
        <filter id="filter5_b_2821_5712" x="66.5174" y="67.5417" width="92.3471" height="92.3473"
            filterUnits="userSpaceOnUse" color-interpolation-filters="sRGB">
            <feFlood flood-opacity="0" result="BackgroundImageFix"></feFlood>
            <feGaussianBlur in="BackgroundImageFix" stdDeviation="6.61167"></feGaussianBlur>
            <feComposite in2="SourceAlpha" operator="in" result="effect1_backgroundBlur_2821_5712"></feComposite>
            <feBlend mode="normal" in="SourceGraphic" in2="effect1_backgroundBlur_2821_5712"
                result="shape"></feBlend>
        </filter>
        <filter id="filter6_b_2821_5712" x="145.445" y="67.5417" width="92.3471" height="92.3473"
            filterUnits="userSpaceOnUse" color-interpolation-filters="sRGB">
            <feFlood flood-opacity="0" result="BackgroundImageFix"></feFlood>
            <feGaussianBlur in="BackgroundImageFix" stdDeviation="6.61167"></feGaussianBlur>
            <feComposite in2="SourceAlpha" operator="in" result="effect1_backgroundBlur_2821_5712"></feComposite>
            <feBlend mode="normal" in="SourceGraphic" in2="effect1_backgroundBlur_2821_5712"
                result="shape"></feBlend>
        </filter>
        <filter id="filter7_b_2821_5712" x="224.373" y="67.5417" width="92.3471" height="92.3473"
            filterUnits="userSpaceOnUse" color-interpolation-filters="sRGB">
            <feFlood flood-opacity="0" result="BackgroundImageFix"></feFlood>
            <feGaussianBlur in="BackgroundImageFix" stdDeviation="6.61167"></feGaussianBlur>
            <feComposite in2="SourceAlpha" operator="in" result="effect1_backgroundBlur_2821_5712"></feComposite>
            <feBlend mode="normal" in="SourceGraphic" in2="effect1_backgroundBlur_2821_5712"
                result="shape"></feBlend>
        </filter>
        <linearGradient id="paint0_linear_2821_5712" x1="33.7633" y1="11.1669" x2="33.7633"
            y2="56.7874" gradientUnits="userSpaceOnUse">
            <stop stop-color="#00BFFC"></stop>
            <stop offset="1" stop-color="#0073F6"></stop>
        </linearGradient>
        <linearGradient id="paint1_linear_2821_5712" x1="113.986" y1="13.8515" x2="85.2771"
            y2="42.5606" gradientUnits="userSpaceOnUse">
            <stop stop-color="#00A0FF"></stop>
            <stop offset="0.0066" stop-color="#00A2FF"></stop>
            <stop offset="0.2601" stop-color="#00BEFF"></stop>
            <stop offset="0.5122" stop-color="#00D2FF"></stop>
            <stop offset="0.7604" stop-color="#00DFFF"></stop>
            <stop offset="1" stop-color="#00E3FF"></stop>
        </linearGradient>
        <linearGradient id="paint2_linear_2821_5712" x1="134.574" y1="33.168" x2="93.1807"
            y2="33.168" gradientUnits="userSpaceOnUse">
            <stop stop-color="#FFE000"></stop>
            <stop offset="0.4087" stop-color="#FFBD00"></stop>
            <stop offset="0.7754" stop-color="#FFA600"></stop>
            <stop offset="1" stop-color="#FF9C00"></stop>
        </linearGradient>
        <linearGradient id="paint3_linear_2821_5712" x1="119.165" y1="37.0934" x2="80.2327"
            y2="76.0252" gradientUnits="userSpaceOnUse">
            <stop stop-color="#FF3743"></stop>
            <stop offset="1" stop-color="#E30864"></stop>
        </linearGradient>
        <linearGradient id="paint4_linear_2821_5712" x1="89.1772" y1="-0.746493" x2="106.562"
            y2="16.6382" gradientUnits="userSpaceOnUse">
            <stop stop-color="#00A06F"></stop>
            <stop offset="0.0685" stop-color="#00A86E"></stop>
            <stop offset="0.4762" stop-color="#00CF6E"></stop>
            <stop offset="0.8009" stop-color="#00E76D"></stop>
            <stop offset="1" stop-color="#00EF6D"></stop>
        </linearGradient>
        <linearGradient id="paint5_linear_2821_5712" x1="287.209" y1="17.9739" x2="252.978"
            y2="51.0063" gradientUnits="userSpaceOnUse">
            <stop offset="0.05" stop-color="#FFF339"></stop>
            <stop offset="0.37" stop-color="#FF9800"></stop>
            <stop offset="0.53" stop-color="#FF3346"></stop>
            <stop offset="0.7" stop-color="#FF0D8A"></stop>
        </linearGradient>
        <radialGradient id="paint6_radial_2821_5712" cx="0" cy="0" r="1"
            gradientUnits="userSpaceOnUse"
            gradientTransform="translate(287.42 20.5317) scale(43.6022 44.3365)">
            <stop offset="0.13" stop-color="#FFBD44"></stop>
            <stop offset="0.28" stop-color="#FF9800"></stop>
            <stop offset="0.47" stop-color="#FF3450"></stop>
            <stop offset="0.78" stop-color="#FF027B"></stop>
            <stop offset="0.86" stop-color="#FF0083"></stop>
        </radialGradient>
        <radialGradient id="paint7_radial_2821_5712" cx="0" cy="0" r="1"
            gradientUnits="userSpaceOnUse"
            gradientTransform="translate(270.932 34.4003) scale(44.6923 44.3365)">
            <stop offset="0.3" stop-color="#AF0611"></stop>
            <stop offset="0.35" stop-color="#CE1223" stop-opacity="0.74"></stop>
            <stop offset="0.43" stop-color="#FD243B" stop-opacity="0.34"></stop>
            <stop offset="0.5" stop-color="#FF304B" stop-opacity="0.09"></stop>
            <stop offset="0.53" stop-color="#FF3450" stop-opacity="0"></stop>
        </radialGradient>
        <radialGradient id="paint8_radial_2821_5712" cx="0" cy="0" r="1"
            gradientUnits="userSpaceOnUse"
            gradientTransform="translate(275.572 9.11383) scale(14.3107 24.296)">
            <stop offset="0.13" stop-color="#FFF339"></stop>
            <stop offset="0.53" stop-color="#FF9800"></stop>
        </radialGradient>
        <radialGradient id="paint9_radial_2821_5712" cx="0" cy="0" r="1"
            gradientUnits="userSpaceOnUse"
            gradientTransform="translate(266.127 45.8356) scale(18.9384 20.7567)">
            <stop offset="0.35" stop-color="#008EE9"></stop>
            <stop offset="0.67" stop-color="#A059FF"></stop>
            <stop offset="1" stop-color="#DF36EA"></stop>
        </radialGradient>
        <radialGradient id="paint10_radial_2821_5712" cx="0" cy="0" r="1"
            gradientUnits="userSpaceOnUse"
            gradientTransform="translate(270.681 29.8222) scale(10.0554 12.2453)">
            <stop offset="0.21" stop-color="#A059FF" stop-opacity="0"></stop>
            <stop offset="0.97" stop-color="#80008E" stop-opacity="0.6"></stop>
        </radialGradient>
        <radialGradient id="paint11_radial_2821_5712" cx="0" cy="0" r="1"
            gradientUnits="userSpaceOnUse"
            gradientTransform="translate(269.957 14.438) scale(15.0557 15.1092)">
            <stop offset="0.1" stop-color="#FFE200"></stop>
            <stop offset="0.79" stop-color="#FF7232"></stop>
        </radialGradient>
        <radialGradient id="paint12_radial_2821_5712" cx="0" cy="0" r="1"
            gradientUnits="userSpaceOnUse"
            gradientTransform="translate(283.703 4.52947) scale(71.8795 60.3389)">
            <stop offset="0.11" stop-color="#FFF339"></stop>
            <stop offset="0.46" stop-color="#FF9800"></stop>
            <stop offset="0.72" stop-color="#FF3346"></stop>
            <stop offset="0.9" stop-color="#FF0D8A"></stop>
        </radialGradient>
        <radialGradient id="paint13_radial_2821_5712" cx="0" cy="0" r="1"
            gradientUnits="userSpaceOnUse"
            gradientTransform="translate(277.625 5.70927) rotate(83.9544) scale(47.2548 47.6085)">
            <stop stop-color="#FFF339"></stop>
            <stop offset="0.3" stop-color="#FF9800"></stop>
            <stop offset="0.57" stop-color="#FF3346"></stop>
            <stop offset="0.74" stop-color="#FF0D8A"></stop>
        </radialGradient>
        <radialGradient id="paint14_radial_2821_5712" cx="0" cy="0" r="1"
            gradientUnits="userSpaceOnUse"
            gradientTransform="translate(270.111 19.8727) scale(41.2685 40.5435)">
            <stop offset="0.14" stop-color="#FFF339"></stop>
            <stop offset="0.48" stop-color="#FF9800"></stop>
            <stop offset="0.66" stop-color="#FF3346"></stop>
            <stop offset="0.9" stop-color="#FF0D8A"></stop>
        </radialGradient>
        <radialGradient id="paint15_radial_2821_5712" cx="0" cy="0" r="1"
            gradientUnits="userSpaceOnUse"
            gradientTransform="translate(280.823 22.2412) scale(49.6034 44.3762)">
            <stop offset="0.09" stop-color="#FFF339"></stop>
            <stop offset="0.63" stop-color="#FF9800"></stop>
        </radialGradient>
        <linearGradient id="paint16_linear_2821_5712" x1="285.11" y1="18.2254" x2="257.733"
            y2="48.1386" gradientUnits="userSpaceOnUse">
            <stop offset="0.17" stop-color="#FFF339" stop-opacity="0.8"></stop>
            <stop offset="0.6" stop-color="#FFF339" stop-opacity="0"></stop>
        </linearGradient>
        <linearGradient id="paint17_linear_2821_5712" x1="338.649" y1="41.412" x2="369.1"
            y2="41.412" gradientUnits="userSpaceOnUse">
            <stop stop-color="#00376F"></stop>
            <stop offset="1" stop-color="#004E99"></stop>
        </linearGradient>
        <linearGradient id="paint18_linear_2821_5712" x1="337.373" y1="18.9258" x2="362.849"
            y2="33.9962" gradientUnits="userSpaceOnUse">
            <stop stop-color="#00C2DD"></stop>
            <stop offset="1" stop-color="#00D34F"></stop>
        </linearGradient>
        <linearGradient id="paint19_linear_2821_5712" x1="339.759" y1="23.3493" x2="346.621"
            y2="54.8358" gradientUnits="userSpaceOnUse">
            <stop offset="0.0016" stop-color="#006393"></stop>
            <stop offset="0.4" stop-color="#0086DE"></stop>
            <stop offset="1" stop-color="#006393"></stop>
        </linearGradient>
        <linearGradient id="paint20_linear_2821_5712" x1="112.691" y1="134.993" x2="112.691"
            y2="91.7153" gradientUnits="userSpaceOnUse">
            <stop stop-color="#F2F2F2"></stop>
            <stop offset="1" stop-color="white"></stop>
        </linearGradient>
        <linearGradient id="paint21_linear_2821_5712" x1="112.691" y1="134.994" x2="112.691"
            y2="91.7153" gradientUnits="userSpaceOnUse">
            <stop></stop>
            <stop offset="0.36" stop-opacity="0"></stop>
        </linearGradient>
        <linearGradient id="paint22_linear_2821_5712" x1="112.691" y1="132.83" x2="112.691"
            y2="93.8793" gradientUnits="userSpaceOnUse">
            <stop stop-color="#3871E9"></stop>
            <stop offset="1" stop-color="#61C5F6"></stop>
        </linearGradient>
        <linearGradient id="paint23_linear_2821_5712" x1="112.691" y1="132.83" x2="112.691"
            y2="93.8793" gradientUnits="userSpaceOnUse">
            <stop></stop>
            <stop offset="0.36" stop-opacity="0"></stop>
        </linearGradient>
        <linearGradient id="paint24_linear_2821_5712" x1="266.878" y1="92.4327" x2="266.878"
            y2="135.075" gradientUnits="userSpaceOnUse">
            <stop offset="0.3" stop-color="#FF1B2D"></stop>
            <stop offset="0.4381" stop-color="#FA1A2C"></stop>
            <stop offset="0.5939" stop-color="#ED1528"></stop>
            <stop offset="0.7581" stop-color="#D60E21"></stop>
            <stop offset="0.9272" stop-color="#B70519"></stop>
            <stop offset="1" stop-color="#A70014"></stop>
        </linearGradient>
        <linearGradient id="paint25_linear_2821_5712" x1="277.925" y1="94.9461" x2="277.925"
            y2="132.661" gradientUnits="userSpaceOnUse">
            <stop stop-color="#9C0000"></stop>
            <stop offset="0.7" stop-color="#FF4B4B"></stop>
        </linearGradient>
        <clipPath id="clip0_2821_5712">
            <rect width="44" height="44" fill="white" transform="translate(91.5039 11.1671)"></rect>
        </clipPath>
        <clipPath id="clip1_2821_5712">
            <rect width="44" height="44" fill="white" transform="translate(170.432 11.1671)"></rect>
        </clipPath>
        <clipPath id="clip2_2821_5712">
            <rect width="44" height="44" fill="white" transform="translate(249.359 11.1671)"></rect>
        </clipPath>
        <clipPath id="clip3_2821_5712">
            <rect width="44" height="44" fill="white" transform="translate(328.287 11.1671)"></rect>
        </clipPath>
        <clipPath id="clip4_2821_5712">
            <rect width="44" height="44" fill="white" transform="translate(90.6909 91.7153)"></rect>
        </clipPath>
        <clipPath id="clip5_2821_5712">
            <rect width="44" height="44" fill="white" transform="translate(169.619 91.7153)"></rect>
        </clipPath>
        <clipPath id="clip6_2821_5712">
            <rect width="44" height="44" fill="white" transform="translate(248.546 91.7153)"></rect>
        </clipPath>
    </defs>
</svg>