<svg xmlns="http://www.w3.org/2000/svg" width="36.197" height="27.216" viewBox="0 0 36.197 27.216">
  <g id="Group_2150" data-name="Group 2150" transform="translate(-1014.184 -932.393)">
    <path id="Path_1422" data-name="Path 1422" d="M-30.878,4H-6.384A2.73,2.73,0,0,1-3.663,6.722V23.051a2.73,2.73,0,0,1-2.722,2.722H-30.878A2.73,2.73,0,0,1-33.6,23.051V6.722A2.73,2.73,0,0,1-30.878,4Z" transform="translate(1047.784 933.836)" fill="#e8ffff"/>
    <g id="Group_2149" data-name="Group 2149">
      <g id="Group_2147" data-name="Group 2147" transform="translate(1017.722 932.393)">
        <path id="Path_1420" data-name="Path 1420" d="M28.577,27.494H4.082A4.009,4.009,0,0,1,0,23.411V7.082A4.009,4.009,0,0,1,4.082,3H28.577a4.009,4.009,0,0,1,4.082,4.082V23.411A4.009,4.009,0,0,1,28.577,27.494ZM4.082,5.722A1.286,1.286,0,0,0,2.722,7.082V23.411a1.286,1.286,0,0,0,1.361,1.361H28.577a1.286,1.286,0,0,0,1.361-1.361V7.082a1.286,1.286,0,0,0-1.361-1.361Z" transform="translate(0 -3)" fill="#0e8888"/>
      </g>
      <g id="Group_2148" data-name="Group 2148" transform="translate(1017.722 940.557)">
        <path id="Path_1421" data-name="Path 1421" d="M31.3,11.722H1.361A1.286,1.286,0,0,1,0,10.361,1.286,1.286,0,0,1,1.361,9H31.3a1.286,1.286,0,0,1,1.361,1.361A1.286,1.286,0,0,1,31.3,11.722Z" transform="translate(0 -8.999)" fill="#0e8888"/>
      </g>
    </g>
  </g>
</svg>
