<svg id="Group_473" data-name="Group 473" xmlns="http://www.w3.org/2000/svg" xmlns:xlink="http://www.w3.org/1999/xlink" width="72" height="74" viewBox="0 0 72 74">
  <defs>
    <clipPath id="clip-path">
      <rect id="Rectangle_210" data-name="Rectangle 210" width="72" height="74" fill="none"/>
    </clipPath>
  </defs>
  <g id="Group_473-2" data-name="Group 473" clip-path="url(#clip-path)">
    <path id="Path_233" data-name="Path 233" d="M43.147,54l1.164,10.475-4.656-2.328L35,64.475,36.164,54" transform="translate(-13.049 8.852)" fill="none" stroke="#17168c" stroke-linecap="square" stroke-linejoin="round" stroke-width="2"/>
    <path id="Path_234" data-name="Path 234" d="M45.911,44.436h0a1.164,1.164,0,0,0-1.164-1.164,5.424,5.424,0,0,1-3.833-1.588,1.163,1.163,0,0,0-1.646,0,5.424,5.424,0,0,1-3.833,1.588,1.164,1.164,0,0,0-1.164,1.164,5.422,5.422,0,0,1-1.588,3.833,1.163,1.163,0,0,0,0,1.646,5.422,5.422,0,0,1,1.588,3.833,1.164,1.164,0,0,0,1.164,1.164A5.422,5.422,0,0,1,39.268,56.5a1.165,1.165,0,0,0,1.646,0,5.422,5.422,0,0,1,3.833-1.588,1.164,1.164,0,0,0,1.164-1.164A5.422,5.422,0,0,1,47.5,49.914a1.163,1.163,0,0,0,0-1.646A5.422,5.422,0,0,1,45.911,44.436Z" transform="translate(-13.484 6.777)" fill="none" stroke="#17168c" stroke-linecap="square" stroke-linejoin="round" stroke-width="2"/>
    <line id="Line_145" data-name="Line 145" x1="16" transform="translate(22 19)" fill="none" stroke="#17168c" stroke-linecap="round" stroke-linejoin="round" stroke-width="2"/>
    <line id="Line_146" data-name="Line 146" x1="16" transform="translate(22 13)" fill="none" stroke="#17168c" stroke-linecap="round" stroke-linejoin="round" stroke-width="2"/>
    <line id="Line_147" data-name="Line 147" x1="42.677" transform="translate(21.951 36.664)" fill="none" stroke="#17168c" stroke-linecap="round" stroke-linejoin="round" stroke-width="2"/>
    <line id="Line_148" data-name="Line 148" x1="42.677" transform="translate(21.951 30.262)" fill="none" stroke="#17168c" stroke-linecap="round" stroke-linejoin="round" stroke-width="2"/>
    <line id="Line_149" data-name="Line 149" x1="20.951" transform="translate(43.678 43.065)" fill="none" stroke="#17168c" stroke-linecap="round" stroke-linejoin="round" stroke-width="2"/>
    <path id="Path_235" data-name="Path 235" d="M9,52.9c-.51-3.39,4.253-3.82,5.093-6.113,0,0,1.829,4.223,1.02,6.113.41-1.211,3.42-2.329,4.075-2.038.727.292-1.085,3.346,6.113,2.038" transform="translate(36.268 7.67)" fill="none" stroke="#17168c" stroke-linecap="round" stroke-linejoin="round" stroke-width="2"/>
    <path id="Path_236" data-name="Path 236" d="M7.428,17.668c-.175-2.412.054-2.962.193-3.081a1.345,1.345,0,0,0,.186-.263.168.168,0,0,1,.062-.063l0-.036a.19.19,0,0,1,.015-.056c.029-.063.047-.108.049-.114.187-.553.745-.654.987-.8l-.1-.237a1.293,1.293,0,0,1-.17.01,2.268,2.268,0,0,1-.478-.057.588.588,0,0,1-.512-.553.178.178,0,0,1,0-.035c.113-.651.906-.708.99-.711a.578.578,0,0,1,.439.133.992.992,0,0,1,.286.616,2.83,2.83,0,0,0,.049.281c.6-1.2,1.084-2.022,1.085-2.024.552-1.006,1.221-1.06,1.277-1.063a29.723,29.723,0,0,1,3.961-.253h.026a.163.163,0,0,1,.1-.035.166.166,0,0,1,.1.035h.024a29.7,29.7,0,0,1,3.962.253c.088.006.737.083,1.272,1.057.006.009.494.844,1.089,2.03a2.463,2.463,0,0,0,.047-.274,1,1,0,0,1,.289-.623.586.586,0,0,1,.436-.134c.076,0,.878.057.993.712v.034a.587.587,0,0,1-.505.553,2.3,2.3,0,0,1-.484.058,1.306,1.306,0,0,1-.17-.01l-.1.237c.239.141.8.243.986.794,0,0,.019.049.05.119a.19.19,0,0,1,.015.056l0,.036a.184.184,0,0,1,.061.063,1.409,1.409,0,0,0,.184.261c.255.2.324,1.309.194,3.083a.167.167,0,0,1,.064.13v2.713a.564.564,0,0,1-.563.563H21.988a.564.564,0,0,1-.563-.563v-.267a3.01,3.01,0,0,0-.455.034c-1.123.078-2.742.142-4.984.127a.171.171,0,0,1-.1.035.163.163,0,0,1-.1-.035l-.658,0c-2.208,0-3.757-.079-4.781-.164h0v.267a.565.565,0,0,1-.563.563H7.93a.564.564,0,0,1-.563-.563V17.8a.171.171,0,0,1,.062-.13m15.691.6a.407.407,0,1,0-.407-.407.407.407,0,0,0,.407.407m-1.024-1.361a.984.984,0,1,0-.984-.985.986.986,0,0,0,.984.985m-.584-3.794h.027a.328.328,0,0,0,.085-.01c0-.012,0-.029-.01-.051-.307-1.031-.974-2.7-1.471-2.806a23.5,23.5,0,0,0-4.258-.222h0a23.524,23.524,0,0,0-4.258.222c-.5.1-1.165,1.775-1.469,2.8a.53.53,0,0,0-.012.054.237.237,0,0,0,.083.013h.031c1.974-.2,5.588-.2,5.625-.2s3.651,0,5.629.2m-9.3,5.133s0,.01.013.016a20.078,20.078,0,0,0,3.661.177v0a20.078,20.078,0,0,0,3.661-.177c.008-.006.013-.012.013-.016a3.8,3.8,0,0,1,.544-2c-.019-.048-.15-.277-.823-.357a29.188,29.188,0,0,0-3.394-.234,29.253,29.253,0,0,0-3.4.234c-.668.08-.8.311-.821.357a3.817,3.817,0,0,1,.544,2m-1.555-2.323a.984.984,0,1,0-.985.985.986.986,0,0,0,.985-.985M8.646,18.271a.407.407,0,1,0-.407-.407.408.408,0,0,0,.407.407" transform="translate(39.03 1.529)" fill="#17168c"/>
    <path id="Path_237" data-name="Path 237" d="M1,1H56.868a6.983,6.983,0,0,1,6.984,6.984V68.507H31.262" transform="translate(6.984 0.164)" fill="none" stroke="#17168c" stroke-linecap="square" stroke-linejoin="round" stroke-width="2"/>
    <path id="Path_238" data-name="Path 238" d="M53.656,10.311H49V6.82a5.82,5.82,0,0,1,11.639,0V68.507h2.328" transform="translate(-47.999 0.164)" fill="none" stroke="#17168c" stroke-linecap="square" stroke-linejoin="round" stroke-width="2"/>
  </g>
</svg>