<svg width="24" height="24" viewBox="0 0 24 24" fill="none" xmlns="http://www.w3.org/2000/svg">
<path fill-rule="evenodd" clip-rule="evenodd" d="M12.0001 5.43537L6.80569 9.06669H7.25964L7.28853 9.06641H7.91075L7.93964 9.06669H11.6608L11.6896 9.06641H12.3119L12.3408 9.06669H16.0602L16.0891 9.06641H16.7113L16.7402 9.06669H17.1946L12.0001 5.43537ZM4.7793 10.4H5.86901C5.86721 10.4293 5.8663 10.4589 5.8663 10.4886V16.7109C5.8663 16.7408 5.86722 16.7704 5.86903 16.7998H4.88889C4.39797 16.7998 4 17.1978 4 17.6887V19.1109C4 19.6019 4.39797 19.9998 4.88889 19.9998H19.1112C19.6021 19.9998 20.0001 19.6019 20.0001 19.1109V17.6887C20.0001 17.1978 19.6021 16.7998 19.1112 16.7998H18.1308C18.1326 16.7704 18.1335 16.7408 18.1335 16.7109V10.4886C18.1335 10.4589 18.1326 10.4293 18.1308 10.4H19.221C19.9551 10.4 20.2804 9.59709 19.7083 9.19714L12.4875 4.14922C12.2029 3.95026 11.7974 3.95026 11.5128 4.14922L4.29195 9.19715C3.71986 9.59709 4.04517 10.4 4.7793 10.4ZM14.6696 16.7998C14.6678 16.7704 14.6668 16.7408 14.6668 16.7109V10.4886C14.6668 10.4589 14.6677 10.4293 14.6695 10.4H13.7314C13.7332 10.4293 13.7341 10.4589 13.7341 10.4886V16.7109C13.7341 16.7408 13.7332 16.7704 13.7314 16.7998H14.6696ZM10.2702 16.7998C10.2683 16.7704 10.2674 16.7408 10.2674 16.7109V10.4886C10.2674 10.4589 10.2683 10.4293 10.2701 10.4H9.33027C9.33207 10.4293 9.33298 10.4589 9.33298 10.4886V16.7109C9.33298 16.7408 9.33206 16.7704 9.33025 16.7998H10.2702ZM7.19964 10.4886C7.19964 10.442 7.2356 10.4037 7.28133 10.4H7.91795C7.96368 10.4037 7.99964 10.442 7.99964 10.4886V16.7109C7.99964 16.76 7.95984 16.7998 7.91075 16.7998H7.28853C7.23943 16.7998 7.19964 16.76 7.19964 16.7109V10.4886ZM16.0819 10.4H16.7185C16.7642 10.4037 16.8002 10.442 16.8002 10.4886V16.7109C16.8002 16.76 16.7604 16.7998 16.7113 16.7998H16.0891C16.04 16.7998 16.0002 16.76 16.0002 16.7109V10.4886C16.0002 10.442 16.0361 10.4037 16.0819 10.4ZM11.6008 10.4886C11.6008 10.442 11.6367 10.4037 11.6824 10.4H12.3191C12.3648 10.4037 12.4008 10.442 12.4008 10.4886V16.7109C12.4008 16.76 12.361 16.7998 12.3119 16.7998H11.6896C11.6406 16.7998 11.6008 16.76 11.6008 16.7109V10.4886ZM5.33334 18.1331L18.6667 18.1331V18.6665H5.33334V18.1331Z" fill="#666666"/>
</svg>
