<svg width="22" height="22" viewBox="0 0 22 22" fill="none" xmlns="http://www.w3.org/2000/svg">
<path fill-rule="evenodd" clip-rule="evenodd" d="M6.62595 15.6756L6.98402 16.079L8.96085 18.3062L11.0405 16.0603L11.3967 15.6756H11.921H17.9757C18.9794 15.6756 19.793 14.862 19.793 13.8583V4.92457C19.793 3.92089 18.9794 3.10725 17.9757 3.10725H4.02421C3.02054 3.10725 2.2069 3.92089 2.2069 4.92457V13.8583C2.2069 14.862 3.02054 15.6756 4.02421 15.6756H6.08655H6.62595ZM9.76126 19.208L8.94203 20.0928L8.14162 19.191L6.08655 16.8756H4.02421C2.3578 16.8756 1.0069 15.5247 1.0069 13.8583V4.92457C1.0069 3.25815 2.3578 1.90725 4.02421 1.90725H17.9757C19.6421 1.90725 20.993 3.25815 20.993 4.92457V13.8583C20.993 15.5247 19.6421 16.8756 17.9757 16.8756H11.921L9.76126 19.208Z" fill="#4E3844"/>
</svg>
