<svg width="36" height="24" viewBox="0 0 36 24" fill="none" xmlns="http://www.w3.org/2000/svg">
<rect x="0.5" width="35" height="24" rx="4" fill="white"/>
<rect x="1" y="0.5" width="34" height="23" rx="3.5" stroke="black" stroke-opacity="0.1"/>
<path fill-rule="evenodd" clip-rule="evenodd" d="M17.0296 15.7585V12.7375H18.5888C19.2277 12.7375 19.767 12.5234 20.2066 12.1012L20.3121 11.9942C21.1152 11.12 21.0624 9.75817 20.2066 8.94941C19.7787 8.52125 19.1926 8.28932 18.5888 8.30122H16.0859V15.7585H17.0296ZM17.0293 11.8215V9.2168H18.6122C18.9522 9.2168 19.2746 9.34763 19.515 9.5855C20.025 10.085 20.0368 10.9176 19.5443 11.4349C19.3039 11.6907 18.9639 11.8334 18.6122 11.8215H17.0293ZM24.7138 11.0542C24.3094 10.6796 23.7584 10.4893 23.0609 10.4893C22.164 10.4893 21.49 10.8223 21.0445 11.4824L21.8768 12.0116C22.1816 11.5597 22.5978 11.3337 23.1253 11.3337C23.4594 11.3337 23.7818 11.4586 24.0339 11.6846C24.2801 11.8986 24.4207 12.2079 24.4207 12.5349V12.755C24.0573 12.5528 23.6001 12.4457 23.0374 12.4457C22.3809 12.4457 21.8534 12.6004 21.4607 12.9155C21.0679 13.2307 20.8686 13.647 20.8686 14.1762C20.8569 14.6579 21.0621 15.1158 21.4255 15.4251C21.7948 15.7581 22.2637 15.9246 22.8147 15.9246C23.4653 15.9246 23.9811 15.6332 24.3739 15.0504H24.4149V15.7581H25.3176V12.6123C25.3176 11.9522 25.1183 11.4288 24.7138 11.0542ZM22.1525 14.8185C21.959 14.6758 21.8418 14.4438 21.8418 14.1941C21.8418 13.9146 21.9708 13.6826 22.2228 13.4983C22.4808 13.3139 22.8032 13.2188 23.1843 13.2188C23.7119 13.2128 24.1223 13.3318 24.4154 13.5697C24.4154 13.974 24.2571 14.3249 23.9464 14.6222C23.665 14.9077 23.284 15.0682 22.8853 15.0682C22.6215 15.0742 22.3635 14.985 22.1525 14.8185ZM27.3464 18.0005L30.4999 10.6562H29.4741L28.0146 14.3195H27.997L26.5023 10.6562H25.4766L27.5457 15.4315L26.3734 18.0005H27.3464Z" fill="#3C4043"/>
<path d="M13.773 12.0831C13.773 11.7917 13.7495 11.5003 13.7027 11.2148H9.72266V12.8621H12.0028C11.909 13.3914 11.6042 13.8671 11.1587 14.1644V15.2349H12.5186C13.3158 14.4915 13.773 13.3914 13.773 12.0831Z" fill="#4285F4"/>
<path d="M9.72211 16.2696C10.8592 16.2696 11.8205 15.889 12.5181 15.2349L11.1582 14.1645C10.7772 14.4261 10.2907 14.5748 9.72211 14.5748C8.62013 14.5748 7.68815 13.8195 7.35404 12.8086H5.95312V13.9147C6.66824 15.3598 8.12776 16.2696 9.72211 16.2696Z" fill="#34A853"/>
<path d="M7.35401 12.8088C7.17814 12.2796 7.17814 11.7027 7.35401 11.1675V10.0674H5.95288C5.34904 11.2746 5.34904 12.7018 5.95288 13.909L7.35401 12.8088Z" fill="#FBBC04"/>
<path d="M9.72211 9.40114C10.3258 9.38925 10.9061 9.62117 11.3399 10.0434L12.5474 8.81836C11.7795 8.09285 10.7713 7.69442 9.72211 7.70631C8.12776 7.70631 6.66824 8.62211 5.95312 10.0672L7.35404 11.1733C7.68815 10.1564 8.62013 9.40114 9.72211 9.40114Z" fill="#EA4335"/>
</svg>
