<?xml version="1.0" encoding="UTF-8"?>
<svg id="Layer_1" data-name="Layer 1" xmlns="http://www.w3.org/2000/svg" viewBox="0 0 208.33 50">
  <defs>
    <style>
      .cls-1 {
        fill: #fff;
        strokeWidth: 0px;
      }
    </style>
  </defs>
  <path class="cls-1" d="M28.78,50c-2.71,0-4.83-.56-6.37-1.68-1.4-1.03-2.59-2.71-3.57-5.04L0,.84h10.01l16.39,38.52c.61,1.31,1.4,1.96,2.38,1.96.89,0,1.63-.65,2.24-1.96L47.55.84h9.87l-18.77,42.44c-1.03,2.33-2.19,3.99-3.5,4.97-1.54,1.17-3.67,1.75-6.37,1.75Z"/>
  <path class="cls-1" d="M81.79,50c-7.66,0-14.17-.7-19.54-2.1v-7.84c5.88,1.45,12.32,2.17,19.33,2.17,5.6,0,9.55-.61,11.83-1.82,2.24-1.17,3.36-3.2,3.36-6.09,0-2.57-.91-4.36-2.73-5.39-1.63-.93-4.46-1.4-8.47-1.4h-11.83v-5.95l17.79-13.03h-28.43V.84h37.75c2.61.14,3.92,1.31,3.92,3.5,0,1.77-.93,3.34-2.8,4.69l-15.97,11.9h3.01c11.39.14,17.09,4.62,17.09,13.45,0,5.32-1.98,9.27-5.95,11.84-3.92,2.52-10.04,3.78-18.35,3.78Z"/>
  <path class="cls-1" d="M138.87,50c-8.73,0-15.1-2.12-19.12-6.37-3.83-4.06-5.74-10.27-5.74-18.63s1.91-14.61,5.74-18.63c4.01-4.25,10.39-6.37,19.12-6.37s15.1,2.12,19.12,6.37c3.83,4.06,5.74,10.27,5.74,18.63s-1.91,14.57-5.74,18.63c-4.02,4.25-10.39,6.37-19.12,6.37ZM138.87,41.95c5.79,0,9.87-1.4,12.25-4.2,2.19-2.57,3.29-6.81,3.29-12.75s-1.1-10.25-3.29-12.81c-2.38-2.8-6.47-4.2-12.25-4.2s-9.8,1.4-12.18,4.2c-2.19,2.62-3.29,6.89-3.29,12.81s1.1,10.18,3.29,12.75c2.38,2.8,6.44,4.2,12.18,4.2Z"/>
  <path class="cls-1" d="M192.79,50c-7.52,0-12.91-1.49-16.18-4.48-3.18-2.89-4.76-7.56-4.76-14.01,0-6.07,1.63-10.64,4.9-13.73,3.17-2.99,7.77-4.48,13.8-4.48s10.76,1.49,13.8,4.48c2.66,2.62,3.99,6.19,3.99,10.72,0,2.15-.14,4.06-.42,5.74h-27.66c.28,3.18,1.42,5.44,3.43,6.79,1.96,1.35,5.25,2.01,9.87,1.96,3.97,0,8.17-.65,12.61-1.96v7.14c-3.08,1.21-7.54,1.82-13.38,1.82ZM199.86,28.43c.09-2.85-.56-4.92-1.96-6.23-1.49-1.4-3.92-2.1-7.28-2.1s-5.72.65-7.35,1.96c-1.68,1.35-2.69,3.48-3.01,6.37h19.61Z"/>
</svg>