<svg xmlns="http://www.w3.org/2000/svg" width="14.276" height="12.977" viewBox="0 0 14.276 12.977"><defs><style>.a{fill:#a7a7a7;}</style></defs><g transform="translate(0 0)"><g transform="translate(1.536 0)"><path class="a" d="M423.583,2420.713H419.11a.18.18,0,0,0-.18.18v10.831a.18.18,0,0,1-.18.18h-1.425a.18.18,0,0,1-.18-.18v-10.831a.18.18,0,0,0-.18-.18h-4.432a.179.179,0,0,1-.18-.18v-1.018a.18.18,0,0,1,.18-.18h11.048a.18.18,0,0,1,.18.18v1.018A.18.18,0,0,1,423.583,2420.713Z" transform="translate(-412.355 -2419.335)"></path></g><path class="a" d="M405.411,2423.453a.7.7,0,0,1-.654-.96l1.054-2.678a.7.7,0,0,1,1.308.515l-1.054,2.678A.7.7,0,0,1,405.411,2423.453Z" transform="translate(-404.708 -2419.363)"></path><path class="a" d="M415.212,2477.915a.7.7,0,0,1,.654-.96h8.874a.7.7,0,1,1,0,1.406h-8.874A.7.7,0,0,1,415.212,2477.915Z" transform="translate(-413.063 -2465.383)"></path><path class="a" d="M465.3,2423.453a.7.7,0,0,0,.654-.96l-1.054-2.678a.7.7,0,1,0-1.308.515l1.054,2.678A.7.7,0,0,0,465.3,2423.453Z" transform="translate(-451.726 -2419.363)"></path></g></svg>