<svg width="20" height="20" viewBox="0 0 20 20" fill="none" xmlns="http://www.w3.org/2000/svg">
<path fill-rule="evenodd" clip-rule="evenodd" d="M16.2997 8.75C16.2997 12.9198 12.9195 16.3 8.74981 16.3C4.58011 16.3 1.19988 12.9198 1.19988 8.75C1.19988 4.58024 4.58011 1.2 8.74981 1.2C12.9195 1.2 16.2997 4.58024 16.2997 8.75ZM14.3816 15.4469C12.8597 16.7281 10.8949 17.5 8.74981 17.5C3.91735 17.5 -0.00012207 13.5825 -0.00012207 8.75C-0.00012207 3.91751 3.91735 0 8.74981 0C13.5823 0 17.4997 3.91751 17.4997 8.75C17.4997 11.0056 16.6463 13.0618 15.2447 14.6134L20.0001 19.1698L19.1336 20L14.3816 15.4469Z" fill="#221D1D"/>
</svg>
