<svg version="1.1" id="Layer_1" xmlns="http://www.w3.org/2000/svg" xmlns:xlink="http://www.w3.org/1999/xlink" x="0px" y="0px" viewBox="0 0 170 170" style="enable-background:new 0 0 170 170;" xml:space="preserve">
<g id="Group_2547_2_" transform="translate(-321.041 -290.09)">
	<path style="fill:#2D2D2D;" d="M336.9,361.3c0-17.3,12-37.5,46-37.5c4.3,0,7.7,3.5,7.7,7.8c0,4.3-3.5,7.8-7.7,7.8
		c-19.1,0-30.5,8.4-30.5,22.2c0,10.4,8,22.6,30.5,22.6h67.3l-14.3-14.4c-3-3-3-8,0-11c1.5-1.5,3.5-2.3,5.5-2.3c2,0,4,0.7,5.5,2.3
		l26.8,26.8c3,3,3,7.9,0,11l-26.8,26.8c-3,3-7.9,3-11,0c-3-3-3-8.1,0-11.1l12.8-13h-65.8C351.3,399.1,336.9,379.6,336.9,361.3z"></path>
</g>
</svg>