<svg xmlns="http://www.w3.org/2000/svg" width="19.816" height="23.186" viewBox="0 0 19.816 23.186">
  <g id="Grupo_2361" data-name="Grupo 2361" transform="translate(0 0)">
    <g id="Grupo_2350" data-name="Grupo 2350" transform="translate(4.106 0)">
      <path id="Trazado_13949" data-name="Trazado 13949" d="M74.046,27.854H62.294a1.029,1.029,0,0,0-1.029,1.029h0a1.029,1.029,0,0,0,1.05,1.029c.77-.016,1.691-.035,1.754-.035h9.978a.909.909,0,0,1,.906.906v4.858a2.915,2.915,0,0,1,.031.42s0,7.959,0,10.865a1,1,0,0,0,1,1h0a1,1,0,0,0,1-1V30.783A2.938,2.938,0,0,0,74.046,27.854Z" transform="translate(-61.265 -27.854)" fill="#aaa"/>
    </g>
    <g id="Grupo_2353" data-name="Grupo 2353" transform="translate(0 4.079)">
      <g id="Grupo_2352" data-name="Grupo 2352">
        <g id="Grupo_2351" data-name="Grupo 2351">
          <path id="Trazado_13950" data-name="Trazado 13950" d="M58.439,49.606l-3.612-3.329A.985.985,0,0,0,54.16,46H46.246A3.179,3.179,0,0,0,43,49.109v12.97a3.113,3.113,0,0,0,3.246,3.028h4.9a1.012,1.012,0,0,0,0-2.023h-4.9a1.1,1.1,0,0,1-1.223-1V49.109a1.157,1.157,0,0,1,1.223-1.086h5.745v1.526a3.3,3.3,0,0,0,3.3,3.194h1.423v9.335a1.068,1.068,0,0,1-1.191,1h-.627a1.012,1.012,0,0,0,0,2.023h.627a3.085,3.085,0,0,0,3.214-3.028V50.352A.984.984,0,0,0,58.439,49.606Zm-3.15,1.115a1.274,1.274,0,0,1-1.275-1.171V48.288l2.563,2.432Z" transform="translate(-43 -46)" fill="#aaa"/>
        </g>
      </g>
    </g>
    <g id="Grupo_2360" data-name="Grupo 2360" transform="translate(3.078 12.682)">
      <g id="Grupo_2356" data-name="Grupo 2356">
        <g id="Grupo_2355" data-name="Grupo 2355">
          <g id="Grupo_2354" data-name="Grupo 2354">
            <path id="Trazado_13951" data-name="Trazado 13951" d="M64.838,86.294H57.7a1.012,1.012,0,0,1,0-2.023h7.134a1.012,1.012,0,0,1,0,2.023Z" transform="translate(-56.692 -84.271)" fill="#aaa"/>
          </g>
        </g>
      </g>
      <g id="Grupo_2359" data-name="Grupo 2359" transform="translate(0 3.779)">
        <g id="Grupo_2358" data-name="Grupo 2358">
          <g id="Grupo_2357" data-name="Grupo 2357">
            <path id="Trazado_13952" data-name="Trazado 13952" d="M64.838,103.105H57.7a1.012,1.012,0,0,1,0-2.023h7.134a1.012,1.012,0,0,1,0,2.023Z" transform="translate(-56.692 -101.082)" fill="#aaa"/>
          </g>
        </g>
      </g>
    </g>
  </g>
</svg>
