<svg width="24" height="24" viewBox="0 0 24 24" fill="none" xmlns="http://www.w3.org/2000/svg">
<path d="M9 21.4999C8.1 21.4999 7.3 21.2999 6.5 20.9999C5.7 20.6999 5 20.1999 4.4 19.5999C3.8 18.9999 3.4 18.2999 3 17.4999C2.7 16.6999 2.5 15.8999 2.5 14.9999C2.5 13.6999 2.8 12.5999 3.5 11.4999C4.2 10.3999 5.1 9.6999 6.2 9.0999C6.5 8.3999 6.9 7.7999 7.4 7.2999C7.9 6.7999 8.5 6.3999 9.1 6.0999C9.6 4.9999 10.4 4.0999 11.4 3.3999C12.5 2.6999 13.6 2.3999 14.9 2.3999C15.8 2.3999 16.6 2.5999 17.4 2.8999C18.2 3.1999 18.9 3.6999 19.5 4.2999C20.2 4.9999 20.6 5.6999 21 6.4999C21.3 7.2999 21.5 8.0999 21.5 8.9999C21.5 10.2999 21.2 11.4999 20.5 12.4999C19.8 13.4999 18.9 14.2999 17.8 14.7999C17.5 15.4999 17.1 16.0999 16.6 16.4999C16.1 16.9999 15.5 17.3999 14.9 17.6999C14.4 18.7999 13.6 19.6999 12.5 20.3999C11.5 21.1999 10.3 21.4999 9 21.4999ZM9 19.9999C9.6 19.9999 10.3 19.8999 10.9 19.5999C11.5 19.2999 12.1 18.8999 12.5 18.3999C11.5 18.4999 10.6 18.3999 9.7 17.9999C8.8 17.6999 8.1 17.1999 7.4 16.4999C6.8 15.8999 6.3 15.0999 5.9 14.1999C5.6 13.2999 5.4 12.3999 5.5 11.3999C5 11.7999 4.6 12.3999 4.3 12.9999C4.1 13.6999 4 14.2999 4 14.9999C4 15.6999 4.1 16.3999 4.4 16.9999C4.7 17.5999 5 18.0999 5.5 18.5999C6 18.9999 6.5 19.3999 7.1 19.6999C7.7 19.8999 8.3 19.9999 9 19.9999ZM12 16.9999C12.8 16.9999 13.4 16.7999 14 16.4999C14.6 16.1999 15.1 15.7999 15.5 15.3999C14.5 15.4999 13.6 15.3999 12.7 14.9999C11.8 14.6999 11.1 14.1999 10.4 13.4999C9.8 12.8999 9.3 12.0999 8.9 11.1999C8.6 10.2999 8.4 9.3999 8.5 8.3999C8.1 8.8999 7.7 9.3999 7.4 9.9999C7.2 10.5999 7 11.2999 7 11.9999C7 12.6999 7.1 13.3999 7.4 13.9999C7.7 14.5999 8 15.0999 8.5 15.5999C8.9 16.0999 9.5 16.3999 10.1 16.6999C10.7 16.8999 11.3 16.9999 12 16.9999ZM15 13.9999C15.3 13.9999 15.6 13.9999 15.9 13.8999C16.2 13.7999 16.5 13.7999 16.7 13.6999C17.1 12.6999 17.1 11.6999 16.9 10.7999C16.7 9.8999 16.2 9.0999 15.6 8.4999C15 7.8999 14.2 7.3999 13.3 7.1999C12.4 6.9999 11.4 6.9999 10.4 7.3999C10.3 7.6999 10.2 7.9999 10.2 8.1999C10 8.3999 10 8.6999 10 8.9999C10 9.6999 10.1 10.3999 10.4 10.8999C10.7 11.4999 11 11.9999 11.5 12.4999C11.9 12.9999 12.5 13.2999 13.1 13.5999C13.7 13.8999 14.3 13.9999 15 13.9999ZM18.5 12.4999C19 12.0999 19.4 11.5999 19.6 10.9999C19.9 10.3999 20 9.6999 20 8.9999C20 8.2999 19.9 7.6999 19.6 7.0999C19.3 6.4999 19 5.9999 18.5 5.4999C18 4.9999 17.5 4.6999 16.9 4.3999C16.4 4.0999 15.7 3.9999 15 3.9999C14.3 3.9999 13.6 4.0999 13 4.3999C12.4 4.6999 11.9 5.0999 11.4 5.4999C12.4 5.3999 13.3 5.4999 14.2 5.8999C15.1 6.1999 15.8 6.6999 16.5 7.3999C17.1 7.9999 17.6 8.7999 18 9.6999C18.4 10.5999 18.6 11.4999 18.5 12.4999Z" fill="white"/>
</svg>
