<svg width="48" height="48" viewBox="0 0 48 48" fill="none" xmlns="http://www.w3.org/2000/svg">
<path d="M16.25 29.6346C16.0375 29.6346 15.8594 29.5627 15.7156 29.4189C15.5719 29.2751 15.5 29.0969 15.5 28.8843C15.5 28.6717 15.5719 28.4936 15.7156 28.35C15.8594 28.2064 16.0375 28.1346 16.25 28.1346H31.75C31.9625 28.1346 32.1406 28.2066 32.2843 28.3504C32.4281 28.4942 32.5 28.6724 32.5 28.885C32.5 29.0976 32.4281 29.2756 32.2843 29.4192C32.1406 29.5628 31.9625 29.6346 31.75 29.6346H16.25ZM16.25 24.75C16.0375 24.75 15.8594 24.6781 15.7156 24.5343C15.5719 24.3905 15.5 24.2123 15.5 23.9997C15.5 23.7871 15.5719 23.609 15.7156 23.4654C15.8594 23.3218 16.0375 23.25 16.25 23.25H31.75C31.9625 23.25 32.1406 23.3219 32.2843 23.4657C32.4281 23.6096 32.5 23.7878 32.5 24.0003C32.5 24.2129 32.4281 24.391 32.2843 24.5346C32.1406 24.6782 31.9625 24.75 31.75 24.75H16.25ZM16.25 19.8654C16.0375 19.8654 15.8594 19.7935 15.7156 19.6497C15.5719 19.5059 15.5 19.3277 15.5 19.1151C15.5 18.9025 15.5719 18.7244 15.7156 18.5808C15.8594 18.4372 16.0375 18.3654 16.25 18.3654H31.75C31.9625 18.3654 32.1406 18.4373 32.2843 18.5811C32.4281 18.725 32.5 18.9032 32.5 19.1157C32.5 19.3283 32.4281 19.5064 32.2843 19.65C32.1406 19.7936 31.9625 19.8654 31.75 19.8654H16.25Z" fill="white"/>
</svg>
