<svg width="16" height="20" viewBox="0 0 72 72" fill="none" xmlns="http://www.w3.org/2000/svg"><path d="M9 27C9.82864 27 10.5788 26.664 11.1217 26.1209C11.2116 26.0355 11.3037 25.9526 11.397 25.871C11.625 25.6714 11.9885 25.3677 12.4871 24.9938C13.4847 24.2455 15.0197 23.219 17.0912 22.1833C21.2243 20.1167 27.5179 18 35.9996 18C44.4813 18 50.7748 20.1167 54.9079 22.1833C56.9794 23.219 58.5144 24.2455 59.5121 24.9938C59.6056 25.0639 60.8802 26.1233 60.8802 26.1233C61.423 26.6652 62.1724 27 63 27C64.6569 27 66 25.6569 66 24C66 22.8871 65.3475 22.0506 64.5532 21.3556C64.2188 21.0629 63.7385 20.6635 63.1121 20.1938C61.8597 19.2545 60.0197 18.031 57.5912 16.8167C52.7243 14.3833 45.5179 12 35.9996 12C26.4813 12 19.2748 14.3833 14.4079 16.8167C11.9794 18.031 10.1394 19.2545 8.88706 20.1938C8.26066 20.6635 7.78035 21.0629 7.44593 21.3556C7.2605 21.5178 7.07794 21.6834 6.9016 21.8555C6.33334 22.417 6 23.1999 6 24C6 25.6569 7.34315 27 9 27Z" fill="currentColor"></path><path fill-rule="evenodd" clip-rule="evenodd" d="M26.1116 48.631C24.2868 50.4378 21 49.0661 21 46.5C21 45.6707 21.3365 44.92 21.8804 44.3769C21.9856 44.2702 22.0973 44.1695 22.209 44.0697C22.3915 43.9065 22.6466 43.6885 22.9713 43.4344C23.6195 42.9271 24.5536 42.2694 25.7509 41.6163C28.1445 40.3107 31.6365 39 35.9999 39C40.3634 39 43.8554 40.3107 46.249 41.6163C47.4463 42.2694 48.3804 42.9271 49.0286 43.4344C50.0234 44.213 51 45.134 51 46.5C51 48.1569 49.6569 49.5 48 49.5C47.1724 49.5 46.4231 49.1649 45.8803 48.623C45.7028 48.4617 45.5197 48.3073 45.3307 48.1594C44.9007 47.8229 44.2411 47.3556 43.3759 46.8837C41.6445 45.9393 39.1365 45 35.9999 45C32.8634 45 30.3554 45.9393 28.624 46.8837C27.7588 47.3556 27.0992 47.8229 26.6692 48.1594C26.3479 48.4109 26.155 48.5899 26.1116 48.631Z" fill="currentColor"></path><path d="M36 63C39.3137 63 42 60.3137 42 57C42 53.6863 39.3137 51 36 51C32.6863 51 30 53.6863 30 57C30 60.3137 32.6863 63 36 63Z" fill="currentColor"></path><path d="M15 39C13.3431 39 12 37.6569 12 36C12 34.3892 13.3933 33.3427 14.5534 32.4503C15.5841 31.6574 17.0871 30.6231 19.04 29.5952C22.9506 27.537 28.6773 25.5 35.9997 25.5C43.3222 25.5 49.0488 27.537 52.9595 29.5952C54.9123 30.6231 56.4154 31.6574 57.4461 32.4503C57.9619 32.847 58.361 33.1846 58.6407 33.4324C59.4024 34.1073 60 34.9345 60 36C60 37.6569 58.6569 39 57 39C56.1737 39 55.4255 38.6662 54.8829 38.1258C54.5371 37.7978 54.1653 37.4964 53.7878 37.206C52.9903 36.5926 51.7746 35.7519 50.165 34.9048C46.9506 33.213 42.1773 31.5 35.9997 31.5C29.8222 31.5 25.0488 33.213 21.8345 34.9048C20.2248 35.7519 19.0091 36.5926 18.2117 37.206C17.6144 37.6654 17.2549 37.9951 17.1459 38.098C16.5581 38.6591 15.8222 39 15 39Z" fill="currentColor"></path></svg>