<svg xmlns="http://www.w3.org/2000/svg" width="20" height="20" viewBox="0 0 17.6 17.6">
    <g transform="translate(0.3 0.3)">
        <g data-name="Group 10611" transform="translate(5.174)">
            <g data-name="Group 10610">
                <path data-name="Path 18307"
                      d="M159.311,0h-8.13a1.85,1.85,0,0,0-1.848,1.848V6.283a.37.37,0,1,0,.739,0V1.848A1.11,1.11,0,0,1,151.181.739h8.13a1.11,1.11,0,0,1,1.109,1.109v13.3a1.11,1.11,0,0,1-1.109,1.109h-8.13a1.11,1.11,0,0,1-1.109-1.109V10.717a.37.37,0,1,0-.739,0v4.435A1.85,1.85,0,0,0,151.181,17h8.13a1.85,1.85,0,0,0,1.848-1.848V1.848A1.85,1.85,0,0,0,159.311,0Z"
                      transform="translate(-149.333)" fill="#6300a3" stroke="#2e054e" strokeWidth="0.6"></path>
            </g>
        </g>
        <g data-name="Group 10613" transform="translate(0 8.13)">
            <g data-name="Group 10612">
                <path data-name="Path 18308" d="M12.2,234.667H.37a.37.37,0,1,0,0,.739H12.2a.37.37,0,1,0,0-.739Z"
                      transform="translate(0 -234.667)" fill="#6300a3" stroke="#2e054e" strokeWidth="0.6"></path>
            </g>
        </g>
        <g data-name="Group 10615" transform="translate(9.609 5.914)">
            <g data-name="Group 10614">
                <path data-name="Path 18309"
                      d="M280.176,173.03l-2.217-2.217a.37.37,0,1,0-.523.523l1.956,1.956-1.956,1.956a.37.37,0,0,0,.523.523l2.217-2.217A.37.37,0,0,0,280.176,173.03Z"
                      transform="translate(-277.328 -170.704)" fill="#6300a3" stroke="#2e054e"
                      strokeWidth="0.6"></path>
            </g>
        </g>
    </g>
</svg>