<svg id="Group_420" data-name="Group 420" xmlns="http://www.w3.org/2000/svg" xmlns:xlink="http://www.w3.org/1999/xlink" width="64" height="64" viewBox="0 0 64 64">
  <defs>
    <clipPath id="clip-path">
      <rect id="Rectangle_199" data-name="Rectangle 199" width="64" height="64" fill="none" stroke="#17168c" stroke-width="1"/>
    </clipPath>
  </defs>
  <g id="Group_419" data-name="Group 419" clip-path="url(#clip-path)">
    <path id="Path_200" data-name="Path 200" d="M63,20V59a4,4,0,0,1-4,4H5a4,4,0,0,1-4-4V20" fill="none" stroke="#17168c" stroke-linejoin="round" stroke-width="2"/>
    <line id="Line_116" data-name="Line 116" x1="5.959" y2="3.794" transform="translate(1.041 16.15)" fill="none" stroke="#17168c" stroke-linecap="round" stroke-linejoin="round" stroke-width="2"/>
    <path id="Path_201" data-name="Path 201" d="M42.519,7l-8.482-5.37a3.867,3.867,0,0,0-4.237,0L21.37,7" fill="none" stroke="#17168c" stroke-linecap="round" stroke-linejoin="round" stroke-width="2"/>
    <line id="Line_117" data-name="Line 117" x1="5.958" y1="3.772" transform="translate(57.001 16.172)" fill="none" stroke="#17168c" stroke-linecap="round" stroke-linejoin="round" stroke-width="2"/>
    <path id="Path_202" data-name="Path 202" d="M62.959,33.04,34.036,51.352a3.862,3.862,0,0,1-4.236,0L1.041,33.04" fill="none" stroke="#17168c" stroke-linecap="round" stroke-linejoin="round" stroke-width="2"/>
    <path id="Path_203" data-name="Path 203" d="M7,31V11a4,4,0,0,1,4-4H53a4,4,0,0,1,4,4V31" fill="none" stroke="#17168c" stroke-linecap="round" stroke-linejoin="round" stroke-width="2"/>
    <line id="Line_118" data-name="Line 118" x2="13" transform="translate(19 17)" fill="none" stroke="#17168c" stroke-linecap="round" stroke-linejoin="round" stroke-width="2"/>
    <line id="Line_119" data-name="Line 119" x2="26" transform="translate(19 25)" fill="none" stroke="#17168c" stroke-linecap="round" stroke-linejoin="round" stroke-width="2"/>
    <line id="Line_120" data-name="Line 120" x2="26" transform="translate(19 33)" fill="none" stroke="#17168c" stroke-linecap="round" stroke-linejoin="round" stroke-width="2"/>
  </g>
</svg>
