<svg  data-name="browseing history" width="25"
    xmlns="http://www.w3.org/2000/svg" viewBox="0 0 24.53 22">
    <path class="cls-1"
        d="M13.49,0A10.93,10.93,0,0,0,2.62,9.29H.31c-.31,0-.4.2-.21.44l2.77,3.35a.43.43,0,0,0,.7,0L6.2,9.75c.19-.25.09-.45-.22-.45H3.93a9.72,9.72,0,1,1,2.39,8.24.66.66,0,0,0-.92,0,.65.65,0,0,0,0,.91A11,11,0,1,0,13.49,0Z"></path>
    <rect class="cls-1" x="12.84" y="3.88" width="1.29" height="7.76" rx="0.65" ry="0.65"></rect>
    <rect class="cls-1" x="15.43" y="7.76" width="1.29" height="6.47" rx="0.65" ry="0.65"
        transform="translate(27.07 -5.07) rotate(90)"></rect>
</svg>

<svg aria-hidden="true" focusable="false" data-prefix="far" data-icon="alarm-clock"
    role="img" xmlns="http://www.w3.org/2000/svg" viewBox="0 0 512 512">
    <path fill="currentColor"
        d="M160 25.4C143 9.6 120.2 0 95.2 0C42.6 0 0 42.6 0 95.2c0 18.8 5.5 36.3 14.9 51.1L160 25.4zM256 112a176 176 0 1 1 0 352 176 176 0 1 1 0-352zm0 400c53.2 0 102.1-18.6 140.5-49.5L439 505c9.4 9.4 24.6 9.4 33.9 0s9.4-24.6 0-33.9l-42.5-42.5c31-38.4 49.5-87.3 49.5-140.5C480 164.3 379.7 64 256 64S32 164.3 32 288c0 53.2 18.6 102.1 49.5 140.5L39 471c-9.4 9.4-9.4 24.6 0 33.9s24.6 9.4 33.9 0l42.5-42.5c38.4 31 87.3 49.5 140.5 49.5zM497.1 146.4C506.5 131.6 512 114 512 95.2C512 42.6 469.4 0 416.8 0C391.8 0 369 9.6 352 25.4L497.1 146.4zM280 184c0-13.3-10.7-24-24-24s-24 10.7-24 24V288c0 6.4 2.5 12.5 7 17l48 48c9.4 9.4 24.6 9.4 33.9 0s9.4-24.6 0-33.9l-41-41V184z"></path>
</svg>

<svg xmlns="http://www.w3.org/2000/svg" viewBox="0 0 14 14" width="1em" height="1em" fill="none"
    class="text-text-secondary dark:text-text-secondary w-4 h-4">
    <path fill-rule="evenodd" clip-rule="evenodd"
        d="M5.83373 3.48097C5.83828 3.48095 5.84284 3.48094 5.84739 3.48094H8.15673C8.16127 3.48094 8.1658 3.48095 8.17033 3.48097C8.16323 2.8418 7.64288 2.32585 7.00203 2.32585C6.36117 2.32585 5.84083 2.8418 5.83373 3.48097ZM9.32578 3.72484C9.33325 3.64887 9.33707 3.57194 9.33707 3.49422C9.33707 2.20461 8.29164 1.15918 7.00203 1.15918C5.71242 1.15918 4.66699 2.20461 4.66699 3.49422C4.66699 3.57189 4.6708 3.64879 4.67826 3.72471C4.22848 3.92173 3.83796 4.22895 3.54086 4.61221C3.53598 4.61016 3.53087 4.60799 3.52553 4.60569C3.46337 4.57893 3.37269 4.53607 3.268 4.47498C3.05532 4.35088 2.80417 4.16288 2.60939 3.89984C2.49885 3.75056 2.42174 3.52306 2.37646 3.29097C2.35519 3.18193 2.34348 3.08539 2.33719 3.01701C2.33406 2.98309 2.33234 2.95681 2.33143 2.94023L2.3306 2.9231L2.33051 2.92073C2.32175 2.59947 2.05467 2.34567 1.73317 2.35352C1.4111 2.36138 1.15638 2.62884 1.16424 2.95091L1.7474 2.93668C1.16424 2.95091 1.16424 2.95077 1.16424 2.95091L1.16427 2.95208L1.16431 2.95356L1.16442 2.9574L1.16482 2.9686C1.16517 2.97759 1.16571 2.9896 1.16652 3.00435C1.16814 3.03382 1.17087 3.07444 1.17543 3.12395C1.1845 3.22244 1.20105 3.35889 1.23138 3.51437C1.28932 3.81133 1.40881 4.23898 1.6718 4.59413C1.98923 5.0228 2.37942 5.30724 2.68001 5.48264C2.81254 5.55997 2.93137 5.61828 3.0248 5.66C2.96341 5.89559 2.93073 6.14278 2.93073 6.39761V7.00608H1.74746C1.42529 7.00608 1.16412 7.26725 1.16412 7.58941C1.16412 7.91158 1.42529 8.17275 1.74746 8.17275H2.93073V8.77192C2.93073 9.01289 2.95167 9.24894 2.99182 9.47837C2.90725 9.51778 2.80645 9.56896 2.69617 9.63331C2.39557 9.80871 2.00538 10.0931 1.68795 10.5218C1.42496 10.877 1.30547 11.3046 1.24754 11.6016C1.2172 11.7571 1.20065 11.8935 1.19158 11.992C1.18703 12.0415 1.1843 12.0821 1.18268 12.1116C1.18186 12.1263 1.18133 12.1384 1.18097 12.1473L1.18058 12.1585L1.18046 12.1624L1.18042 12.1639L1.18041 12.1645C1.1804 12.1646 1.18039 12.165 1.76355 12.1793L1.18041 12.1645C1.17255 12.4866 1.42725 12.7546 1.74932 12.7624C2.07082 12.7703 2.3379 12.5165 2.34667 12.1952C2.34668 12.1947 2.34669 12.1942 2.34671 12.1937L2.34675 12.1928L2.34758 12.1757C2.34849 12.1591 2.35022 12.1329 2.35334 12.0989C2.35963 12.0306 2.37134 11.934 2.39261 11.825C2.43789 11.5929 2.515 11.3654 2.62554 11.2161C2.82032 10.9531 3.07147 10.7651 3.28415 10.641C3.31111 10.6252 3.33714 10.6107 3.362 10.5974C3.7181 11.306 4.27486 11.8961 4.95693 12.293C5.08155 12.3655 5.21041 12.4316 5.34306 12.4909C5.63722 12.6223 5.98219 12.4903 6.11358 12.1962C6.24498 11.902 6.11303 11.557 5.81888 11.4256C5.72442 11.3834 5.63259 11.3363 5.54371 11.2846C4.67753 10.7806 4.0974 9.84367 4.0974 8.77192V6.39761C4.0974 5.43111 4.8809 4.64761 5.84739 4.64761H6.41598L6.41634 6.12506C6.41642 6.44723 6.67766 6.70833 6.99982 6.70825C7.32199 6.70817 7.58309 6.44694 7.58301 6.12478L7.58265 4.64761H8.15673C8.47942 4.64761 8.78007 4.73441 9.03852 4.88556C9.31661 5.04821 9.6739 4.95462 9.83655 4.67652C9.99919 4.39842 9.9056 4.04113 9.62751 3.87849C9.53037 3.82168 9.42964 3.77032 9.32578 3.72484ZM3.6237 10.4776L3.62467 10.4772C3.62491 10.4771 3.62506 10.4771 3.62467 10.4772M12.2707 2.35353C12.5927 2.36139 12.8475 2.62885 12.8396 2.95092L12.2564 2.93669C12.8396 2.95092 12.8396 2.95078 12.8396 2.95092L12.8395 2.95357L12.8394 2.95742L12.839 2.96862C12.8387 2.9776 12.8381 2.98961 12.8373 3.00436C12.8357 3.03383 12.833 3.07445 12.8284 3.12396C12.8193 3.22245 12.8028 3.3589 12.7725 3.51438C12.7145 3.81134 12.595 4.239 12.332 4.59414C12.2543 4.69916 12.1723 4.79531 12.0887 4.88308C11.8664 5.11632 11.4972 5.12523 11.2639 4.90299C11.0307 4.68075 11.0218 4.31151 11.244 4.07827C11.2968 4.02285 11.3474 3.96343 11.3945 3.89986C11.505 3.75058 11.5821 3.52308 11.6274 3.29099C11.6487 3.18194 11.6604 3.0854 11.6667 3.01702C11.6698 2.9831 11.6715 2.95682 11.6724 2.94024L11.6732 2.92311L11.6733 2.92222C11.6733 2.92173 11.6733 2.92124 11.6733 2.92075C11.6821 2.59949 11.9492 2.34569 12.2707 2.35353Z"
        fill="#FFA116"></path>
    <path fill-rule="evenodd" clip-rule="evenodd"
        d="M10.2164 5.71748C9.74147 5.70692 9.34051 5.81961 9.01184 6.03027C8.68565 6.23935 8.45171 6.5313 8.28573 6.84829C7.9588 7.47271 7.875 8.23293 7.875 8.81114V8.84782C7.48968 8.99728 7.21875 9.37613 7.21875 9.81114V12.4153C7.21875 12.9779 7.6719 13.4466 8.23958 13.4466H12.1771C12.7448 13.4466 13.1979 12.9779 13.1979 12.4153V9.81114C13.1979 9.37613 12.927 8.99728 12.5417 8.84782V8.81114C12.5417 8.23216 12.4577 7.48931 12.1298 6.87341C11.7881 6.2317 11.1836 5.73897 10.2164 5.71748ZM11.8124 8.77989H8.60426C8.60738 8.25706 8.68927 7.64956 8.93171 7.18652C9.05285 6.95515 9.20856 6.77027 9.40532 6.64416C9.59959 6.51964 9.85489 6.43879 10.2002 6.44646C10.8737 6.46143 11.2536 6.77932 11.4861 7.21609C11.7276 7.66959 11.8093 8.25853 11.8124 8.77989Z"
        fill="currentColor"></path>
</svg>

<svg xmlns="http://www.w3.org/2000/svg" viewBox="0 0 18 18" width="1em" height="1em"
    fill="currentColor"
    class="h-[20px] w-[20px] hover:text-text-primary dark:hover:text-text-primary text-text-secondary dark:text-text-secondary h-4 w-4">
    <path fill-rule="evenodd"
        d="M7.19 1.564a.75.75 0 01.729.069c2.137 1.475 3.373 3.558 3.981 5.002l.641-.663a.75.75 0 011.17.115c1.633 2.536 1.659 5.537.391 7.725-1.322 2.282-3.915 2.688-5.119 2.688-1.177 0-3.679-.203-5.12-2.688-.623-1.076-.951-2.29-.842-3.528.109-1.245.656-2.463 1.697-3.54.646-.67 1.129-1.592 1.468-2.492.337-.895.51-1.709.564-2.105a.75.75 0 01.44-.583zm.784 2.023c-.1.368-.226.773-.385 1.193-.375.997-.947 2.13-1.792 3.005-.821.851-1.205 1.754-1.282 2.63-.078.884.153 1.792.647 2.645C6.176 14.81 7.925 15 8.983 15c1.03 0 2.909-.366 3.822-1.94.839-1.449.97-3.446.11-5.315l-.785.812a.75.75 0 01-1.268-.345c-.192-.794-1.04-2.948-2.888-4.625z"
        clip-rule="evenodd"></path>
</svg>

<svg aria-hidden="true" focusable="false" data-prefix="far" data-icon="brackets-curly"
    class="svg-inline--fa fa-brackets-curly absolute left-1/2 top-1/2 -translate-x-1/2 -translate-y-1/2"
    role="img" xmlns="http://www.w3.org/2000/svg" viewBox="0 0 576 512">
    <path fill="currentColor"
        d="M152 32c-48.6 0-88 39.4-88 88v45.5c0 10.6-4.2 20.8-11.7 28.3L7 239c-9.4 9.4-9.4 24.6 0 33.9l45.3 45.3c7.5 7.5 11.7 17.7 11.7 28.3V392c0 48.6 39.4 88 88 88h48c13.3 0 24-10.7 24-24s-10.7-24-24-24H152c-22.1 0-40-17.9-40-40V346.5c0-23.3-9.3-45.7-25.8-62.2L57.9 256l28.3-28.3c16.5-16.5 25.8-38.9 25.8-62.2V120c0-22.1 17.9-40 40-40h48c13.3 0 24-10.7 24-24s-10.7-24-24-24H152zm272 0H376c-13.3 0-24 10.7-24 24s10.7 24 24 24h48c22.1 0 40 17.9 40 40v45.5c0 23.3 9.3 45.7 25.8 62.2L518.1 256l-28.3 28.3c-16.5 16.5-25.8 38.9-25.8 62.2V392c0 22.1-17.9 40-40 40H376c-13.3 0-24 10.7-24 24s10.7 24 24 24h48c48.6 0 88-39.4 88-88V346.5c0-10.6 4.2-20.8 11.7-28.3L569 273c9.4-9.4 9.4-24.6 0-33.9l-45.3-45.3c-7.5-7.5-11.7-17.7-11.7-28.3V120c0-48.6-39.4-88-88-88z"></path>
</svg>

<svg aria-hidden="true" focusable="false" data-prefix="far" data-icon="lightbulb"
    class="svg-inline--fa fa-lightbulb absolute left-1/2 top-1/2 -translate-x-1/2 -translate-y-1/2"
    role="img" xmlns="http://www.w3.org/2000/svg" viewBox="0 0 384 512">
    <path fill="currentColor"
        d="M297.2 248.9C311.6 228.3 320 203.2 320 176c0-70.7-57.3-128-128-128S64 105.3 64 176c0 27.2 8.4 52.3 22.8 72.9c3.7 5.3 8.1 11.3 12.8 17.7l0 0c12.9 17.7 28.3 38.9 39.8 59.8c10.4 19 15.7 38.8 18.3 57.5H109c-2.2-12-5.9-23.7-11.8-34.5c-9.9-18-22.2-34.9-34.5-51.8l0 0 0 0c-5.2-7.1-10.4-14.2-15.4-21.4C27.6 247.9 16 213.3 16 176C16 78.8 94.8 0 192 0s176 78.8 176 176c0 37.3-11.6 71.9-31.4 100.3c-5 7.2-10.2 14.3-15.4 21.4l0 0 0 0c-12.3 16.8-24.6 33.7-34.5 51.8c-5.9 10.8-9.6 22.5-11.8 34.5H226.4c2.6-18.7 7.9-38.6 18.3-57.5c11.5-20.9 26.9-42.1 39.8-59.8l0 0 0 0 0 0c4.7-6.4 9-12.4 12.7-17.7zM192 128c-26.5 0-48 21.5-48 48c0 8.8-7.2 16-16 16s-16-7.2-16-16c0-44.2 35.8-80 80-80c8.8 0 16 7.2 16 16s-7.2 16-16 16zm0 384c-44.2 0-80-35.8-80-80V416H272v16c0 44.2-35.8 80-80 80z"></path>
</svg>

<svg aria-hidden="true" focusable="false" data-prefix="far" data-icon="shuffle"
    class="svg-inline--fa fa-shuffle absolute left-1/2 top-1/2 -translate-x-1/2 -translate-y-1/2"
    role="img" xmlns="http://www.w3.org/2000/svg" viewBox="0 0 512 512">
    <path fill="currentColor"
        d="M425 31l80 80c9.4 9.4 9.4 24.6 0 33.9l-80 80c-9.4 9.4-24.6 9.4-33.9 0s-9.4-24.6 0-33.9l39-39H352c-12.6 0-24.4 5.9-32 16l-46 61.3-30-40 37.6-50.1C298.2 117 324.3 104 352 104h78.1L391 65c-9.4-9.4-9.4-24.6 0-33.9s24.6-9.4 33.9 0zM204 322.7l-37.6 50.1C149.8 395 123.7 408 96 408H24c-13.3 0-24-10.7-24-24s10.7-24 24-24H96c12.6 0 24.4-5.9 32-16l46-61.3 30 40zM391 287c9.4-9.4 24.6-9.4 33.9 0l80 80c9.4 9.4 9.4 24.6 0 33.9l-80 80c-9.4 9.4-24.6 9.4-33.9 0s-9.4-24.6 0-33.9l39-39H352c-27.7 0-53.8-13-70.4-35.2L128 168c-7.6-10.1-19.4-16-32-16H24c-13.3 0-24-10.7-24-24s10.7-24 24-24H96c27.7 0 53.8 13 70.4 35.2L320 344c7.6 10.1 19.4 16 32 16h78.1l-39-39c-9.4-9.4-9.4-24.6 0-33.9z"></path>
</svg>

<svg aria-hidden="true" focusable="false" data-prefix="far" data-icon="keyboard"
    class="svg-inline--fa fa-keyboard mr-2 h-4 w-4 p-0.5" role="img"
    xmlns="http://www.w3.org/2000/svg" viewBox="0 0 576 512">
    <path fill="currentColor"
        d="M64 112c-8.8 0-16 7.2-16 16V384c0 8.8 7.2 16 16 16H512c8.8 0 16-7.2 16-16V128c0-8.8-7.2-16-16-16H64zM0 128C0 92.7 28.7 64 64 64H512c35.3 0 64 28.7 64 64V384c0 35.3-28.7 64-64 64H64c-35.3 0-64-28.7-64-64V128zM176 320H400c8.8 0 16 7.2 16 16v16c0 8.8-7.2 16-16 16H176c-8.8 0-16-7.2-16-16V336c0-8.8 7.2-16 16-16zm-72-72c0-8.8 7.2-16 16-16h16c8.8 0 16 7.2 16 16v16c0 8.8-7.2 16-16 16H120c-8.8 0-16-7.2-16-16V248zm16-96h16c8.8 0 16 7.2 16 16v16c0 8.8-7.2 16-16 16H120c-8.8 0-16-7.2-16-16V168c0-8.8 7.2-16 16-16zm64 96c0-8.8 7.2-16 16-16h16c8.8 0 16 7.2 16 16v16c0 8.8-7.2 16-16 16H200c-8.8 0-16-7.2-16-16V248zm16-96h16c8.8 0 16 7.2 16 16v16c0 8.8-7.2 16-16 16H200c-8.8 0-16-7.2-16-16V168c0-8.8 7.2-16 16-16zm64 96c0-8.8 7.2-16 16-16h16c8.8 0 16 7.2 16 16v16c0 8.8-7.2 16-16 16H280c-8.8 0-16-7.2-16-16V248zm16-96h16c8.8 0 16 7.2 16 16v16c0 8.8-7.2 16-16 16H280c-8.8 0-16-7.2-16-16V168c0-8.8 7.2-16 16-16zm64 96c0-8.8 7.2-16 16-16h16c8.8 0 16 7.2 16 16v16c0 8.8-7.2 16-16 16H360c-8.8 0-16-7.2-16-16V248zm16-96h16c8.8 0 16 7.2 16 16v16c0 8.8-7.2 16-16 16H360c-8.8 0-16-7.2-16-16V168c0-8.8 7.2-16 16-16zm64 96c0-8.8 7.2-16 16-16h16c8.8 0 16 7.2 16 16v16c0 8.8-7.2 16-16 16H440c-8.8 0-16-7.2-16-16V248zm16-96h16c8.8 0 16 7.2 16 16v16c0 8.8-7.2 16-16 16H440c-8.8 0-16-7.2-16-16V168c0-8.8 7.2-16 16-16z"></path>
</svg>

<svg aria-hidden="true" focusable="false" data-prefix="far" data-icon="flask"
    class="svg-inline--fa fa-flask mr-2 h-4 w-4 p-0.5" role="img" xmlns="http://www.w3.org/2000/svg"
    viewBox="0 0 448 512">
    <path fill="currentColor"
        d="M176 196.8c0 20.7-5.8 41-16.6 58.7L119.7 320H328.3l-39.7-64.5c-10.9-17.7-16.6-38-16.6-58.7V48H176V196.8zM320 48V196.8c0 11.8 3.3 23.5 9.5 33.5L437.7 406.2c6.7 10.9 10.3 23.5 10.3 36.4c0 38.3-31.1 69.4-69.4 69.4H69.4C31.1 512 0 480.9 0 442.6c0-12.8 3.6-25.4 10.3-36.4L118.5 230.4c6.2-10.1 9.5-21.7 9.5-33.5V48h-8c-13.3 0-24-10.7-24-24s10.7-24 24-24h40H288h40c13.3 0 24 10.7 24 24s-10.7 24-24 24h-8z"></path>
</svg>

<svg aria-hidden="true" focusable="false" data-prefix="far" data-icon="code"
    class="svg-inline--fa fa-code mr-2 h-4 w-4 p-0.5" role="img" xmlns="http://www.w3.org/2000/svg"
    viewBox="0 0 640 512">
    <path fill="currentColor"
        d="M399.1 1.1c-12.7-3.9-26.1 3.1-30 15.8l-144 464c-3.9 12.7 3.1 26.1 15.8 30s26.1-3.1 30-15.8l144-464c3.9-12.7-3.1-26.1-15.8-30zm71.4 118.5c-9.1 9.7-8.6 24.9 1.1 33.9L580.9 256 471.6 358.5c-9.7 9.1-10.2 24.3-1.1 33.9s24.3 10.2 33.9 1.1l128-120c4.8-4.5 7.6-10.9 7.6-17.5s-2.7-13-7.6-17.5l-128-120c-9.7-9.1-24.9-8.6-33.9 1.1zm-301 0c-9.1-9.7-24.3-10.2-33.9-1.1l-128 120C2.7 243 0 249.4 0 256s2.7 13 7.6 17.5l128 120c9.7 9.1 24.9 8.6 33.9-1.1s8.6-24.9-1.1-33.9L59.1 256 168.4 153.5c9.7-9.1 10.2-24.3 1.1-33.9z"></path>
</svg>

<svg aria-hidden="true" focusable="false" data-prefix="far" data-icon="table-layout" role="img"
    xmlns="http://www.w3.org/2000/svg" viewBox="0 0 512 512">
    <path fill="currentColor"
        d="M448 80c8.8 0 16 7.2 16 16v64H48V96c0-8.8 7.2-16 16-16H448zM48 416V208h96V432H64c-8.8 0-16-7.2-16-16zm144 16V208H464V416c0 8.8-7.2 16-16 16H192zM64 32C28.7 32 0 60.7 0 96V416c0 35.3 28.7 64 64 64H448c35.3 0 64-28.7 64-64V96c0-35.3-28.7-64-64-64H64z"></path>
</svg>

<svg aria-hidden="true" focusable="false" data-prefix="far" data-icon="book-open"
    class="svg-inline--fa fa-book-open absolute left-1/2 top-1/2 -translate-x-1/2 -translate-y-1/2"
    role="img" xmlns="http://www.w3.org/2000/svg" viewBox="0 0 576 512">
    <path fill="currentColor"
        d="M156 32C100.6 32 48.8 46.6 27.1 53.6C10.3 59 0 74.5 0 91.1V403.5c0 26.1 24 44.2 48 40.2c19.8-3.3 54.8-7.7 100-7.7c54 0 97.5 25.5 112.5 35.6c7.5 5 16.8 8.4 27 8.4c11.5 0 21.6-4.2 29.3-9.9C330.2 460.3 369.1 436 428 436c47.7 0 80.5 4 99 7.2c23.9 4.1 49-13.8 49-40.6V91.1c0-16.5-10.3-32.1-27.1-37.5C527.2 46.6 475.4 32 420 32c-36.8 0-71.8 6.4-97.4 12.7c-12.8 3.2-23.5 6.3-30.9 8.7c-1.3 .4-2.6 .8-3.7 1.2c-1.1-.4-2.4-.8-3.7-1.2c-7.5-2.4-18.1-5.5-30.9-8.7C227.8 38.4 192.8 32 156 32zM264 97.3V417.9C238 404.2 196.8 388 148 388c-42.9 0-77.4 3.7-100 7.1V97.3C70.3 90.6 112.4 80 156 80c31.6 0 62.6 5.6 85.9 11.3c8.6 2.1 16.1 4.2 22.1 6zm48 319.2V97.3c6-1.8 13.5-3.9 22.1-6C357.4 85.6 388.4 80 420 80c43.6 0 85.7 10.6 108 17.3V394.7c-21.7-3.3-54.9-6.7-100-6.7c-51.4 0-90.8 15-116 28.6z"></path>
</svg>

<svg aria-hidden="true" focusable="false" data-prefix="far" data-icon="memo"
    class="svg-inline--fa fa-memo absolute left-1/2 top-1/2 -translate-x-1/2 -translate-y-1/2"
    role="img" xmlns="http://www.w3.org/2000/svg" viewBox="0 0 384 512">
    <path fill="currentColor"
        d="M64 48c-8.8 0-16 7.2-16 16V448c0 8.8 7.2 16 16 16H320c8.8 0 16-7.2 16-16V64c0-8.8-7.2-16-16-16H64zM0 64C0 28.7 28.7 0 64 0H320c35.3 0 64 28.7 64 64V448c0 35.3-28.7 64-64 64H64c-35.3 0-64-28.7-64-64V64zm120 64H264c13.3 0 24 10.7 24 24s-10.7 24-24 24H120c-13.3 0-24-10.7-24-24s10.7-24 24-24zm0 96H264c13.3 0 24 10.7 24 24s-10.7 24-24 24H120c-13.3 0-24-10.7-24-24s10.7-24 24-24zm0 96h48c13.3 0 24 10.7 24 24s-10.7 24-24 24H120c-13.3 0-24-10.7-24-24s10.7-24 24-24z"></path>
</svg>

<svg aria-hidden="true" focusable="false" data-prefix="far" data-icon="objects-column"
    class="svg-inline--fa fa-objects-column absolute left-1/2 top-1/2 -translate-x-1/2 -translate-y-1/2"
    role="img" xmlns="http://www.w3.org/2000/svg" viewBox="0 0 448 512">
    <path fill="currentColor"
        d="M48 80V240h96V80H48zM0 80C0 53.5 21.5 32 48 32h96c26.5 0 48 21.5 48 48V240c0 26.5-21.5 48-48 48H48c-26.5 0-48-21.5-48-48V80zM304 272V432h96V272H304zm-48 0c0-26.5 21.5-48 48-48h96c26.5 0 48 21.5 48 48V432c0 26.5-21.5 48-48 48H304c-26.5 0-48-21.5-48-48V272zM144 368H48v64h96V368zM48 320h96c26.5 0 48 21.5 48 48v64c0 26.5-21.5 48-48 48H48c-26.5 0-48-21.5-48-48V368c0-26.5 21.5-48 48-48zM304 80v64h96V80H304zm-48 0c0-26.5 21.5-48 48-48h96c26.5 0 48 21.5 48 48v64c0 26.5-21.5 48-48 48H304c-26.5 0-48-21.5-48-48V80z"></path>
</svg>

<svg xmlns="http://www.w3.org/2000/svg" viewBox="0 0 24 24" width="1em" height="1em"
    fill="currentColor"
    class="h-4 w-4 text-gray-6 dark:text-dark-gray-6 group-hover:text-gray-7 dark:group-hover:text-dark-gray-7">
    <path fill-rule="evenodd"
        d="M6.414 19H10a1 1 0 110 2H4a1 1 0 01-1-1v-6a1 1 0 112 0v3.586l4.293-4.293a1 1 0 011.414 1.414L6.414 19zM17.586 5H14a1 1 0 110-2h6a1 1 0 011 1v6a1 1 0 11-2 0V6.414l-4.293 4.293a1 1 0 01-1.414-1.414L17.586 5z"
        clip-rule="evenodd"></path>
</svg>

<svg aria-hidden="true" focusable="false" data-prefix="far" data-icon="align-left"
    class="svg-inline--fa fa-align-left absolute left-1/2 top-1/2 -translate-x-1/2 -translate-y-1/2"
    role="img" xmlns="http://www.w3.org/2000/svg" viewBox="0 0 448 512">
    <path fill="currentColor"
        d="M24 40C10.7 40 0 50.7 0 64S10.7 88 24 88H264c13.3 0 24-10.7 24-24s-10.7-24-24-24H24zm0 128c-13.3 0-24 10.7-24 24s10.7 24 24 24H424c13.3 0 24-10.7 24-24s-10.7-24-24-24H24zM0 320c0 13.3 10.7 24 24 24H264c13.3 0 24-10.7 24-24s-10.7-24-24-24H24c-13.3 0-24 10.7-24 24zM24 424c-13.3 0-24 10.7-24 24s10.7 24 24 24H424c13.3 0 24-10.7 24-24s-10.7-24-24-24H24z"></path>
</svg>

<svg aria-hidden="true" focusable="false" data-prefix="far" data-icon="bookmark"
    class="svg-inline--fa fa-bookmark absolute left-1/2 top-1/2 -translate-x-1/2 -translate-y-1/2"
    role="img" xmlns="http://www.w3.org/2000/svg" viewBox="0 0 384 512">
    <path fill="currentColor"
        d="M0 48C0 21.5 21.5 0 48 0l0 48V441.4l130.1-92.9c8.3-6 19.6-6 27.9 0L336 441.4V48H48V0H336c26.5 0 48 21.5 48 48V488c0 9-5 17.2-13 21.3s-17.6 3.4-24.9-1.8L192 397.5 37.9 507.5c-7.3 5.2-16.9 5.9-24.9 1.8S0 497 0 488V48z"></path>
</svg>

<svg aria-hidden="true" focusable="false" data-prefix="fas" data-icon="play"
    class="svg-inline--fa fa-play absolute left-1/2 top-1/2 -translate-x-1/2 -translate-y-1/2"
    role="img" xmlns="http://www.w3.org/2000/svg" viewBox="0 0 384 512">
    <path fill="currentColor"
        d="M73 39c-14.8-9.1-33.4-9.4-48.5-.9S0 62.6 0 80V432c0 17.4 9.4 33.4 24.5 41.9s33.7 8.1 48.5-.9L361 297c14.3-8.7 23-24.2 23-41s-8.7-32.2-23-41L73 39z"></path>
</svg>

<svg  aria-hidden="true" width="100%" height="8" fill="none" xmlns="http://www.w3.org/2000/svg"><pattern  id="a" width="91" height="8" patternUnits="userSpaceOnUse"><g  clip-path="url(#clip0_2426_11367)"><path  d="M114 4c-5.067 4.667-10.133 4.667-15.2 0S88.667-.667 83.6 4 73.467 8.667 68.4 4 58.267-.667 53.2 4 43.067 8.667 38 4 27.867-.667 22.8 4 12.667 8.667 7.6 4-2.533-.667-7.6 4s-10.133 4.667-15.2 0S-32.933-.667-38 4s-10.133 4.667-15.2 0-10.133-4.667-15.2 0-10.133 4.667-15.2 0-10.133-4.667-15.2 0-10.133 4.667-15.2 0-10.133-4.667-15.2 0-10.133 4.667-15.2 0-10.133-4.667-15.2 0-10.133 4.667-15.2 0-10.133-4.667-15.2 0-10.133 4.667-15.2 0-10.133-4.667-15.2 0-10.133 4.667-15.2 0-10.133-4.667-15.2 0-10.133 4.667-15.2 0-10.133-4.667-15.2 0-10.133 4.667-15.2 0-10.133-4.667-15.2 0-10.133 4.667-15.2 0-10.133-4.667-15.2 0-10.133 4.667-15.2 0-10.133-4.667-15.2 0-10.133 4.667-15.2 0-10.133-4.667-15.2 0-10.133 4.667-15.2 0" stroke="#E1E3E1" stroke-linecap="square"></path></g></pattern><rect  width="100%" height="100%" fill="url(#a)"></rect></svg>

<svg fill="currentColor"
    class="___12fm75w f1w7gpdv fez10in fg4l7m0" aria-hidden="true" width="20"
    height="20" viewBox="0 0 20 20" xmlns="http://www.w3.org/2000/svg">
    <path
        d="M17 3.5a.5.5 0 1 0-1 0v2.2A8 8 0 0 0 2.84 7.45a.5.5 0 1 0 .9.44 7 7 0 0 1 12-.89H12.5a.5.5 0 0 0 0 1h4a.5.5 0 0 0 .5-.5v-4Zm-6.5 7.63c.4-.7 1.07-1.13 2-1.13.94 0 1.6.44 2 1.13.37.65.5 1.5.5 2.37 0 .86-.13 1.72-.5 2.37-.4.7-1.06 1.13-2 1.13-.93 0-1.6-.44-2-1.13-.37-.65-.5-1.5-.5-2.37 0-.86.13-1.72.5-2.37Zm.87.5A3.87 3.87 0 0 0 11 13.5c0 .8.12 1.44.37 1.87.23.4.57.63 1.13.63.57 0 .9-.23 1.13-.63.25-.43.37-1.08.37-1.87 0-.8-.12-1.44-.37-1.87-.23-.4-.56-.63-1.13-.63-.56 0-.9.23-1.13.63ZM8 10.5a.5.5 0 0 0-.78-.42l-1.5 1a.5.5 0 1 0 .56.84l.72-.49v5.07a.5.5 0 0 0 1 0v-6Z"
        fill="currentColor"></path>
</svg>

<svg
    class="___17001ef f1w7gpdv fez10in fg4l7m0 f64fuq3 fjamq6b"
    fill="currentColor" aria-hidden="true" width="20" height="20"
    viewBox="0 0 20 20" xmlns="http://www.w3.org/2000/svg">
    <path
        d="M12 3a1 1 0 0 0-1.68-.73l-3.88 3.6A.5.5 0 0 1 6.1 6H3.5C2.67 6 2 6.67 2 7.5v5c0 .83.67 1.5 1.5 1.5h2.6a.5.5 0 0 1 .34.13l3.88 3.6a1 1 0 0 0 1.68-.74V3.01ZM7.12 6.6 11 3v14l-3.88-3.6A1.5 1.5 0 0 0 6.1 13H3.5a.5.5 0 0 1-.5-.5v-5c0-.28.22-.5.5-.5h2.6c.38 0 .75-.14 1.02-.4Zm8.14-1.97a.5.5 0 0 1 .7.04 8 8 0 0 1 0 10.66.5.5 0 0 1-.74-.66 7 7 0 0 0 0-9.34.5.5 0 0 1 .04-.7Zm-1.18 8.3a.5.5 0 0 1-.18-.68 4.5 4.5 0 0 0 0-4.5.5.5 0 1 1 .86-.5 5.5 5.5 0 0 1 0 5.5.5.5 0 0 1-.68.18Z"
        fill="currentColor"></path>
</svg>

<svg fill="currentColor"
    class="___12fm75w f1w7gpdv fez10in fg4l7m0" aria-hidden="true" width="20"
    height="20" viewBox="0 0 20 20" xmlns="http://www.w3.org/2000/svg">
    <path
        d="M15.85 1.15a.5.5 0 0 0-.7.7 6.6 6.6 0 0 1 1.72 4.65 6.6 6.6 0 0 1-1.72 4.65.5.5 0 0 0 .7.7 7.6 7.6 0 0 0 2.03-5.35 7.6 7.6 0 0 0-2.03-5.35Zm-2 2a.5.5 0 0 0-.7.7c.63.64.97 1.62.97 2.65 0 1.03-.34 2.01-.97 2.65a.5.5 0 0 0 .7.7 4.76 4.76 0 0 0 1.28-3.35c0-1.22-.41-2.49-1.28-3.35ZM4 7a4 4 0 1 1 8 0 4 4 0 0 1-8 0Zm4-3a3 3 0 1 0 0 6 3 3 0 0 0 0-6ZM1 14a2 2 0 0 1 2-2h10a2 2 0 0 1 2 2c0 1.7-.83 2.97-2.13 3.8A9.14 9.14 0 0 1 8 19a9.14 9.14 0 0 1-4.87-1.2A4.35 4.35 0 0 1 1 14Zm2-1a1 1 0 0 0-1 1c0 1.3.62 2.28 1.67 2.95A8.16 8.16 0 0 0 8 18c1.74 0 3.26-.36 4.33-1.05A3.36 3.36 0 0 0 14 14a1 1 0 0 0-1-1H3Z"
        fill="currentColor"></path>
</svg>


<svg
    fill="currentColor" class="___12fm75w f1w7gpdv fez10in fg4l7m0"
    aria-hidden="true" width="24" height="24" viewBox="0 0 24 24"
    xmlns="http://www.w3.org/2000/svg">
    <path
        d="M18.75 4C20.55 4 22 5.46 22 7.25v9.5c0 1.8-1.46 3.25-3.25 3.25H5.25A3.25 3.25 0 0 1 2 16.75v-9.5a3.25 3.25 0 0 1 3.07-3.24L5.25 4h13.5Zm0 1.5H5.11c-.9.08-1.61.83-1.61 1.75v9.5c0 .97.78 1.75 1.75 1.75h13.5c.97 0 1.75-.78 1.75-1.75v-9.5c0-.97-.78-1.75-1.75-1.75ZM5.5 12c0-3.15 2.71-4.78 5.12-3.4a.75.75 0 0 1-.74 1.3C8.48 9.1 7 10 7 12s1.48 2.9 2.88 2.1a.75.75 0 0 1 .74 1.3c-2.4 1.37-5.12-.26-5.12-3.4Zm7.5 0c0-3.15 2.71-4.78 5.12-3.4a.75.75 0 0 1-.74 1.3c-1.4-.8-2.88.1-2.88 2.1s1.48 2.9 2.88 2.1a.75.75 0 0 1 .74 1.3C15.72 16.78 13 15.15 13 12Z"
        fill="currentColor"></path>
</svg>


<svg
    fill="currentColor" class="___12fm75w f1w7gpdv fez10in fg4l7m0"
    aria-hidden="true" width="20" height="20" viewBox="0 0 20 20"
    xmlns="http://www.w3.org/2000/svg">
    <path
        d="M1.91 7.38A8.5 8.5 0 0 1 3.7 4.3a.5.5 0 0 1 .54-.13l1.92.68a1 1 0 0 0 1.32-.76l.36-2a.5.5 0 0 1 .4-.4 8.53 8.53 0 0 1 3.55 0c.2.04.35.2.38.4l.37 2a1 1 0 0 0 1.32.76l1.92-.68a.5.5 0 0 1 .54.13 8.5 8.5 0 0 1 1.78 3.08c.06.2 0 .4-.15.54l-1.56 1.32a1 1 0 0 0 0 1.52l1.56 1.32a.5.5 0 0 1 .15.54 8.5 8.5 0 0 1-1.78 3.08.5.5 0 0 1-.54.13l-1.92-.68a1 1 0 0 0-1.32.76l-.37 2a.5.5 0 0 1-.38.4 8.53 8.53 0 0 1-3.56 0 .5.5 0 0 1-.39-.4l-.36-2a1 1 0 0 0-1.32-.76l-1.92.68a.5.5 0 0 1-.54-.13 8.5 8.5 0 0 1-1.78-3.08.5.5 0 0 1 .15-.54l1.56-1.32a1 1 0 0 0 0-1.52L2.06 7.92a.5.5 0 0 1-.15-.54Zm1.06 0 1.3 1.1a2 2 0 0 1 0 3.04l-1.3 1.1c.3.79.72 1.51 1.25 2.16l1.6-.58a2 2 0 0 1 2.63 1.53l.3 1.67a7.56 7.56 0 0 0 2.5 0l.3-1.67a2 2 0 0 1 2.64-1.53l1.6.58a7.5 7.5 0 0 0 1.24-2.16l-1.3-1.1a2 2 0 0 1 0-3.04l1.3-1.1a7.5 7.5 0 0 0-1.25-2.16l-1.6.58a2 2 0 0 1-2.63-1.53l-.3-1.67a7.55 7.55 0 0 0-2.5 0l-.3 1.67A2 2 0 0 1 5.81 5.8l-1.6-.58a7.5 7.5 0 0 0-1.24 2.16ZM7.5 10a2.5 2.5 0 1 1 5 0 2.5 2.5 0 0 1-5 0Zm1 0a1.5 1.5 0 1 0 3 0 1.5 1.5 0 0 0-3 0Z"
        fill="currentColor"></path>
</svg>

<svg fill="currentColor"
    class="___12fm75w f1w7gpdv fez10in fg4l7m0" aria-hidden="true" width="20"
    height="20" viewBox="0 0 20 20" xmlns="http://www.w3.org/2000/svg">
    <path
        d="M3 5c0-1.1.9-2 2-2h2a.5.5 0 0 1 0 1H5a1 1 0 0 0-1 1v2a.5.5 0 0 1-1 0V5Zm9.5-1.5c0-.28.22-.5.5-.5h2a2 2 0 0 1 2 2v2a.5.5 0 0 1-1 0V5a1 1 0 0 0-1-1h-2a.5.5 0 0 1-.5-.5Zm-9 9c.28 0 .5.22.5.5v2a1 1 0 0 0 1 1h2a.5.5 0 0 1 0 1H5a2 2 0 0 1-2-2v-2c0-.28.22-.5.5-.5Zm13 0c.28 0 .5.22.5.5v2a2 2 0 0 1-2 2h-2a.5.5 0 0 1 0-1h2a1 1 0 0 0 1-1v-2c0-.28.22-.5.5-.5Z"
        fill="currentColor"></path>
</svg>

<svg viewBox="0 0 61 61" fill="none"
    xmlns="http://www.w3.org/2000/svg">
    <path
        d="M21.2866 10.6899L52.3166 26.8356C54.3402 27.8885 55.127 30.3824 54.0741 32.406C53.6826 33.1583 53.069 33.772 52.3166 34.1634L21.2866 50.3091C19.2631 51.362 16.7692 50.5752 15.7163 48.5517C15.41 47.9629 15.25 47.3089 15.25 46.6452V14.3538C15.25 12.0728 17.0992 10.2236 19.3802 10.2236C19.9491 10.2236 20.5108 10.3411 21.0305 10.5676L21.2866 10.6899Z">
    </path>
</svg>

<svg xmlns="http://www.w3.org/2000/svg" width="4" height="4" version="1.1">
  <line x1="0" x2="2" y1="1" y2="3" stroke="#FF0000" stroke-width="0.5"/>
  <line x1="2" x2="4" y1="3" y2="0" stroke="#FF0000" stroke-width="0.5"/>
</svg>

<svg width="24" height="24" viewBox="0 0 24 24" fill="none" xmlns="http://www.w3.org/2000/svg"
    class="icon-md">
    <path fill-rule="evenodd" clip-rule="evenodd"
        d="M16.7929 2.79289C18.0118 1.57394 19.9882 1.57394 21.2071 2.79289C22.4261 4.01184 22.4261 5.98815 21.2071 7.20711L12.7071 15.7071C12.5196 15.8946 12.2652 16 12 16H9C8.44772 16 8 15.5523 8 15V12C8 11.7348 8.10536 11.4804 8.29289 11.2929L16.7929 2.79289ZM19.7929 4.20711C19.355 3.7692 18.645 3.7692 18.2071 4.2071L10 12.4142V14H11.5858L19.7929 5.79289C20.2308 5.35499 20.2308 4.64501 19.7929 4.20711ZM6 5C5.44772 5 5 5.44771 5 6V18C5 18.5523 5.44772 19 6 19H18C18.5523 19 19 18.5523 19 18V14C19 13.4477 19.4477 13 20 13C20.5523 13 21 13.4477 21 14V18C21 19.6569 19.6569 21 18 21H6C4.34315 21 3 19.6569 3 18V6C3 4.34314 4.34315 3 6 3H10C10.5523 3 11 3.44771 11 4C11 4.55228 10.5523 5 10 5H6Z"
        fill="currentColor"></path>
</svg>

<svg width="24" height="24" viewBox="0 0 24 24" fill="none" class="text-white dark:text-black">
    <path d="M7 11L12 6L17 11M12 18V7" stroke="currentColor" stroke-width="2" stroke-linecap="round"
        stroke-linejoin="round"></path>
</svg>

<svg xmlns="http://www.w3.org/2000/svg" width="24" height="24" fill="none" viewBox="0 0 24 24"
    class="icon-sm shrink-0">
    <path fill="currentColor"
        d="M6.394 4.444c.188-.592 1.024-.592 1.212 0C8.4 8.9 9.1 9.6 13.556 10.394c.592.188.592 1.024 0 1.212C9.1 12.4 8.4 13.1 7.606 17.556c-.188.592-1.024.592-1.212 0C5.6 13.1 4.9 12.4.444 11.606c-.592-.188-.592-1.024 0-1.212C4.9 9.6 5.6 8.9 6.394 4.444m8.716 9.841a.41.41 0 0 1 .78 0c.51 2.865.96 3.315 3.825 3.826.38.12.38.658 0 .778-2.865.511-3.315.961-3.826 3.826a.408.408 0 0 1-.778 0c-.511-2.865-.961-3.315-3.826-3.826a.408.408 0 0 1 0-.778c2.865-.511 3.315-.961 3.826-3.826Zm2.457-12.968a.454.454 0 0 1 .866 0C19 4.5 19.5 5 22.683 5.567a.454.454 0 0 1 0 .866C19.5 7 19 7.5 18.433 10.683a.454.454 0 0 1-.866 0C17 7.5 16.5 7 13.317 6.433a.454.454 0 0 1 0-.866C16.5 5 17 4.5 17.567 1.317"></path>
</svg>


<svg width="24" height="24" viewBox="0 0 24 24" fill="none" xmlns="http://www.w3.org/2000/svg" class="icon-md"><path d="M11 3H7C5.89543 3 5 3.89543 5 5V19C5 20.1046 5.89543 21 7 21H11" stroke="currentColor" stroke-width="2" stroke-linecap="round"></path><path d="M20 12H11M20 12L16 16M20 12L16 8" stroke="currentColor" stroke-width="2" stroke-linecap="round" stroke-linejoin="round"></path></svg>


<svg width="24" height="24" viewBox="0 0 24 24" fill="none" xmlns="http://www.w3.org/2000/svg"
    class="icon-md">
    <path d="M11 3H7C5.89543 3 5 3.89543 5 5V19C5 20.1046 5.89543 21 7 21H11" stroke="currentColor"
        stroke-width="2" stroke-linecap="round"></path>
    <path d="M20 12H11M20 12L16 16M20 12L16 8" stroke="currentColor" stroke-width="2"
        stroke-linecap="round" stroke-linejoin="round"></path>
</svg>

<svg width="24" height="24" viewBox="0 0 24 24" fill="none" xmlns="http://www.w3.org/2000/svg"
    class="icon-md">
    <path
        d="M10.663 6.3872C10.8152 6.29068 11 6.40984 11 6.59007V8C11 8.55229 11.4477 9 12 9C12.5523 9 13 8.55229 13 8V6.59007C13 6.40984 13.1848 6.29068 13.337 6.3872C14.036 6.83047 14.5 7.61105 14.5 8.5C14.5 9.53284 13.8737 10.4194 12.9801 10.8006C12.9932 10.865 13 10.9317 13 11V13C13 13.5523 12.5523 14 12 14C11.4477 14 11 13.5523 11 13V11C11 10.9317 11.0068 10.865 11.0199 10.8006C10.1263 10.4194 9.5 9.53284 9.5 8.5C9.5 7.61105 9.96397 6.83047 10.663 6.3872Z"
        fill="currentColor"></path>
    <path fill-rule="evenodd" clip-rule="evenodd"
        d="M4 5V19C4 20.6569 5.34315 22 7 22H19C19.3346 22 19.6471 21.8326 19.8325 21.5541C20.0179 21.2755 20.0517 20.9227 19.9225 20.614C19.4458 19.4747 19.4458 18.5253 19.9225 17.386C19.9737 17.2637 20 17.1325 20 17V3C20 2.44772 19.5523 2 19 2H7C5.34315 2 4 3.34315 4 5ZM6 5C6 4.44772 6.44772 4 7 4H18V16H7C6.64936 16 6.31278 16.0602 6 16.1707V5ZM7 18H17.657C17.5343 18.6699 17.5343 19.3301 17.657 20H7C6.44772 20 6 19.5523 6 19C6 18.4477 6.44772 18 7 18Z"
        fill="currentColor"></path>
</svg>

<svg width="24" height="24" viewBox="0 0 24 24" fill="none" xmlns="http://www.w3.org/2000/svg"
    class="icon-md">
    <path fill-rule="evenodd" clip-rule="evenodd"
        d="M15.2406 3.48592C15.2405 3.48652 15.2403 3.48713 15.2402 3.48773L14.1838 8.00525H20.0071C21.7333 8.00525 22.6031 10.0263 21.5255 11.3049L21.5232 11.3076L12.2148 22.2732C12.2144 22.2737 12.214 22.2743 12.2135 22.2748C10.8154 23.9308 8.29078 22.4977 8.75937 20.5141C8.75951 20.5135 8.75965 20.5129 8.75979 20.5123L9.81614 15.9948H3.99288C2.26668 15.9948 1.39687 13.9737 2.47446 12.6951L2.47674 12.6924L11.7851 1.7268C11.7856 1.72628 11.786 1.72577 11.7864 1.72526C13.1845 0.0691769 15.7092 1.50223 15.2406 3.48592ZM13.2906 3.04211L11.9496 8.77683C11.8802 9.07364 11.9503 9.38587 12.14 9.62465C12.3297 9.86343 12.6182 10.0026 12.9234 10.0026H19.9972C19.9985 10.0058 19.9993 10.0088 19.9997 10.0113C19.9998 10.0118 19.9998 10.0123 19.9999 10.0127C19.9991 10.0139 19.9979 10.0156 19.9959 10.018C19.9957 10.0182 19.9956 10.0184 19.9954 10.0187L10.7094 20.9579L12.0504 15.2232C12.1198 14.9264 12.0497 14.6141 11.86 14.3754C11.6703 14.1366 11.3818 13.9974 11.0766 13.9974H4.00279C4.0015 13.9942 4.00069 13.9912 4.00029 13.9887C4.0002 13.9882 4.00013 13.9877 4.00009 13.9873C4.00083 13.9861 4.00209 13.9844 4.00407 13.982C4.00424 13.9818 4.00442 13.9816 4.00459 13.9813L13.2906 3.04211Z"
        fill="currentColor"></path>
</svg>

<svg width="24" height="24" viewBox="0 0 24 24" role="presentation">
    <g fill="currentColor" fill-rule="evenodd">
        <path
            d="M6 14c0-1.105.902-2 2.009-2h7.982c1.11 0 2.009.894 2.009 2.006v4.44c0 3.405-12 3.405-12 0V14z"></path>
        <circle cx="12" cy="7" r="4"></circle>
    </g>
</svg>
