<svg width="24" height="24" fill="none" xmlns="http://www.w3.org/2000/svg">
    <path
        d="M16.242 3.054 C 16.584 3.147,16.840 3.395,16.939 3.729 C 17.015 3.987,17.015 4.053,16.937 4.323 C 16.875 4.534,16.775 4.638,13.147 8.270 L 9.421 12.000 13.129 15.710 C 16.006 18.589,16.855 19.460,16.917 19.600 C 17.016 19.819,17.025 20.182,16.938 20.391 C 16.856 20.587,16.619 20.831,16.420 20.924 C 16.182 21.034,15.825 21.025,15.578 20.901 C 15.424 20.824,14.455 19.876,11.255 16.671 C 7.474 12.885,7.124 12.524,7.065 12.343 C 6.983 12.094,6.983 11.906,7.065 11.657 C 7.124 11.476,7.472 11.117,11.232 7.353 C 14.049 4.532,15.391 3.214,15.517 3.147 C 15.748 3.024,16.008 2.990,16.242 3.054 "
        fill="currentColor" stroke="none" fill-rule="evenodd"></path>
</svg>