<svg width="24" height="24" viewBox="0 0 24 24" fill="none" xmlns="http://www.w3.org/2000/svg">
<path d="M3.29999 20.2001V16.7C3.29999 16.3 3.39999 15.9 3.69999 15.6C3.99999 15.3 4.39999 15.2 4.79999 15.2H6.29999V13C6.29999 12.5 6.49999 12.1 6.79999 11.7C7.19999 11.3 7.59999 11.2 8.09999 11.2H11.3V8.70005H9.79999C9.29999 8.70005 8.99999 8.60005 8.69999 8.30005C8.39999 8.00005 8.29999 7.70005 8.29999 7.20005V3.80005C8.29999 3.40005 8.39999 3.00005 8.69999 2.70005C8.99999 2.40005 9.29999 2.30005 9.79999 2.30005H14.3C14.7 2.30005 15.1 2.40005 15.4 2.70005C15.7 3.00005 15.8 3.40005 15.8 3.80005V7.30005C15.8 7.70005 15.7 8.10005 15.4 8.40005C15.1 8.70005 14.7 8.80005 14.3 8.80005H12.8V11.3H16C16.5 11.3 16.9 11.5 17.3 11.8C17.7 12.2 17.8 12.6 17.8 13.1V15.3H19.3C19.7 15.3 20.1 15.4 20.4 15.7C20.7 16 20.8 16.4 20.8 16.8V20.3C20.8 20.7 20.7 21.1 20.4 21.4C20.1 21.7 19.7 21.8 19.3 21.8H14.8C14.4 21.8 14 21.7 13.7 21.4C13.4 21.1 13.3 20.7 13.3 20.3V16.8C13.3 16.4 13.4 16 13.7 15.7C14 15.4 14.4 15.3 14.8 15.3H16.3V13.1C16.3 13 16.3 12.9 16.2 12.9C16.1 12.8 16.1 12.8 16 12.8H8.09999C7.99999 12.8 7.89999 12.8 7.89999 12.9C7.79999 13 7.79999 13 7.79999 13.1V15.3H9.29999C9.69999 15.3 10.1 15.4 10.4 15.7C10.7 16 10.8 16.4 10.8 16.8V20.3C10.8 20.7 10.7 21.1 10.4 21.4C10.1 21.7 9.69999 21.8 9.29999 21.8H4.79999C4.39999 21.8 3.99999 21.7 3.69999 21.4C3.39999 21 3.29999 20.7001 3.29999 20.2001ZM9.69999 7.30005H14.2V3.70005H9.69999V7.30005ZM4.69999 20.3H9.19999V16.8H4.69999C4.69999 16.7 4.69999 20.3 4.69999 20.3ZM14.7 20.3H19.2V16.8H14.7C14.7 16.7 14.7 20.3 14.7 20.3Z" fill="white"/>
</svg>
