<svg width="10" height="10" viewBox="0 0 18 18" fill="none" xmlns="http://www.w3.org/2000/svg">
    <path d="M8 0.577472C8.6188 0.220207 9.3812 0.220207 10 0.577472L15.7942 3.92277C16.413 4.28004 16.7942 4.94029 16.7942 5.65482V12.3454C16.7942 13.06 16.413 13.7202 15.7942 14.0775L10 17.4228C9.3812 17.78 8.6188 17.78 8 17.4228L2.20577 14.0775C1.58697 13.7202 1.20577 13.06 1.20577 12.3454V5.65482C1.20577 4.94029 1.58697 4.28004 2.20577 3.92277L8 0.577472Z"
          fill="#01B088"></path>
    <path d="M11.7613 5.3005C10.2073 4.09031 8.09931 4.06337 6.53179 5.07831L9.33835 7.26387C9.63988 7.49868 9.693 7.93128 9.45723 8.23207L8.49602 9.45834C8.2611 9.76599 7.82713 9.81928 7.52475 9.5776L4.71819 7.39204C4.11712 9.15959 4.65164 11.178 6.20568 12.3882C7.64375 13.5081 9.55873 13.6145 11.0766 12.8217L13.9587 15.0292C14.7551 15.6494 15.7001 15.8228 16.3159 15.0292C16.9385 14.2349 17.7007 13.435 16.9051 12.8217L13.3495 9.97763C13.786 8.29303 13.2226 6.43844 11.7613 5.3005Z"
          fill="white"></path>
</svg>