<svg width="24" height="24" viewBox="0 0 24 24" fill="none" xmlns="http://www.w3.org/2000/svg">
    <path d="M12 2.75C17.1087 2.75 21.25 6.89131 21.25 12C21.25 17.1087 17.1087 21.25 12 21.25C10.171 21.25 8.46754 20.7199 7.03439 19.8049C6.6848 19.5817 6.23473 19.5344 5.83541 19.7139L4.44567 20.3386L4.87608 18.7155C4.97903 18.3272 4.88669 17.9256 4.65482 17.623C3.45947 16.0628 2.75 14.1151 2.75 12C2.75 6.89131 6.89131 2.75 12 2.75Z"
          stroke="#465166" strokeWidth="1.5"/>
    <path d="M9.66623 9.11C9.80223 8.99 9.95023 8.876 10.1102 8.768C10.2742 8.66 10.4502 8.566 10.6382 8.486C10.8262 8.406 11.0302 8.344 11.2502 8.3C11.4702 8.252 11.7082 8.228 11.9642 8.228C12.3122 8.228 12.6282 8.276 12.9122 8.372C13.2002 8.468 13.4462 8.606 13.6502 8.786C13.8542 8.962 14.0122 9.176 14.1242 9.428C14.2362 9.68 14.2922 9.962 14.2922 10.274C14.2922 10.578 14.2482 10.842 14.1602 11.066C14.0722 11.286 13.9622 11.478 13.8302 11.642C13.6982 11.806 13.5522 11.948 13.3922 12.068C13.2362 12.188 13.0882 12.302 12.9482 12.41C12.8082 12.514 12.6862 12.618 12.5822 12.722C12.4822 12.822 12.4222 12.936 12.4022 13.064L12.2642 13.94H11.2502L11.1482 12.962C11.1242 12.774 11.1502 12.61 11.2262 12.47C11.3062 12.326 11.4102 12.196 11.5382 12.08C11.6702 11.96 11.8162 11.846 11.9762 11.738C12.1362 11.626 12.2862 11.506 12.4262 11.378C12.5662 11.246 12.6822 11.1 12.7742 10.94C12.8702 10.776 12.9182 10.582 12.9182 10.358C12.9182 10.214 12.8902 10.086 12.8342 9.974C12.7822 9.858 12.7082 9.76 12.6122 9.68C12.5162 9.596 12.4002 9.532 12.2642 9.488C12.1322 9.444 11.9882 9.422 11.8322 9.422C11.6042 9.422 11.4102 9.448 11.2502 9.5C11.0942 9.548 10.9602 9.604 10.8482 9.668C10.7402 9.728 10.6482 9.784 10.5722 9.836C10.4962 9.884 10.4282 9.908 10.3682 9.908C10.2242 9.908 10.1202 9.848 10.0562 9.728L9.66623 9.11ZM10.8002 16.184C10.8002 16.06 10.8222 15.942 10.8662 15.83C10.9142 15.718 10.9782 15.622 11.0582 15.542C11.1382 15.462 11.2342 15.398 11.3462 15.35C11.4582 15.302 11.5782 15.278 11.7062 15.278C11.8342 15.278 11.9522 15.302 12.0602 15.35C12.1722 15.398 12.2682 15.462 12.3482 15.542C12.4322 15.622 12.4982 15.718 12.5462 15.83C12.5942 15.942 12.6182 16.06 12.6182 16.184C12.6182 16.312 12.5942 16.432 12.5462 16.544C12.4982 16.652 12.4322 16.746 12.3482 16.826C12.2682 16.906 12.1722 16.968 12.0602 17.012C11.9522 17.06 11.8342 17.084 11.7062 17.084C11.5782 17.084 11.4582 17.06 11.3462 17.012C11.2342 16.968 11.1382 16.906 11.0582 16.826C10.9782 16.746 10.9142 16.652 10.8662 16.544C10.8222 16.432 10.8002 16.312 10.8002 16.184Z"
          fill="#465166"/>
</svg>
