<svg xmlns="http://www.w3.org/2000/svg" width="83.023" height="117.594" viewBox="0 0 83.023 117.594">
  <g id="Group_941" data-name="Group 941" transform="translate(-75.262)">
    <path id="Path_5450" data-name="Path 5450" d="M182.919,7.729h-40.7a2.92,2.92,0,0,0-2.92,2.92v10.33h30.638L192.9,43.939V108.6h10a2.978,2.978,0,0,0,2.978-2.978V30.688Z" transform="translate(-49.33 -5.954)" fill="#008cff"/>
    <g id="Group_938" data-name="Group 938" transform="translate(89.97 1.775)">
      <path id="Path_5451" data-name="Path 5451" d="M376.233,167.756l-3.572-3.6V229.1h4.534V170.087A3.306,3.306,0,0,0,376.233,167.756Z" transform="translate(-319.063 -128.231)" fill="#0385dd"/>
      <path id="Path_5452" data-name="Path 5452" d="M146.814,7.729H142.22a2.92,2.92,0,0,0-2.92,2.92V20.98h4.594V10.649A2.92,2.92,0,0,1,146.814,7.729Z" transform="translate(-139.3 -7.729)" fill="#0385dd"/>
      <path id="Path_5453" data-name="Path 5453" d="M332.135,30.688h20.039L329.215,7.729V27.768A2.92,2.92,0,0,0,332.135,30.688Z" transform="translate(-285.596 -7.729)" fill="#0385dd"/>
    </g>
    <path id="Path_5454" data-name="Path 5454" d="M333.809,27.768V12.323l-4.594-4.594V27.768a2.92,2.92,0,0,0,2.92,2.92h4.594A2.92,2.92,0,0,1,333.809,27.768Z" transform="translate(-195.626 -5.954)" fill="#0276c4"/>
    <path id="Path_5455" data-name="Path 5455" d="M85.673,64.556h40.79l23.01,23.01v75.1a2.985,2.985,0,0,1-2.985,2.985H85.812a3.066,3.066,0,0,1-3.066-3.066v-95.1A2.927,2.927,0,0,1,85.673,64.556Z" transform="translate(-5.765 -49.729)" fill="#fff"/>
    <g id="Group_939" data-name="Group 939" transform="translate(76.981 14.827)">
      <path id="Path_5456" data-name="Path 5456" d="M87.349,162.589v-95.1a2.927,2.927,0,0,1,2.927-2.927h-4.6a2.926,2.926,0,0,0-2.927,2.927v95.1a3.066,3.066,0,0,0,3.066,3.066h4.6A3.066,3.066,0,0,1,87.349,162.589Z" transform="translate(-82.746 -64.557)" fill="#d8dce5"/>
      <path id="Path_5457" data-name="Path 5457" d="M276.01,87.566h20.084l-23.01-23.01V84.64A2.926,2.926,0,0,0,276.01,87.566Z" transform="translate(-229.368 -64.556)" fill="#d8dce5"/>
    </g>
    <path id="Path_5458" data-name="Path 5458" d="M277.687,84.64V69.159l-4.6-4.6V84.64a2.926,2.926,0,0,0,2.926,2.927h4.6A2.926,2.926,0,0,1,277.687,84.64Z" transform="translate(-152.387 -49.729)" fill="#c3c8d1"/>
    <path id="Path_5459" data-name="Path 5459" d="M147.607,262.861A27.892,27.892,0,0,0,124,275.873a1.767,1.767,0,0,0,0,1.888,27.919,27.919,0,0,0,47.213,0,1.768,1.768,0,0,0,0-1.888A27.891,27.891,0,0,0,147.607,262.861Z" transform="translate(-37.334 -202.488)" fill="#00c18c"/>
    <g id="Group_940" data-name="Group 940" transform="translate(86.394 60.373)">
      <path id="Path_5460" data-name="Path 5460" d="M128.6,277.761a1.768,1.768,0,0,1,0-1.888A27.9,27.9,0,0,1,149.9,262.958c-.758-.062-1.523-.1-2.3-.1A27.891,27.891,0,0,0,124,275.873a1.767,1.767,0,0,0,0,1.888,27.891,27.891,0,0,0,23.606,13.012c.774,0,1.539-.035,2.3-.1A27.9,27.9,0,0,1,128.6,277.761Z" transform="translate(-123.729 -262.861)" fill="#06ad7f"/>
      <circle id="Ellipse_19" data-name="Ellipse 19" cx="9.127" cy="9.127" r="9.127" transform="translate(14.752 4.83)" fill="#06ad7f"/>
    </g>
    <path id="Path_5461" data-name="Path 5461" d="M192.554,293.015a9.13,9.13,0,0,1,6.83-8.835,9.127,9.127,0,1,0,0,17.67A9.13,9.13,0,0,1,192.554,293.015Z" transform="translate(-86.814 -218.685)" fill="#fff" opacity="0.306"/>
    <path id="Path_5462" data-name="Path 5462" d="M180.5,287.009a10.85,10.85,0,1,0,10.85-10.85A10.861,10.861,0,0,0,180.5,287.009Zm10.85-7.4a7.4,7.4,0,1,1-7.4,7.4A7.413,7.413,0,0,1,191.346,279.6Z" transform="translate(-81.065 -212.732)"/>
    <path id="Path_5463" data-name="Path 5463" d="M116.812,269.921a3.5,3.5,0,0,0,0,3.73,29.641,29.641,0,0,0,50.124,0,3.5,3.5,0,0,0,0-3.73,29.589,29.589,0,0,0-20.8-13.506,1.723,1.723,0,1,0-.492,3.41,26.15,26.15,0,0,1,18.377,11.938.046.046,0,0,1,0,.046,26.2,26.2,0,0,1-44.3,0,.045.045,0,0,1,0-.046A26.15,26.15,0,0,1,138.1,259.826a1.723,1.723,0,1,0-.492-3.41A29.588,29.588,0,0,0,116.812,269.921Z" transform="translate(-31.593 -197.509)"/>
    <path id="Path_5464" data-name="Path 5464" d="M156.562,58.223a1.722,1.722,0,0,0,1.723-1.723V24.687a1.747,1.747,0,0,0-.5-1.218L134.816.5A1.737,1.737,0,0,0,133.6,0H92.889a4.649,4.649,0,0,0-4.643,4.643v8.61h-8.34A4.649,4.649,0,0,0,75.262,17.9v94.915a4.788,4.788,0,0,0,4.782,4.782H140.6a4.707,4.707,0,0,0,4.7-4.7v-8.552h8.283a4.707,4.707,0,0,0,4.7-4.7V64.54a1.723,1.723,0,0,0-3.445,0v35.1a1.258,1.258,0,0,1-1.256,1.256H145.3V37.941a1.743,1.743,0,0,0-.5-1.218L121.832,13.758a1.739,1.739,0,0,0-1.218-.5H91.691V4.643a1.2,1.2,0,0,1,1.2-1.2h38.985V21.767a4.649,4.649,0,0,0,4.644,4.643h18.321V56.5A1.723,1.723,0,0,0,156.562,58.223Zm-17.143-22H123.534a1.2,1.2,0,0,1-1.2-1.2V19.135ZM118.891,16.7V35.02a4.649,4.649,0,0,0,4.643,4.643h18.321v73.23h0a1.257,1.257,0,0,1-1.256,1.256H80.045a1.339,1.339,0,0,1-1.337-1.337V17.9a1.2,1.2,0,0,1,1.2-1.2Zm17.627,6.266a1.2,1.2,0,0,1-1.2-1.2V5.882L152.4,22.965Z"/>
  </g>
</svg>
