<svg id="Layer_1" data-name="Layer 1" xmlns="http://www.w3.org/2000/svg" viewBox="0 0 400 400"><title>Coins SVGs</title><circle cx="200" cy="200" r="122.51" style="fill:#ffde8a"/><path d="M322.51,200a122.51,122.51,0,0,1-245,0S96,137.12,115,201.44c14.41,49,37.48-43.24,72.07,2.88,22.55,30.07,43.24-63.41,77.83-20.17,24.49,30.61,26.6-9.11,40.36,11.53C316.75,213,322.51,200,322.51,200Z" style="fill:#ffce00"/><path d="M322.51,200a122.51,122.51,0,0,1-245,0s24.91,67.06,66.3,30.27c25.94-23.06,36.91,33.47,60.53,0,34.6-49,31.71-8.65,57.66-8.65s17.29-28.83,37.47-14.41C314.47,217.94,322.51,200,322.51,200Z" style="fill:#f9b916"/><path d="M322.51,200a122.51,122.51,0,0,1-245,0s11.53,76.39,75,85,8.64-31.71,46.12-23.06c70.22,16.2,40.36-23.06,63.42-14.42,24.29,9.11,17.29-31.71,31.71-20.17S322.51,200,322.51,200Z" style="fill:#e59e00"/></svg>