<svg width="32" height="10" viewBox="0 0 32 10" fill="none" xmlns="http://www.w3.org/2000/svg">
<path fill-rule="evenodd" clip-rule="evenodd" d="M18.64 0H22.52V2.24H21.72V10H19.16L16.56 4.36V7.76H17.4V10H13.56V7.76H14.36V2.24H13.56V0H17.04L19.52 5.32V2.24H18.64V0ZM8.52 2.24H9.32V7.76H8.52V10H12.52V7.76H11.68V2.24H12.52V0H8.52V2.24ZM31.36 7.76L29.6 3.92L31.16 2.24H31.84V0H28.04V2.16H28.56L26.6 4.24V2.16H27.36V0H23.48V2.24H24.28V7.76H23.48V10H27.36V7.76H26.6V7.04L27.84 5.8L28.68 7.76H28.04V10H32V7.76H31.36ZM5.92 0L7.52 1.68V4.96L5.92 6.6H3.2V7.8H4.08V10H0V7.76H0.8V2.24H0V0H5.92ZM5.16 2.24H3.2V4.4H5.16V2.24Z" fill="#221D1D"/>
</svg>
