<svg id="Livello_1" data-name="Livello 1" xmlns="http://www.w3.org/2000/svg" viewBox="0 0 55.33 61.33"><defs><style>.cls-1{fill:#389cc3}.cls-2{fill:#fcfcfc}.cls-3{fill:#fff}</style></defs><title>Tavola disegno 1</title><path class="cls-1" d="M24.9 58.58a5.82 5.82 0 0 0 5.77 0L50.7 47a5.77 5.77 0 0 0 2.87-5l-.06-23.2a5.78 5.78 0 0 0-2.9-5L30.54 2.24a5.77 5.77 0 0 0-5.77 0l-20 11.63a5.75 5.75 0 0 0-2.87 5L1.93 42a5.81 5.81 0 0 0 2.9 5z"/><path class="cls-2" d="M27.77 55.11a5.61 5.61 0 0 1-2.8-.74L8.42 44.86A5.63 5.63 0 0 1 5.61 40l-.07-19.1A5.66 5.66 0 0 1 8.35 16l16.51-9.55a5.66 5.66 0 0 1 5.63 0L47 15.93a5.65 5.65 0 0 1 2.81 4.86v19.1a5.65 5.65 0 0 1-2.79 4.9L30.6 54.37a5.69 5.69 0 0 1-2.83.74zm-2.36-1.48a4.74 4.74 0 0 0 4.75 0l16.51-9.58A4.75 4.75 0 0 0 49 39.93V20.84a4.79 4.79 0 0 0-2.39-4.12L30.05 7.18a4.79 4.79 0 0 0-4.75 0L8.79 16.77a4.73 4.73 0 0 0-2.37 4.13L6.47 40a4.75 4.75 0 0 0 2.38 4.1z"/><path class="cls-3" d="M33.92 20.06H18.08v19.7h19.29V23.51zm-1.78.81v5.62H22.5v-5.62zM21.69 39v-7.68h11.66V39zm14.87 0h-2.41v-8.49H20.89V39h-2V20.87h2.81v6.43H33v-6.43h.63l3 3z"/><path class="cls-3" d="M23.3 33.33h2.81a.41.41 0 1 0 0-.81H23.3a.41.41 0 0 0 0 .81zM27.32 34.13h-4a.4.4 0 0 0 0 .8h4a.4.4 0 0 0 0-.8zM28.24 34.25a.42.42 0 0 0-.12.28.45.45 0 0 0 .12.29.44.44 0 0 0 .29.11.43.43 0 0 0 .28-.11.45.45 0 0 0 .12-.29.41.41 0 0 0-.69-.28zM31.34 21.67h-2.41v4h2.41zm-.81 3.22h-.8v-2.41h.8z"/></svg>