<svg width="22" height="67" viewBox="0 0 22 67" fill="none" xmlns="http://www.w3.org/2000/svg">
<path d="M3.48929 32.2373C3.34187 32.6572 3.36242 33.0724 3.48961 33.4845C3.48949 33.0688 3.4894 32.653 3.48929 32.2373ZM9.72048 14.907C9.80393 14.5027 9.88736 14.0984 9.97078 13.6941C9.74516 14.0725 9.66438 14.4758 9.72048 14.907ZM8.75571 14.3185C8.8468 13.9072 8.9381 13.4961 9.0292 13.0848C8.82324 13.4752 8.69803 13.8822 8.75571 14.3185ZM14.7171 62.573C14.8416 62.7096 15.052 62.5846 15.067 62.7829C15.0708 62.8336 14.8986 62.9325 15.1017 62.9062C15.1776 62.8963 15.2776 62.9852 15.3355 62.8716C15.3736 62.7965 15.3358 62.7402 15.2932 62.6745C15.1505 62.4542 14.9659 62.4898 14.7171 62.573ZM15.5955 63.91C15.8446 63.4523 15.8575 63.2439 15.6592 63.0736C15.7201 63.3542 15.2267 63.5846 15.5955 63.91ZM4.72398 32.0889C4.59632 32.6877 4.59387 33.2816 4.75809 33.8696C4.7468 33.2761 4.73548 32.6827 4.72398 32.0889ZM19.2647 20.158C19.0449 20.5772 19.0236 21.0287 18.9855 21.4781C19.2263 21.0654 19.3476 20.6308 19.2647 20.158ZM5.31851 34.498C5.24323 32.7805 5.38076 31.0776 5.66337 29.382C5.17916 31.0679 5.03845 32.7732 5.31851 34.498ZM10.0134 16.3174C10.1695 15.4434 10.2619 14.5552 10.5218 13.6989C10.7793 12.8496 11.0775 12.0134 11.3621 11.1755C10.4797 12.7791 10.0171 14.4909 10.0134 16.3174ZM7.34133 15.1723C7.83052 12.9635 8.72957 10.9057 9.74905 8.89242C8.37145 10.7738 7.5964 12.8772 7.34133 15.1723ZM2.12556 34.9427C1.96732 32.0105 2.63733 29.1931 3.37069 26.3839C2.24897 29.1455 1.73037 31.9872 2.12556 34.9427ZM13.8547 21.9561C14.8806 21.2107 15.1469 19.7244 14.4381 18.78C14.2437 18.521 14.0572 18.4392 13.731 18.5784C12.7918 18.9798 11.9757 19.5581 11.2077 20.2197C11.0168 20.3837 11.0437 20.5282 11.1361 20.7217C11.3616 21.1944 11.6904 21.5827 12.079 21.9248C12.7388 22.5056 13.0054 22.5219 13.7473 22.0352C13.7843 22.0109 13.8189 21.9826 13.8547 21.9561ZM16.8872 49.6119C16.9636 49.3052 16.7023 49.049 16.7635 48.7181C17.0117 48.7419 17.0483 48.9454 17.1105 49.1092C17.9093 51.2092 18.6259 53.3325 19.0985 55.5391C19.517 57.4936 20.0161 59.4304 20.4785 61.3754C20.6065 61.9137 20.7231 62.4548 20.8601 62.9905C20.9016 63.1528 21.0671 63.2599 21.1388 63.4264C21.0186 62.8076 20.9399 62.177 20.771 61.5726C20.1771 59.4494 19.6917 57.3009 19.2185 55.1478C18.9027 53.7098 18.5161 52.2937 17.9751 50.9174C17.7229 50.2758 17.4328 49.6278 17.3247 48.8364C17.4449 49.0209 17.5412 49.121 17.5834 49.2409C18.0491 50.5652 18.7342 51.8077 19.0538 53.1855C19.2961 54.23 19.4966 55.2842 19.7381 56.3288C20.0879 57.8415 20.5184 59.3378 20.799 60.8634C20.996 61.9348 21.4663 62.9477 21.4567 64.0865C21.3771 64.0249 21.3138 63.9361 21.2486 63.9354C21.1618 63.9339 21.1711 64.0494 21.1734 64.1135C21.1962 64.7325 21.1984 64.7327 20.6484 64.5309C20.6328 64.9406 20.6328 64.9406 20.9986 64.7473C21.0649 64.8917 20.9486 64.9421 20.8626 64.9652C20.4433 65.0771 20.3407 65.5809 19.9338 65.7022C19.8298 65.7333 19.9088 65.7746 19.9144 65.8253C19.965 66.2907 19.5251 66.8244 19.0692 66.8543C18.9844 66.8597 18.8884 66.8473 18.814 66.811C18.6066 66.7097 18.4137 66.5235 18.2748 66.9123C18.2294 67.0401 18.0455 66.9872 17.9116 66.953C17.1056 66.7462 16.5353 66.1565 15.8719 65.7207C15.1348 65.2365 14.4189 64.7207 13.69 64.2242C11.7744 62.9197 9.87552 61.5918 8.02516 60.1965C6.59211 59.1159 5.15405 58.042 3.79352 56.8706C3.47087 56.5927 3.17236 56.3049 3.38689 55.8162C3.41066 55.7624 3.4475 55.6595 3.45728 55.662C3.80961 55.7482 3.89817 55.4169 4.11089 55.2858C4.58879 54.9908 5.182 54.8941 5.72125 55.0083C6.29538 55.1298 6.85569 55.3668 7.35482 55.6986C7.6711 55.9087 8.0174 56.0692 8.34028 56.2691C8.59731 56.4282 8.9059 56.5512 9.16049 56.7231C9.59997 57.0196 10.1263 57.1332 10.5595 57.4489C10.7669 57.6001 10.9714 57.825 11.2698 57.8416C11.3083 57.7269 11.2353 57.6626 11.1847 57.5949C9.53278 55.3893 7.99284 53.1077 6.53265 50.7706C3.95835 46.6502 2.033 42.2796 1.23238 37.4355C0.354473 32.1241 1.31455 27.1527 3.9617 22.4594C4.55476 21.4082 5.32018 20.4817 6.13527 19.5956C6.26653 19.4528 6.33364 19.316 6.30636 19.1202C5.94068 16.5008 6.34743 13.9748 7.3489 11.5312C8.61379 8.44527 10.5334 5.83828 13.1405 3.72698C14.3701 2.73123 15.6727 1.87671 17.1353 1.26818C18.2806 0.791372 19.4256 0.612266 20.6269 1.0467C21.0259 1.19106 21.2288 1.51839 21.524 1.75826C21.5873 1.8099 21.5225 1.87073 21.4819 1.89907C21.2773 2.04234 21.1552 2.28259 20.9013 2.3696C19.7256 2.77347 18.7577 3.54873 17.6976 4.16165C16.8668 4.64221 16.284 5.39006 15.5535 5.97396C14.0454 7.17915 13.0093 8.75532 12.085 10.4077C11.1178 12.1365 10.5439 13.9918 10.3886 15.9651C10.3761 16.1268 10.3512 16.2876 10.3263 16.4955C10.6109 16.3902 10.873 16.2693 11.1475 16.1958C13.4941 15.5662 15.7506 15.7197 17.892 16.9019C18.3795 17.1711 18.8583 17.5388 19.0372 18.0006C19.1664 18.3352 19.5441 18.4291 19.5694 18.8385C19.5941 19.24 19.6846 19.6466 19.6876 20.0567C19.6905 20.4739 19.5567 20.8718 19.45 21.269C19.3425 21.6699 19.1649 22.0473 18.9107 22.3846C18.6621 22.7138 18.4216 23.0397 18.1037 23.3212C17.1216 24.191 15.9132 24.46 14.6933 24.7136C12.5327 25.1625 10.5819 24.6778 8.8163 23.423C8.536 23.2237 8.40751 23.33 8.26895 23.5719C7.35833 25.1611 6.70463 26.848 6.22522 28.6099C5.33361 31.8872 5.64932 35.1211 6.44973 38.3353C7.19962 41.3469 8.46458 44.1398 10.044 46.8004C11.3362 48.977 12.7471 51.0719 14.2762 53.1861C14.3893 52.5698 14.2821 52.0248 14.2526 51.4824C14.2236 50.9515 14.1542 50.4231 14.2501 49.892C14.2794 49.729 14.319 49.5357 14.5131 49.5261C14.7213 49.5159 14.7225 49.7178 14.7716 49.8736C15.1438 51.0543 15.1678 52.2928 15.3579 53.5032C15.431 53.9687 15.5279 54.4302 15.6224 54.8918C15.6673 55.1117 15.7702 55.3054 16.007 55.5286C15.8813 54.7821 15.7811 54.114 15.6548 53.4511C15.4065 52.1477 15.2837 50.826 15.0973 49.5134C15.0852 49.4269 15.0877 49.3353 15.0997 49.2482C15.1213 49.0912 15.2587 49.0323 15.3796 48.993C15.5448 48.9396 15.5752 49.0974 15.6054 49.2009C15.6485 49.3488 15.6866 49.4836 15.871 49.4994C15.9455 49.3797 15.8707 49.2725 15.8547 49.161C15.8284 48.976 15.8198 48.7834 16.0631 48.7467C16.2627 48.7168 16.4873 48.671 16.5972 48.9285C16.6951 49.1577 16.7984 49.3847 16.8998 49.6127C17.1872 51.0255 17.7881 52.3428 18.0987 53.7485C17.9787 52.5551 17.5448 51.4493 17.2032 50.3185C17.1294 50.074 17.1204 49.7886 16.8872 49.6119Z" fill="#1C4DC7"/>
</svg>
