<?xml version="1.0" encoding="UTF-8"?>
<svg width="136px" height="159px" viewBox="0 0 136 159" version="1.1" xmlns="http://www.w3.org/2000/svg" xmlns:xlink="http://www.w3.org/1999/xlink">
    <!-- Generator: Sketch 44.1 (41455) - http://www.bohemiancoding.com/sketch -->
    <title>Built-in smarts</title>
    <desc>Created with Sketch.</desc>
    <defs></defs>
    <g id="Page-1" stroke="none" stroke-width="1" fill="none" fill-rule="evenodd">
        <g id="Built-in-smarts" fill="#FC9C0C">
            <path d="M39.2087,85.2323 C51.8537,102.8313 53.4597,106.1013 53.4597,113.9033 C53.4877,114.9933 53.9307,116.3273 55.8837,116.3273 L80.4047,116.3273 C81.4987,116.3273 81.8497,115.9643 81.9657,115.8463 C82.4697,115.3223 82.5547,114.3273 82.5427,114.0193 C82.5397,106.0203 84.1517,102.7543 96.8917,85.0373 C96.9407,84.9493 96.9947,84.8653 97.0567,84.7843 C101.8277,78.4263 104.3507,70.8983 104.3507,63.0123 C104.3507,42.9693 88.0447,26.6623 67.9997,26.6623 C47.9547,26.6623 31.6487,42.9693 31.6487,63.0123 C31.6487,70.8973 34.1697,78.4253 38.9407,84.7843 C39.0477,84.9263 39.1377,85.0763 39.2087,85.2323 M55.8837,121.1733 C50.5487,121.1733 48.6127,116.8263 48.6127,113.9033 C48.6127,107.6193 47.6877,105.3223 34.9797,87.6533 C34.8917,87.5343 34.8177,87.4073 34.7567,87.2773 C29.5507,80.1613 26.8027,71.7823 26.8027,63.0123 C26.8027,40.2963 45.2827,21.8153 67.9997,21.8153 C90.7167,21.8153 109.1967,40.2963 109.1967,63.0123 C109.1967,71.8663 106.3957,80.3193 101.0947,87.4763 C88.3107,105.2683 87.3877,107.5683 87.3877,113.9033 C87.4007,114.0863 87.5147,117.0223 85.5037,119.1583 C84.6367,120.0783 83.0497,121.1733 80.4047,121.1733 L55.8837,121.1733 Z" id="Fill-114" stroke="#FC9C0C" stroke-width="2"></path>
            <path d="M51.0339,141.3656 C49.8469,141.3656 48.8089,140.4936 48.6369,139.2856 C48.4469,137.9606 49.3679,136.7336 50.6929,136.5436 L84.6209,131.6976 C85.9479,131.4996 87.1739,132.4286 87.3629,133.7526 C87.5529,135.0776 86.6329,136.3046 85.3059,136.4936 L51.3799,141.3406 C51.2629,141.3576 51.1479,141.3656 51.0339,141.3656" id="Fill-116"></path>
            <path d="M51.0339,151.0595 C49.8469,151.0595 48.8089,150.1865 48.6369,148.9785 C48.4469,147.6535 49.3679,146.4265 50.6929,146.2375 L84.6209,141.3905 C85.9479,141.1945 87.1739,142.1215 87.3629,143.4465 C87.5529,144.7715 86.6329,145.9985 85.3059,146.1875 L51.3799,151.0345 C51.2629,151.0515 51.1479,151.0595 51.0339,151.0595" id="Fill-118"></path>
            <path d="M72.8464,158.3295 L63.1534,158.3295 C62.7134,158.3295 62.2824,158.2095 61.9064,157.9835 L49.7894,150.7115 C49.0604,150.2735 48.6134,149.4845 48.6134,148.6335 L48.6134,131.6725 C48.6134,130.3335 49.6974,129.2485 51.0364,129.2485 C52.3754,129.2485 53.4594,130.3335 53.4594,131.6725 L53.4594,147.2625 L63.8254,153.4825 L71.8434,153.4825 L82.5394,142.7855 L82.5394,131.6725 C82.5394,130.3335 83.6234,129.2485 84.9634,129.2485 C86.3034,129.2485 87.3874,130.3335 87.3874,131.6725 L87.3874,143.7885 C87.3874,144.4315 87.1314,145.0485 86.6764,145.5025 L74.5604,157.6195 C74.1064,158.0735 73.4904,158.3295 72.8464,158.3295" id="Fill-120"></path>
            <path d="M84.9655,134.0956 C84.9165,134.0956 84.8685,134.0946 84.8195,134.0906 C83.4845,134.0116 82.4645,132.8636 82.5445,131.5276 C82.5545,131.2486 82.4695,130.2536 81.9655,129.7296 C81.8495,129.6116 81.4985,129.2486 80.4045,129.2486 L55.8835,129.2486 C53.9305,129.2486 53.4875,130.5826 53.4595,131.7006 C53.4265,133.0166 52.3505,134.0786 51.0365,134.0786 L51.0055,134.0786 C49.6805,134.0626 48.6125,132.9986 48.6125,131.6726 C48.6125,128.7496 50.5485,124.4026 55.8835,124.4026 L80.4045,124.4026 C83.0495,124.4026 84.6365,125.4976 85.5035,126.4176 C87.5145,128.5536 87.4015,131.4886 87.3825,131.8166 C87.3065,133.1026 86.2385,134.0956 84.9655,134.0956" id="Fill-122"></path>
            <path d="M17.1091,65.4384 L2.5691,65.4384 C1.2301,65.4384 0.1461,64.3534 0.1461,63.0154 C0.1461,61.6764 1.2301,60.5914 2.5691,60.5914 L17.1091,60.5914 C18.4491,60.5914 19.5331,61.6764 19.5331,63.0154 C19.5331,64.3534 18.4491,65.4384 17.1091,65.4384" id="Fill-124"></path>
            <path d="M133.4313,65.4384 L118.8903,65.4384 C117.5513,65.4384 116.4673,64.3534 116.4673,63.0154 C116.4673,61.6764 117.5513,60.5914 118.8903,60.5914 L133.4313,60.5914 C134.7703,60.5914 135.8543,61.6764 135.8543,63.0154 C135.8543,64.3534 134.7703,65.4384 133.4313,65.4384" id="Fill-126"></path>
            <path d="M68.0046,14.5453 C66.6646,14.5453 65.5816,13.4603 65.5816,12.1223 L65.5816,2.4283 C65.5816,1.0903 66.6646,0.0053 68.0046,0.0053 C69.3446,0.0053 70.4286,1.0903 70.4286,2.4283 L70.4286,12.1223 C70.4286,13.4603 69.3446,14.5453 68.0046,14.5453" id="Fill-128"></path>
            <path d="M42.5573,21.3681 C41.7193,21.3681 40.9053,20.9341 40.4553,20.1571 L36.8203,13.8621 C36.1513,12.7031 36.5483,11.2211 37.7073,10.5511 C38.8633,9.8811 40.3463,10.2791 41.0183,11.4381 L44.6543,17.7331 C45.3243,18.8921 44.9253,20.3741 43.7663,21.0441 C43.3853,21.2641 42.9683,21.3681 42.5573,21.3681" id="Fill-130"></path>
            <path d="M93.4431,21.3661 C93.0311,21.3661 92.6151,21.2621 92.2341,21.0421 C91.0741,20.3721 90.6761,18.8901 91.3461,17.7311 L94.9811,11.4331 C95.6511,10.2741 97.1341,9.8771 98.2921,10.5461 C99.4521,11.2161 99.8491,12.6971 99.1791,13.8571 L95.5451,20.1541 C95.0941,20.9311 94.2811,21.3661 93.4431,21.3661" id="Fill-132"></path>
            <path d="M23.9255,39.9931 C23.5135,39.9931 23.0965,39.8891 22.7155,39.6691 L12.2225,33.6111 C11.0635,32.9411 10.6645,31.4591 11.3345,30.3001 C12.0045,29.1401 13.4865,28.7431 14.6465,29.4121 L25.1395,35.4711 C26.2985,36.1401 26.6965,37.6221 26.0275,38.7821 C25.5765,39.5591 24.7625,39.9931 23.9255,39.9931" id="Fill-134"></path>
            <path d="M122.5661,96.9423 C122.1541,96.9423 121.7381,96.8383 121.3571,96.6183 L110.8611,90.5593 C109.7011,89.8903 109.3031,88.4083 109.9731,87.2493 C110.6431,86.0883 112.1251,85.6923 113.2841,86.3613 L123.7801,92.4203 C124.9391,93.0893 125.3371,94.5713 124.6681,95.7313 C124.2171,96.5083 123.4041,96.9423 122.5661,96.9423" id="Fill-136"></path>
            <path d="M13.4391,96.9423 C12.6011,96.9423 11.7871,96.5083 11.3371,95.7313 C10.6681,94.5713 11.0651,93.0893 12.2241,92.4203 L22.7181,86.3613 C23.8711,85.6923 25.3571,86.0883 26.0291,87.2493 C26.6991,88.4083 26.3011,89.8903 25.1411,90.5593 L14.6481,96.6183 C14.2671,96.8383 13.8501,96.9423 13.4391,96.9423" id="Fill-138"></path>
            <path d="M112.0778,39.9931 C111.2398,39.9931 110.4258,39.5591 109.9758,38.7821 C109.3068,37.6221 109.7038,36.1401 110.8628,35.4711 L121.3568,29.4121 C122.5098,28.7431 123.9948,29.1401 124.6678,30.3001 C125.3378,31.4591 124.9388,32.9411 123.7798,33.6111 L113.2868,39.6691 C112.9058,39.8891 112.4888,39.9931 112.0778,39.9931" id="Fill-140"></path>
        </g>
    </g>
</svg>