<?xml version="1.0" encoding="UTF-8"?>
<svg width="11px" height="20px" viewBox="0 0 11 20" version="1.1" xmlns="http://www.w3.org/2000/svg" xmlns:xlink="http://www.w3.org/1999/xlink">
    <!-- Generator: Sketch 40.3 (33839) - http://www.bohemiancoding.com/sketch -->
    <title>Group</title>
    <desc>Created with Sketch.</desc>
    <defs></defs>
    <g id="Page-1" stroke="none" stroke-width="1" fill="none" fill-rule="evenodd">
        <g id="Flyout---Mobile-Level-2-open" transform="translate(-19.000000, -16.000000)" fill="#FFFFFF">
            <g id="Group" transform="translate(19.000000, 16.000000)">
                <g id="Group-3">
                    <g id="Group-2">
                        <path d="M11.3196184,7.35589563 L0.490362898,7.35589563 C-0.138873844,7.35589563 -0.649558736,6.75078054 -0.649558736,6.00519231 C-0.649558736,5.25960407 -0.138873844,4.65448898 0.490362898,4.65448898 L11.3196184,4.65448898 C11.9488552,4.65448898 12.4595401,5.25960407 12.4595401,6.00519231 C12.4595401,6.75078054 11.9488552,7.35589563 11.3196184,7.35589563" id="Fill-34" transform="translate(5.904991, 6.005192) scale(1, -1) rotate(45.000000) translate(-5.904991, -6.005192) "></path>
                    </g>
                    <g id="Group-2" transform="translate(6.000000, 14.000000) scale(1, -1) translate(-6.000000, -14.000000) translate(0.000000, 8.000000)">
                        <path d="M11.3196184,7.35589563 L0.490362898,7.35589563 C-0.138873844,7.35589563 -0.649558736,6.75078054 -0.649558736,6.00519231 C-0.649558736,5.25960407 -0.138873844,4.65448898 0.490362898,4.65448898 L11.3196184,4.65448898 C11.9488552,4.65448898 12.4595401,5.25960407 12.4595401,6.00519231 C12.4595401,6.75078054 11.9488552,7.35589563 11.3196184,7.35589563" id="Fill-34" transform="translate(5.904991, 6.005192) scale(1, -1) rotate(45.000000) translate(-5.904991, -6.005192) "></path>
                    </g>
                </g>
            </g>
        </g>
    </g>
</svg>