<svg width="36" height="24" viewBox="0 0 36 24" fill="none" xmlns="http://www.w3.org/2000/svg">
<rect x="0.5" width="35" height="24" rx="4" fill="white"/>
<rect x="1" y="0.5" width="34" height="23" rx="3.5" stroke="black" stroke-opacity="0.1"/>
<path d="M22.8171 12.2873C23.3308 12.2984 23.8474 12.2646 24.359 12.3049C24.8771 12.4015 25.002 13.1859 24.5417 13.4428C24.2276 13.612 23.8545 13.5058 23.514 13.5357H22.8171V12.2873ZM24.656 10.8743C24.7701 11.2771 24.3818 11.6388 23.9938 11.5833H22.8171C22.8254 11.2034 22.801 10.7911 22.8291 10.4312C23.3005 10.4445 23.7762 10.4041 24.2449 10.4523C24.4463 10.5029 24.6148 10.6684 24.656 10.8743ZM27.488 4.90042C27.5099 5.66972 27.4911 6.47968 27.4974 7.26459C27.496 10.4557 27.5005 13.6468 27.4949 16.8381C27.4743 18.0341 26.4144 19.0733 25.2267 19.0971C24.0379 19.102 22.8488 19.0979 21.6598 19.0992V14.2749C22.9553 14.2682 24.2514 14.2884 25.5464 14.2647C26.1471 14.227 26.8051 13.8307 26.8331 13.1696C26.9038 12.5057 26.2778 12.0464 25.6835 11.9739C25.4551 11.968 25.4618 11.9073 25.6835 11.8808C26.2504 11.7583 26.6955 11.1717 26.5287 10.5841C26.3866 9.96618 25.7036 9.72701 25.1355 9.72819C23.9771 9.72032 22.8185 9.72709 21.6601 9.72481C21.6676 8.82416 21.6445 7.92255 21.6725 7.02256C21.7643 5.84819 22.8509 4.87971 24.0219 4.90073C25.1774 4.90055 26.3327 4.90055 27.488 4.90051V4.90042Z" fill="url(#paint0_linear_66_17024)"/>
<path d="M8.56987 7.14441C8.59946 5.95034 9.66389 4.91967 10.85 4.90222C12.0345 4.89857 13.2191 4.90169 14.4035 4.90064C14.4003 8.89572 14.4099 12.8912 14.3986 16.8861C14.353 18.0657 13.3002 19.0767 12.127 19.0976C10.9403 19.1019 9.75348 19.0982 8.56675 19.0994V14.1124C9.71945 14.3847 10.9282 14.5006 12.1042 14.32C12.8071 14.2069 13.5762 13.8617 13.8142 13.1324C13.9893 12.5086 13.8907 11.8521 13.9168 11.2119V9.72503H11.8817C11.8725 10.7084 11.9004 11.6935 11.867 12.6757C11.8121 13.2794 11.2142 13.663 10.6448 13.6425C9.93871 13.65 8.53941 13.1307 8.53941 13.1307C8.53589 11.2883 8.5599 8.98091 8.56987 7.14458V7.14441Z" fill="url(#paint1_linear_66_17024)"/>
<path d="M15.1611 10.325C15.054 10.3477 15.1396 9.96009 15.1122 9.81305C15.1195 8.88335 15.0969 7.95263 15.1246 7.02359C15.2162 5.84425 16.3111 4.87336 17.4868 4.90097H20.9492C20.946 8.89605 20.9556 12.8916 20.9444 16.8864C20.8987 18.066 19.8458 19.077 18.6725 19.0979C17.4858 19.1024 16.299 19.0986 15.1121 19.0997V13.6358C15.9227 14.3009 17.0243 14.4044 18.0341 14.4062C18.7953 14.4059 19.5521 14.2885 20.2914 14.113V13.112C19.4583 13.5272 18.4789 13.7909 17.5554 13.5524C16.9111 13.392 16.4435 12.7694 16.4539 12.1046C16.3793 11.4131 16.7845 10.6832 17.464 10.4776C18.3076 10.2135 19.227 10.4155 20.0177 10.7589C20.1871 10.8476 20.3591 10.9576 20.2914 10.6744V9.88764C18.9689 9.573 17.5614 9.45721 16.2328 9.79951C15.8482 9.908 15.4735 10.0725 15.1611 10.3251V10.325Z" fill="url(#paint2_linear_66_17024)"/>
<defs>
<linearGradient id="paint0_linear_66_17024" x1="21.62" y1="11.6962" x2="27.4606" y2="11.6962" gradientUnits="userSpaceOnUse">
<stop stop-color="#58B03A"/>
<stop offset="1" stop-color="#55B330"/>
</linearGradient>
<linearGradient id="paint1_linear_66_17024" x1="8.44257" y1="12.136" x2="14.3078" y2="12.136" gradientUnits="userSpaceOnUse">
<stop stop-color="#0F6EB6"/>
<stop offset="1" stop-color="#006DBA"/>
</linearGradient>
<linearGradient id="paint2_linear_66_17024" x1="15.1036" y1="11.8343" x2="20.9481" y2="11.8343" gradientUnits="userSpaceOnUse">
<stop stop-color="#DE0D3D"/>
<stop offset="1" stop-color="#E30138"/>
</linearGradient>
</defs>
</svg>
