<svg width="36" height="24" viewBox="0 0 36 24" fill="none" xmlns="http://www.w3.org/2000/svg">
<rect x="0.5" width="35" height="24" rx="4" fill="white"/>
<rect x="1" y="0.5" width="34" height="23" rx="3.5" stroke="black" stroke-opacity="0.1"/>
<path d="M11.3277 5.00195H16.8435C17.6135 5.00195 18.0924 5.62953 17.9127 6.40204L15.3448 17.4274C15.1635 18.1972 14.3926 18.8253 13.6221 18.8253H8.1069C7.33802 18.8253 6.85806 18.1972 7.03768 17.4274L9.60674 6.40204C9.78636 5.62953 10.5568 5.00195 11.3277 5.00195Z" fill="#E21836"/>
<path d="M16.384 5H22.727C23.4969 5 23.1497 5.62758 22.9686 6.40009L20.401 17.4255C20.2209 18.1953 20.2771 18.8234 19.5057 18.8234H13.1627C12.3912 18.8234 11.9138 18.1953 12.095 17.4255L14.6625 6.40009C14.8448 5.62758 15.6137 5 16.384 5Z" fill="#00447C"/>
<path d="M22.4756 5H27.9914C28.7624 5 29.2413 5.62758 29.0602 6.40009L26.4926 17.4255C26.3114 18.1953 25.5399 18.8234 24.769 18.8234H19.2558C18.4844 18.8234 18.0059 18.1953 18.1866 17.4255L20.7546 6.40009C20.9342 5.62758 21.7041 5 22.4756 5Z" fill="#007B84"/>
<path d="M12.7678 8.53314C12.2006 8.53892 12.0331 8.53314 11.9796 8.5205C11.959 8.61824 11.5762 10.3839 11.5752 10.3854C11.4927 10.7426 11.4328 10.9972 11.2291 11.1616C11.1135 11.2572 10.9785 11.3033 10.822 11.3033C10.5705 11.3033 10.4239 11.1784 10.3993 10.9415L10.3946 10.8602C10.3946 10.8602 10.4712 10.3817 10.4712 10.379C10.4712 10.379 10.873 8.77003 10.9449 8.55734C10.9487 8.54524 10.9497 8.53892 10.9507 8.53314C10.1688 8.54 10.0301 8.53314 10.0206 8.5205C10.0154 8.53784 9.99599 8.6376 9.99599 8.6376L9.58581 10.4511L9.55058 10.6049L9.48242 11.108C9.48242 11.2572 9.51173 11.379 9.57008 11.482C9.75695 11.8086 10.29 11.8575 10.5916 11.8575C10.9801 11.8575 11.3446 11.775 11.5909 11.6242C12.0184 11.3716 12.1303 10.9768 12.23 10.6259L12.2763 10.4459C12.2763 10.4459 12.6901 8.77473 12.7604 8.55734C12.7631 8.54524 12.7642 8.53892 12.7678 8.53314ZM14.1758 9.88125C14.076 9.88125 13.8937 9.90545 13.73 9.98571C13.6705 10.0162 13.6143 10.0515 13.5551 10.0865L13.6086 9.89335L13.5793 9.86081C13.232 9.93113 13.1543 9.94054 12.8335 9.98571L12.8066 10.0036C12.7694 10.3124 12.7363 10.5446 12.5982 11.1516C12.5457 11.3753 12.4911 11.6012 12.4364 11.8243L12.4511 11.8527C12.7799 11.8354 12.8796 11.8354 13.1653 11.8401L13.1884 11.8149C13.2247 11.629 13.2294 11.5854 13.3098 11.2089C13.3476 11.0303 13.4264 10.638 13.4652 10.4983C13.5366 10.4653 13.6071 10.4327 13.6743 10.4327C13.8344 10.4327 13.8149 10.5724 13.8087 10.6281C13.8019 10.7215 13.7435 11.0267 13.6837 11.2887L13.6438 11.4579C13.616 11.5828 13.5854 11.7042 13.5576 11.828L13.5697 11.8527C13.8937 11.8354 13.9925 11.8354 14.2692 11.8401L14.3017 11.8149C14.3518 11.5245 14.3664 11.4468 14.4551 11.024L14.4998 10.8297C14.5865 10.4495 14.6301 10.2567 14.5644 10.0997C14.4951 9.92373 14.3286 9.88125 14.1758 9.88125ZM15.7486 10.2793C15.5764 10.3124 15.4666 10.3344 15.3574 10.3487C15.2492 10.366 15.1437 10.3818 14.9772 10.4049L14.964 10.4169L14.9519 10.4264C14.9346 10.5504 14.9225 10.6575 14.8995 10.7835C14.88 10.9138 14.85 11.0618 14.8012 11.2745C14.7634 11.4373 14.744 11.494 14.7224 11.5513C14.7015 11.6086 14.6783 11.6642 14.6359 11.8243L14.6458 11.8391L14.6541 11.8527C14.8097 11.8453 14.9115 11.8401 15.0161 11.8391C15.1205 11.8354 15.2288 11.8391 15.3963 11.8401L15.4109 11.8281L15.4267 11.8149C15.4509 11.6705 15.4545 11.6317 15.4693 11.5612C15.4839 11.4857 15.5092 11.3811 15.5712 11.1017C15.6005 10.9705 15.6332 10.8397 15.6635 10.7058C15.6951 10.5724 15.7282 10.4411 15.7597 10.3098L15.755 10.294L15.7486 10.2793ZM15.7523 9.7426C15.5958 9.65024 15.3212 9.67954 15.1363 9.80713C14.952 9.93216 14.931 10.1096 15.087 10.2032C15.2408 10.293 15.5165 10.2663 15.6997 10.1376C15.8837 10.0099 15.9067 9.83402 15.7523 9.7426ZM16.6987 11.8816C17.0153 11.8816 17.3399 11.7944 17.5842 11.5355C17.7721 11.3255 17.8583 11.013 17.8881 10.8844C17.9853 10.4579 17.9096 10.2588 17.8146 10.1375C17.6702 9.95266 17.415 9.89338 17.1503 9.89338C16.9911 9.89338 16.612 9.9091 16.3158 10.1822C16.1031 10.3791 16.0049 10.6464 15.9456 10.9026C15.8857 11.1637 15.8169 11.6337 16.2491 11.8086C16.3825 11.8659 16.5748 11.8816 16.6987 11.8816ZM16.674 10.9221C16.747 10.5992 16.8332 10.3282 17.0531 10.3282C17.2255 10.3282 17.238 10.5298 17.1613 10.8538C17.1476 10.9258 17.0847 11.1932 16.9996 11.307C16.9402 11.3911 16.8699 11.442 16.7922 11.442C16.769 11.442 16.6315 11.442 16.6293 11.2378C16.6283 11.137 16.6488 11.034 16.674 10.9221ZM18.6796 11.8401L18.7043 11.815C18.7394 11.629 18.7452 11.5853 18.8229 11.2089C18.8618 11.0304 18.9422 10.6381 18.9799 10.4984C19.0515 10.4652 19.1207 10.4326 19.1901 10.4326C19.3491 10.4326 19.3298 10.5723 19.3234 10.628C19.3177 10.7216 19.2593 11.0266 19.1984 11.2886L19.1606 11.4578C19.1317 11.5828 19.1003 11.7041 19.0724 11.828L19.0845 11.8528C19.4096 11.8354 19.5047 11.8354 19.783 11.8401L19.8166 11.815C19.8654 11.5244 19.8786 11.4467 19.97 11.024L20.0135 10.8296C20.1007 10.4494 20.1448 10.2568 20.0802 10.0998C20.0088 9.92377 19.8413 9.88129 19.6906 9.88129C19.5907 9.88129 19.4075 9.90535 19.2447 9.98575C19.1864 10.0163 19.1281 10.0514 19.0708 10.0866L19.1207 9.89339L19.094 9.86072C18.7468 9.93117 18.6675 9.94058 18.3471 9.98575L18.3225 10.0036C18.2837 10.3124 18.2521 10.5445 18.114 11.1516C18.0614 11.3753 18.0068 11.6012 17.9523 11.8244L17.9669 11.8528C18.2962 11.8354 18.3944 11.8354 18.6796 11.8401ZM21.068 11.8527C21.0885 11.7529 21.2099 11.1617 21.211 11.1617C21.211 11.1617 21.3143 10.7278 21.3207 10.7121C21.3207 10.7121 21.3532 10.6669 21.3857 10.649H21.4336C21.8852 10.649 22.3951 10.649 22.7948 10.355C23.0668 10.1533 23.2527 9.85554 23.3357 9.49362C23.3572 9.40489 23.3731 9.29935 23.3731 9.19382C23.3731 9.05521 23.3452 8.91807 23.2648 8.81092C23.061 8.52577 22.6551 8.52053 22.1866 8.51838C22.1851 8.51838 21.9556 8.52053 21.9556 8.52053C21.3559 8.52792 21.1154 8.52577 21.0165 8.51367C21.0082 8.55737 20.9925 8.63507 20.9925 8.63507C20.9925 8.63507 20.7776 9.63076 20.7776 9.63237C20.7776 9.63237 20.2635 11.7493 20.2393 11.8491C20.763 11.8427 20.9777 11.8427 21.068 11.8527ZM21.4661 10.084C21.4661 10.084 21.6945 9.0903 21.6935 9.09406L21.7009 9.04311L21.7041 9.00425L21.7954 9.01366C21.7954 9.01366 22.2665 9.05413 22.2775 9.05521C22.4634 9.12713 22.5401 9.31253 22.4865 9.55453C22.4377 9.77568 22.2943 9.96162 22.11 10.0514C21.9582 10.1275 21.7722 10.1338 21.5807 10.1338H21.4567L21.4661 10.084ZM22.8883 10.9405C22.8279 11.1979 22.7586 11.6679 23.1887 11.8354C23.3258 11.8937 23.4487 11.9111 23.5736 11.9048C23.7055 11.8976 23.8277 11.8315 23.9409 11.7363C23.9306 11.7754 23.9204 11.8145 23.9102 11.8538L23.9297 11.8789C24.2391 11.8659 24.335 11.8659 24.6702 11.8685L24.7006 11.8453C24.7495 11.5576 24.7956 11.2783 24.9228 10.7278C24.9848 10.4642 25.0467 10.2031 25.1102 9.94055L25.1003 9.91165C24.7542 9.97577 24.6617 9.98949 24.3289 10.0367L24.3036 10.0572C24.3002 10.084 24.2967 10.1097 24.2935 10.1354C24.2417 10.0517 24.1667 9.98035 24.051 9.93585C23.9029 9.87763 23.5553 9.95265 23.2564 10.2248C23.0464 10.419 22.9456 10.6852 22.8883 10.9405ZM23.6151 10.9563C23.6892 10.6391 23.7743 10.3708 23.9948 10.3708C24.1342 10.3708 24.2076 10.4994 24.1927 10.7188C24.1808 10.7736 24.1681 10.8312 24.1529 10.8964C24.1308 10.9907 24.1069 11.0841 24.0836 11.1777C24.06 11.2417 24.0324 11.3021 24.0022 11.3422C23.9454 11.4226 23.8105 11.4725 23.7327 11.4725C23.7107 11.4725 23.5746 11.4725 23.5699 11.2719C23.5689 11.172 23.5894 11.0692 23.6151 10.9563ZM27.4105 9.90908L27.3837 9.87856C27.0413 9.94793 26.9793 9.95896 26.6647 10.0014L26.6416 10.0246C26.6405 10.0283 26.6396 10.0341 26.638 10.0394L26.6369 10.0341C26.4027 10.5744 26.4096 10.4579 26.2189 10.8832C26.2178 10.8639 26.2178 10.8518 26.2168 10.8312L26.169 9.90908L26.1391 9.87856C25.7804 9.94793 25.7719 9.95896 25.4406 10.0014L25.4148 10.0246C25.4112 10.0356 25.4112 10.0477 25.409 10.0609L25.4112 10.0656C25.4526 10.2772 25.4427 10.23 25.4842 10.5639C25.5036 10.7278 25.5294 10.8927 25.5487 11.0545C25.5814 11.3254 25.5997 11.4588 25.6396 11.8722C25.4159 12.2414 25.3629 12.3811 25.1476 12.7051L25.149 12.7083L24.9974 12.9482C24.98 12.9734 24.9643 12.9908 24.9423 12.9982C24.9181 13.0101 24.8866 13.0123 24.8429 13.0123H24.7589L24.634 13.4277L25.0624 13.4351C25.314 13.434 25.4721 13.3164 25.5572 13.1583L25.8266 12.6966H25.8223L25.8507 12.6641C26.0319 12.2739 27.4105 9.90908 27.4105 9.90908ZM22.8883 15.3651H22.7065L23.3793 13.1399H23.6025L23.6733 12.9107L23.6802 13.1656C23.6718 13.3232 23.7958 13.4629 24.1214 13.4397H24.498L24.6276 13.0113H24.4859C24.4044 13.0113 24.3666 12.9907 24.3713 12.9466L24.3645 12.6873H23.6671V12.6886C23.4417 12.6933 22.7684 12.7103 22.6321 12.7466C22.4671 12.789 22.2933 12.9141 22.2933 12.9141L22.3616 12.6846H21.7092L21.5733 13.1399L20.8916 15.3991H20.7593L20.6295 15.8245H21.9288L21.8852 15.9663H22.5254L22.5679 15.8245H22.7475L22.8883 15.3651ZM22.3552 13.5921C22.2508 13.621 22.0564 13.7086 22.0564 13.7086L22.2293 13.1399H22.7475L22.6225 13.5543C22.6225 13.5543 22.4624 13.5637 22.3552 13.5921ZM22.3652 14.4045C22.3652 14.4045 22.2024 14.4249 22.0952 14.4491C21.9897 14.4811 21.7918 14.582 21.7918 14.582L21.9703 13.9901H22.4913L22.3652 14.4045ZM22.0748 15.3703H21.5549L21.7056 14.8709H22.2239L22.0748 15.3703ZM23.3268 13.9901H24.0762L23.9685 14.3389H23.2092L23.0952 14.7202H23.7596L23.2565 15.4286C23.2213 15.4806 23.1897 15.499 23.1546 15.5137C23.1194 15.5315 23.0731 15.5525 23.0196 15.5525H22.8353L22.7086 15.9701H23.1907C23.4413 15.9701 23.5894 15.8561 23.6987 15.7064L24.0436 15.2343L24.1177 15.7137C24.1335 15.8035 24.198 15.8561 24.2417 15.8765C24.2899 15.9007 24.3398 15.9423 24.4103 15.9484C24.4858 15.9517 24.5404 15.9542 24.5767 15.9542H24.8136L24.9558 15.4869H24.8624C24.8088 15.4869 24.7164 15.4779 24.7007 15.4611C24.6849 15.4407 24.6849 15.4092 24.6765 15.3613L24.6013 14.8808H24.2936L24.4286 14.7202H25.1864L25.303 14.3389H24.6013L24.7106 13.9901H25.4101L25.5399 13.5601H23.4544L23.3268 13.9901ZM16.9975 15.4674L17.1724 14.8856H17.8913L18.0226 14.4528H17.3031L17.4129 14.0947H18.116L18.2463 13.6756H16.487L16.3594 14.0947H16.7591L16.6525 14.4528H16.2517L16.1189 14.893H16.5185L16.2853 15.6628C16.2539 15.7647 16.3001 15.8036 16.3294 15.8509C16.3594 15.897 16.3898 15.9275 16.4581 15.9448C16.5285 15.9606 16.5768 15.97 16.6424 15.97H17.4528L17.5972 15.4906L17.238 15.5399C17.1686 15.5399 16.9765 15.5316 16.9975 15.4674ZM17.0799 12.682L16.8978 13.0112C16.8588 13.0831 16.8237 13.1278 16.7921 13.1483C16.7643 13.1657 16.7091 13.1729 16.6293 13.1729H16.5342L16.4072 13.5941H16.7229C16.8746 13.5941 16.9912 13.5385 17.0469 13.5107C17.1067 13.4787 17.1224 13.4969 17.1687 13.4523L17.2753 13.3599H18.261L18.3918 12.9214H17.6703L17.7962 12.682H17.0799ZM18.5352 15.4759C18.5184 15.4517 18.5305 15.4091 18.5562 15.3204L18.8256 14.4286H19.784C19.9237 14.4266 20.0246 14.425 20.0902 14.4203C20.1606 14.4129 20.2372 14.3877 20.3207 14.3425C20.4069 14.2952 20.451 14.2453 20.4882 14.1881C20.5298 14.1309 20.5965 14.0059 20.6537 13.8131L20.9924 12.6846L19.9978 12.6904C19.9978 12.6904 19.6915 12.7356 19.5567 12.7854C19.4206 12.8411 19.2262 12.9965 19.2262 12.9965L19.316 12.6872H18.7016L17.8415 15.5399C17.811 15.6507 17.7905 15.7311 17.7858 15.7793C17.7842 15.8314 17.8514 15.8829 17.895 15.9217C17.9465 15.9606 18.0226 15.9542 18.0956 15.9606C18.1723 15.9663 18.2815 15.97 18.4322 15.97H18.9044L19.0493 15.4806L18.6266 15.5205C18.5814 15.5205 18.5488 15.4963 18.5352 15.4759ZM18.9994 13.8263H20.0061L19.9421 14.0269C19.9331 14.0316 19.9116 14.0169 19.8092 14.029H18.9374L18.9994 13.8263ZM19.2011 13.1535H20.2163L20.1433 13.3951C20.1433 13.3951 19.6648 13.3904 19.5881 13.4045C19.251 13.4629 19.054 13.643 19.054 13.643L19.2011 13.1535ZM19.9647 14.6986C19.9563 14.7286 19.9432 14.7469 19.9247 14.7606C19.9043 14.7737 19.8712 14.7785 19.8219 14.7785H19.6784L19.6869 14.5342H19.0903L19.0661 15.7284C19.0651 15.8146 19.0735 15.8645 19.1365 15.9044C19.1996 15.9543 19.3938 15.9606 19.6553 15.9606H20.0292L20.1642 15.5136L19.8387 15.5315L19.7305 15.5378C19.7157 15.5315 19.7016 15.5257 19.6858 15.51C19.6721 15.4964 19.649 15.5047 19.6528 15.4185L19.6553 15.1124L19.9967 15.0983C20.181 15.0983 20.2598 15.0383 20.327 14.9812C20.3911 14.9265 20.4121 14.8636 20.4363 14.7785L20.4936 14.5074H20.0245L19.9647 14.6986Z" fill="#FEFEFE"/>
</svg>
