<svg width="100" height="60" xmlns="http://www.w3.org/2000/svg"><g transform="matrix(1 0 0 -1 0 60)" fill="none" fill-rule="evenodd"><rect fill="#FFF" x=".186" y=".15" width="99.01" height="59.016" rx="4"/><path d="M60.922 33.197c-.266-1.735-1.6-1.735-2.89-1.735h-.734l.515 3.24c.03.195.2.34.4.34h.337c.878 0 1.708 0 2.136-.498.255-.297.333-.738.236-1.347m-.561 4.527h-4.866a.675.675 0 0 1-.668-.567L52.86 24.762a.404.404 0 0 1 .4-.465h2.497c.232 0 .43.168.467.396l.558 3.515a.674.674 0 0 0 .668.567h1.54c3.204 0 5.054 1.54 5.537 4.595.218 1.335.01 2.384-.62 3.119-.692.808-1.918 1.235-3.546 1.235" fill="#0079C1"/><path d="M26.218 33.197c-.266-1.735-1.6-1.735-2.89-1.735h-.734l.515 3.24c.03.195.2.34.4.34h.337c.879 0 1.708 0 2.136-.498.256-.297.333-.738.236-1.347m-.561 4.527H20.79a.675.675 0 0 1-.668-.567l-1.967-12.395a.404.404 0 0 1 .4-.465h2.324c.332 0 .615.24.667.566l.531 3.345a.674.674 0 0 0 .668.567h1.54c3.204 0 5.054 1.54 5.538 4.595.217 1.335.008 2.384-.62 3.119-.693.808-1.92 1.235-3.547 1.235m11.297-8.977c-.226-1.322-1.282-2.21-2.63-2.21-.676 0-1.217.216-1.565.625-.344.405-.474.983-.365 1.625a2.602 2.602 0 0 0 2.611 2.228c.662 0 1.199-.218 1.553-.631.357-.416.498-.997.396-1.637m3.247 4.506h-2.33c-.2 0-.37-.144-.401-.34l-.102-.647-.163.234c-.505.727-1.63.97-2.752.97-2.574 0-4.773-1.937-5.201-4.655-.223-1.356.093-2.652.868-3.556.71-.831 1.725-1.177 2.934-1.177 2.075 0 3.225 1.324 3.225 1.324l-.104-.643a.404.404 0 0 1 .401-.466h2.098c.333 0 .616.24.668.567l1.26 7.923a.404.404 0 0 1-.401.466" fill="#00457C"/><path d="M71.657 28.747c-.226-1.322-1.282-2.21-2.63-2.21-.676 0-1.217.216-1.565.625-.345.405-.474.983-.365 1.625a2.602 2.602 0 0 0 2.611 2.228c.662 0 1.199-.218 1.553-.631.357-.416.498-.997.396-1.637m3.247 4.506h-2.33c-.2 0-.37-.144-.401-.34l-.102-.647-.164.234c-.504.727-1.629.97-2.752.97-2.574 0-4.772-1.937-5.2-4.655-.223-1.356.093-2.652.867-3.556.711-.831 1.726-1.177 2.934-1.177 2.076 0 3.226 1.324 3.226 1.324l-.104-.643a.404.404 0 0 1 .4-.466h2.099c.333 0 .616.24.668.567l1.26 7.923a.404.404 0 0 1-.401.466" fill="#0079C1"/><path d="M52.609 33.253h-2.342a.676.676 0 0 1-.559-.295l-3.23-4.727-1.37 4.542a.677.677 0 0 1-.648.48h-2.3a.403.403 0 0 1-.384-.533l2.578-7.52-2.425-3.4a.403.403 0 0 1 .331-.635h2.34c.22 0 .429.107.555.288l7.788 11.167a.403.403 0 0 1-.333.633" fill="#00457C"/><path d="M77.65 37.384l-1.997-12.622a.404.404 0 0 1 .4-.465h2.009c.332 0 .616.24.667.567l1.97 12.394a.404.404 0 0 1-.401.466H78.05c-.2 0-.37-.144-.401-.34" fill="#0079C1"/></g></svg>
