<svg xmlns="http://www.w3.org/2000/svg" width="31" height="30" viewBox="0 0 31 30" fill="none">
<path fill-rule="evenodd" clip-rule="evenodd" d="M15.2002 0C13.3669 0 11.8669 1.5 11.8669 3.33333C11.8669 5.16667 13.3669 6.66667 15.2002 6.66667C17.0335 6.66667 18.5335 5.16667 18.5335 3.33333C18.5335 1.5 17.0335 0 15.2002 0ZM26.8669 6.66667C28.7002 6.66667 30.2002 5.16667 30.2002 3.33333C30.2002 1.5 28.7002 0 26.8669 0C25.0335 0 23.5335 1.5 23.5335 3.33333C23.5335 5.16667 25.0335 6.66667 26.8669 6.66667ZM3.53353 0C1.7002 0 0.200195 1.5 0.200195 3.33333C0.200195 5.16667 1.7002 6.66667 3.53353 6.66667C5.36686 6.66667 6.86686 5.16667 6.86686 3.33333C6.86686 1.5 5.36686 0 3.53353 0ZM15.2002 11.6667C13.3669 11.6667 11.8669 13.1667 11.8669 15C11.8669 16.8333 13.3669 18.3333 15.2002 18.3333C17.0335 18.3333 18.5335 16.8333 18.5335 15C18.5335 13.1667 17.0335 11.6667 15.2002 11.6667ZM26.8669 11.6667C25.0335 11.6667 23.5335 13.1667 23.5335 15C23.5335 16.8333 25.0335 18.3333 26.8669 18.3333C28.7002 18.3333 30.2002 16.8333 30.2002 15C30.2002 13.1667 28.7002 11.6667 26.8669 11.6667ZM3.53353 11.6667C1.7002 11.6667 0.200195 13.1667 0.200195 15C0.200195 16.8333 1.7002 18.3333 3.53353 18.3333C5.36686 18.3333 6.86686 16.8333 6.86686 15C6.86686 13.1667 5.36686 11.6667 3.53353 11.6667ZM15.2002 23.3333C13.3669 23.3333 11.8669 24.8333 11.8669 26.6667C11.8669 28.5 13.3669 30 15.2002 30C17.0335 30 18.5335 28.5 18.5335 26.6667C18.5335 24.8333 17.0335 23.3333 15.2002 23.3333ZM26.8669 23.3333C25.0335 23.3333 23.5335 24.8333 23.5335 26.6667C23.5335 28.5 25.0335 30 26.8669 30C28.7002 30 30.2002 28.5 30.2002 26.6667C30.2002 24.8333 28.7002 23.3333 26.8669 23.3333ZM3.53353 23.3333C1.7002 23.3333 0.200195 24.8333 0.200195 26.6667C0.200195 28.5 1.7002 30 3.53353 30C5.36686 30 6.86686 28.5 6.86686 26.6667C6.86686 24.8333 5.36686 23.3333 3.53353 23.3333Z" fill="#0F3CC9"></path>
</svg>