<svg xmlns="http://www.w3.org/2000/svg" width="34" height="70" fill="none" xmlns:v="https://vecta.io/nano"><path d="M11.395 63.767c.979-.083 2.021.01 3.125.281 1.104.292 2.073.698 2.906 1.219.708.458.771.979.188 1.563-.75.708-1.656 1.302-2.719 1.781s-2.083.76-3.062.844c-1.062.125-2.156.031-3.281-.281-1.104-.292-2.073-.771-2.906-1.437-.542-.417-.552-.875-.031-1.375.729-.729 1.625-1.323 2.688-1.781s2.094-.729 3.094-.812zM4.801 52.986c.542.813.969 1.771 1.281 2.875s.448 2.146.406 3.125c-.062 1.042-.323 2.094-.781 3.156-.437 1.083-.99 1.979-1.656 2.687-.479.521-.937.51-1.375-.031-.688-.771-1.208-1.719-1.563-2.844s-.479-2.208-.375-3.25c.063-1 .323-2.031.781-3.094.479-1.062 1.073-1.969 1.781-2.719.542-.625 1.042-.594 1.5.094zm15.469 2.219c.938-.333 1.979-.5 3.125-.5 1.167-.021 2.219.125 3.156.438.771.25.948.729.531 1.438-.521.875-1.24 1.677-2.156 2.406-.896.75-1.812 1.302-2.75 1.656-.958.396-2.021.573-3.187.531-1.167-.021-2.229-.25-3.188-.687-.646-.271-.792-.698-.437-1.281.521-.896 1.229-1.708 2.125-2.437s1.823-1.25 2.781-1.562zm-9.094-8.719c.75.625 1.406 1.438 1.969 2.438.583.979.979 1.948 1.188 2.906.208 1 .24 2.073.094 3.219s-.458 2.156-.937 3.031c-.292.646-.739.76-1.344.344-.854-.583-1.594-1.365-2.219-2.344-.625-1-1.021-2.021-1.187-3.062-.187-.979-.198-2.042-.031-3.187.188-1.167.51-2.198.969-3.094.354-.75.854-.833 1.5-.25zm22.813-3.531c-.125 1-.448 2.031-.969 3.094-.521 1.042-1.146 1.906-1.875 2.594-.708.771-1.604 1.375-2.687 1.813-1.062.438-2.125.667-3.187.688-.708.021-1.01-.333-.906-1.062.125-1.042.448-2.073.969-3.094.542-1.021 1.177-1.854 1.906-2.5.708-.687 1.583-1.271 2.625-1.75 1.042-.5 2.063-.792 3.062-.875.792-.062 1.146.302 1.063 1.094zm-18.656-2.812c.958.292 1.896.771 2.813 1.438.938.667 1.698 1.396 2.281 2.188.604.813 1.063 1.781 1.375 2.906.313 1.104.427 2.167.344 3.188-.042.688-.406.979-1.094.875-1.042-.229-2.052-.667-3.031-1.312s-1.729-1.417-2.25-2.312c-.583-.833-1.031-1.802-1.344-2.906-.312-1.125-.417-2.187-.312-3.187.021-.833.427-1.125 1.219-.875zm5.625-7.312c.813.646 1.51 1.469 2.094 2.469.604 1 .99 2 1.156 3 .104.688-.177 1.052-.844 1.094-1.062.063-2.146-.094-3.25-.469-1.104-.396-2.042-.948-2.812-1.656-.771-.646-1.458-1.469-2.063-2.469-.583-1.021-.969-2.031-1.156-3.031-.104-.792.229-1.177 1-1.156 1.021.042 2.073.271 3.156.688 1.083.396 1.99.906 2.719 1.531zm12.906-4.25c.146 1 .094 2.073-.156 3.219-.229 1.125-.615 2.135-1.156 3.031-.521.896-1.25 1.708-2.187 2.438-.917.708-1.865 1.188-2.844 1.438-.687.188-1.083-.083-1.187-.812-.125-.958-.062-2 .188-3.125.25-1.146.646-2.156 1.188-3.031.521-.833 1.219-1.604 2.094-2.312.896-.729 1.813-1.271 2.75-1.625.771-.312 1.208-.052 1.313.781zm-14.687-6.406c.958.333 1.885.865 2.781 1.594.917.708 1.625 1.5 2.125 2.375.354.583.219 1.031-.406 1.344-.958.438-2.031.667-3.219.688-1.167 0-2.229-.187-3.187-.562-.979-.375-1.917-.937-2.812-1.687-.896-.771-1.594-1.594-2.094-2.469-.396-.646-.219-1.104.531-1.375.958-.312 2.01-.458 3.156-.437 1.146 0 2.188.177 3.125.531zm10.625-8.437c.479.917.802 1.958.969 3.125.167 1.146.156 2.208-.031 3.188-.187 1.021-.594 2.031-1.219 3.031-.625.979-1.365 1.76-2.219 2.344-.562.396-1.01.281-1.344-.344-.479-.875-.792-1.885-.937-3.031-.146-1.167-.115-2.24.094-3.219s.604-1.958 1.188-2.937c.604-1 1.271-1.823 2-2.469.625-.5 1.125-.396 1.5.313zm-16.437-.719c1 .167 1.99.552 2.969 1.156 1 .604 1.813 1.313 2.438 2.125.417.521.333.979-.25 1.375-.875.542-1.896.906-3.062 1.094-1.146.167-2.229.115-3.25-.156-.979-.229-1.969-.646-2.969-1.25s-1.812-1.292-2.437-2.062c-.521-.646-.406-1.135.344-1.469.875-.437 1.885-.729 3.031-.875 1.146-.167 2.208-.146 3.188.063zm9.375-9.875c.583.833 1.042 1.823 1.375 2.969.333 1.125.469 2.177.406 3.156-.021 1.021-.271 2.073-.75 3.156-.479 1.063-1.104 1.948-1.875 2.656-.542.5-1.01.458-1.406-.125-.583-.833-1.042-1.802-1.375-2.906-.312-1.125-.427-2.187-.344-3.187.063-.979.313-2 .75-3.062.458-1.062 1.021-1.969 1.688-2.719.542-.604 1.052-.583 1.531.063zM6.114.017c1 .146 2.01.479 3.031 1 1.021.5 1.885 1.094 2.594 1.781.729.708 1.333 1.594 1.813 2.656.5 1.042.802 2.063.906 3.063.042.688-.281 1.021-.969 1-1.042-.042-2.094-.302-3.156-.781A8.25 8.25 0 0 1 7.676 6.83c-.687-.687-1.281-1.562-1.781-2.625-.479-1.062-.781-2.094-.906-3.094C4.947.278 5.322-.087 6.114.017z" fill="#000" fill-opacity=".9"/></svg>