<svg xmlns="http://www.w3.org/2000/svg" width="71.926" height="59.27" viewBox="0 0 71.926 59.27">
  <g id="Group_2029" data-name="Group 2029" transform="translate(-18725.261 17192.985)">
    <path id="Path_1040" data-name="Path 1040" d="M57.425,7.587a16.266,16.266,0,0,0-22.592,0h0l-2.9,3.186L28.75,7.587a16.266,16.266,0,0,0-22.592,0c-6.372,6.082-6.082,16.22,0,22.592l3.186,3.186L31.936,55.957,54.529,33.365l3.186-3.186a16,16,0,0,0-.29-22.592Z" transform="translate(18723.775 -17189.672)" fill="#b7d3f8"/>
    <g id="Group_2028" data-name="Group 2028" transform="translate(18733.18 -17192.986)">
      <path id="Path_1039" data-name="Path 1039" d="M-6.35,58.338A2.532,2.532,0,0,1-8.3,57.5L-32.846,32.958a18.352,18.352,0,0,1,0-25.659,18.352,18.352,0,0,1,25.659,0l1.116,1.116L-4.955,7.3A18.394,18.394,0,0,1,7.874,2h0A18.394,18.394,0,0,1,20.7,7.3h0a18.352,18.352,0,0,1,0,25.659L-3.84,57.5A6.422,6.422,0,0,1-6.35,58.338ZM-20.3,7.578A12.208,12.208,0,0,0-29.22,11.2a12.46,12.46,0,0,0,0,17.85L-6.629,51.644,15.962,29.053a12.208,12.208,0,0,0,3.626-8.925A13.432,13.432,0,0,0,15.962,11.2h0A12.9,12.9,0,0,0,7.037,7.578h0A13.432,13.432,0,0,0-1.888,11.2L-4.4,14.272a2.7,2.7,0,0,1-3.9,0L-11.37,11.2A12.208,12.208,0,0,0-20.3,7.578ZM20.982,9.251Z" transform="translate(38.075 -2)" fill="#0054c6"/>
    </g>
  </g>
</svg>
