<?xml version="1.0" encoding="UTF-8"?>
<svg width="103px" height="103px" viewBox="0 0 103 103" version="1.1" xmlns="http://www.w3.org/2000/svg" xmlns:xlink="http://www.w3.org/1999/xlink">
    <!-- Generator: Sketch 44.1 (41455) - http://www.bohemiancoding.com/sketch -->
    <title>Built for change at scale</title>
    <desc>Created with Sketch.</desc>
    <defs></defs>
    <g id="Page-1" stroke="none" stroke-width="1" fill="none" fill-rule="evenodd">
        <g id="Built-for-change-at-scale" transform="translate(3.000000, 3.000000)">
            <polygon id="Stroke-1" stroke="#0174E0" stroke-width="6" stroke-linecap="round" stroke-linejoin="round" points="0.274 96.868 56.448 96.868 56.448 40.694 0.274 40.694"></polygon>
            <polyline id="Stroke-2" stroke="#0174E0" stroke-width="6" stroke-linecap="round" stroke-linejoin="round" points="96.4478 64.3637 96.4478 70.3637 90.4478 70.3637"></polyline>
            <path d="M78.7803,70 L37.9443,70" id="Stroke-3" stroke="#0174E0" stroke-width="6" stroke-linecap="round" stroke-linejoin="round" stroke-dasharray="11.667,11.667"></path>
            <polyline id="Stroke-4" stroke="#0174E0" stroke-width="6" stroke-linecap="round" stroke-linejoin="round" points="32.1104 70.3637 26.1104 70.3637 26.1104 64.3637"></polyline>
            <path d="M26,52.6962 L26,11.8602" id="Stroke-5" stroke="#0174E0" stroke-width="6" stroke-linecap="round" stroke-linejoin="round" stroke-dasharray="11.667,11.667"></path>
            <polyline id="Stroke-6" stroke="#0174E0" stroke-width="6" stroke-linecap="round" stroke-linejoin="round" points="26.1104 6.0268 26.1104 0.0268 32.1104 0.0268"></polyline>
            <path d="M43.7779,0 L84.6139,0" id="Stroke-7" stroke="#0174E0" stroke-width="6" stroke-linecap="round" stroke-linejoin="round" stroke-dasharray="11.667,11.667"></path>
            <polyline id="Stroke-8" stroke="#0174E0" stroke-width="6" stroke-linecap="round" stroke-linejoin="round" points="90.4478 0.0268 96.4478 0.0268 96.4478 6.0268"></polyline>
            <path d="M96,17.6942 L96,58.5302" id="Stroke-9" stroke="#0174E0" stroke-width="6" stroke-linecap="round" stroke-linejoin="round" stroke-dasharray="11.667,11.667"></path>
            <path d="M56.4478,40.6933 L75.5,20.5" id="Stroke-10" stroke="#0174E0" stroke-width="5" stroke-linecap="round"></path>
            <polygon id="Fill-11" fill="#0174E0" points="68.5586 17.2738 78.8666 27.5828 78.8656 17.2748"></polygon>
        </g>
    </g>
</svg>